<svg height="512pt" viewBox="0 0 512 512" width="512pt" xmlns="http://www.w3.org/2000/svg"><path d="m512 256c0 141.386719-114.613281 256-256 256s-256-114.613281-256-256 114.613281-256 256-256 256 114.613281 256 256zm0 0" fill="#36cd90"/><path d="m511.949219 260.941406c-1.378907 72.867188-33.210938 138.289063-83.289063 184.070313-45.519531 41.597656-106.128906 66.988281-172.660156 66.988281s-127.140625-25.390625-172.660156-66.988281v-20.933594c0-58.308594 47.269531-105.578125 105.582031-105.578125h4.546875l7.5-30.539062c-2-1.851563-3.917969-3.832032-5.738281-5.972657-10.058594-8.578125-18.289063-20.429687-22.070313-36.917969l-21.339844-21.148437c-3.210937-3.050781-5.390624-7.082031-5.921874-11.652344l-1.828126-15.890625c-.949218-8.167968 3.660157-15.738281 10.949219-19.4375l-25.140625-55.222656 83.8125-33.679688c-.960937-3.339843-1.472656-6.839843-1.472656-10.449218 0-22.417969 19.601562-40.578125 43.78125-40.578125 13.691406 0 25.898438 5.816406 33.921875 14.9375l54.617187 54.660156 37.582032 15.109375 129.46875 129.472656c.179687 3.230469.308594 6.480469.359375 9.75zm0 0" fill="#00a753"/><path d="m299.78125 77.585938c0-22.410157-19.601562-40.578126-43.78125-40.578126s-43.78125 18.167969-43.78125 40.578126c0 22.414062 19.601562 40.582031 43.78125 40.582031s43.78125-18.167969 43.78125-40.582031zm0 0" fill="#3c3b41"/><path d="m299.78125 77.589844c0 3.621094-.511719 7.121094-1.472656 10.449218-.949219 3.332032-2.347656 6.5-4.128906 9.429688-7.507813 12.359375-21.789063 20.703125-38.179688 20.703125v-81.160156c24.179688 0 43.78125 18.160156 43.78125 40.578125zm0 0" fill="#171719"/><path d="m309.390625 281.28125h-106.78125l-10.570313 43.046875h127.921876zm0 0" fill="#ffc473"/><path d="m319.960938 324.328125h-63.960938v-43.046875h53.390625zm0 0" fill="#ffaa20"/><path d="m350.894531 174.898438c-3.960937-54.6875-53.703125-85.726563-94.894531-85.726563s-90.933594 31.039063-94.894531 85.726563c-10.660157 1.871093-18.222657 11.210937-17.039063 21.480468l1.835938 15.890625c1.246094 10.78125 11.671875 18.644531 23.167968 17.476563l1.980469-.199219c3.214844 62.773437 61.519531 72.230469 84.949219 75.59375 23.429688-3.363281 81.734375-12.820313 84.949219-75.59375l1.980469.199219c11.496093 1.167968 21.921874-6.695313 23.167968-17.476563l1.832032-15.890625c1.1875-10.269531-6.375-19.609375-17.035157-21.480468zm0 0" fill="#ffdba9"/><path d="m367.929688 196.378906-1.828126 15.890625c-1.25 10.78125-11.671874 18.652344-23.171874 17.480469l-1.980469-.199219c-1.621094 31.648438-17.25 49.75-35.347657 60.339844-17.800781 10.417969-37.980468 13.578125-49.601562 15.25v-215.96875c12.449219 0 25.671875 2.828125 38.179688 8.296875 28.890624 12.609375 53.949218 39.261719 56.710937 77.429688 2.167969.382812 4.21875 1.070312 6.089844 2.03125 7.289062 3.691406 11.898437 11.269531 10.949219 19.449218zm0 0" fill="#ffc473"/><path d="m301.980469 194.761719h-45.980469v54.070312h16.335938v-38.917969h29.644531zm0 0" fill="#ffaa20"/><path d="m203.847656 194.761719h41.246094v15.152343h-41.246094zm0 0" fill="#ffc473"/><path d="m428.660156 424.078125v20.933594c-45.519531 41.597656-106.128906 66.988281-172.660156 66.988281s-127.140625-25.390625-172.660156-66.988281v-20.933594c0-58.308594 47.269531-105.578125 105.582031-105.578125h134.15625c58.3125 0 105.582031 47.269531 105.582031 105.578125zm0 0" fill="#ffdba9"/><path d="m428.660156 424.078125v20.933594c-45.519531 41.597656-106.128906 66.988281-172.660156 66.988281v-193.5h67.078125c58.3125 0 105.582031 47.269531 105.582031 105.578125zm0 0" fill="#ffc473"/><path d="m145.289062 388.5v98.390625c-4.597656-2.210937-9.117187-4.5625-13.558593-7.03125v-91.359375zm0 0" fill="#ffc473"/><path d="m380.269531 388.5v91.359375c-4.441406 2.46875-8.960937 4.820313-13.558593 7.03125v-98.390625zm0 0" fill="#ffaa20"/><path d="m196.855469 423.808594c0-3.933594-4.457031-7.125-9.953125-7.125s-9.949219 3.191406-9.949219 7.125c0 3.9375 4.453125 7.128906 9.949219 7.128906s9.953125-3.191406 9.953125-7.128906zm0 0" fill="#ffc473"/><path d="m335.046875 423.808594c0-3.933594-4.453125-7.125-9.949219-7.125s-9.953125 3.191406-9.953125 7.125c0 3.9375 4.457031 7.128906 9.953125 7.128906s9.949219-3.191406 9.949219-7.128906zm0 0" fill="#ffaa20"/><path d="m256 71.039062-126.117188 50.675782 36.671876 80.570312 16.597656 6.761719 20.414062-61.167969h104.867188l20.414062 61.167969 16.597656-6.761719 36.671876-80.570312zm0 0" fill="#57555c"/><path d="m382.121094 121.71875-25.140625 55.210938-11.539063 25.351562-16.589844 6.769531-20.421874-61.171875h-52.429688v-76.839844l42.308594 17zm0 0" fill="#3c3b41"/></svg>