<?xml version="1.0" encoding="iso-8859-1"?>
<!-- Generator: Adobe Illustrator 19.0.0, SVG Export Plug-In . SVG Version: 6.00 Build 0)  -->
<svg version="1.1" id="Layer_1" xmlns="http://www.w3.org/2000/svg" xmlns:xlink="http://www.w3.org/1999/xlink" x="0px" y="0px"
	 viewBox="0 0 512 512" style="enable-background:new 0 0 512 512;" xml:space="preserve">
<g>
	<path style="fill:#EFBF8B;" d="M332.467,384.924v98.304c0,7.947-3.221,15.136-8.421,20.348c-5.318,5.306-12.697,8.551-20.845,8.421
		c-15.788-0.272-28.259-13.609-28.259-29.408v-97.664l26.364-21.216L332.467,384.924z"/>
	<path style="fill:#EFBF8B;" d="M238.664,384.924v98.304c0,16.238-13.443,29.337-29.811,28.745
		c-15.586-0.545-27.715-13.834-27.715-29.432v-97.617l32.523-16.478L238.664,384.924z"/>
</g>
<g>
	<path style="fill:#E5AE7B;" d="M197.72,482.541v-97.617l18.937-18.472l-8.91-7.483l-26.608,25.955v97.617
		c0,15.598,12.128,28.887,27.715,29.432c3.271,0.118,6.423-0.319,9.377-1.209C206.267,507.095,197.72,495.634,197.72,482.541z"/>
	<path style="fill:#E5AE7B;" d="M291.523,482.549v-97.617l18.937-18.472l-8.91-7.483l-26.609,25.953v97.617
		c0,15.598,12.128,28.887,27.715,29.432c3.271,0.118,6.423-0.319,9.377-1.209C300.07,507.104,291.523,495.642,291.523,482.549z"/>
</g>
<path style="fill:#C0E8F6;" d="M332.467,355.587v29.337h-57.525v-24.339c0-5.01-2.037-9.534-5.318-12.815
	c-3.553-3.553-8.587-5.65-14.094-5.271c-9.582,0.651-16.866,8.966-16.866,18.571v23.853h-57.525v-29.337v-44.095l74.817-35.085
	l76.511,35.085V355.587z"/>
<path style="fill:#EFBF8B;" d="M147.301,195.447l32.408,11.133l1.43,39.653l-17.375,23.202c-9.44,12.614-27.336,15.184-39.949,5.732
	l-44.047-35.413c-7.545-5.65-11.524-14.296-11.524-23.048c0-6.005,1.871-12.045,5.744-17.221c9.522-12.72,27.549-15.302,40.269-5.78
	l20.845,18.038L147.301,195.447z"/>
<g>
	<path style="fill:#E5AE7B;" d="M143.357,275.167L99.31,239.754c-7.545-5.65-11.524-14.295-11.524-23.048
		c0-6.005,1.871-12.045,5.744-17.221c3.499-4.675,8.149-7.973,13.259-9.813c-11.594-4.194-25.03-0.57-32.801,9.813
		c-3.873,5.176-5.744,11.216-5.744,17.221c0,8.753,3.98,17.399,11.524,23.048l44.047,35.413c8.002,5.995,18.126,7.147,26.871,3.972
		C148.124,278.204,145.652,276.887,143.357,275.167z"/>
	<path style="fill:#E5AE7B;" d="M285.755,150.263l31.463,54.858c0,16.712-45.001,61.712-61.712,61.712
		c-8.35,0-15.906-3.387-21.39-8.859c-5.472-5.472-44.142-31.978-44.142-40.34l35.283-67.371l7.355-29.748
		c8.551,3.257,13.194,3.948,22.894,3.948s1.149,3.257,9.7,0L285.755,150.263z"/>
</g>
<path style="fill:#EFBF8B;" d="M429.516,279.846c9.345,12.483,7.604,30.391-4.548,40.174c-12.744,10.28-31.362,7.852-41.086-5.14
	l-51.414-68.647l4.37-28.599l36.728-12.499L429.516,279.846z"/>
<path style="fill:#E5AE7B;" d="M414.319,325.433c-11.015,2.937-23.19-0.876-30.439-10.553l-51.414-68.647l2.475-16.167
	l63.743,84.814C402.725,320.269,408.28,323.834,414.319,325.433z"/>
<circle style="fill:#515260;" cx="380.684" cy="342.405" r="26.056"/>
<path style="fill:#FEE572;" d="M181.139,246.233l-33.838-50.786l7.391-9.878c8.326-11.11,19.021-19.933,31.114-25.985
	c12.081-6.052,25.559-9.321,39.452-9.321v20.833c0,8.362,3.387,15.918,8.859,21.39c5.484,5.472,13.04,8.859,21.39,8.859
	c16.712,0,30.249-13.537,30.249-30.249v-20.833h2.594c27.774,0,53.913,13.087,70.565,35.306l14.651,19.566l-41.098,41.098v65.259
	H181.139V246.233z"/>
<path style="fill:#E5AE7B;" d="M332.858,70.909c0.201,2.215,0.296,4.465,0.296,6.739c0,33.186-20.821,61.505-50.111,72.614
	c-8.551,3.257-17.837,5.034-27.537,5.034s-18.986-1.777-27.537-5.034c-29.29-11.109-50.111-39.428-50.111-72.614
	c0-2.274,0.095-4.524,0.296-6.739c0.722,0.107,1.457,0.154,2.215,0.154l62.508-12.136l87.778,12.136
	C331.401,71.063,332.136,71.016,332.858,70.909z"/>
<path style="fill:#666666;" d="M322.222,37.9l-53.289,9.972L188.79,37.9C202.339,15.207,227.14,0,255.506,0
	S308.673,15.207,322.222,37.9z"/>
<g>
	<path style="fill:#515260;" d="M135.848,160.531c4.205,13.763-3.541,28.33-17.304,32.535c-13.751,4.205-28.319-3.541-32.535-17.292
		c-4.205-13.763,3.541-28.33,17.304-32.547C117.064,139.023,131.632,146.769,135.848,160.531z"/>
	<path style="fill:#515260;" d="M85.062,246.588c4.205,13.762-3.541,28.33-17.292,32.535c-13.763,4.205-28.33-3.529-32.547-17.292
		c-4.205-13.763,3.541-28.33,17.304-32.547C66.289,225.08,80.857,232.826,85.062,246.588z"/>
	<circle style="fill:#515260;" cx="451.865" cy="272.408" r="26.056"/>
</g>
<path style="fill:#AAD6E2;" d="M342.381,42.756c2.996,3.008,4.856,7.154,4.856,11.725c0,8.421-6.265,15.361-14.378,16.427
	c-0.722,0.107-1.457,0.154-2.203,0.154H180.369c-0.758,0-1.492-0.047-2.215-0.154c-3.695-0.486-7.012-2.191-9.511-4.702
	c-2.996-2.996-4.856-7.142-4.856-11.725c0-9.155,7.426-16.581,16.581-16.581h8.421h133.432h8.433
	C335.227,37.9,339.372,39.76,342.381,42.756z"/>
<path style="fill:#EFBF8B;" d="M335.109,77.648c0,33.186-20.81,61.505-50.099,72.614c-4.453,1.694-9.108,2.985-13.916,3.837
	c-4.809-0.841-9.463-2.144-13.917-3.837h-0.012c-29.29-11.109-50.111-39.428-50.111-72.614c0-2.274,0.095-4.524,0.296-6.739
	c0.722,0.107,1.469,0.154,2.215,0.154l59.148-15.634l63.897,15.634c0.746,0,1.48-0.047,2.203-0.154
	C335.014,73.124,335.109,75.374,335.109,77.648z"/>
<path style="fill:#7D7878;" d="M324.177,37.9l-55.394,11.192L217.985,37.9c11.335-18.974,30.533-32.713,53.096-36.692
	C293.643,5.188,312.842,18.926,324.177,37.9z"/>
<path style="fill:#C0E8F6;" d="M349.191,54.482c0,8.421-6.265,15.361-14.378,16.427c-0.722,0.107-1.457,0.154-2.203,0.154H211.388
	c-0.746,0-1.492-0.047-2.215-0.154c-3.683-0.486-7-2.191-9.511-4.702c-2.996-2.996-4.856-7.142-4.856-11.725
	c0-9.155,7.426-16.581,16.581-16.581h121.221c4.584,0,8.729,1.859,11.725,4.856C347.331,45.765,349.191,49.91,349.191,54.482z"/>
<g>
	<circle style="fill:#999999;" cx="118.911" cy="165.127" r="9.475"/>
	<circle style="fill:#999999;" cx="69.167" cy="250.402" r="9.475"/>
	<circle style="fill:#999999;" cx="458.829" cy="264.615" r="9.475"/>
	<circle style="fill:#999999;" cx="387.766" cy="333.309" r="9.475"/>
</g>
<polygon style="fill:#AAD6E2;" points="197.72,307.264 197.72,384.924 181.139,384.924 181.139,311.492 "/>
<path style="fill:#EAD26C;" d="M181.139,246.059v65.434h16.581V262.64C197.72,253.483,190.297,246.059,181.139,246.059
	L181.139,246.059z"/>
<path style="fill:#AAD6E2;" d="M261.891,342.452c16.372,0,29.644,13.272,29.644,29.644v12.816l-0.036,0.012h-16.558v-24.339
	c0-5.01-2.037-9.534-5.318-12.815c-3.281-3.281-7.817-5.318-12.827-5.318L261.891,342.452L261.891,342.452z"/>
<g>
</g>
<g>
</g>
<g>
</g>
<g>
</g>
<g>
</g>
<g>
</g>
<g>
</g>
<g>
</g>
<g>
</g>
<g>
</g>
<g>
</g>
<g>
</g>
<g>
</g>
<g>
</g>
<g>
</g>
</svg>
