<svg height="512pt" viewBox="0 0 512 512" width="512pt" xmlns="http://www.w3.org/2000/svg"><path d="m256 0c141.386719 0 256 114.613281 256 256 0 81.992188-38.546875 154.980469-98.507812 201.835938-43.429688 33.9375-98.101563-84.167969-157.492188-84.167969s-114.0625 118.105469-157.492188 84.167969c-59.960937-46.855469-98.507812-119.84375-98.507812-201.835938 0-141.386719 114.613281-256 256-256zm0 0" fill="#ff8900"/><path d="m512 256c0-1.09375-.027344-2.179688-.039062-3.265625l-178.023438-178.019531c-16.789062-19.089844-42.089844-31.246094-70.394531-31.246094h-15.085938c-50.546875 0-91.523437 38.753906-91.523437 86.558594v22.445312c-.894532 1.347656-1.742188 2.742188-2.574219 4.160156-3.53125 2.667969-6.363281 5.101563-8.484375 7.078126-4.324219 4.027343-4.566406 10.804687-.539062 15.128906.300781.324218.613281.621094.945312.898437l5.285156 4.511719c-1.054687 2.796875-1.5 5.863281-1.15625 9.027344l1.730469 15.988281c.648437 6.011719 3.96875 11.113281 8.640625 14.273437l5.371094 59.957032 23.847656 21.601562h-30.769531c-33.421875 0-60.71875 27.332032-60.71875 60.710938v92.019531c.085937.070313.175781.136719.261719.203125 2.546874 1.980469 5.140624 3.902344 7.757812 5.789062v.019532c42.058594 30.300781 93.675781-75.816406 149.46875-75.816406 59.394531 0 114.0625 103.75 157.492188 69.8125 59.960937-46.855469 98.507812-119.84375 98.507812-201.835938zm0 0" fill="#c06100"/><path d="m256 69.003906s-108.757812-3.898437-97.410156 130.085938l7.566406 84.40625h179.6875l7.566406-84.40625c11.347656-133.988282-97.410156-130.085938-97.410156-130.085938zm0 0" fill="#3c3b41"/><path d="m353.410156 199.089844-7.566406 84.410156h-89.84375v-214.5s108.757812-3.898438 97.410156 130.089844zm0 0" fill="#2a2a2c"/><path d="m216.300781 284.746094h79.394531v93.085937h-79.394531zm0 0" fill="#ffc473"/><path d="m256 284.746094h39.699219v93.085937h-39.699219zm0 0" fill="#ffaa20"/><path d="m345.519531 171.664062c-3.738281-55.019531-50.660156-86.246093-89.519531-86.246093s-85.78125 31.226562-89.519531 86.246093c-10.054688 1.882813-17.191407 11.28125-16.070313 21.613282l1.730469 15.988281c1.175781 10.84375 11.011719 18.757813 21.855469 17.582031l1.867187-.203125c22.203125 57.796875 58.03125 72.675781 80.136719 76.054688 22.101562-3.378907 57.929688-18.261719 80.132812-76.054688l1.871094.203125c10.84375 1.175782 20.679688-6.738281 21.855469-17.582031l1.730469-15.988281c1.121094-10.332032-6.015625-19.730469-16.070313-21.613282zm0 0" fill="#ffdba9"/><path d="m361.589844 193.277344-1.734375 15.992187c-1.175781 10.839844-11.003907 18.75-21.847657 17.574219l-1.867187-.199219c-22.207031 57.796875-58.035156 72.675781-80.140625 76.054688v-217.277344c38.863281 0 85.777344 31.226563 89.515625 86.242187 10.058594 1.886719 17.195313 11.28125 16.074219 21.613282zm0 0" fill="#ffc473"/><path d="m159.722656 190.972656s56.160156-.828125 96.277344-44.574218h.003906c40.113282 43.746093 96.273438 44.574218 96.273438 44.574218 0-44.941406.003906-128.214844-96.273438-128.214844-96.28125 0-96.28125 83.269532-96.28125 128.214844zm0 0" fill="#57555c"/><path d="m352.28125 190.972656s-14.042969-.210937-33.101562-5.878906c-19.050782-5.683594-43.121094-16.820312-63.179688-38.691406v-83.648438c96.28125 0 96.28125 83.277344 96.28125 128.21875zm0 0" fill="#3c3b41"/><path d="m304.933594 197.816406h-48.933594v57.546875h17.382812v-41.417969h31.550782zm0 0" fill="#ffaa20"/><path d="m204.011719 197.816406h41.683593v16.132813h-41.683593zm0 0" fill="#ffc473"/><path d="m355.066406 156.777344-68.105468-13.089844c-20.453126-3.933594-41.46875-3.933594-61.921876 0l-68.105468 13.089844v-26.75c0-47.804688 40.976562-86.558594 91.523437-86.558594h15.085938c50.546875 0 91.523437 38.753906 91.523437 86.558594zm0 0" fill="#fff"/><path d="m355.058594 130.027344v26.746094l-68.09375-13.089844c-10.234375-1.957032-20.597656-2.949219-30.964844-2.949219v-97.265625h7.539062c50.550782 0 91.519532 38.753906 91.519532 86.558594zm0 0" fill="#fff5cb"/><path d="m256 100.121094s-74.238281 6.359375-102.800781 58.523437c0 0 45.117187-25.722656 102.800781-25.722656s102.800781 25.722656 102.800781 25.722656c-28.5625-52.164062-102.800781-58.523437-102.800781-58.523437zm0 0" fill="#ff3d62"/><path d="m358.804688 158.640625s-.617188-.351563-1.792969-.96875c-.539063-.277344-1.1875-.617187-1.949219-1-11.933594-6.023437-51.171875-23.753906-99.0625-23.753906v-32.789063s68.28125 5.847656 99.0625 52.335938c1.328125 1.976562 2.578125 4.042968 3.742188 6.175781zm0 0" fill="#e7001f"/><path d="m358.820312 182.253906c-2.371093 0-4.757812-.785156-6.742187-2.398437-17.222656-13.984375-45.921875-32.582031-96.078125-32.582031-56.644531 0-87.441406 24.574218-95.53125 32.105468-4.328125 4.03125-11.101562 3.789063-15.128906-.539062-4.03125-4.328125-3.789063-11.101563.539062-15.128906 12.222656-11.382813 47.417969-37.847657 110.121094-37.847657 43.359375 0 78.179688 11.875 109.578125 37.371094 4.589844 3.726563 5.289063 10.46875 1.5625 15.058594-2.117187 2.605469-5.207031 3.960937-8.320313 3.960937zm0 0" fill="#fff"/><path d="m367.136719 178.289062c-2.113281 2.613282-5.207031 3.964844-8.3125 3.964844-2.371094 0-4.765625-.785156-6.746094-2.394531-17.222656-13.988281-45.917969-32.582031-96.078125-32.582031v-21.414063c38.574219 0 70.394531 9.394531 99.058594 29.4375.652344.441407 1.300781.90625 1.949218 1.371094 2.890626 2.074219 5.746094 4.261719 8.570313 6.558594 4.59375 3.734375 5.285156 10.46875 1.558594 15.058593zm0 0" fill="#fff5cb"/><path d="m147.371094 389.089844v98.78125c-17.449219-8.191406-33.832032-18.292969-48.859375-30.042969v-68.738281zm0 0" fill="#ff3d62"/><path d="m413.488281 389.089844v68.738281c-15.027343 11.75-31.410156 21.851563-48.859375 30.042969v-98.78125zm0 0" fill="#e7001f"/><path d="m413.488281 365.808594v28.5625h-48.859375v93.5c-10.660156 5-21.71875 9.289062-33.128906 12.800781-23.859375 7.367187-49.21875 11.328125-75.5 11.328125s-51.640625-3.960938-75.5-11.328125c-11.410156-3.511719-22.46875-7.800781-33.128906-12.800781v-93.5h-48.859375v-28.5625c0-33.378906 27.296875-60.707032 60.71875-60.707032h57.070312l39.699219 65.230469 39.699219-65.230469h57.332031c33.296875.148438 60.457031 27.417969 60.457031 60.707032zm0 0" fill="#fff"/><path d="m413.488281 365.808594v28.5625h-48.859375v93.5c-10.660156 5-21.71875 9.289062-33.128906 12.800781-23.859375 7.367187-49.21875 11.328125-75.5 11.328125v-141.671875l39.699219-65.226563h57.332031c33.296875.148438 60.457031 27.417969 60.457031 60.707032zm0 0" fill="#fff5cb"/><path d="m241.199219 346.011719v165.566406c-3.878907-.21875-7.730469-.527344-11.558594-.917969v-183.640625zm0 0" fill="#e1e1e3"/><path d="m282.339844 327.050781v183.609375c-3.828125.390625-7.679688.699219-11.558594.917969v-165.527344zm0 0" fill="#c8c6cc"/><path d="m310.335938 305.101562h-14.632813l-39.703125 65.246094-39.699219-65.246094h-14.632812l40.234375 74.964844c6.035156 11.246094 22.160156 11.246094 28.199218 0zm0 0" fill="#ff3d62"/><path d="m158.910156 305.101562v187.828126c-3.898437-1.589844-7.738281-3.28125-11.539062-5.058594v-93.5h-.019532v-88.089844c3.738282-.761719 7.609376-1.160156 11.558594-1.179688zm0 0" fill="#e1e1e3"/><path d="m200.058594 305.101562v200.757813c-3.886719-.859375-7.738282-1.820313-11.558594-2.859375v-197.898438zm0 0" fill="#e1e1e3"/><path d="m323.488281 305.101562v197.898438c-3.816406 1.039062-7.667969 2-11.558593 2.871094v-200.769532zm0 0" fill="#c8c6cc"/><path d="m364.628906 306.28125v181.589844c-3.800781 1.777344-7.648437 3.480468-11.558594 5.070312v-187.839844c3.949219.019532 7.820313.417969 11.558594 1.179688zm0 0" fill="#c8c6cc"/><path d="m119.828125 319.710938v74.660156h-11.558594v-61.460938c3.199219-4.941406 7.101563-9.378906 11.558594-13.199218zm0 0" fill="#e1e1e3"/><path d="m403.730469 332.910156v61.460938h-11.558594v-74.652344c4.457031 3.800781 8.359375 8.25 11.558594 13.191406zm0 0" fill="#c8c6cc"/><path d="m310.328125 305.101562-40.226563 74.96875c-3.023437 5.621094-8.5625 8.429688-14.101562 8.429688v-18.148438l39.699219-65.25zm0 0" fill="#e7001f"/></svg>