<svg height="512pt" viewBox="0 0 512 512" width="512pt" xmlns="http://www.w3.org/2000/svg"><path d="m512 256c0 141.386719-114.613281 256-256 256s-256-114.613281-256-256 114.613281-256 256-256 256 114.613281 256 256zm0 0" fill="#00bb64"/><path d="m511.496094 271.839844-216.636719-215.871094c-9.773437-10.265625-23.5625-16.671875-38.859375-16.671875-25.320312 0-46.535156 17.539063-52.191406 41.128906-32.4375 18.097657-38.519532 54.757813-39.65625 88.222657-9.328125 2.523437-15.761719 11.554687-14.691406 21.445312l1.75 16.132812c.519531 4.808594 2.730468 9.039063 5.976562 12.175782l28.507812 28.132812c7.410157 13.316406 15.625 23.441406 23.984376 31.132813l7.523437 7.609375v44.433594h-55.78125c-32.652344 0-59.332031 26.707031-59.332031 59.328124v71.519532c2.03125 1.535156 4.097656 3.027344 6.175781 4.5v.027344c41.738281 29.546874 92.707031 46.914062 147.734375 46.914062 136.0625 0 247.316406-106.15625 255.496094-240.160156zm0 0" fill="#008c4a"/><path d="m309.6875 92.984375c0 29.648437-24.035156 53.683594-53.6875 53.683594-29.648438 0-53.683594-24.035157-53.683594-53.683594 0-29.652344 24.035156-53.6875 53.683594-53.6875 29.652344 0 53.6875 24.035156 53.6875 53.6875zm0 0" fill="#c06100"/><path d="m309.683594 92.984375c0 29.644531-24.035156 53.683594-53.683594 53.683594v-107.367188c29.648438 0 53.683594 24.035157 53.683594 53.683594zm0 0" fill="#9a4c00"/><path d="m217.203125 277.726562h77.59375v59.335938h-77.59375zm0 0" fill="#ffc473"/><path d="m256 277.726562h38.800781v59.335938h-38.800781zm0 0" fill="#ffaa20"/><path d="m346.320312 168.289062c-3.769531-55.515624-51.113281-87.023437-90.320312-87.023437s-86.550781 31.507813-90.320312 87.023437c-10.148438 1.898438-17.347657 11.382813-16.21875 21.804688l1.75 16.132812c1.183593 10.941407 11.105468 18.925782 22.050781 17.742188l1.882812-.203125c22.402344 58.3125 58.554688 73.324219 80.855469 76.734375 22.300781-3.410156 58.453125-18.425781 80.855469-76.734375l1.882812.203125c10.945313 1.183594 20.867188-6.796875 22.050781-17.742188l1.75-16.132812c1.128907-10.425781-6.070312-19.90625-16.21875-21.804688zm0 0" fill="#ffdba9"/><path d="m362.535156 190.097656-1.746094 16.132813c-1.1875 10.941406-11.105468 18.921875-22.046874 17.734375l-1.882813-.199219c-22.40625 58.3125-58.554687 73.328125-80.859375 76.738281v-219.234375c39.210938 0 86.550781 31.507813 90.320312 87.019531 10.148438 1.902344 17.347657 11.382813 16.214844 21.808594zm0 0" fill="#ffc473"/><path d="m163.886719 191s92.113281 8.25 133.933593-47.546875c0 0 4.390626 11.699219 13.179688 24.878906 12 18 37.109375 22.667969 37.109375 22.667969 0-50.132812.003906-122-92.109375-122s-92.113281 71.863281-92.113281 122zm0 0" fill="#e67500"/><path d="m348.109375 191s-25.109375-4.671875-37.109375-22.671875c-8.789062-13.179687-13.179688-24.878906-13.179688-24.878906-11.230468 14.992187-26.089843 25.351562-41.820312 32.5v-106.949219c92.109375 0 92.109375 71.871094 92.109375 122zm0 0" fill="#c06200"/><path d="m305.375 194.675781h-49.375v58.0625h17.539062v-41.789062h31.835938zm0 0" fill="#ffaa20"/><path d="m203.546875 194.675781h42.058594v16.273438h-42.058594zm0 0" fill="#ffc473"/><path d="m409.910156 389.039062v71.519532c-12.058594 9.101562-24.949218 17.152344-38.53125 24.019531-34.667968 17.542969-73.867187 27.421875-115.378906 27.421875s-80.710938-9.878906-115.378906-27.421875c-13.582032-6.867187-26.472656-14.917969-38.53125-24.019531v-71.519532c0-32.617187 26.679687-59.328124 59.332031-59.328124h189.40625c32.53125.148437 59.082031 26.800781 59.082031 59.328124zm0 0" fill="#ffdba9"/><path d="m409.910156 389.039062v71.519532c-12.058594 9.101562-24.949218 17.152344-38.53125 24.019531-34.667968 17.542969-73.867187 27.421875-115.378906 27.421875v-182.289062h94.828125c32.53125.148437 59.082031 26.800781 59.082031 59.328124zm0 0" fill="#ffc473"/><path d="m371.378906 426.191406v58.386719c-34.667968 17.542969-73.867187 27.421875-115.378906 27.421875s-80.710938-9.878906-115.378906-27.421875v-58.386719s27.140625-38.160156 32.917968-96.480468h36.199219s2.351563 59.179687 46.261719 75.257812c43.910156-16.078125 46.261719-75.257812 46.261719-75.257812h36.199219c5.777343 58.320312 32.917968 96.480468 32.917968 96.480468zm0 0" fill="#fff"/><path d="m162.5 392.328125v102.050781c-7.46875-2.929687-14.769531-6.199218-21.878906-9.800781v-69.386719l13.917968-14.542968v-.007813zm0 0" fill="#fdc000"/><path d="m371.378906 426.191406v58.386719c-34.667968 17.542969-73.867187 27.421875-115.378906 27.421875v-107.03125c43.910156-16.078125 46.261719-75.257812 46.261719-75.257812h36.199219c5.777343 58.320312 32.917968 96.480468 32.917968 96.480468zm0 0" fill="#fff5cb"/><path d="m313.691406 458.261719c0 4.539062-.671875 8.714843-2.011718 12.53125-1.339844 3.816406-3.199219 7.117187-5.570313 9.902343-2.371094 2.785157-5.191406 4.949219-8.457031 6.496094s-6.792969 2.324219-10.570313 2.324219c-3.851562 0-7.394531-.773437-10.625-2.324219-3.234375-1.546875-6.035156-3.710937-8.40625-6.496094-2.371093-2.785156-4.230469-6.085937-5.570312-9.902343-1.339844-3.816407-2.007813-7.992188-2.007813-12.53125 0-4.539063.667969-8.714844 2.007813-12.53125 1.34375-3.816407 3.199219-7.117188 5.570312-9.902344 2.371094-2.785156 5.171875-4.96875 8.40625-6.550781 3.230469-1.578125 6.773438-2.371094 10.625-2.371094 3.777344 0 7.304688.792969 10.570313 2.371094 3.265625 1.582031 6.085937 3.765625 8.457031 6.550781s4.230469 6.085937 5.570313 9.902344c1.339843 3.816406 2.011718 7.992187 2.011718 12.53125zm-13.925781 0c0-2.75-.308594-5.277344-.925781-7.582031-.621094-2.300782-1.496094-4.277344-2.632813-5.929688-1.132812-1.648438-2.472656-2.921875-4.019531-3.816406-1.546875-.890625-3.25-1.339844-5.109375-1.339844-1.925781 0-3.660156.449219-5.207031 1.339844-1.546875.894531-2.886719 2.167968-4.023438 3.816406-1.132812 1.652344-2.007812 3.628906-2.628906 5.929688-.617188 2.304687-.929688 4.832031-.929688 7.582031s.3125 5.261719.929688 7.527343c.621094 2.269532 1.496094 4.230469 2.628906 5.882813 1.136719 1.648437 2.476563 2.921875 4.023438 3.8125 1.546875.894531 3.28125 1.34375 5.207031 1.34375 1.859375 0 3.558594-.449219 5.109375-1.34375 1.546875-.890625 2.886719-2.164063 4.019531-3.8125 1.136719-1.652344 2.011719-3.613281 2.632813-5.882813.617187-2.265624.925781-4.777343.925781-7.527343zm0 0" fill="#ff9a00"/><path d="m201.359375 489.511719c0-3.230469.25-6.15625.753906-8.78125.5-2.621094 1.378907-5.046875 2.640625-7.273438 1.253906-2.226562 2.976563-4.308593 5.171875-6.25 2.1875-1.9375 4.972657-3.839843 8.347657-5.710937 2.945312-1.578125 5.550781-2.960938 7.8125-4.148438 2.265624-1.183594 4.148437-2.277344 5.65625-3.285156 1.511718-1.003906 2.660156-2.03125 3.449218-3.070312.789063-1.042969 1.1875-2.246094 1.1875-3.609376 0-2.15625-.863281-4.003906-2.589844-5.550781-1.722656-1.542969-4.199218-2.316406-7.433593-2.316406-1.722657 0-3.304688.234375-4.742188.699219-1.4375.46875-2.785156 1.097656-4.039062 1.886718-1.257813.789063-2.410157 1.667969-3.449219 2.636719-1.039062.972657-1.992188 1.996094-2.855469 3.074219l-9.265625-10.667969c.933594-1.007812 2.261719-2.101562 3.988282-3.289062 1.722656-1.183594 3.75-2.296875 6.085937-3.339844 2.332031-1.039063 4.921875-1.902344 7.757813-2.585937 2.839843-.683594 5.875-1.023438 9.105468-1.023438 3.664063 0 6.929688.449219 9.804688 1.347656 2.875.898438 5.300781 2.152344 7.273437 3.769532 1.976563 1.617187 3.484375 3.558593 4.527344 5.820312 1.039063 2.261719 1.5625 4.722656 1.5625 7.382812 0 2.515626-.46875 4.738282-1.402344 6.679688-.933593 1.941406-2.117187 3.664062-3.554687 5.171875s-3 2.820313-4.6875 3.933594c-1.691406 1.113281-3.324219 2.101562-4.902344 2.960937-1.292969.71875-2.765625 1.546875-4.417969 2.480469-1.65625.933594-3.289062 1.957031-4.90625 3.070313-1.613281 1.113281-3.105469 2.261718-4.46875 3.449218-1.367187 1.183594-2.410156 2.351563-3.125 3.5h32.648438v13.039063zm0 0" fill="#fdc000"/><path d="m371.378906 415.191406v69.386719c-7.109375 3.601563-14.410156 6.871094-21.878906 9.800781v-102.050781l7.960938 8.320313zm0 0" fill="#ff9a00"/><path d="m254.003906 410.421875 1.996094.730469 1.996094-.730469c41.164062-15.074219 48.542968-66.417969 49.8125-80.710937h-13.011719s-.910156 53.375-38.796875 69.023437c-37.773438-15.605469-38.796875-69.023437-38.796875-69.023437h-13.011719c1.269532 14.292968 8.648438 65.636718 49.8125 80.710937zm0 0" fill="#ffdb2d"/><path d="m307.808594 329.710938c-1.269532 14.289062-8.648438 65.640624-49.808594 80.710937l-2 .726563v-12.417969c37.890625-15.640625 38.800781-69.019531 38.800781-69.019531zm0 0" fill="#fdc000"/><path d="m140.621094 415.1875v24.839844c7.105468-11.914063 31.085937-55.441406 37.675781-110.316406h-11.707031c-4.472656 35.304687-16.652344 66.074218-25.96875 85.476562zm0 0" fill="#ffdb2d"/><path d="m371.375 415.1875v24.839844c-7.101562-11.914063-31.085938-55.441406-37.675781-110.316406h11.707031c4.476562 35.304687 16.652344 66.074218 25.96875 85.476562zm0 0" fill="#fdc000"/></svg>