<svg height="512pt" viewBox="0 0 512 512" width="512pt" xmlns="http://www.w3.org/2000/svg"><path d="m512 256c0 141.386719-114.613281 256-256 256s-256-114.613281-256-256 114.613281-256 256-256 256 114.613281 256 256zm0 0" fill="#ffe670"/><path d="m512 256c0-9.785156-.570312-19.4375-1.636719-28.9375l-152.066406-152.066406c-11.8125-13.792969-29.34375-22.542969-48.929687-22.542969h-106.734376c-35.578124 0-64.417968 28.839844-64.417968 64.417969v24.136718h-5.242188c-9.898437 0-17.921875 8.027344-17.921875 17.925782v53.367187c0 5.074219 2.109375 9.652344 5.496094 12.910157l17.777344 16.828124c.863281 14.625 7.316406 27.746094 17.261719 37.253907l32.648437 32.597656h-39.433594c-36.992187 0-67.230469 30.269531-67.230469 67.242187v64.222657c.445313.414062.886719.828125 1.332032 1.242187.59375.539063 1.183594 1.082032 1.777344 1.617188.457031.410156.917968.8125 1.375 1.21875.855468.753906 1.707031 1.511718 2.570312 2.257812v.015625c44.878906 38.8125 103.386719 62.292969 167.375 62.292969 141.386719 0 256-114.613281 256-256zm0 0" fill="#ffd400"/><path d="m144.628906 230.226562h-11.65625c-9.898437 0-17.921875-8.027343-17.921875-17.925781v-53.367187c0-9.902344 8.023438-17.925782 17.921875-17.925782h11.65625zm0 0" fill="#005ed3"/><path d="m367.371094 230.226562h11.65625c9.898437 0 17.921875-8.027343 17.921875-17.925781v-53.367187c0-9.902344-8.023438-17.925782-17.921875-17.925782h-11.65625zm0 0" fill="#002d6b"/><path d="m206.652344 264.605469h98.691406v62.535156h-98.691406zm0 0" fill="#c06100"/><path d="m256 264.605469h49.347656v62.535156h-49.347656zm0 0" fill="#9a4c00"/><path d="m353.910156 147.785156c-4.089844-60.179687-55.410156-94.332031-97.910156-94.332031s-93.820312 34.152344-97.910156 94.332031c-10.996094 2.058594-18.804688 12.335938-17.578125 23.640625l1.890625 17.484375c1.285156 11.863282 12.042968 20.519532 23.90625 19.234375l2.042968-.222656c24.285157 63.210937 63.472657 79.488281 87.648438 83.183594 24.175781-3.695313 63.363281-19.972657 87.648438-83.183594l2.042968.222656c11.863282 1.285157 22.621094-7.371093 23.90625-19.234375l1.890625-17.484375c1.226563-11.304687-6.578125-21.582031-17.578125-23.640625zm0 0" fill="#e67500"/><path d="m343.648438 207.921875 2.042968.222656c11.863282 1.285157 22.621094-7.371093 23.90625-19.234375l1.890625-17.484375c1.226563-11.304687-6.578125-21.582031-17.578125-23.640625-4.089844-60.179687-55.410156-94.332031-97.910156-94.332031v237.652344c24.175781-3.699219 63.363281-19.972657 87.648438-83.183594zm0 0" fill="#c06200"/><path d="m309.523438 176.390625h-53.523438v62.941406h19.015625v-45.300781h34.507813zm0 0" fill="#9a4c00"/><path d="m199.140625 176.390625h45.589844v17.640625h-45.589844zm0 0" fill="#c06100"/><path d="m430.429688 379.128906v64.25c-45.71875 42.570313-107.03125 68.621094-174.429688 68.621094s-128.710938-26.050781-174.429688-68.621094v-64.25c0-36.96875 30.238282-67.238281 67.230469-67.238281h214.667969c36.871094.167969 66.960938 30.371094 66.960938 67.238281zm0 0" fill="#e67500"/><path d="m430.429688 379.128906v64.25c-45.71875 42.570313-107.03125 68.621094-174.429688 68.621094v-200.109375h107.46875c36.871094.167969 66.960938 30.371094 66.960938 67.238281zm0 0" fill="#c06100"/><path d="m148.019531 390.078125v98.09375c-4.320312-2.011719-8.570312-4.132813-12.75-6.382813v-91.710937zm0 0" fill="#c06200"/><path d="m376.730469 390.078125v91.710937c-4.179688 2.25-8.429688 4.371094-12.75 6.382813v-98.09375zm0 0" fill="#9a4c00"/><path d="m201.472656 437.183594c0-3.628906-4.109375-6.570313-9.175781-6.570313s-9.175781 2.941407-9.175781 6.570313 4.109375 6.570312 9.175781 6.570312 9.175781-2.941406 9.175781-6.570312zm0 0" fill="#c06200"/><path d="m328.878906 437.183594c0-3.628906-4.109375-6.570313-9.175781-6.570313s-9.175781 2.941407-9.175781 6.570313 4.109375 6.570312 9.175781 6.570312 9.175781-2.941406 9.175781-6.570312zm0 0" fill="#9a4c00"/><path d="m309.367188 52.453125h-106.734376c-35.578124 0-64.417968 28.839844-64.417968 64.417969v121.804687c0 31.035157 25.160156 56.195313 56.195312 56.195313 14.628906 0 26.488282-11.855469 26.488282-26.484375v-8.8125c0-8.453125-4.035157-16.394531-10.859376-21.382813l-8.605468-6.289062c-9.828125-7.183594-15.640625-18.628906-15.640625-30.804688v-50.601562c0-11.707032 9.492187-21.199219 21.199219-21.199219h98.015624c11.707032 0 21.199219 9.492187 21.199219 21.199219v50.601562c0 12.175782-5.8125 23.621094-15.640625 30.804688l-8.605468 6.289062c-6.824219 4.988282-10.855469 12.933594-10.855469 21.382813v8.8125c0 14.628906 11.855469 26.484375 26.484375 26.484375 31.039062 0 56.199218-25.160156 56.199218-56.195313v-121.804687c-.003906-35.578125-28.84375-64.417969-64.421874-64.417969zm0 0" fill="#006ef5"/><path d="m373.789062 116.871094v121.800781c0 15.519531-6.289062 29.566406-16.460937 39.738281-10.167969 10.167969-24.21875 16.460938-39.738281 16.460938-14.628906 0-26.488282-11.859375-26.488282-26.480469v-8.8125c0-8.457031 4.039063-16.398437 10.859376-21.386719l8.609374-6.292968c9.828126-7.179688 15.640626-18.628907 15.640626-30.796876v-50.601562c0-11.710938-9.492188-21.199219-21.199219-21.199219h-49.011719v-76.851562h53.371094c35.570312 0 64.417968 28.839843 64.417968 64.421875zm0 0" fill="#004eb2"/><path d="m213.332031 73.667969h85.332031v32.878906h-85.332031zm0 0" fill="#00a6ff"/><path d="m256 73.671875h42.671875v32.867187h-42.671875zm0 0" fill="#08f"/></svg>