<svg height="512pt" viewBox="0 0 512 512" width="512pt" xmlns="http://www.w3.org/2000/svg"><path d="m512 256c0 141.386719-114.613281 256-256 256s-256-114.613281-256-256 114.613281-256 256-256 256 114.613281 256 256zm0 0" fill="#36cd90"/><path d="m333.390625 91.953125c-5.902344-9.175781-13.75-17.550781-24.132813-24.0625l-10.414062-10.386719c-10.429688-11.945312-25.757812-19.503906-42.867188-19.503906-20.5 0-38.449218 10.847656-48.46875 27.105469-54.539062 29-46.160156 106.523437-46.160156 106.523437s.054688-.125.144532-.324218c0 .09375-.003907.191406-.007813.285156-9.273437 2.765625-15.605469 11.867187-14.53125 21.8125l1.789063 16.511718c.527343 4.863282 2.746093 9.148438 6 12.34375l29.535156 29.324219c4.671875 8.335938 9.652344 15.453125 14.785156 21.511719v39.78125l20.8125 20.875v2.519531h-50.644531c-29.960938 0-54.441407 24.5-54.441407 54.429688v78.84375c.597657.394531 1.191407.789062 1.789063 1.179687.648437.421875 1.292969.84375 1.941406 1.261719 39.714844 25.332031 86.882813 40.015625 137.480469 40.015625 136.800781 0 248.53125-107.304688 255.636719-242.335938zm0 0" fill="#00a753"/><path d="m312.890625 312.875h-113.828125v-217.960938c0-31.433593 25.480469-56.914062 56.914062-56.914062 31.433594 0 56.914063 25.480469 56.914063 56.914062zm0 0" fill="#3c3b41"/><path d="m312.890625 94.910156v217.96875h-56.890625v-274.878906c15.710938.011719 29.921875 6.371094 40.21875 16.671875 10.300781 10.296875 16.671875 24.527344 16.671875 40.238281zm0 0" fill="#171719"/><path d="m219.875 285.25h72.25v55.25h-72.25zm0 0" fill="#ffc473"/><path d="m256 285.25h36.125v55.25h-36.125zm0 0" fill="#ffaa20"/><path d="m348.449219 171.085938c-3.859375-56.824219-52.320313-89.070313-92.449219-89.070313s-88.585938 32.25-92.449219 89.070313c-10.382812 1.941406-17.753906 11.648437-16.597656 22.320312l1.789063 16.507812c1.210937 11.203126 11.371093 19.375 22.570312 18.160157l1.929688-.207031c22.929687 59.683593 59.929687 75.050781 82.757812 78.542968 22.824219-3.492187 59.828125-18.859375 82.757812-78.542968l1.929688.207031c11.199219 1.214843 21.359375-6.957031 22.570312-18.160157l1.789063-16.507812c1.152344-10.671875-6.214844-20.378906-16.597656-22.320312zm0 0" fill="#ffdba9"/><path d="m365.042969 193.40625-1.785157 16.515625c-1.214843 11.195313-11.367187 19.363281-22.566406 18.148437l-1.929687-.207031c-22.933594 59.691407-59.933594 75.058594-82.761719 78.546875v-224.394531c40.132812 0 88.585938 32.25 92.445312 89.070313 10.386719 1.945312 17.757813 11.648437 16.597657 22.320312zm0 0" fill="#ffc473"/><path d="m306.535156 198.09375h-50.535156v59.429688h17.953125v-42.773438h32.582031zm0 0" fill="#ffaa20"/><path d="m202.3125 198.09375h43.046875v16.65625h-43.046875zm0 0" fill="#ffc473"/><path d="m161.347656 187.820312s55.210938-.8125 94.652344-43.824218h.003906c39.4375 43.011718 94.648438 43.824218 94.648438 43.824218 0-44.183593.003906-126.050781-94.648438-126.050781-94.65625 0-94.65625 81.863281-94.65625 126.050781zm0 0" fill="#57555c"/><path d="m350.648438 187.816406s-13.804688-.203125-32.53125-5.777344c-18.738282-5.582031-42.398438-16.535156-62.117188-38.042968v-82.226563c94.65625 0 94.648438 81.871094 94.648438 126.046875zm0 0" fill="#3c3b41"/><path d="m161.347656 171.628906s16.042969-89.613281 94.652344-89.613281 94.515625 89.613281 94.515625 89.613281 12.820313-117.296875-94.511719-117.296875c-107.335937 0-94.65625 117.296875-94.65625 117.296875zm0 0" fill="#00a6ff"/><path d="m350.511719 171.628906s-15.902344-89.617187-94.511719-89.617187v-27.683594c107.339844 0 94.511719 117.300781 94.511719 117.300781zm0 0" fill="#006ef5"/><path d="m397.210938 390.699219v78.859375c-40.480469 26.820312-89.019532 42.441406-141.210938 42.441406s-100.730469-15.621094-141.210938-42.441406v-78.859375c0-29.929688 24.480469-54.429688 54.441407-54.429688h173.769531c29.851562.128907 54.210938 24.582031 54.210938 54.429688zm0 0" fill="#ffdba9"/><path d="m397.210938 390.699219v78.859375c-13.8125 9.152344-28.550782 16.992187-44.0625 23.363281-29.957032 12.296875-62.757813 19.078125-97.148438 19.078125v-175.730469h87c29.851562.128907 54.210938 24.582031 54.210938 54.429688zm0 0" fill="#ffc473"/><path d="m342.699219 420.328125v76.613281c-1 .359375-2 .707032-3.007813 1.058594-26.222656 9.070312-54.382812 14-83.691406 14s-57.46875-4.929688-83.691406-14c-1.007813-.351562-2.007813-.699219-3.007813-1.058594v-76.613281zm0 0" fill="#ff3d62"/><path d="m342.699219 420.328125v76.613281c-1 .359375-2 .707032-3.007813 1.058594-26.222656 9.070312-54.382812 14-83.691406 14v-91.671875zm0 0" fill="#e7001f"/><path d="m256 420.332031h-86.703125v-84.0625h43.101563zm0 0" fill="#006ef5"/><path d="m256 420.332031h86.703125v-84.0625h-43.101563zm0 0" fill="#00459f"/><path d="m169.296875 420.332031h173.40625v16h-173.40625zm0 0" fill="#fff"/><path d="m256 420.328125h86.699219v16h-86.699219zm0 0" fill="#fff5cb"/><path d="m339.691406 498c-26.222656 9.070312-54.382812 14-83.691406 14s-57.46875-4.929688-83.691406-14zm0 0" fill="#fff"/><path d="m339.691406 498c-26.222656 9.070312-54.382812 14-83.691406 14v-14zm0 0" fill="#fff5cb"/><path d="m292.125 336.269531-36.125 59.480469-36.125-59.480469h-12.375l48.5 84.0625 48.5-84.0625zm0 0" fill="#ff3d62"/><path d="m292.125 336.269531h12.375l-48.5 84.0625v-24.582031zm0 0" fill="#e7001f"/></svg>