<svg height="512pt" viewBox="0 0 512.0091 512" width="512pt" xmlns="http://www.w3.org/2000/svg"><path d="m.109375 248.609375c4.085937-141.328125 121.964844-252.582031 263.292969-248.496094 141.328125 4.085938 252.582031 121.964844 248.496094 263.292969-2.3125 80.121094-41.203126 150.578125-100.207032 195.832031-45.070312 34.570313-101.878906-92.46875-163.085937-94.242187-55.902344-1.613282-107.101563 125.871094-148.320313 94.234375-62.976562-48.339844-102.644531-125.199219-100.175781-210.621094zm0 0" fill="#00bb64"/><path d="m511.800781 246.554688-176.253906-176.253907c-17.015625-19.710937-42.90625-32.296875-71.910156-32.296875h-15.296875c-51.246094 0-92.789063 39.289063-92.789063 87.753906v22.757813c-.988281 1.492187-1.925781 3.035156-2.835937 4.605469-3.472656 2.636718-6.269532 5.046875-8.375 7.007812-4.386719 4.085938-4.632813 10.953125-.546875 15.339844 2.328125 2.503906 5.5625 3.652344 8.726562 3.425781-5.195312 4.320313-8.230469 11.058594-7.449219 18.242188l1.816407 16.792969c.523437 4.839843 2.703125 9.113281 5.894531 12.347656.007812.007812.011719.015625.023438.027344l.019531.019531c.367187.371093.757812.71875 1.152343 1.0625l14.058594 12.988281h-49.585937c-10.609375 0-19.207031 8.601562-19.207031 19.207031v39.542969c0 5.285156 2.136718 10.0625 5.59375 13.527344l24.664062 23.4375c-17.460938 10.523437-29.199219 29.664062-29.199219 51.417968v71.710938c.007813.003906.015625.011719.023438.015625 3.054687 2.34375 6.167969 4.613281 9.328125 6.816406v.011719c39.5 27.570312 87.203125-102.558594 138.949218-101.066406 61.203126 1.769531 118.007813 128.796875 163.078126 94.226562 59-45.257812 97.886718-115.714844 100.203124-195.835937.160157-5.652344.117188-11.261719-.082031-16.832031zm-349.769531-73.089844c-.027344.324218-.054688.644531-.078125.96875-.492187.089844-.964844.21875-1.441406.34375.464843-.414063.960937-.84375 1.519531-1.3125zm0 0" fill="#008c4a"/><path d="m350.023438 174.433594c-3.925782-57.796875-53.214844-90.601563-94.035157-90.601563-40.816406 0-90.109375 32.804688-94.035156 90.601563-10.5625 1.976562-18.058594 11.847656-16.882813 22.703125l1.820313 16.792969c1.230469 11.394531 11.5625 19.707031 22.957031 18.472656l1.960938-.210938c23.324218 60.707032 60.960937 76.339844 84.179687 79.890625 23.21875-3.550781 60.855469-19.183593 84.179688-79.890625l1.960937.210938c11.394532 1.234375 21.726563-7.078125 22.960938-18.472656l1.816406-16.792969c1.175781-10.855469-6.320312-20.726563-16.882812-22.703125zm0 0" fill="#008c49"/><path d="m372.796875 481.203125h-233.617187v-140.085937c0-25.511719 20.679687-46.191407 46.191406-46.191407h141.234375c25.511719 0 46.191406 20.679688 46.191406 46.191407zm0 0" fill="#ff738e"/><path d="m372.796875 341.121094v140.078125h-116.808594v-186.277344h70.621094c25.507813 0 46.1875 20.6875 46.1875 46.199219zm0 0" fill="#ff3c62"/><path d="m393.527344 318.332031h-275.082032c-10.605468 0-19.207031-8.597656-19.207031-19.207031v-39.542969c0-10.605469 8.601563-19.207031 19.207031-19.207031h275.082032c10.609375 0 19.207031 8.601562 19.207031 19.207031v39.542969c.003906 10.609375-8.597656 19.207031-19.207031 19.207031zm0 0" fill="#c06200"/><path d="m412.738281 259.582031v39.546875c0 10.601563-8.601562 19.203125-19.210937 19.203125h-137.539063v-77.953125h137.539063c10.609375 0 19.210937 8.589844 19.210937 19.203125zm0 0" fill="#9a4c00"/><path d="m192.988281 352.332031h126v-185.664062c0-34.792969-28.207031-63-63-63s-63 28.207031-63 63zm0 0" fill="#ffdb2d"/><path d="m318.988281 166.671875v185.65625h-63v-248.65625c25.28125 0 47.078125 14.878906 57.109375 36.371094 3.78125 8.089843 5.890625 17.109375 5.890625 26.628906zm0 0" fill="#fdc000"/><path d="m216.164062 290.925781h79.648438v91.40625h-79.648438zm0 0" fill="#ffc473"/><path d="m255.988281 290.925781h39.824219v91.40625h-39.824219zm0 0" fill="#ffaa20"/><path d="m350.023438 174.433594c-3.925782-57.796875-53.214844-90.601563-94.035157-90.601563-40.816406 0-90.109375 32.804688-94.035156 90.601563-10.5625 1.976562-18.058594 11.847656-16.882813 22.703125l1.820313 16.792969c1.230469 11.394531 11.5625 19.707031 22.957031 18.472656l1.960938-.210938c23.324218 60.707032 60.960937 76.339844 84.179687 79.890625 23.21875-3.550781 60.855469-19.183593 84.179688-79.890625l1.960937.210938c11.394532 1.234375 21.726563-7.078125 22.960938-18.472656l1.816406-16.792969c1.175781-10.855469-6.320312-20.726563-16.882812-22.703125zm0 0" fill="#ffdba9"/><path d="m366.90625 197.136719-1.820312 16.800781c-1.234376 11.390625-11.5625 19.695312-22.953126 18.460938l-1.960937-.210938c-23.328125 60.714844-60.964844 76.34375-84.183594 79.898438v-228.25c40.824219 0 90.109375 32.804687 94.03125 90.597656 10.566407 1.980468 18.0625 11.847656 16.886719 22.703125zm0 0" fill="#ffc473"/><path d="m255.988281 55.667969s-95.113281-6-95.113281 82.308593v52.136719h40.949219v-41.175781c0-13.175781 8.9375-24.257812 21.082031-27.527344v68.703125h66.164062v-68.703125c12.140626 3.269532 21.082032 14.355469 21.082032 27.53125v41.175782h40.953125v-52.140626c-.003907-88.308593-95.117188-82.308593-95.117188-82.308593zm0 0" fill="#ffe670"/><path d="m351.105469 137.980469v52.128906h-40.960938v-41.171875c0-13.171875-8.929687-24.261719-21.078125-27.53125v68.703125h-33.078125v-134.4375s95.117188-6.007813 95.117188 82.308594zm0 0" fill="#ffdb2d"/><path d="m356.425781 152.878906-69.046875-13.269531c-20.738281-3.988281-42.042968-3.988281-62.78125 0l-69.046875 13.269531v-27.121094c0-48.464843 41.542969-87.753906 92.789063-87.753906h15.296875c51.246093 0 92.789062 39.289063 92.789062 87.753906zm0 0" fill="#fff"/><path d="m356.421875 125.761719v27.113281l-69.039063-13.269531c-10.375-1.984375-20.886718-2.988281-31.394531-2.988281v-98.613282h7.644531c51.25 0 92.789063 39.285156 92.789063 87.757813zm0 0" fill="#fff5cb"/><path d="m255.988281 95.441406s-75.265625 6.445313-104.226562 59.328125c0 0 45.746093-26.078125 104.226562-26.078125s104.226563 26.078125 104.226563 26.078125c-28.960938-52.882812-104.226563-59.328125-104.226563-59.328125zm0 0" fill="#c06200"/><path d="m360.21875 154.769531s-.628906-.355469-1.820312-.984375c-.546876-.28125-1.203126-.625-1.976563-1.011718-12.097656-6.109376-51.878906-24.082032-100.433594-24.082032v-33.246094s69.226563 5.929688 100.433594 53.058594c1.347656 2.007813 2.613281 4.101563 3.796875 6.265625zm0 0" fill="#9a4c00"/><path d="m360.234375 178.929688c-2.40625 0-4.824219-.796876-6.835937-2.429688-17.464844-14.179688-46.558594-33.03125-97.410157-33.03125-57.433593 0-88.652343 24.914062-96.855469 32.550781-4.386718 4.082031-11.257812 3.839844-15.339843-.546875-4.085938-4.386718-3.839844-11.257812.546875-15.34375 12.390625-11.535156 48.074218-38.371094 111.648437-38.371094 43.960938 0 79.261719 12.039063 111.09375 37.890626 4.652344 3.777343 5.363281 10.613281 1.585938 15.269531-2.148438 2.640625-5.277344 4.011719-8.433594 4.011719zm0 0" fill="#e67500"/><path d="m368.667969 174.914062c-2.144531 2.644532-5.28125 4.015626-8.429688 4.015626-2.40625 0-4.832031-.796876-6.839843-2.425782-17.464844-14.179687-46.558594-33.035156-97.410157-33.035156v-21.710938c39.109375 0 71.371094 9.527344 100.433594 29.847657.65625.449219 1.316406.917969 1.972656 1.390625 2.929688 2.101562 5.828125 4.316406 8.691407 6.648437 4.65625 3.785157 5.355468 10.617188 1.582031 15.269531zm0 0" fill="#c06200"/><path d="m310.75 196.210938h-54.761719v64.398437h19.453125v-46.347656h35.308594zm0 0" fill="#ffaa20"/><path d="m411.675781 387.507812v71.710938c-20.679687 15.871094-43.847656 28.648438-68.820312 37.648438-10.339844 3.742187-20.976563 6.820312-31.886719 9.210937-17.710938 3.878906-36.109375 5.921875-54.980469 5.921875-18.871093 0-37.269531-2.042969-54.980469-5.921875-10.910156-2.390625-21.550781-5.46875-31.890624-9.210937-24.96875-9-48.136719-21.777344-68.816407-37.648438v-71.710938c0-32.996093 26.988281-60.007812 60.019531-60.007812h55.847657c0 22 17.820312 39.820312 39.820312 39.820312s39.820313-17.820312 39.820313-39.820312h56.097656c32.910156.140625 59.769531 27.101562 59.769531 60.007812zm0 0" fill="#fff"/><path d="m411.675781 387.507812v71.710938c-20.679687 15.871094-43.847656 28.648438-68.820312 37.648438-10.339844 3.742187-20.976563 6.820312-31.886719 9.210937-17.710938 3.878906-36.109375 5.921875-54.980469 5.921875v-144.679688c22 0 39.820313-17.820312 39.820313-39.820312h56.097656c32.910156.140625 59.769531 27.101562 59.769531 60.007812zm0 0" fill="#fff5cb"/><path d="m151.769531 416.839844v73.039062c-18.410156-8.210937-35.671875-18.53125-51.46875-30.660156v-42.378906zm0 0" fill="#ffdba9"/><path d="m411.675781 416.839844v42.378906c-15.796875 12.128906-33.058593 22.449219-51.46875 30.660156v-73.039062zm0 0" fill="#ffc473"/><path d="m190.464844 196.210938h54.761718v18.050781h-54.761718zm0 0" fill="#ffbb64"/><path d="m201.007812 327.5v178.578125c-10.910156-2.390625-21.550781-5.46875-31.890624-9.210937v-169.367188zm0 0" fill="#ff3c62"/><path d="m342.855469 327.5v169.367188c-10.339844 3.742187-20.976563 6.820312-31.886719 9.210937v-178.578125zm0 0" fill="#e7001f"/><path d="m100.300781 410.550781h51.46875v19.449219h-51.46875zm0 0" fill="#ff738e"/><path d="m360.207031 410.550781h51.46875v19.449219h-51.46875zm0 0" fill="#ff3c62"/></svg>