<svg height="512pt" viewBox="0 0 512 512" width="512pt" xmlns="http://www.w3.org/2000/svg"><path d="m512 256c0 141.386719-114.613281 256-256 256s-256-114.613281-256-256 114.613281-256 256-256 256 114.613281 256 256zm0 0" fill="#c2001b"/><path d="m511.738281 267.261719-181.730469-181.324219c-26.972656-29.457031-74.007812-26.5-74.007812-26.5s-92.449219-5.832031-92.449219 80v31.644531c-10.382812 1.945313-17.75 11.652344-16.597656 22.320313l1.789063 16.511718c.53125 4.894532 2.773437 9.199219 6.0625 12.398438l29.550781 29.40625c2.785156 4.957031 5.675781 9.484375 8.644531 13.609375v70.941406h-23.769531c-29.960938 0-54.441407 24.5-54.441407 54.429688v78.84375c.636719.421875 1.269532.839843 1.90625 1.253906 1.019532.664063 2.042969 1.316406 3.070313 1.960937 39.457031 24.851563 86.160156 39.242188 136.234375 39.242188 137.609375 0 249.84375-108.582031 255.738281-244.738281zm0 0" fill="#860010"/><path d="m193 352.332031h126v-185.664062c0-34.796875-28.207031-63-63-63s-63 28.203125-63 63zm0 0" fill="#ffdb2d"/><path d="m319 166.671875v185.65625h-63v-248.65625c25.28125 0 47.078125 14.878906 57.109375 36.367187 3.78125 8.089844 5.890625 17.109376 5.890625 26.632813zm0 0" fill="#fdc000"/><path d="m219.875 285.25h72.25v55.25h-72.25zm0 0" fill="#ffc473"/><path d="m256 285.25h36.125v55.25h-36.125zm0 0" fill="#ffaa20"/><path d="m348.449219 171.085938c-3.859375-56.824219-52.320313-89.070313-92.449219-89.070313s-88.585938 32.25-92.449219 89.070313c-10.382812 1.941406-17.753906 11.648437-16.597656 22.320312l1.789063 16.507812c1.210937 11.203126 11.371093 19.375 22.570312 18.160157l1.929688-.207031c22.929687 59.683593 59.929687 75.050781 82.757812 78.542968 22.824219-3.492187 59.828125-18.859375 82.757812-78.542968l1.929688.207031c11.199219 1.214843 21.359375-6.957031 22.570312-18.160157l1.789063-16.507812c1.152344-10.671875-6.214844-20.378906-16.597656-22.320312zm0 0" fill="#ffdba9"/><path d="m365.042969 193.40625-1.785157 16.515625c-1.214843 11.195313-11.367187 19.363281-22.566406 18.148437l-1.929687-.207031c-22.933594 59.691407-59.933594 75.058594-82.761719 78.546875v-224.394531c40.132812 0 88.585938 32.25 92.445312 89.070313 10.386719 1.945312 17.757813 11.648437 16.597657 22.320312zm0 0" fill="#ffc473"/><path d="m306.535156 198.09375h-50.535156v59.429688h17.953125v-42.773438h32.582031zm0 0" fill="#ffaa20"/><path d="m397.210938 390.699219v78.859375c-40.480469 26.820312-89.019532 42.441406-141.210938 42.441406s-100.730469-15.621094-141.210938-42.441406v-78.859375c0-29.929688 24.480469-54.429688 54.441407-54.429688h173.769531c29.851562.128907 54.210938 24.582031 54.210938 54.429688zm0 0" fill="#ffdba9"/><path d="m397.210938 390.699219v78.859375c-13.8125 9.152344-28.550782 16.992187-44.0625 23.363281-29.957032 12.296875-62.757813 19.078125-97.148438 19.078125v-175.730469h87c29.851562.128907 54.210938 24.582031 54.210938 54.429688zm0 0" fill="#ffc473"/><path d="m202.667969 198.09375h45.332031v16.65625h-45.332031zm0 0" fill="#ffc473"/><path d="m163.550781 140.042969h184.894531v31.042969h-184.894531zm0 0" fill="#ff3d62"/><path d="m256 140.039062h92.449219v31.039063h-92.449219zm0 0" fill="#e7001f"/><path d="m348.449219 139.4375c0-85.832031-92.449219-80-92.449219-80s-92.449219-5.832031-92.449219 80v50.675781h39.804688v-40.019531c0-15.308594 12.410156-27.71875 27.71875-27.71875h49.851562c15.308594 0 27.71875 12.410156 27.71875 27.71875v40.019531h39.804688zm0 0" fill="#ffe670"/><path d="m348.449219 139.441406v50.667969h-39.808594v-40.019531c0-3.539063-.671875-6.929688-1.890625-10.050782-4.011719-10.339843-14.058594-17.660156-25.820312-17.660156h-24.929688v-62.9375s92.449219-5.839844 92.449219 80zm0 0" fill="#ffdb2d"/><path d="m353.625 406c-12.355469 0-22.375-10.019531-22.375-22.375v-47.355469h-21v35.605469c0 18.847656-15.277344 34.125-34.125 34.125h-40.25c-18.847656 0-34.125-15.277344-34.125-34.125v-35.605469h-21v47.355469c0 12.355469-10.019531 22.375-22.375 22.375h-6.417969v83.960938c31.792969 14.160156 66.996094 22.039062 104.042969 22.039062s72.25-7.878906 104.042969-22.039062v-83.960938zm0 0" fill="#08f"/><path d="m360.039062 406v83.960938c-31.789062 14.160156-66.988281 22.039062-104.039062 22.039062v-106h20.121094c18.847656 0 34.128906-15.28125 34.128906-34.121094v-35.609375h21v47.351563c0 12.359375 10.019531 22.378906 22.371094 22.378906zm0 0" fill="#005ed3"/></svg>