<svg height="512pt" viewBox="0 0 512 512" width="512pt" xmlns="http://www.w3.org/2000/svg"><path d="m512 256c0 141.386719-114.613281 256-256 256s-256-114.613281-256-256 114.613281-256 256-256 256 114.613281 256 256zm0 0" fill="#ffe670"/><path d="m512 256c0-1.847656-.03125-3.691406-.070312-5.527344l-167.230469-167.230468c-20.566407-23.210938-52.609375-34.242188-88.699219-34.242188-62 0-112.5 32.546875-112.5 103.5 0 51.375 35 86.5 35 86.5l8.195312 8.390625c1.132813 6.992187 4.566407 13.210937 9.503907 17.851563l12.710937 12.613281c-3.636718-.871094-8.023437-1.84375-12.730468-2.722657-24.828126-4.632812-41.449219-13.171874-64.449219-12.140624-42.605469 1.90625-66.746094 55.410156-44.714844 91.164062l-.015625-.007812v14.5l3.769531 1.847656v81.023437c.347657.296875.695313.589844 1.042969.882813.816406.683594 1.636719 1.367187 2.464844 2.039062.226562.1875.457031.367188.6875.550782 1.09375.882812 2.1875 1.757812 3.292968 2.625v.019531c43.472657 34.058593 98.234376 54.363281 157.742188 54.363281 141.386719 0 256-114.613281 256-256zm0 0" fill="#ffd400"/><path d="m218.816406 257.460938h74.363282v94.65625h-74.363282zm0 0" fill="#c06100"/><path d="m256 257.460938h37.183594v94.65625h-37.183594zm0 0" fill="#9a4c00"/><path d="m345.035156 143.445312c-3.71875-54.726562-50.386718-85.785156-89.035156-85.785156s-85.316406 31.0625-89.035156 85.785156c-10 1.871094-17.097656 11.21875-15.984375 21.496094l1.722656 15.902344c1.167969 10.785156 10.949219 18.65625 21.738281 17.488281l1.855469-.203125c22.085937 57.480469 57.71875 72.28125 79.703125 75.644532 21.984375-3.363282 57.621094-18.164063 79.703125-75.644532l1.859375.203125c10.789062 1.167969 20.570312-6.703125 21.738281-17.488281l1.722657-15.902344c1.109374-10.277344-5.988282-19.625-15.988282-21.496094zm0 0" fill="#e67500"/><path d="m361.019531 164.941406-1.722656 15.90625c-1.167969 10.785156-10.949219 18.648438-21.730469 17.480469l-1.859375-.199219c-22.085937 57.484375-57.722656 72.285156-79.707031 75.648438v-216.113282c38.652344 0 85.316406 31.058594 89.03125 85.78125 10.007812 1.875 17.101562 11.21875 15.988281 21.496094zm0 0" fill="#c06200"/><path d="m304.671875 169.457031h-48.671875v57.238281h17.289062v-41.195312h31.382813zm0 0" fill="#9a4c00"/><g fill="#c06100"><path d="m204.292969 169.457031h41.460937v16.042969h-41.460937zm0 0"/><path d="m131.96875 390.148438v89.839843c-14.679688-8.136719-28.46875-17.679687-41.199219-28.449219v-81.570312zm0 0"/><path d="m421.230469 369.71875v81.820312c-12.730469 10.769532-26.519531 20.3125-41.199219 28.449219v-89.839843zm0 0"/></g><path d="m419.25 361.871094-35.789062 27.140625v89.039062c-1.132813.660157-2.28125 1.300781-3.429688 1.9375-36.742188 20.402344-79.03125 32.011719-124.03125 32.011719s-87.289062-11.609375-124.03125-32.011719c-1.148438-.636719-2.296875-1.277343-3.429688-1.9375v-89.039062l-35.789062-27.140625c-31.289062-35.152344-6.820312-96.832032 38.980469-98.882813 23-1.027343 39.621093 7.511719 64.449219 12.140625 12.421874 2.320313 22.640624 5.3125 22.640624 5.3125s1.238282 13.277344 9.96875 26.796875c5.539063 8.570313 14.082032 17.222657 27.210938 22.671875 13.128906-5.449218 21.671875-14.101562 27.210938-22.671875 8.730468-13.519531 9.96875-26.796875 9.96875-26.796875s10.21875-2.992187 22.640624-5.3125c24.828126-4.628906 41.449219-13.167968 64.449219-12.140625 45.800781 2.050781 70.269531 63.730469 38.980469 98.882813zm0 0" fill="#00bb64"/><path d="m128.539062 389.015625v-13.816406l-41.539062-21.050781v14.5zm0 0" fill="#fff"/><path d="m419.25 361.871094-35.789062 27.140625v89.039062c-1.132813.660157-2.28125 1.300781-3.429688 1.9375-36.742188 20.402344-79.03125 32.011719-124.03125 32.011719v-182.089844c13.128906-5.449218 21.671875-14.101562 27.210938-22.671875 8.730468-13.519531 9.96875-26.796875 9.96875-26.796875s10.21875-2.992187 22.640624-5.3125c24.828126-4.628906 41.449219-13.167968 64.449219-12.140625 45.800781 2.050781 70.269531 63.730469 38.980469 98.882813zm0 0" fill="#008c49"/><path d="m293.28125 280.410156-.101562.089844s-.007813.101562-.039063.28125c-.011719.046875-.011719.089844-.019531.140625-.070313.46875-.222656 1.289063-.460938 2.40625-1.859375 8.660156-9.589844 34.882813-36.660156 46.390625-27.070312-11.507812-34.800781-37.730469-36.660156-46.390625-.238282-1.117187-.390625-1.9375-.460938-2.40625-.007812-.050781-.007812-.09375-.019531-.140625-.03125-.179688-.039063-.28125-.039063-.28125l-.101562-.089844c-.777344-.21875-6.070312-1.730468-13.339844-3.371094.460938 2.382813 1.050782 5.019532 1.792969 7.832032 5.078125 19.328125 17.378906 46.859375 45.859375 56.648437l2.96875 1.039063 2.96875-1.039063c28.480469-9.789062 40.78125-37.320312 45.859375-56.648437.742187-2.8125 1.332031-5.449219 1.792969-7.832032-7.269532 1.640626-12.5625 3.152344-13.339844 3.371094zm0 0" fill="#fff"/><path d="m256 329.71875v12.839844l2.96875-1.039063c28.480469-9.789062 40.78125-37.320312 45.859375-56.648437.742187-2.8125 1.332031-5.449219 1.792969-7.832032-7.269532 1.640626-12.5625 3.152344-13.339844 3.371094l-.101562.089844s-.007813.101562-.039063.28125c-.011719.046875-.011719.089844-.019531.140625-.070313.46875-.222656 1.289063-.460938 2.40625-1.859375 8.660156-9.589844 34.882813-36.660156 46.390625zm0 0" fill="#fff5cb"/><path d="m383.460938 389.015625v-13.816406l41.539062-21.050781v14.5zm0 0" fill="#fff5cb"/><path d="m368.5 152.5c-.421875-70.949219-50.5-103.5-112.5-103.5s-112.5 32.546875-112.5 103.5c0 51.375 35 86.5 35 86.5h20.449219l-5.976563-77.46875c-1.066406-13.769531 9.824219-25.53125 23.632813-25.53125h78.789062c13.808594 0 24.699219 11.761719 23.632813 25.53125l-5.976563 77.46875h20.449219s35.289062-38 35-86.5zm0 0" fill="#00bb64"/><path d="m368.5 152.5c.289062 48.5-35 86.5-35 86.5h-20.449219l5.980469-77.46875c1.058594-13.769531-9.820312-25.53125-23.640625-25.53125h-39.390625v-87c62 0 112.078125 32.550781 112.5 103.5zm0 0" fill="#008c49"/><path d="m186.28125 130.527344v111.804687c0 17.367188 14.078125 31.445313 31.441406 31.445313h76.554688c17.363281 0 31.441406-14.078125 31.441406-31.445313v-111.804687zm127.4375 15.351562v56.273438h-115.4375v-56.273438zm-76.398438 85.046875v-17.9375h39.023438v17.9375zm39.023438 10.835938v17.660156h-39.023438v-17.660156zm-51.3125-10.835938h-26.75v-17.9375h26.75zm63.605469-17.9375h25.082031v17.9375h-25.082031zm-90.355469 28.773438h26.75v17.660156h-9.085938c-9.757812 0-17.664062-7.90625-17.664062-17.660156zm90.355469 17.660156v-17.660156h25.082031c0 9.753906-7.90625 17.660156-17.664062 17.660156zm0 0" fill="#fff"/><path d="m256 130.53125v15.347656h57.71875v56.269532h-57.71875v10.839843h20.339844v17.933594h-20.339844v10.839844h20.339844v17.660156h-20.339844v14.359375h38.28125c17.359375 0 31.4375-14.082031 31.4375-31.453125v-111.796875zm52.550781 123.71875c-3.199219 3.191406-7.609375 5.171875-12.492187 5.171875h-7.417969v-17.660156h25.078125c0 4.878906-1.980469 9.296875-5.167969 12.488281zm5.167969-23.328125h-25.078125v-17.933594h25.078125zm0 0" fill="#fff5cb"/><path d="m335.046875 407.519531c0 6.203125-.914063 11.914063-2.75 17.132813-1.832031 5.21875-4.371094 9.730468-7.613281 13.539062-3.246094 3.808594-7.101563 6.769532-11.566406 8.886719-4.464844 2.113281-9.285157 3.171875-14.453126 3.171875-5.265624 0-10.109374-1.058594-14.527343-3.171875-4.417969-2.117187-8.25-5.078125-11.492188-8.886719-3.246093-3.808594-5.785156-8.320312-7.617187-13.539062-1.832032-5.21875-2.75-10.929688-2.75-17.132813 0-6.207031.917968-11.917969 2.75-17.136719 1.832031-5.21875 4.371094-9.730468 7.617187-13.539062 3.242188-3.804688 7.074219-6.789062 11.492188-8.953125 4.417969-2.160156 9.261719-3.242187 14.527343-3.242187 5.167969 0 9.988282 1.082031 14.453126 3.242187 4.46875 2.164063 8.320312 5.148437 11.566406 8.953125 3.242187 3.808594 5.78125 8.320312 7.613281 13.539062 1.835937 5.21875 2.75 10.929688 2.75 17.136719zm-19.039063 0c0-3.761719-.421874-7.214843-1.269531-10.367187-.84375-3.148438-2.042969-5.851563-3.59375-8.109375-1.550781-2.253907-3.382812-3.996094-5.5-5.21875-2.117187-1.21875-4.441406-1.832031-6.980469-1.832031-2.632812 0-5.007812.613281-7.121093 1.832031-2.117188 1.226562-3.949219 2.964843-5.503907 5.21875-1.550781 2.257812-2.75 4.960937-3.59375 8.109375-.847656 3.152344-1.269531 6.605468-1.269531 10.367187s.421875 7.191407 1.269531 10.292969c.84375 3.105469 2.042969 5.785156 3.59375 8.039062 1.554688 2.257813 3.386719 3.996094 5.503907 5.21875 2.113281 1.222657 4.488281 1.832032 7.121093 1.832032 2.539063 0 4.863282-.609375 6.980469-1.832032 2.117188-1.222656 3.949219-2.960937 5.5-5.21875 1.550781-2.253906 2.75-4.9375 3.59375-8.039062.847657-3.101562 1.269531-6.53125 1.269531-10.292969zm0 0" fill="#fff5cb"/><path d="m179.449219 450.25c0-4.421875.34375-8.421875 1.03125-12.007812.6875-3.585938 1.890625-6.898438 3.613281-9.945313 1.714844-3.042969 4.074219-5.894531 7.070312-8.546875 2.996094-2.652344 6.800782-5.253906 11.417969-7.808594 4.027344-2.160156 7.589844-4.050781 10.683594-5.671875 3.09375-1.621093 5.671875-3.117187 7.734375-4.492187s3.632812-2.773438 4.714844-4.199219c1.082031-1.425781 1.621094-3.070313 1.621094-4.9375 0-2.945313-1.179688-5.472656-3.535157-7.585937-2.359375-2.113282-5.746093-3.167969-10.167969-3.167969-2.355468 0-4.519531.316406-6.480468.957031-1.96875.640625-3.808594 1.5-5.527344 2.578125-1.71875 1.082031-3.289062 2.28125-4.714844 3.609375-1.425781 1.324219-2.726562 2.726562-3.902344 4.199219l-12.671874-14.585938c1.273437-1.375 3.09375-2.875 5.449218-4.496093 2.359375-1.621094 5.132813-3.140626 8.328125-4.566407 3.191407-1.421875 6.726563-2.601562 10.605469-3.535156s8.03125-1.402344 12.453125-1.402344c5.007813 0 9.476563.617188 13.40625 1.84375 3.929687 1.230469 7.242187 2.945313 9.945313 5.15625 2.699218 2.210938 4.761718 4.863281 6.1875 7.957031 1.421874 3.09375 2.136718 6.457032 2.136718 10.089844 0 3.441406-.640625 6.484375-1.914062 9.136719-1.28125 2.652344-2.898438 5.007813-4.863282 7.070313-1.964843 2.066406-4.101562 3.859374-6.410156 5.378906-2.308594 1.523437-4.542968 2.875-6.703125 4.050781-1.769531.984375-3.78125 2.113281-6.042969 3.390625-2.257812 1.277344-4.492187 2.675781-6.703124 4.199219-2.207032 1.523437-4.25 3.09375-6.113282 4.714843-1.867187 1.621094-3.292968 3.21875-4.273437 4.789063h44.644531v17.828125zm0 0" fill="#fff"/></svg>