<svg height="512pt" viewBox="-106 0 512 512.002" width="512pt" xmlns="http://www.w3.org/2000/svg"><g fill-rule="evenodd"><path d="m260 215v-95c0-60.496094-49.5-110-110-110s-109.996094 49.5-110 110v95c0 19.25 15.75 35 35 35h10.007812l34.992188-10v-5.871094c-29.246094-11.925781-50-40.722656-50-74.128906v-40h160v40c0 33.40625-20.75 62.199219-50 74.128906v5.871094l34.996094 10h10.007812c19.246094 0 34.996094-15.753906 34.996094-35zm0 0" fill="#808080"/><path d="m180 234.128906c29.25-11.929687 50-40.722656 50-74.128906v-40h-160v40c0 33.40625 20.75 62.199219 50 74.128906 9.277344 3.785156 19.40625 5.871094 30 5.871094s20.726562-2.085938 30-5.871094zm0 0" fill="#f4cdac"/><path d="m100.003906 295.230469c0 24.878906 20.355469 45.234375 45.234375 45.234375h9.527344c24.878906 0 45.234375-20.355469 45.234375-45.234375v-49.515625l-20-5.714844v-5.871094c-9.273438 3.785156-19.40625 5.871094-30 5.871094s-20.722656-2.085938-30-5.871094v5.871094l-19.996094 5.714844zm0 0" fill="#f4cdac"/><path d="m70.003906 340.464844v-86.179688l-20.003906 5.714844c-25.046875 7.15625-40 28-40 50v192h60.003906v-100.769531c-9.691406-9.691407-14.773437-45.992188 0-60.765625zm0 0" fill="#f4cdac"/><path d="m70.003906 254.285156v86.175782c-14.773437 14.773437-9.691406 51.078124 0 60.769531v20h159.996094v-20c9.691406-9.691407 14.773438-45.996094 0-60.769531v-86.175782l-30-8.570312v49.515625c0 24.875-20.355469 45.230469-45.234375 45.230469h-9.527344c-24.878906 0-45.234375-20.351563-45.234375-45.230469v-49.515625zm0 0" fill="#b3b3b3"/><path d="m230 421.230469h-159.996094v80.769531h159.996094zm0 0" fill="#f4cdac"/><path d="m230 401.230469v100.769531h60v-192c0-22-14.949219-42.84375-40-50l-20-5.714844v86.175782c14.773438 14.777343 9.691406 51.078124 0 60.769531zm0 0" fill="#f4cdac"/></g><path d="m130.117188 150c0-5.523438-4.476563-10-10-10h-.234376c-5.523437 0-10 4.476562-10 10s4.476563 10 10 10h.234376c5.523437 0 10-4.476562 10-10zm0 0"/><path d="m179.882812 160h.238282c5.523437 0 10-4.476562 10-10s-4.476563-10-10-10h-.238282c-5.519531 0-10 4.476562-10 10s4.480469 10 10 10zm0 0"/><path d="m150 210c10.230469 0 19.84375-3.980469 27.074219-11.214844 3.902343-3.90625 3.902343-10.238281 0-14.140625-3.90625-3.90625-10.238281-3.90625-14.144531 0-3.453126 3.453125-8.042969 5.355469-12.929688 5.355469-4.882812 0-9.472656-1.902344-12.925781-5.355469-3.90625-3.90625-10.238281-3.90625-14.144531 0-3.902344 3.902344-3.90625 10.234375 0 14.140625 7.230468 7.230469 16.84375 11.214844 27.070312 11.214844zm0 0"/><path d="m108.957031 28c1.242188 0 2.503907-.234375 3.726563-.722656l.238281-.097656c5.125-2.058594 7.613281-7.882813 5.554687-13.007813-2.058593-5.125-7.882812-7.609375-13.007812-5.550781l-.238281.097656c-5.125 2.058594-7.613281 7.878906-5.554688 13.003906 1.566407 3.902344 5.320313 6.277344 9.28125 6.277344zm0 0"/><path d="m252.75 250.386719c10.492188-8.246094 17.25-21.039063 17.25-35.386719v-95c0-66.167969-53.832031-120-120-120-5.519531 0-10 4.476562-10 10s4.480469 10 10 10c55.140625 0 100 44.859375 100 100v95c0 13.785156-11.214844 25-25 25h-8.601562l-16.945313-4.84375c24.410156-16.113281 40.546875-43.78125 40.546875-75.15625v-72c0-5.523438-4.476562-10-10-10h-160c-5.519531 0-10 4.476562-10 10v72c0 31.371094 16.140625 59.042969 40.550781 75.15625l-16.945312 4.84375h-8.605469c-13.785156 0-25-11.214844-25-25v-95c0-31.402344 15.191406-61.429688 40.636719-80.320312 4.433593-3.292969 5.359375-9.558594 2.066406-13.992188s-9.554687-5.359375-13.992187-2.066406c-30.5 22.644531-48.710938 58.675781-48.710938 96.378906v95c0 14.351562 6.761719 27.140625 17.25 35.386719-28.261719 8.078125-47.25 32.035156-47.25 59.617187v192c0 5.519532 4.476562 10 10 10h280c5.523438 0 10-4.480468 10-10v-192c0-27.585937-18.988281-51.542968-47.25-59.617187zm-130-.769531c1.6875-.484376 3.164062-1.390626 4.34375-2.574219 7.316406 1.925781 14.992188 2.957031 22.90625 2.957031s15.59375-1.03125 22.910156-2.957031c1.175782 1.183593 2.65625 2.089843 4.34375 2.574219l12.746094 3.640624v41.972657c0 19.425781-15.804688 35.230469-35.234375 35.230469h-9.527344c-19.429687 0-35.234375-15.804688-35.234375-35.230469v-41.972657zm-42.746094 181.613281h139.996094v30.769531h-31.035156c-5.523438 0-10 4.476562-10 10s4.476562 10 10 10h31.035156v10h-139.996094zm142.921875-83.695313c4.496094 4.492188 6.835938 13.726563 6.261719 24.695313-.589844 11.28125-4.085938 19.753906-6.261719 21.929687-1.875 1.875-2.925781 4.417969-2.925781 7.070313v10h-139.996094v-10c0-2.652344-1.054687-5.195313-2.929687-7.070313-2.175781-2.175781-5.667969-10.648437-6.257813-21.929687-.574218-10.96875 1.765625-20.203125 6.257813-24.695313 1.875-1.875 2.929687-4.417968 2.929687-7.074218v-78.632813l10-2.859375v36.261719c0 30.453125 24.777344 55.230469 55.230469 55.230469h9.53125c30.453125 0 55.230469-24.777344 55.230469-55.230469v-36.261719l10.003906 2.859375v78.632813c0 2.65625 1.050781 5.199218 2.925781 7.074218zm-2.925781-249.535156v12h-140v-12zm-140 62v-30h140v30c0 29.101562-17.855469 54.105469-43.183594 64.652344-.324218.105468-.636718.230468-.945312.371094-8.007813 3.199218-16.730469 4.976562-25.871094 4.976562-9.136719 0-17.863281-1.777344-25.875-4.976562-.300781-.140626-.613281-.261719-.929688-.367188-25.332031-10.542969-43.195312-35.550781-43.195312-64.65625zm-59.996094 150c0-18.558594 13.15625-34.789062 32.746094-40.382812l7.253906-2.074219v69.1875c-8.941406 11.632812-9.628906 27.574219-9.160156 36.542969.53125 10.160156 3.234375 23.0625 9.160156 31.507812v87.21875h-40zm259.996094 182h-40v-87.21875c5.921875-8.445312 8.628906-21.347656 9.160156-31.507812.46875-8.96875-.21875-24.910157-9.160156-36.542969v-69.1875l7.253906 2.074219c19.585938 5.59375 32.746094 21.824218 32.746094 40.382812zm0 0"/><path d="m160.234375 462.003906h-.238281c-5.519532 0-10 4.476563-10 10 0 5.519532 4.480468 10 10 10h.238281c5.523437 0 10-4.480468 10-10 0-5.523437-4.476563-10-10-10zm0 0"/></svg>