<svg height="512pt" viewBox="0 0 512 512.00015" width="512pt" xmlns="http://www.w3.org/2000/svg"><path d="m442.863281 511.988281h54c8.28125 0 15-6.714843 15-15h-84c0 8.285157 6.71875 15 15 15zm0 0" fill="#00215a" fill-rule="evenodd"/><path d="m284.636719 511.988281c-4.683594 0-9.300781-2.1875-12.226563-6.292969l-101.410156-142.238281c-4.808594-6.746093-3.238281-16.109375 3.503906-20.921875 6.742188-4.808594 16.113282-3.238281 20.921875 3.507813l101.414063 142.238281c4.808594 6.746094 3.238281 16.109375-3.507813 20.917969-2.640625 1.886719-5.683593 2.789062-8.695312 2.789062zm0 0" fill="#e1ebf0"/><path d="m496.863281 481.988281c8.28125 0 14.996094 6.71875 14.996094 15 0 8.285157-6.714844 15-14.996094 15h-54c-8.285156 0-15-6.714843-15-15 0-8.28125 6.714844-15 15-15zm0 0" fill="#00215a" fill-rule="evenodd"/><path d="m496.867188 511.988281c-8.285157 0-15-6.714843-15-15v-312.632812c0-8.285157 6.714843-15 15-15 8.285156 0 15 6.714843 15 15v312.632812c0 8.285157-6.714844 15-15 15zm0 0" fill="#c8d2dc"/><path d="m496.867188 296.589844c-2.335938 0-4.675782-.546875-6.824219-1.644532l-96.996094-49.550781c-5.019531-2.5625-8.175781-7.722656-8.175781-13.355469 0-5.636718 3.15625-10.796874 8.175781-13.359374l96.996094-49.550782c4.648437-2.378906 10.199219-2.164062 14.65625.5625 4.449219 2.726563 7.167969 7.570313 7.167969 12.792969v99.101563c0 5.222656-2.71875 10.070312-7.167969 12.792968-2.398438 1.472656-5.113281 2.210938-7.832031 2.210938zm0 0" fill="#f00"/><g fill-rule="evenodd"><path d="m273.261719 506.890625-28.933594-40.570313.011719-.007812c-5.625-7.890625-.109375-19.066406 9.753906-19.183594l34.773438-.414062c32.589843-.386719 51.871093 20.234375 59.582031 50.078125l-.003907.003906c1.976563 7.644531-3.777343 15.1875-11.757812 15.1875h-52.921875c-4 .195313-8.011719-1.589844-10.503906-5.09375zm0 0" fill="#0040a0"/><path d="m204.34375 337.742188-70.566406-165.300782c-4.796875-12.933594-17.042969-16.496094-30.570313-17.316406 0-.398438-67.976562-.21875-75.292969-.21875v.410156c-15.488281 1.128906-27.8164058 14.148438-27.8164058 29.910156v296.761719c0 16.5 13.4999998 30 29.9999998 30 14.371094 0 26.464844-10.242187 29.347656-23.792969 2.878907 13.550782 14.972657 23.792969 29.347657 23.792969 16.496093 0 29.996093-13.5 29.996093-30v-204.144531l30.09375 81.074219c5.742188 15.46875 27.835938 22.660156 39.503907 10.996093 11.664062-11.667968 21.695312-16.703124 15.957031-32.171874zm0 0" fill="#24acff"/><path d="m204.308594 337.617188-70.53125-165.175782c-4.796875-12.933594-17.042969-16.496094-30.570313-17.316406 0-.246094-19.707031-.273438-44.121093-.253906v334.808594c.128906-.492188.25-.984376.359374-1.484376 2.878907 13.550782 14.972657 23.792969 29.347657 23.792969 16.496093 0 29.996093-13.5 29.996093-30v-204.144531l30.09375 81.074219c5.742188 15.46875 27.804688 22.535156 39.472657 10.871093 11.664062-11.667968 21.695312-16.703124 15.953125-32.171874zm0 0" fill="#0082ff"/><path d="m59.707031 112.617188c31.015625 0 56.308594-25.292969 56.308594-56.308594 0-31.011719-25.292969-56.308594-56.308594-56.308594-31.011719 0-56.308593 25.296875-56.308593 56.308594 0 31.015625 25.296874 56.308594 56.308593 56.308594zm0 0" fill="#ffe4c1"/><path d="m9.933594 162.515625c12.285156-11.015625 31.347656-9.976563 42.363281 2.304687l146.214844 163.03125c11.019531 12.285157 9.980469 31.347657-2.300781 42.363282-12.285157 11.015625-31.347657 9.980468-42.363282-2.304688l-146.214844-163.03125c-11.019531-12.28125-9.984374-31.34375 2.300782-42.363281zm0 0" fill="#8fcfff"/><path d="m59.707031 0c-.027343 0-.054687.00390625-.082031.00390625v112.61328175h.082031c31.015625 0 56.308594-25.292969 56.308594-56.308594 0-31.011719-25.292969-56.308594-56.308594-56.308594zm0 0" fill="#fdd1a3"/></g></svg>