<svg height="512pt" viewBox="0 0 512 512" width="512pt" xmlns="http://www.w3.org/2000/svg"><path d="m512 256c0 141.386719-114.613281 256-256 256s-256-114.613281-256-256 114.613281-256 256-256 256 114.613281 256 256zm0 0" fill="#ff0335"/><path d="m511.980469 257.394531-178.433594-178.554687c-31.757813-33.78125-77.546875-32.144532-77.546875-32.144532s-115.027344-4.121093-106.890625 135.199219c-1.769531 3.433594-2.601563 7.398438-2.15625 11.507813l1.789063 16.511718c.386718 3.554688 1.675781 6.800782 3.609374 9.539063l5.515626 61.527344 57.648437 55.289062h-46.285156c-29.960938 0-54.441407 24.5-54.441407 54.429688v78.84375c.628907.417969 1.257813.835937 1.890626 1.246093.835937.539063 1.671874 1.082032 2.511718 1.613282 39.578125 25.070312 86.492188 39.597656 136.808594 39.597656 140.917969 0 255.230469-113.863281 255.980469-254.605469zm0 0" fill="#c2001b"/><path d="m219.875 285.25h72.25v55.25h-72.25zm0 0" fill="#ffc473"/><path d="m256 285.25h36.125v55.25h-36.125zm0 0" fill="#ffaa20"/><path d="m256 46.699219s-118.792969-4.261719-106.398438 142.085937l8.265626 92.195313h196.265624l8.265626-92.195313c12.394531-146.347656-106.398438-142.085937-106.398438-142.085937zm0 0" fill="#ffdb2d"/><path d="m362.394531 188.785156-8.261719 92.199219h-98.132812v-234.289063s118.792969-4.257812 106.394531 142.089844zm0 0" fill="#ffcf00"/><path d="m348.449219 171.085938c-3.859375-56.824219-52.320313-89.070313-92.449219-89.070313s-88.585938 32.25-92.449219 89.070313c-10.382812 1.941406-17.753906 11.648437-16.597656 22.320312l1.789063 16.507812c1.210937 11.203126 11.371093 19.375 22.570312 18.160157l1.929688-.207031c22.929687 59.683593 59.929687 75.050781 82.757812 78.542968 22.824219-3.492187 59.828125-18.859375 82.757812-78.542968l1.929688.207031c11.199219 1.214843 21.359375-6.957031 22.570312-18.160157l1.789063-16.507812c1.152344-10.671875-6.214844-20.378906-16.597656-22.320312zm0 0" fill="#ffdba9"/><path d="m365.042969 193.40625-1.785157 16.515625c-1.214843 11.195313-11.367187 19.363281-22.566406 18.148437l-1.929687-.207031c-22.933594 59.691407-59.933594 75.058594-82.761719 78.546875v-224.394531c40.132812 0 88.585938 32.25 92.445312 89.070313 10.386719 1.945312 17.757813 11.648437 16.597657 22.320312zm0 0" fill="#ffc473"/><path d="m306.535156 198.09375h-50.535156v59.429688h17.953125v-42.773438h32.582031zm0 0" fill="#ffaa20"/><path d="m202.3125 198.09375h43.046875v16.65625h-43.046875zm0 0" fill="#ffc473"/><path d="m161.347656 187.820312s55.210938-.8125 94.652344-43.824218h.003906c39.4375 43.011718 94.648438 43.824218 94.648438 43.824218 0-44.183593.003906-126.050781-94.648438-126.050781-94.65625 0-94.65625 81.863281-94.65625 126.050781zm0 0" fill="#ffe670"/><path d="m350.648438 187.816406s-13.804688-.203125-32.53125-5.777344c-18.738282-5.582031-42.398438-16.535156-62.117188-38.042968v-82.226563c94.65625 0 94.648438 81.871094 94.648438 126.046875zm0 0" fill="#ffdb2d"/><path d="m161.347656 171.628906s16.042969-89.613281 94.652344-89.613281 94.515625 89.613281 94.515625 89.613281 5.316406-114.140625-94.511719-114.140625c-99.832031 0-94.65625 114.140625-94.65625 114.140625zm0 0" fill="#00bb64"/><path d="m350.515625 171.632812s-15.90625-89.613281-94.515625-89.613281v-24.527343c99.828125 0 94.515625 114.140624 94.515625 114.140624zm0 0" fill="#008c4a"/><path d="m397.210938 390.699219v78.859375c-40.480469 26.820312-89.019532 42.441406-141.210938 42.441406s-100.730469-15.621094-141.210938-42.441406v-78.859375c0-29.929688 24.480469-54.429688 54.441407-54.429688h173.769531c29.851562.128907 54.210938 24.582031 54.210938 54.429688zm0 0" fill="#ffdba9"/><path d="m397.210938 390.699219v78.859375c-13.8125 9.152344-28.550782 16.992187-44.0625 23.363281-29.957032 12.296875-62.757813 19.078125-97.148438 19.078125v-175.730469h87c29.851562.128907 54.210938 24.582031 54.210938 54.429688zm0 0" fill="#ffc473"/><path d="m353.148438 424.019531v68.902344c-29.957032 12.296875-62.757813 19.078125-97.148438 19.078125s-67.191406-6.78125-97.148438-19.078125v-68.902344c13.296876-7.308593 23.488282-18.898437 28.75-32.71875 1.160157-3.054687 1.757813-6.296875 1.757813-9.566406v-45.464844h19.902344v3.671875c0 25.8125 20.925781 46.738282 46.738281 46.738282s46.738281-20.925782 46.738281-46.738282v-3.671875h19.902344v45.464844c0 3.269531.59375 6.511719 1.757813 9.566406 5.261718 13.820313 15.453124 25.410157 28.75 32.71875zm0 0" fill="#00bb64"/><path d="m353.148438 424.019531v68.902344c-29.957032 12.296875-62.757813 19.078125-97.148438 19.078125v-125.320312c25.8125 0 46.738281-20.925782 46.738281-46.738282v-3.671875h19.902344v45.464844c0 3.269531.59375 6.511719 1.757813 9.566406 5.261718 13.820313 15.453124 25.410157 28.75 32.71875zm0 0" fill="#008c4a"/></svg>