<svg height="512pt" viewBox="0 0 512 512" width="512pt" xmlns="http://www.w3.org/2000/svg"><path d="m512 256c0 141.386719-114.613281 256-256 256s-256-114.613281-256-256 114.613281-256 256-256 256 114.613281 256 256zm0 0" fill="#e67500"/><path d="m512 256c0-12.757812-.945312-25.289062-2.746094-37.546875l-158.371094-158.367187c-11.886718-13.566407-28.882812-22.472657-47.9375-23.785157-14.566406-1-30.707031-1.804687-46.945312-2.027343-16.238281.222656-32.378906 1.027343-46.945312 2.027343-33.417969 2.300781-60.535157 27.929688-64.777344 61.160157l-4.257813 25.929687v101.332031h4.039063c5.21875 19.210938 15.265625 36.445313 28.746094 50.332032l35.332031 35.339843v11.496094h-57.058594c-36.207031 0-65.808594 29.628906-65.808594 65.820313v59.027343c.429688.382813.859375.761719 1.289063 1.144531 1.765625 1.554688 3.550781 3.085938 5.355468 4.597657v.007812c44.429688 37.144531 101.644532 59.511719 164.085938 59.511719 141.386719 0 256-114.613281 256-256zm0 0" fill="#c06100"/><path d="m208.136719 267.105469h95.722656v60.894531h-95.722656zm0 0" fill="#ffc473"/><path d="m256 267.105469h47.863281v60.894531h-47.863281zm0 0" fill="#ffaa20"/><path d="m353.910156 157.621094c-4.085937-60.179688-55.40625-94.332032-97.910156-94.332032-42.5 0-93.820312 34.152344-97.910156 94.332032-10.996094 2.058594-18.804688 12.339844-17.578125 23.640625l1.894531 17.484375c1.285156 11.863281 12.039062 20.519531 23.902344 19.234375l2.042968-.222657c24.285157 63.210938 63.472657 79.488282 87.648438 83.183594 24.175781-3.695312 63.363281-19.972656 87.648438-83.183594l2.042968.222657c11.863282 1.285156 22.621094-7.371094 23.90625-19.234375l1.894532-17.484375c1.222656-11.300781-6.582032-21.582031-17.582032-23.640625zm0 0" fill="#ffdba9"/><path d="m343.648438 217.757812 2.042968.222657c11.863282 1.285156 22.621094-7.371094 23.90625-19.234375l1.890625-17.484375c1.226563-11.300781-6.578125-21.582031-17.578125-23.640625-4.085937-60.179688-55.40625-94.332032-97.910156-94.332032v237.652344c24.175781-3.695312 63.363281-19.972656 87.648438-83.183594zm0 0" fill="#ffc473"/><path d="m309.523438 186.226562h-53.523438v62.941407h19.015625v-45.300781h34.507813zm0 0" fill="#ffaa20"/><path d="m199.136719 186.226562h45.59375v17.640626h-45.59375zm0 0" fill="#ffc473"/><path d="m426.730469 387.710938v59.039062c-45.300781 40.570312-105.128907 65.25-170.730469 65.25s-125.429688-24.679688-170.730469-65.25v-59.039062c0-36.191407 29.601563-65.820313 65.808594-65.820313h210.121094c36.082031.167969 65.53125 29.730469 65.53125 65.820313zm0 0" fill="#57555c"/><path d="m426.730469 387.710938v59.039062c-45.300781 40.570312-105.128907 65.25-170.730469 65.25v-190.109375h105.199219c36.082031.167969 65.53125 29.730469 65.53125 65.820313zm0 0" fill="#3c3b41"/><path d="m156.722656 321.890625 75.253906 188.992187c7.910157.738282 15.921876 1.117188 24.023438 1.117188v-190.109375zm0 0" fill="#3c3b41"/><path d="m355.277344 321.890625-75.253906 188.992187c-7.910157.738282-15.921876 1.117188-24.023438 1.117188v-190.109375zm0 0" fill="#171719"/><path d="m208.136719 321.890625 47.863281 182.550781 47.863281-182.550781zm0 0" fill="#95e0ba"/><path d="m303.859375 321.890625-47.859375 182.550781v-182.550781zm0 0" fill="#36cd90"/><path d="m266.304688 374.976562c0 5.691407-4.613282 10.304688-10.304688 10.304688s-10.304688-4.613281-10.304688-10.304688c0-5.6875 4.613282-10.300781 10.304688-10.300781s10.304688 4.613281 10.304688 10.300781zm0 0" fill="#00bb64"/><path d="m266.304688 422.417969c0 5.691406-4.613282 10.304687-10.304688 10.304687s-10.304688-4.613281-10.304688-10.304687c0-5.691407 4.613282-10.304688 10.304688-10.304688s10.304688 4.613281 10.304688 10.304688zm0 0" fill="#00bb64"/><path d="m256 321.890625-57.332031 59.441406-17.667969-59.441406zm0 0" fill="#fff"/><path d="m256 321.890625 57.335938 59.441406 17.664062-59.441406zm0 0" fill="#fff5cb"/><path d="m266.300781 374.980469c0 5.691406-4.609375 10.300781-10.300781 10.300781v-20.609375c5.691406 0 10.300781 4.617187 10.300781 10.308594zm0 0" fill="#008c4a"/><path d="m266.300781 422.421875c0 5.6875-4.609375 10.296875-10.300781 10.296875v-20.609375c5.691406 0 10.300781 4.621094 10.300781 10.3125zm0 0" fill="#008c4a"/><path d="m367.71875 97.460938c-4.242188-33.230469-31.355469-58.859376-64.773438-61.160157-14.566406-1-30.707031-1.804687-46.945312-2.027343-16.238281.222656-32.378906 1.027343-46.945312 2.027343-33.417969 2.300781-60.535157 27.929688-64.777344 61.160157l-4.257813 25.929687v7.449219h231.960938v-7.449219zm0 0" fill="#57555c"/><path d="m371.976562 123.394531v7.445313h-115.976562v-96.570313c16.238281.226563 32.378906 1.03125 46.941406 2.03125 33.417969 2.304688 60.539063 27.929688 64.777344 61.160157zm0 0" fill="#3c3b41"/><path d="m355.386719 123.425781h-215.367188v101.296875h4.042969c13.378906 49.269532 58.488281 85.613282 111.9375 85.613282s98.558594-36.34375 111.9375-85.613282h4.042969v-101.296875zm-99.386719 175.304688c-46.996094 0-86.828125-31.222657-99.863281-74.011719h.476562c15.175781 0 27.476563-12.300781 27.476563-27.476562v-34.3125l30.753906 4.878906c27.265625 4.328125 55.046875 4.328125 82.316406 0l30.75-4.878906v34.3125c0 15.175781 12.304688 27.476562 27.476563 27.476562h.480469c-13.039063 42.789062-52.875 74.011719-99.867188 74.011719zm0 0" fill="#3c3b41"/><path d="m256 123.421875v47.636719c13.761719 0 27.527344-1.089844 41.160156-3.246094l30.742188-4.882812v34.316406c0 15.171875 12.308594 27.480468 27.480468 27.480468h.484376c-13.042969 42.78125-52.875 74.003907-99.867188 74.003907v11.605469c53.449219 0 98.558594-36.339844 111.9375-85.609376h4.039062v-101.304687zm0 0" fill="#171719"/></svg>