<svg height="512pt" viewBox="0 0 512 512" width="512pt" xmlns="http://www.w3.org/2000/svg"><path d="m0 256c0-141.386719 114.613281-256 256-256s256 114.613281 256 256c0 89.035156-45.453125 167.453125-114.421875 213.320312-40.550781 26.964844-89.226563-64.320312-141.578125-64.320312s-101.035156 91.285156-141.585938 64.316406c-68.964843-45.867187-114.414062-124.285156-114.414062-213.316406zm0 0" fill="#c2001b"/><path d="m511.671875 269.058594-183.628906-183.628906c-14.148438-16.542969-36.546875-27.863282-72.039063-27.863282-85.445312 0-95.0625 65.578125-96.144531 111.753906-10.015625 2.5-16.976563 12.097657-15.835937 22.632813l1.835937 16.957031c.542969 5.03125 2.851563 9.457032 6.234375 12.746094l26.820312 26.332031c-17.875 6.601563-35.972656 23.363281-38.617187 63.671875l24.230469 21.847656c-27.964844 2.296876-50.105469 25.878907-50.105469 54.382813v81.410156c.902344.601563 1.808594 1.203125 2.722656 1.792969.367188.238281.734375.480469 1.105469.71875 39.769531 25.441406 87.035156-73.8125 137.75-73.8125 52.351562 0 101.027344 98.285156 141.578125 71.320312 65.574219-43.609374 109.894531-116.648437 114.09375-200.261718zm0 0" fill="#860010"/><path d="m216.371094 245.363281s-70.640625-16.507812-76.074219 66.296875c0 0 77.707031 15.761719 76.074219-66.296875zm0 0" fill="#ff9a00"/><path d="m217.199219 283.890625h77.601562v113.109375h-77.601562zm0 0" fill="#ffc473"/><path d="m256 283.890625h38.800781v113.109375h-38.800781zm0 0" fill="#ffaa20"/><path d="m397.578125 387.890625v81.429687c-40.546875 26.960938-89.226563 42.679688-141.578125 42.679688s-101.03125-15.71875-141.578125-42.679688v-81.429687c0-30.011719 24.539063-54.582031 54.578125-54.582031h48.199219l38.800781 46.441406 38.800781-46.441406h48.429688c29.929687.140625 54.347656 24.652344 54.347656 54.582031zm0 0" fill="#fff"/><path d="m397.578125 387.890625v81.429687c-40.546875 26.960938-89.226563 42.679688-141.578125 42.679688v-132.25l38.800781-46.441406h48.429688c29.929687.140625 54.347656 24.652344 54.347656 54.582031zm0 0" fill="#fff5cb"/><path d="m326.792969 333.308594h-31.992188l-38.800781 46.441406v50.371094zm0 0" fill="#aeadb3"/><path d="m350.933594 169.035156c-3.964844-58.347656-53.722656-91.464844-94.933594-91.464844s-90.96875 33.117188-94.933594 91.464844c-10.664062 1.996094-18.230468 11.960938-17.042968 22.921875l1.835937 16.953125c1.246094 11.5 11.675781 19.894532 23.175781 18.648438l1.980469-.214844c23.546875 61.289062 61.542969 77.070312 84.984375 80.652344 23.441406-3.585938 61.4375-19.363282 84.984375-80.652344l1.980469.214844c11.5 1.246094 21.929687-7.148438 23.175781-18.648438l1.835937-16.953125c1.1875-10.960937-6.378906-20.925781-17.042968-22.921875zm0 0" fill="#ffdba9"/><path d="m367.976562 191.953125-1.835937 16.960937c-1.246094 11.5-11.671875 19.886719-23.171875 18.640626l-1.980469-.214844c-23.550781 61.296875-61.546875 77.074218-84.988281 80.660156v-230.425781c41.214844 0 90.96875 33.113281 94.929688 91.460937 10.667968 2 18.234374 11.960938 17.046874 22.917969zm0 0" fill="#ffc473"/><path d="m159.722656 185.78125s56.160156-.828125 96.277344-44.578125h.003906c40.117188 43.75 96.273438 44.578125 96.273438 44.578125 0-44.941406.003906-128.21875-96.273438-128.21875-96.28125 0-96.28125 83.273438-96.28125 128.21875zm0 0" fill="#fdc000"/><path d="m352.28125 185.78125s-14.042969-.210938-33.101562-5.882812c-19.050782-5.679688-43.121094-16.820313-63.179688-38.6875v-83.652344c96.28125 0 96.28125 83.28125 96.28125 128.222656zm0 0" fill="#ff9a00"/><path d="m307.894531 196.769531h-51.894531v61.03125h18.4375v-43.925781h33.457031zm0 0" fill="#ffaa20"/><path d="m200.867188 196.769531h44.203124v17.105469h-44.203124zm0 0" fill="#ffc473"/><path d="m345.089844 496.058594c-10.339844 3.851562-20.988282 7.042968-31.910156 9.519531l-130.609376-172.269531h34.628907l38.800781 46.441406zm0 0" fill="#d9d9db"/></svg>