<svg height="512pt" viewBox="0 0 512 512" width="512pt" xmlns="http://www.w3.org/2000/svg"><path d="m512 256c0 141.386719-114.613281 256-256 256s-256-114.613281-256-256 114.613281-256 256-256 256 114.613281 256 256zm0 0" fill="#005ed3"/><path d="m512 256c0-.71875-.019531-1.433594-.027344-2.152344l-166.285156-166.285156c-17.425781-19.175781-42.566406-31.214844-70.519531-31.214844h-38.335938c-52.613281 0-95.265625 42.652344-95.265625 95.265625v92.734375l46.496094 46.578125h-2.679688c-25.511718 0-46.191406 20.679688-46.191406 46.191407v13.925781c-14.679687 9.777343-24.402344 26.472656-24.402344 45.324219v73.175781c.652344.429687 1.304688.863281 1.957032 1.289062 1.128906.726563 2.257812 1.449219 3.394531 2.160157 39.375 24.707031 85.945313 39.007812 135.859375 39.007812 141.386719 0 256-114.613281 256-256zm0 0" fill="#00459f"/><path d="m372.808594 477.203125h-233.617188v-140.085937c0-25.511719 20.679688-46.191407 46.191406-46.191407h141.234376c25.511718 0 46.191406 20.679688 46.191406 46.191407zm0 0" fill="#e7001f"/><path d="m372.808594 337.121094v140.078125h-116.808594v-186.277344h70.621094c25.507812 0 46.1875 20.6875 46.1875 46.199219zm0 0" fill="#c2001b"/><path d="m204.59375 353.25h102.8125v-151.496094c0-28.394531-23.015625-51.40625-51.40625-51.40625s-51.40625 23.011719-51.40625 51.40625zm0 0" fill="#3c3b41"/><path d="m307.40625 201.753906v151.492188h-51.40625v-202.898438c20.628906 0 38.414062 12.144532 46.597656 29.675782 3.085938 6.605468 4.808594 13.964843 4.808594 21.730468zm0 0" fill="#171719"/><path d="m219.875 290.925781h72.25v55.25h-72.25zm0 0" fill="#ffc473"/><path d="m256 290.925781h36.125v55.25h-36.125zm0 0" fill="#ffaa20"/><path d="m350.035156 174.433594c-3.925781-57.796875-53.214844-90.601563-94.035156-90.601563s-90.109375 32.804688-94.035156 90.601563c-10.566406 1.976562-18.0625 11.847656-16.886719 22.703125l1.820313 16.792969c1.234374 11.394531 11.566406 19.707031 22.960937 18.472656l1.960937-.214844c23.324219 60.710938 60.960938 76.34375 84.179688 79.894531 23.21875-3.550781 60.855469-19.183593 84.179688-79.894531l1.960937.214844c11.394531 1.234375 21.726563-7.078125 22.960937-18.472656l1.820313-16.792969c1.171875-10.855469-6.324219-20.726563-16.886719-22.703125zm0 0" fill="#ffdba9"/><path d="m366.917969 197.136719-1.820313 16.796875c-1.234375 11.390625-11.5625 19.699218-22.953125 18.464844l-1.960937-.210938c-23.324219 60.714844-60.960938 76.34375-84.183594 79.898438v-228.25c40.824219 0 90.109375 32.800781 94.035156 90.597656 10.566406 1.980468 18.0625 11.847656 16.882813 22.703125zm0 0" fill="#ffc473"/><path d="m352.210938 192.851562h-.011719v29.429688h-17.429688v-32.910156c-9.890625-1.8125-23.058593-4.851563-37.007812-10.910156-13.960938-6.070313-28.710938-15.140626-41.761719-29.011719-26.101562 27.730469-59 36.3125-78.769531 39.921875v32.910156h-17.441407v-31.730469c.03125-44.242187 1.660157-122.550781 96.210938-122.550781 96.210938 0 96.210938 81.089844 96.210938 124.851562zm0 0" fill="#57555c"/><path d="m352.210938 192.851562h-.011719v29.429688h-17.429688v-32.910156c-9.890625-1.8125-23.058593-4.851563-37.007812-10.910156-13.960938-6.070313-28.710938-15.140626-41.761719-29.011719v-81.449219c96.210938 0 96.210938 81.089844 96.210938 124.851562zm0 0" fill="#3c3b41"/><path d="m307.40625 201.90625h-51.40625v60.453125h18.261719v-43.507813h33.144531zm0 0" fill="#ffaa20"/><path d="m201.386719 201.90625h43.789062v16.945312h-43.789062zm0 0" fill="#ffc473"/><path d="m397.210938 396.371094v73.1875c-40.480469 26.820312-89.019532 42.441406-141.210938 42.441406s-100.730469-15.621094-141.210938-42.441406v-73.1875c0-29.929688 24.480469-54.429688 54.441407-54.429688h173.769531c29.851562.128906 54.210938 24.578125 54.210938 54.429688zm0 0" fill="#ffa7b7"/><path d="m397.210938 396.371094v73.1875c-40.480469 26.820312-89.019532 42.441406-141.210938 42.441406v-170.058594h87c29.851562.128906 54.210938 24.578125 54.210938 54.429688zm0 0" fill="#ff738e"/><path d="m340.03125 331.5h-11.53125c-5.800781 0-10.5 4.699219-10.5 10.5v98h-124v-98c0-5.800781-4.699219-10.5-10.5-10.5h-11.53125c-5.796875 0-10.5 4.699219-10.5 10.5v151.980469c10.519531 4.179687 21.382812 7.691406 32.53125 10.460937v-31.441406h124v31.441406c11.148438-2.769531 22.011719-6.28125 32.53125-10.460937v-151.980469c0-5.800781-4.703125-10.5-10.5-10.5zm0 0" fill="#ff3c62"/><path d="m350.53125 342v151.980469c-10.519531 4.179687-21.382812 7.691406-32.53125 10.460937v-31.441406h-62v-33h62v-98c0-5.800781 4.699219-10.5 10.5-10.5h11.53125c5.796875 0 10.5 4.699219 10.5 10.5zm0 0" fill="#e7001f"/><path d="m161.46875 422.96875v71c-16.46875-6.539062-32.097656-14.75-46.679688-24.410156v-46.589844zm0 0" fill="#ffdba9"/><path d="m397.210938 422.96875v46.589844c-14.582032 9.660156-30.210938 17.871094-46.679688 24.410156v-71zm0 0" fill="#ffc473"/><path d="m370.433594 151.613281c0-52.617187-42.652344-95.265625-95.265625-95.265625h-38.335938c-52.613281 0-95.265625 42.652344-95.265625 95.265625v92.734375h36.167969v-85.347656h156.53125v85.347656h36.167969zm0 0" fill="#fff"/><path d="m370.429688 151.609375v92.742187h-36.160157v-85.351562h-78.269531v-102.648438h19.171875c52.609375 0 95.257813 42.648438 95.257813 95.257813zm0 0" fill="#fff5cb"/><path d="m275.167969 56.347656h-38.335938c-46.59375 0-85.371093 33.453125-93.632812 77.652344h225.601562c-8.261719-44.199219-47.039062-77.652344-93.632812-77.652344zm0 0" fill="#ff738e"/><path d="m368.800781 134h-112.800781v-77.648438h19.171875c46.589844 0 85.367187 33.449219 93.628906 77.648438zm0 0" fill="#ff3d62"/><path d="m177.734375 159h156.53125v85.347656h-156.53125zm0 0" fill="#ff738e"/><path d="m203.539062 159-25.804687 38.480469v40.085937l52.691406-78.566406zm0 0" fill="#ffa7b8"/><path d="m242.183594 159-57.238282 85.347656h11.921876l57.238281-85.347656zm0 0" fill="#ffa7b8"/><path d="m256 159h78.269531v85.351562h-78.269531zm0 0" fill="#ff3d62"/></svg>