<svg height="512pt" viewBox="0 0 512 512" width="512pt" xmlns="http://www.w3.org/2000/svg"><path d="m512 256c0 141.386719-114.613281 256-256 256s-256-114.613281-256-256 114.613281-256 256-256 256 114.613281 256 256zm0 0" fill="#ff3d62"/><path d="m511.929688 261.480469-178.167969-178.171875c-32.316407-35.285156-90.851563-60.359375-163.171875-13.753906 0 0 2.484375 6.992187 8.59375 17.035156-15.378906 16.628906-26.257813 38.890625-28.109375 66.121094-11.785157 2.207031-20.148438 13.222656-18.835938 25.335937l2.027344 18.734375c.636719 5.867188 3.433594 11 7.515625 14.691406l8.507812 8.4375c1.871094 15.363282 8.785157 29.183594 19.039063 39.753906l40.140625 40.148438v9.296875h-66.902344c-39.160156 0-71.160156 32.03125-71.160156 71.160156v53.089844c.703125.730469 1.410156 1.453125 2.121094 2.171875.585937.59375 1.164062 1.195312 1.753906 1.78125.355469.351562.714844.695312 1.070312 1.042969 1.03125 1.015625 2.0625 2.027343 3.109376 3.023437v.007813c45.929687 43.753906 108.097656 70.613281 176.539062 70.613281 139.554688 0 253.011719-111.667969 255.929688-250.519531zm0 0" fill="#e7001f"/><path d="m209.46875 284.667969h93.0625v87.582031h-93.0625zm0 0" fill="#ffc473"/><path d="m256 284.667969h46.53125v87.582031h-46.53125zm0 0" fill="#ffaa20"/><path d="m360.921875 152.710938c-4.378906-64.488282-59.375-101.089844-104.921875-101.089844s-100.542969 36.601562-104.921875 101.089844c-11.785156 2.207031-20.148437 13.222656-18.839844 25.335937l2.03125 18.738281c1.375 12.710938 12.902344 21.984375 25.617188 20.609375l2.1875-.238281c26.023437 67.738281 68.019531 85.179688 93.925781 89.140625 25.90625-3.960937 67.902344-21.402344 93.925781-89.140625l2.1875.238281c12.714844 1.375 24.242188-7.898437 25.617188-20.609375l2.03125-18.738281c1.308593-12.113281-7.050781-23.125-18.839844-25.335937zm0 0" fill="#ffdba9"/><path d="m379.757812 178.046875-2.027343 18.742187c-1.378907 12.707032-12.902344 21.976563-25.609375 20.601563l-2.191406-.234375c-26.027344 67.742188-68.019532 85.183594-93.929688 89.144531v-254.671875c45.550781 0 100.542969 36.597656 104.921875 101.085938 11.789063 2.207031 20.152344 13.21875 18.835937 25.332031zm0 0" fill="#ffc473"/><path d="m313.355469 183.367188h-57.355469v67.449218h20.375v-48.542968h36.980469zm0 0" fill="#ffaa20"/><path d="m195.066406 183.367188h48.855469v18.90625h-48.855469zm0 0" fill="#ffc473"/><path d="m128.679688 407.558594v70.582031c-21.179688-12.171875-40.460938-27.269531-57.269532-44.761719v-25.820312zm0 0" fill="#ffdba9"/><path d="m440.589844 407.558594v25.820312c-16.808594 17.492188-36.089844 32.589844-57.269532 44.761719v-70.582031zm0 0" fill="#ffc473"/><path d="m440.589844 380.269531v33.480469h-57.269532v64.390625c-37.5 21.539063-80.96875 33.859375-127.320312 33.859375s-89.820312-12.320312-127.320312-33.859375v-64.390625h-57.269532v-33.480469c0-39.128906 32-71.160156 71.160156-71.160156h66.898438l46.53125 61.039063 46.53125-61.039063h67.199219c39.03125.179687 70.859375 32.140625 70.859375 71.160156zm0 0" fill="#00a6ff"/><path d="m203.71875 486.554688h-26.945312c-8.714844 0-15.777344-7.0625-15.777344-15.777344v-33.527344h58.5v33.527344c0 8.714844-7.066406 15.777344-15.777344 15.777344zm0 0" fill="#08f"/><path d="m160.996094 424.804688h58.5v14.75h-58.5zm0 0" fill="#006ef5"/><path d="m440.589844 380.269531v33.480469h-57.269532v64.390625c-37.5 21.539063-80.96875 33.859375-127.320312 33.859375v-141.851562l46.53125-61.039063h67.199219c39.03125.179687 70.859375 32.140625 70.859375 71.160156zm0 0" fill="#006ef5"/><path d="m292.503906 370.152344h-73.007812l36.503906 102.046875zm0 0" fill="#57555c"/><path d="m292.507812 370.152344-36.507812 102.042968v-102.042968zm0 0" fill="#171719"/><path d="m209.46875 309.113281h-39.382812l47.144531 93.160157 38.769531-32.121094zm0 0" fill="#78777f"/><path d="m302.53125 309.113281h39.378906l-47.144531 93.160157-38.765625-32.121094zm0 0" fill="#57555c"/><path d="m344.316406 96.449219c-28.90625-41.308594-92.660156-79.136719-173.726562-26.894531 0 0 39.976562 112.472656 193.613281 83.699218 0 0-2.546875-32.015625-19.886719-56.804687zm0 0" fill="#57555c"/><path d="m364.199219 153.25c-45.328125 8.488281-80.769531 4.691406-108.199219-4.898438v-103.992187c39.828125 2.789063 70.609375 26.78125 88.308594 52.089844 17.351562 24.789062 19.890625 56.800781 19.890625 56.800781zm0 0" fill="#171719"/><path d="m71.410156 405.640625h57.269532v19.164063h-57.269532zm0 0" fill="#78777f"/><g fill="#57555c"><path d="m383.320312 405.640625h57.269532v19.164063h-57.269532zm0 0"/><path d="m239.949219 269.457031h-7.316407c-3.132812 0-5.8125 2.007813-6.84375 4.792969h-6.789062c-34.601562 0-62.75-28.148438-62.75-62.75v-34.59375h-7.957031c-4.195313 0-7.625 3.433594-7.625 7.625v5.105469c0 4.195312 3.429687 7.625 7.625 7.625h1.457031v14.238281c0 38.183594 31.066406 69.25 69.25 69.25h6.699219c.957031 2.914062 3.707031 5.035156 6.933593 5.035156h7.316407c4.015625 0 7.300781-3.28125 7.300781-7.296875v-1.730469c0-4.015624-3.285156-7.300781-7.300781-7.300781zm0 0"/></g></svg>