<svg height="512pt" viewBox="-14 0 512 512.02983" width="512pt" xmlns="http://www.w3.org/2000/svg"><path d="m280.589844 228.265625c-2.421875 10.394531-11.082032 18.167969-21.671875 19.457031v.085938c-2.988281.410156-6.027344.265625-8.960938-.425782l-73.8125-17.238281-.085937.253907-18.605469-4.4375-7.082031-1.703126-7.253906-1.707031c-7.644532-1.832031-14.027344-7.070312-17.308594-14.214843-3.28125-7.144532-3.097656-15.402344.5-22.394532l7.851562-15.1875c5.457032-10.664062 16.121094-17.664062 28.074219-18.433594l53.929687-3.585937c1.722657 13.953125.203126 28.117187-4.4375 41.386719-1.144531 3.347656-.621093 7.035156 1.398438 9.9375 2.023438 2.898437 5.308594 4.660156 8.84375 4.742187 19.199219-.769531 50.429688-3.15625 57.511719-10.753906v19.96875c.023437 2.386719.546875 4.742187 1.539062 6.914063.238281 2.453124.09375 4.925781-.429687 7.335937zm0 0" fill="#f44335"/><path d="m356.28125 179.199219h-23.039062c-10.839844 0-19.628907 8.789062-19.628907 19.628906v15.214844c-.027343.613281-.089843 1.226562-.1875 1.832031l31.421875-18.132812c6.839844-3.980469 11.4375-10.921876 12.441406-18.773438-.332031.101562-.667968.175781-1.007812.230469zm0 0" fill="#ffe0b2"/><path d="m252.601562 315.734375h-79.53125c.710938-4.1875.652344-8.464844-.171874-12.628906l-14.417969-71.9375-1.027344-5.207031 18.605469 4.4375.085937-.253907 73.8125 17.238281c2.933594.691407 5.972657.835938 8.960938.425782l-6.742188 57.769531c-.371093 3.386719-.226562 6.8125.425781 10.15625zm0 0" fill="#c52828"/><path d="m230.5 315.734375h-57.429688c.710938-4.1875.652344-8.464844-.171874-12.628906l-14.417969-71.9375 69.375 16.214843c2.933593.691407 5.972656.835938 8.960937.425782l-6.742187 57.769531c-.371094 3.386719-.226563 6.8125.425781 10.15625zm0 0" fill="#f44335"/><path d="m295.269531 431.1875-6.230469 5.804688-59.390624 58.964843c-8.75 8.742188-22.492188 10-32.683594 2.988281-1.664063-1.148437-3.183594-2.496093-4.523438-4.011718-8.945312-10.707032-8.085937-26.507813 1.960938-36.179688l47.53125-47.53125c6.582031-6.519531 6.734375-17.105468.34375-23.808594l-30.464844-32.34375-11.09375 19.203126-37.121094 64.253906c-2.394531 4.269531-5.71875 7.945312-9.726562 10.753906l-68.609375 48.894531c-8.816407 6.769531-21.003907 7.046875-30.121094.683594-2.597656-1.742187-4.828125-3.976563-6.570313-6.570313-7.4375-11.824218-4.496093-27.378906 6.742188-35.671874l62.632812-47.871094c4.453126-3.421875 8.191407-7.683594 11.007813-12.542969l40.023437-69.292969c2.035157-3.4375 3.394532-7.230468 4.007813-11.175781h79.617187c1.132813 6.480469 4.164063 12.476563 8.703126 17.234375l35.753906 37.890625c16.144531 17.164063 15.34375 44.15625-1.789063 60.328125zm0 0" fill="#37474f"/><path d="m266.085938 431.1875-6.230469 5.804688-59.390625 58.964843c-1.105469 1.066407-2.273438 2.0625-3.5 2.988281-1.664063-1.148437-3.183594-2.496093-4.523438-4.011718-8.945312-10.707032-8.085937-26.507813 1.960938-36.179688l47.53125-47.53125c6.582031-6.519531 6.734375-17.105468.34375-23.808594l-30.464844-32.34375-11.09375 19.203126-18.089844-19.203126-48.214844 83.457032c-2.394531 4.269531-5.71875 7.945312-9.726562 10.753906l-68.609375 48.894531-.9375.683594c-2.597656-1.742187-4.828125-3.976563-6.570313-6.570313-7.4375-11.824218-4.496093-27.378906 6.742188-35.671874l62.632812-47.871094c4.453126-3.421875 8.191407-7.683594 11.007813-12.542969l40.023437-69.292969c2.035157-3.4375 3.394532-7.230468 4.007813-11.175781h50.433594c1.132812 6.480469 4.164062 12.476563 8.703125 17.234375l35.753906 37.890625c16.144531 17.164063 15.34375 44.15625-1.789062 60.328125zm0 0" fill="#607d8b"/><path d="m244.410156 68.265625h-24.660156c5.132812.0625 10.023438-2.203125 13.289062-6.167969 3.269532-3.964844 4.5625-9.195312 3.519532-14.226562-3.5-15.445313-14.335938-34.558594-45.910156-38.570313 3.988281-.527343 8.007812-.785156 12.03125-.765625 41.472656 0 54.613281 22.015625 58.539062 39.335938 1.042969 5.03125-.25 10.261718-3.519531 14.226562-3.265625 3.964844-8.152344 6.230469-13.289063 6.167969zm0 0" fill="#c52828"/><path d="m219.75 68.265625h-8.535156c-4.710938 0-8.535156 3.820313-8.535156 8.535156v17.066407c0 4.710937-3.820313 8.53125-8.53125 8.53125h-32.085938c-7.039062.082031-13.382812-4.25-15.871094-10.835938-9.984375-27.988281-4.523437-75.605469 44.457032-82.261719 31.574218 4.011719 42.410156 23.125 45.910156 38.570313 1.042968 5.03125-.25 10.261718-3.519532 14.226562-3.265624 3.964844-8.15625 6.230469-13.289062 6.167969zm0 0" fill="#f44335"/><path d="m253.882812 85.332031c.019532 18.261719-9.707031 35.144531-25.515624 44.289063-.761719-.15625-1.53125-.269532-2.304688-.339844-4.171875-.480469-8.195312 1.703125-10.070312 5.460938-4.339844 1.160156-8.816407 1.761718-13.3125 1.792968-2.945313 0-5.886719-.257812-8.789063-.769531-18.207031-3.171875-33.285156-15.929687-39.421875-33.367187-.34375-.765626-.597656-1.535157-.855469-2.300782 2.585938 1.445313 5.488281 2.234375 8.449219 2.300782h32.085938c4.710937 0 8.53125-3.820313 8.53125-8.53125v-17.066407c0-4.714843 3.824218-8.535156 8.535156-8.535156h33.195312c2.074219-.042969 4.125-.445313 6.058594-1.195313 2.21875 5.835938 3.375 12.019532 3.414062 18.261719zm0 0" fill="#bfa885"/><path d="m236.816406 85.332031c.019532 18.261719-9.707031 35.144531-25.515625 44.289063-.761719-.15625-1.53125-.269532-2.304687-.339844-4.171875-.480469-8.195313 1.703125-10.070313 5.460938-1.65625.429687-3.339843.773437-5.035156 1.023437-18.207031-3.171875-33.285156-15.929687-39.421875-33.367187h39.679688c4.710937 0 8.53125-3.820313 8.53125-8.53125v-17.066407c0-4.714843 3.824218-8.535156 8.535156-8.535156h16.128906c2.074219-.042969 4.125-.445313 6.058594-1.195313.167968.429688.253906.769532.425781 1.195313 1.949219 5.480469 2.960937 11.25 2.988281 17.066406zm0 0" fill="#ffe0b2"/><path d="m55.328125 456.652344c-11.269531 8.269531-14.207031 23.855468-6.722656 35.660156 3.964843 5.800781 10.140625 9.71875 17.082031 10.828125 6.9375 1.113281 14.027344-.675781 19.609375-4.949219l18.714844-13.335937c-8.492188-10.238281-23.253907-28.160157-32.980469-40.21875zm0 0" fill="#394f63"/><path d="m194.429688 458.742188c-10.0625 9.671874-10.929688 25.476562-1.988282 36.191406 4.695313 5.230468 11.335938 8.300781 18.363282 8.488281 7.027343.191406 13.820312-2.519531 18.792968-7.488281l15.136719-15.011719-36.515625-36.019531zm0 0" fill="#394f63"/><path d="m475.75 153.601562c-.03125 9.414063-7.65625 17.035157-17.070312 17.066407h-93.863282v-34.132813h93.863282c9.398437.066406 17 7.667969 17.070312 17.066406zm0 0" fill="#9e9e9e"/><path d="m458.679688 153.601562c-.027344 9.414063-7.652344 17.035157-17.066407 17.066407h-76.796875v-34.132813h76.796875c9.398438.066406 17 7.667969 17.066407 17.066406zm0 0" fill="#cfd8dc"/><path d="m279.480469 136.535156s-29.867188-4.167968-53.402344-7.246094c-3.632813-.285156-7.167969 1.277344-9.402344 4.15625-2.234375 2.882813-2.871093 6.695313-1.6875 10.144532 3.324219 15.519531 2.1875 31.660156-3.277343 46.558594-1.179688 3.347656-.671876 7.0625 1.367187 9.96875s5.355469 4.648437 8.90625 4.683593c19.226563-.769531 50.414063-3.183593 57.496094-10.710937zm0 0" fill="#607d8b"/><path d="m364.816406 136.535156v34.132813c0 4.710937-3.820312 8.53125-8.535156 8.53125h-23.039062c-10.839844 0-19.628907 8.789062-19.628907 19.628906v15.1875c0 9.050781-7.332031 16.382813-16.382812 16.382813h-1.363281c-2.734376-.03125-5.425782-.703126-7.851563-1.960938-5.246094-2.90625-8.511719-8.421875-8.535156-14.421875v-77.480469zm0 0" fill="#37474f"/><path d="m347.75 136.535156v34.132813c0 4.710937-3.820312 8.53125-8.535156 8.53125h-23.039063c-10.839843 0-19.628906 8.789062-19.628906 19.628906v15.1875c-.019531 6-3.285156 11.515625-8.53125 14.421875-5.246094-2.90625-8.511719-8.421875-8.535156-14.421875v-77.480469zm0 0" fill="#607d8b"/><path d="m212.757812 195.148438c-.636718 0-1.269531-.070313-1.894531-.203126l-11.851562-2.6875c-2.972657-.675781-5.363281-2.882812-6.269531-5.792968-.902344-2.914063-.1875-6.085938 1.882812-8.324219s5.175781-3.207031 8.152344-2.53125l11.851562 2.6875c4.230469.960937 7.0625 4.945313 6.585938 9.257813-.480469 4.3125-4.117188 7.582031-8.457032 7.59375zm0 0"/><path d="m255.742188 256.582031c-2.605469.007813-5.207032-.277343-7.75-.855469l-71.765626-16.792968c-.71875.019531-1.4375-.046875-2.140624-.195313l-25.695313-6.136719c-3.019531-.65625-5.449219-2.890624-6.351563-5.847656-.902343-2.957031-.132812-6.167968 2.003907-8.398437 2.140625-2.230469 5.316406-3.128907 8.308593-2.351563l23.636719 5.640625c.699219-.035156 1.394531.027344 2.074219.1875l73.8125 17.273438c1.976562.460937 4.015625.566406 6.027344.304687 4.671875-.59375 8.945312 2.710938 9.542968 7.386719.597657 4.675781-2.710937 8.949219-7.386718 9.542969-1.429688.175781-2.875.253906-4.316406.242187zm0 0"/><path d="m458.679688 179.199219h-93.863282c-4.714844 0-8.535156-3.820313-8.535156-8.53125v-34.132813c0-4.714844 3.820312-8.535156 8.535156-8.535156h93.863282c14.140624 0 25.601562 11.460938 25.601562 25.601562 0 14.136719-11.460938 25.597657-25.601562 25.597657zm-85.332032-17.066407h85.332032c4.714843 0 8.535156-3.820312 8.535156-8.53125 0-4.714843-3.820313-8.535156-8.535156-8.535156h-85.332032zm0 0"/><path d="m221.566406 213.332031c-5.761718 0-11.191406-2.691406-14.679687-7.277343-4-5.210938-5.25-12.03125-3.351563-18.320313 4.917969-13.375 6.039063-27.84375 3.242188-41.8125-1.890625-6.542969-.367188-13.601563 4.0625-18.773437 4.03125-4.71875 10.171875-7.082032 16.324218-6.28125 23.578126 3.089843 53.46875 7.261718 53.46875 7.261718 4.210938.574219 7.355469 4.15625 7.382813 8.40625v57.546875c.003906 2.175781-.824219 4.269531-2.3125 5.855469-2.910156 3.078125-10.625 11.28125-63.378906 13.378906zm3.199219-75.605469c-.394531.015626-.761719.214844-.988281.539063-.675782.847656-.878906 1.980469-.546875 3.011719 3.792969 17.074218 2.644531 34.878906-3.320313 51.320312-.34375 1.015625-.171875 2.136719.460938 3.003906.28125.425782.761718.679688 1.273437.664063 16.675781.234375 33.292969-2.023437 49.304688-6.707031v-45.59375c-10.316407-1.433594-29.664063-4.078125-45.980469-6.21875zm0 0"/><path d="m297.265625 238.933594h-1.433594c-13.734375-.019532-24.863281-11.148438-24.882812-24.882813v-77.515625c0-4.714844 3.820312-8.535156 8.53125-8.535156h85.335937c4.710938 0 8.53125 3.820312 8.53125 8.535156v34.132813c0 9.425781-7.640625 17.066406-17.066406 17.066406h-23.039062c-2.941407 0-5.765626 1.167969-7.84375 3.25-2.082032 2.078125-3.25 4.898437-3.25 7.84375v15.214844c-.015626 13.738281-11.144532 24.871093-24.882813 24.890625zm-9.25-93.867188v68.984375c.003906 4.3125 3.5 7.8125 7.816406 7.816407h1.433594c4.3125-.003907 7.8125-3.503907 7.816406-7.816407v-15.222656c0-15.554687 12.605469-28.160156 28.160157-28.160156h23.039062v-25.601563zm0 0"/><path d="m441.613281 145.066406c-4.710937 0-8.53125-3.820312-8.53125-8.53125v-17.070312c0-4.710938 3.820313-8.53125 8.53125-8.53125 4.714844 0 8.535157 3.820312 8.535157 8.53125v17.070312c0 4.710938-3.820313 8.53125-8.535157 8.53125zm0 0"/><path d="m211.496094 512h-.851563c-9.382812-.214844-18.253906-4.3125-24.5-11.316406-12.113281-14.050782-11.113281-35.125 2.277344-47.964844l47.53125-47.53125c3.261719-3.261719 3.335937-8.53125.171875-11.886719l-22.640625-24.003906-42.480469 73.582031c-3.050781 5.292969-7.207031 9.867188-12.183594 13.40625l-68.566406 48.886719c-7.445312 5.605469-16.859375 7.917969-26.054687 6.40625-9.195313-1.511719-17.375-6.71875-22.636719-14.410156-10.160156-15.523438-6.390625-36.285157 8.578125-47.246094l62.617187-48c3.582032-2.71875 6.59375-6.117187 8.855469-10.003906l40.015625-69.296875c3.109375-5.390625 4.148438-11.726563 2.925782-17.828125l-14.414063-71.832031-8.96875-2.144532c-10.191406-2.433594-18.703125-9.417968-23.082031-18.9375-4.378906-9.523437-4.140625-20.53125.648437-29.855468l7.792969-15.179688c6.890625-13.273438 20.195312-22.003906 35.113281-23.039062l53.929688-3.601563c4.34375-.226563 8.183593 2.796875 8.976562 7.074219 1.972657 15.261718.382813 30.773437-4.640625 45.320312-.34375 1.015625-.171875 2.136719.460938 3.003906.28125.425782.761718.679688 1.273437.664063 35.710938-1.425781 49.390625-5.878906 51.632813-8.046875 2.5-2.394531 6.167968-3.117188 9.386718-1.84375 3.160157 1.257812 5.257813 4.28125 5.332032 7.679688v19.96875c.011718 1.125.269531 2.234374.753906 3.253906.441406.9375.707031 1.949218.785156 2.984375.289063 3.316406.070313 6.65625-.648437 9.90625-2.695313 11.429687-11.078125 20.671875-22.1875 24.464843l-6.058594 51.882813c-.886719 7.519531 1.617187 15.042969 6.824219 20.53125l35.757812 37.90625c9.316406 9.878906 14.332032 23.054687 13.9375 36.625-.398437 13.574219-6.167968 26.4375-16.046875 35.753906l-6.203125 5.855469-59.308594 58.8125c-6.398437 6.382812-15.066406 9.976562-24.105468 10zm-3.070313-354.21875-45.636719 3.054688c-8.960937.617187-16.949218 5.863281-21.078124 13.839843l-7.789063 15.183594c-2.394531 4.660156-2.511719 10.160156-.320313 14.921875 2.191407 4.757812 6.445313 8.25 11.539063 9.464844l14.277344 3.414062c3.238281.773438 5.726562 3.359375 6.382812 6.621094l15.445313 77.160156c2.039062 10.167969.300781 20.730469-4.882813 29.710938l-40.011719 69.300781c-3.367187 5.839844-7.859374 10.957031-13.21875 15.050781l-62.617187 47.933594c-7.652344 5.511719-9.773437 15.988281-4.871094 24.046875 2.640625 3.871094 6.757813 6.484375 11.386719 7.226563 4.625.746093 9.355469-.445313 13.078125-3.292969l68.8125-49.074219c2.988281-2.121094 5.484375-4.863281 7.3125-8.039062l48.152344-83.472657c1.351562-2.335937 3.722656-3.894531 6.402343-4.207031 2.679688-.332031 5.359376.644531 7.203126 2.617188l30.503906 32.335937c9.566406 10.046875 9.335937 25.902344-.519532 35.667969l-47.53125 47.53125c-6.855468 6.476562-7.578124 17.136718-1.664062 24.480468 3.128906 3.515626 7.578125 5.570313 12.28125 5.675782 4.699219.230468 9.265625-1.589844 12.515625-4.992188l65.84375-64.980468c13.703125-12.9375 14.328125-34.53125 1.402344-48.238282l-35.757813-37.949218c-8.660156-9.164063-12.8125-21.695313-11.339844-34.21875l6.75-57.789063c.453126-3.890625 3.503907-6.976563 7.390626-7.472656 7.03125-.894531 12.773437-6.050781 14.414062-12.945313.246094-1.15625.347656-2.335937.304688-3.515625-1.082032-2.800781-1.636719-5.777343-1.636719-8.78125v-6.554687c-15.953125 3.714844-32.261719 5.671875-48.640625 5.835937-6.023438.246094-11.785156-2.464843-15.4375-7.261719-4.003906-5.214843-5.246094-12.042968-3.335938-18.335937 3.152344-9.675781 4.800782-19.777344 4.890625-29.953125zm0 0"/><path d="m313.4375 224.425781c-2.429688.003907-4.746094-1.027343-6.363281-2.835937-1.621094-1.808594-2.394531-4.222656-2.128907-6.636719l7.78125-.28125-.066406-.109375-7.578125-.707031v-15.027344c0-7.46875 2.964844-14.632813 8.246094-19.914063s12.445313-8.246093 19.914063-8.246093h22.1875c.296874-.0625.597656-.121094.792968-.144531 2.625-.316407 5.246094.601562 7.097656 2.484374 1.855469 1.882813 2.730469 4.519532 2.375 7.140626-1.347656 10.46875-7.5 19.710937-16.640624 24.992187l-31.402344 18.132813c-1.28125.746093-2.734375 1.140624-4.214844 1.152343zm19.804688-36.691406c-2.941407 0-5.765626 1.167969-7.84375 3.25-2.082032 2.078125-3.25 4.898437-3.25 7.84375v2.164063l18.433593-10.640626c1.242188-.726562 2.390625-1.609374 3.410157-2.625zm0 0"/><path d="m194.148438 110.933594h-32.070313c-10.664063.089844-20.238281-6.519532-23.941406-16.519532-8.359375-22.722656-5.65625-48.039062 7.3125-68.480468 8.335937-11.835938 25.027343-25.933594 57.230469-25.933594 49.078124 0 62.933593 28.800781 66.835937 45.960938 1.679687 7.417968-.125 15.199218-4.898437 21.121093-4.886719 6.15625-12.324219 9.734375-20.183594 9.71875h-33.21875v17.066407c0 9.425781-7.640625 17.066406-17.066406 17.066406zm8.53125-93.867188c-19.976563 0-34.542969 6.289063-43.277344 18.6875-9.75 15.90625-11.667969 35.40625-5.199219 52.90625 1.273437 3.214844 4.421875 5.292969 7.875 5.199219h32.070313v-17.058594c0-9.425781 7.640624-17.066406 17.066406-17.066406h33.21875c2.664062 0 5.175781-1.21875 6.828125-3.304687 1.53125-1.863282 2.117187-4.332032 1.585937-6.6875-4.898437-21.683594-21.785156-32.675782-50.167968-32.675782zm0 0"/><path d="m202.679688 145.066406c-26.3125-.140625-49.480469-17.378906-57.171876-42.546875-.996093-3.324219.121094-6.925781 2.828126-9.101562 2.707031-2.175781 6.460937-2.492188 9.496093-.804688 1.292969.769531 2.761719 1.203125 4.265625 1.253907h32.050782v-17.066407c0-9.425781 7.640624-17.066406 17.066406-17.066406h33.21875c1.046875-.03125 2.074218-.25 3.039062-.648437 4.390625-1.648438 9.289063.558593 10.964844 4.941406 10.53125 27.34375-.414062 58.289062-25.796875 72.933594-1.632813.941406-3.535156 1.324218-5.410156 1.082031l-2.285157-.296875c-.648437-.09375-1.152343.511718-1.433593 1.03125-1.113281 2.066406-3.03125 3.582031-5.300781 4.191406-5.0625 1.371094-10.28125 2.078125-15.53125 2.097656zm-34.082032-34.132812c9.792969 13.113281 26.253906 19.421875 42.300782 16.214844 3.8125-4.550782 9.605468-6.945313 15.515624-6.417969 11.792969-7.929688 18.886719-21.1875 18.933594-35.398438.011719-2.863281-.273437-5.722656-.851562-8.53125h-33.28125v17.066407c0 9.425781-7.640625 17.066406-17.066406 17.066406zm0 0"/><path d="m416.015625 512h-407.46875c-4.710937 0-8.53125-3.820312-8.53125-8.535156 0-4.710938 3.820313-8.53125 8.53125-8.53125h407.46875c14.136719 0 25.597656-11.460938 25.597656-25.601563 0-4.710937 3.820313-8.53125 8.535157-8.53125 4.710937 0 8.53125 3.820313 8.53125 8.53125-.027344 23.554688-19.113282 42.640625-42.664063 42.667969zm0 0"/><path d="m252.558594 324.265625h-79.539063c-4.710937 0-8.53125-3.820313-8.53125-8.53125 0-4.714844 3.820313-8.535156 8.53125-8.535156h79.539063c4.714844 0 8.535156 3.820312 8.535156 8.535156 0 4.710937-3.820312 8.53125-8.535156 8.53125zm0 0"/><path d="m69.714844 512c-11.265625.011719-21.808594-5.550781-28.160156-14.855469-10.160157-15.523437-6.394532-36.289062 8.578124-47.25l15.699219-12.023437c3.675781-2.8125 8.925781-2.179688 11.828125 1.425781 9.703125 12.03125 24.4375 29.867187 32.914063 40.105469 1.511719 1.828125 2.195312 4.199218 1.886719 6.546875-.308594 2.351562-1.578126 4.46875-3.507813 5.84375l-18.699219 13.378906c-5.917968 4.457031-13.128906 6.855469-20.539062 6.828125zm-9.199219-48.554688c-7.648437 5.515626-9.769531 15.988282-4.871094 24.046876 2.640625 3.871093 6.757813 6.484374 11.386719 7.230468 4.625.742188 9.355469-.449218 13.078125-3.296875l11.484375-8.191406c-6.679688-8.089844-14.957031-18.140625-21.972656-26.769531zm0 0"/><path d="m211.496094 512h-.851563c-9.382812-.214844-18.253906-4.3125-24.5-11.316406-12.113281-14.050782-11.113281-35.125 2.277344-47.964844l13.808594-13.808594c3.328125-3.308594 8.703125-3.308594 12.03125 0l36.503906 36.019532c1.621094 1.605468 2.535156 3.789062 2.535156 6.070312 0 2.277344-.914062 4.460938-2.535156 6.066406l-15.144531 14.957032c-6.410156 6.378906-15.082032 9.964843-24.125 9.976562zm-3.214844-55.039062-7.816406 7.816406c-6.855469 6.476562-7.582032 17.136718-1.664063 24.480468 3.121094 3.511719 7.5625 5.566407 12.261719 5.675782 4.699219.230468 9.265625-1.589844 12.515625-4.992188l9.039063-8.960937zm0 0"/></svg>