<svg height="512pt" viewBox="0 0 512 512" width="512pt" xmlns="http://www.w3.org/2000/svg"><path d="m512 256c0 141.386719-114.613281 256-256 256s-256-114.613281-256-256 114.613281-256 256-256 256 114.613281 256 256zm0 0" fill="#005ed3"/><path d="m512 256c0-23.316406-3.136719-45.894531-8.976562-67.359375l-149.300782-149.304687-14.53125 18.867187-18.042968-18.867187-14.53125 18.867187-18.042969-18.867187-14.53125 18.867187-18.046875-18.867187-14.527344 18.867187-18.046875-18.867187-14.53125 18.867187-18.042969-18.867187-14.53125 18.867187-18.042968-18.867187v112.675781c-9.839844 2.726562-16.613282 12.289062-15.476563 22.757812l1.855469 17.136719c.5625 5.203125 2.984375 9.777344 6.53125 13.128906l30.628906 30.617188c7.902344 13.988281 16.636719 24.613281 25.519531 32.667968 1.589844 1.746094 3.1875 3.398438 4.796875 4.964844v25.296875l-.636718-.832031h-63.992188c-37.460938 0-68.070312 30.640625-68.070312 68.070312v75.539063c1.359374 1.296875 2.738281 2.574219 4.128906 3.84375.59375.539063 1.195312 1.070313 1.792968 1.605469 45.292969 40.535156 105.085938 65.191406 170.648438 65.191406 141.386719 0 256-114.613281 256-256zm0 0" fill="#00459f"/><path d="m212.125 264.058594h87.746094v96.941406h-87.746094zm0 0" fill="#ffc473"/><path d="m256 264.058594h43.875v96.941406h-43.875zm0 0" fill="#ffaa20"/><path d="m134.210938 391.921875v89.296875c-20.019532-10.839844-38.429688-24.277344-54.78125-39.847656v-49.449219zm0 0" fill="#ffdba9"/><path d="m432.570312 391.921875v49.449219c-16.351562 15.570312-34.761718 29.007812-54.78125 39.847656v-89.296875zm0 0" fill="#ffc473"/><path d="m432.570312 365.820312v32.019532h-54.78125v83.378906c-36.21875 19.632812-77.699218 30.78125-121.789062 30.78125s-85.570312-11.148438-121.789062-30.78125v-83.378906h-54.78125v-32.019532c0-37.429687 30.609374-68.070312 68.070312-68.070312h63.988281l44.511719 58.390625 44.511719-58.390625h64.277343c37.332032.171875 67.78125 30.738281 67.78125 68.070312zm0 0" fill="#fff"/><path d="m432.570312 365.820312v32.019532h-54.78125v83.378906c-36.21875 19.632812-77.699218 30.78125-121.789062 30.78125v-155.859375l44.511719-58.390625h64.277343c37.332032.171875 67.78125 30.738281 67.78125 68.070312zm0 0" fill="#fff5cb"/><path d="m134.210938 427.800781h243.578124v46.535157h-243.578124zm0 0" fill="#57555c"/><path d="m256 427.800781h121.789062v46.527344h-121.789062zm0 0" fill="#3c3b41"/><path d="m334.613281 408.082031-7.359375 5.953125c-2.773437 2.242188-6.738281 2.242188-9.511718 0l-7.359376-5.953125c-2.246093-1.8125-3.550781-4.546875-3.550781-7.433593v-20.683594h31.332031v20.683594c0 2.886718-1.304687 5.621093-3.550781 7.433593zm0 0" fill="#901"/><path d="m102.8125 397.839844h-11v-28.648438c0-34.636718 28.175781-62.8125 62.808594-62.8125h58.566406v11h-58.566406c-28.566406 0-51.808594 23.242188-51.808594 51.8125zm0 0" fill="#57555c"/><path d="m409.1875 397.839844h11v-28.648438c0-34.636718-28.175781-62.8125-62.808594-62.8125h-58.566406v11h58.566406c28.566406 0 51.808594 23.242188 51.808594 51.8125zm0 0" fill="#3c3b41"/><path d="m351.972656 151.597656c-4.003906-58.988281-54.3125-92.46875-95.972656-92.46875s-91.96875 33.480469-95.972656 92.46875c-10.78125 2.015625-18.433594 12.09375-17.230469 23.171875l1.855469 17.136719c1.257812 11.628906 11.800781 20.113281 23.429687 18.855469l2.003907-.21875c23.804687 61.960937 62.21875 77.914062 85.914062 81.539062 23.699219-3.625 62.113281-19.578125 85.914062-81.539062l2.003907.21875c11.628906 1.257812 22.171875-7.226563 23.433593-18.855469l1.855469-17.136719c1.199219-11.078125-6.453125-21.15625-17.234375-23.171875zm0 0" fill="#ffdba9"/><path d="m341.914062 210.542969 2.003907.21875c11.628906 1.257812 22.171875-7.226563 23.433593-18.851563l1.855469-17.140625c1.199219-11.078125-6.453125-21.152343-17.230469-23.171875-4.007812-58.988281-54.316406-92.46875-95.976562-92.46875v232.953125c23.695312-3.625 62.109375-19.574219 85.914062-81.539062zm0 0" fill="#ffc473"/><path d="m353.722656 39.335938-16.289062 21.148437-16.285156-21.148437-16.289063 21.148437-16.285156-21.148437-16.289063 21.148437-16.289062-21.148437-16.285156 21.148437-16.289063-21.148437-16.285156 21.148437-16.289063-21.148437-16.289062 21.148437-16.285156-21.148437v131.585937h18.640624l13.425782-37.238281h131.316406l13.425781 37.238281h18.640625zm0 0" fill="#fdc000"/><path d="m353.726562 39.332031v131.59375h-18.648437l-10.433594-28.957031-2.988281-8.289062h-65.660156v-94.347657l16.285156 21.148438 16.292969-21.148438 16.28125 21.148438 16.296875-21.148438 16.28125 21.148438zm0 0" fill="#ff9a00"/><path d="m308.464844 179.636719h-52.464844v61.699219h18.636719v-44.40625h33.828125zm0 0" fill="#ffaa20"/><path d="m200.261719 179.636719h44.691406v17.292969h-44.691406zm0 0" fill="#ffc473"/><path d="m79.429688 391.921875h54.78125v21.746094h-54.78125zm0 0" fill="#e7001f"/><path d="m377.789062 391.921875h54.78125v21.746094h-54.78125zm0 0" fill="#901"/><path d="m300.507812 297.75-44.507812 58.390625-44.511719-58.390625h-21.988281l66.5 88.917969 66.5-88.917969zm0 0" fill="#e7001f"/><path d="m300.507812 297.75-44.507812 58.390625v30.527344l66.5-88.917969zm0 0" fill="#901"/></svg>