<svg height="512pt" viewBox="0 0 512 512" width="512pt" xmlns="http://www.w3.org/2000/svg"><path d="m512 256c0 141.386719-114.613281 256-256 256s-256-114.613281-256-256 114.613281-256 256-256 256 114.613281 256 256zm0 0" fill="#005ed3"/><path d="m512 256c0-3.035156-.070312-6.050781-.175781-9.058594l-177.253907-177.414062c-28.046874-32.121094-78.570312-28.941406-78.570312-28.941406s-61.503906-3.878907-86.464844 40.058593c-6.476562 6.527344-10.34375 15.46875-10.34375 25.089844v51.765625c-10.875 2.035156-18.589844 12.199219-17.382812 23.371094l1.875 17.289062c.542968 5.035156 2.8125 9.484375 6.15625 12.820313l30.300781 29.449219c5.59375 10.203124 11.621094 18.699218 17.839844 25.75v64.296874h-32.839844c-31.378906 0-57.011719 25.660157-57.011719 57v77.511719c2.875 2.039063 5.804688 4.007813 8.765625 5.929688v.007812c40.050781 25.980469 87.8125 41.074219 139.105469 41.074219 141.386719 0 256-114.613281 256-256zm0 0" fill="#00459f"/><path d="m197.980469 347.300781h116.039062v-173.601562c0-30.597657-24.804687-55.402344-55.40625-55.402344h-5.226562c-30.601563 0-55.40625 24.804687-55.40625 55.402344zm0 0" fill="#c06100"/><path d="m314.019531 176.316406v170.980469h-58.019531v-229c23.28125 0 43.359375 13.707031 52.59375 33.496094 3.480469 7.449219 5.425781 15.757812 5.425781 24.523437zm0 0" fill="#9a4c00"/><path d="m218.171875 277.054688h75.65625v57.855468h-75.65625zm0 0" fill="#ffc473"/><path d="m256 277.054688h37.832031v57.855468h-37.832031zm0 0" fill="#ffaa20"/><path d="m352.808594 157.5c-4.042969-59.5-54.785156-93.269531-96.808594-93.269531s-92.765625 33.769531-96.808594 93.269531c-10.875 2.039062-18.589844 12.199219-17.382812 23.375l1.875 17.289062c1.269531 11.730469 11.90625 20.285157 23.632812 19.015626l2.023438-.21875c24.007812 62.5 62.757812 78.59375 86.660156 82.25 23.902344-3.65625 62.652344-19.75 86.660156-82.25l2.023438.21875c11.726562 1.269531 22.363281-7.285157 23.632812-19.015626l1.875-17.289062c1.207032-11.175781-6.507812-21.339844-17.382812-23.375zm0 0" fill="#ffdba9"/><path d="m370.1875 180.875-1.871094 17.292969c-1.269531 11.726562-11.90625 20.28125-23.628906 19.011719l-2.023438-.21875c-24.011718 62.503906-62.757812 78.597656-86.664062 82.253906v-234.984375c42.027344 0 92.765625 33.773437 96.804688 93.269531 10.878906 2.039062 18.59375 12.199219 17.382812 23.375zm0 0" fill="#ffc473"/><path d="m308.921875 185.785156h-52.921875v62.234375h18.800781v-44.792969h34.121094zm0 0" fill="#ffaa20"/><path d="m403.871094 387.480469v77.507812c-13.210938 9.371094-27.351563 17.511719-42.25 24.273438-32.199219 14.609375-67.960938 22.738281-105.621094 22.738281s-73.421875-8.128906-105.621094-22.738281c-14.898437-6.761719-29.039062-14.902344-42.25-24.273438v-77.507812c0-31.339844 25.632813-57 57.011719-57h181.960937c31.257813.140625 56.769532 25.738281 56.769532 57zm0 0" fill="#ffdba9"/><path d="m403.871094 387.480469v77.507812c-13.210938 9.371094-27.351563 17.511719-42.25 24.273438-32.199219 14.609375-67.960938 22.738281-105.621094 22.738281v-181.519531h91.101562c31.257813.140625 56.769532 25.738281 56.769532 57zm0 0" fill="#ffc473"/><path d="m200.152344 185.785156h47.46875v17.441406h-47.46875zm0 0" fill="#ffc473"/><path d="m256 40.589844s-96.808594-6.109375-96.808594 83.773437v53.066407h41.679688v-41.910157c0-.496093.015625-.984375.039062-1.472656.554688-11.085937 17.261719-10.457031 17.261719.644531v42.734375h75.65625v-42.730469c0-11.101562 16.707031-11.734374 17.261719-.648437.023437.488281.039062.980469.039062 1.472656v41.910157h41.679688v-53.066407c0-89.882812-96.808594-83.777343-96.808594-83.773437zm0 0" fill="#e67500"/><path d="m352.808594 124.359375v53.070313h-41.679688v-41.910157c0-.488281-.007812-.988281-.039062-1.46875-.550782-11.089843-17.261719-10.460937-17.261719.640625v42.730469h-37.828125v-136.832031s96.808594-6.109375 96.808594 83.769531zm0 0" fill="#c06200"/><path d="m352.808594 133.503906-62.453125 9.90625c-22.761719 3.613282-45.949219 3.613282-68.710938 0l-62.453125-9.90625v-27.140625h193.617188zm0 0" fill="#ffb2d5"/><path d="m352.808594 112.582031h-193.617188v-6.847656c0-15.300781 9.777344-28.894531 24.285156-33.757813 47.0625-15.78125 97.984376-15.78125 145.046876 0 14.507812 4.863282 24.285156 18.457032 24.285156 33.757813zm0 0" fill="#ff53a1"/><path d="m361.621094 399.828125v89.433594c-32.199219 14.609375-67.960938 22.738281-105.621094 22.738281s-73.421875-8.128906-105.621094-22.738281v-89.433594c10.140625 0 18.359375-8.207031 18.359375-18.347656v-51h29.242188v31.007812c0 21.183594 17.167969 38.339844 38.347656 38.339844h39.34375c21.179687 0 38.347656-17.15625 38.347656-38.339844v-31.007812h29.242188v51c0 10.140625 8.21875 18.347656 18.359375 18.347656zm0 0" fill="#ff53a1"/><path d="m361.621094 399.828125v89.433594c-32.199219 14.609375-67.960938 22.738281-105.621094 22.738281v-112.171875h19.671875c21.179687 0 38.347656-17.15625 38.347656-38.339844v-31.007812h29.242188v51c0 10.140625 8.21875 18.347656 18.359375 18.347656zm0 0" fill="#ff3d62"/><path d="m334 444.546875c0 10.265625-8.320312 18.585937-18.582031 18.585937-10.265625 0-18.582031-8.320312-18.582031-18.585937 0-10.261719 8.316406-18.582031 18.582031-18.582031 10.261719 0 18.582031 8.320312 18.582031 18.582031zm0 0" fill="#fff5cb"/><path d="m352.808594 106.359375v27.140625l-62.449219 9.910156c-11.378906 1.808594-22.871094 2.710938-34.359375 2.710938v-39.761719zm0 0" fill="#ff90c2"/><path d="m352.808594 105.738281v6.839844h-96.808594v-52.4375c24.5 0 48.988281 3.949219 72.519531 11.839844 7.261719 2.429687 13.332031 7.039062 17.589844 12.960937 4.25 5.917969 6.699219 13.136719 6.699219 20.796875zm0 0" fill="#ff3d62"/></svg>