<svg height="512pt" viewBox="0 0 512 512" width="512pt" xmlns="http://www.w3.org/2000/svg"><path d="m512 256c0 141.386719-114.613281 256-256 256s-256-114.613281-256-256 114.613281-256 256-256 256 114.613281 256 256zm0 0" fill="#ff3d62"/><path d="m511.683594 268.730469-218.242188-218.511719c-9.269531-10.160156-22.605468-16.539062-37.441406-16.539062-27.394531 0-49.699219 21.71875-50.671875 48.875-46.625 21.433593-46.648437 74.140624-46.648437 105.78125-5.628907 4.03125-9.019532 10.886718-8.222657 18.230468l1.730469 15.980469c.488281 4.519531 2.492188 8.523437 5.441406 11.574219l29.210938 29.214844c6.746094 11.9375 14.140625 21.257812 21.695312 28.507812l-7.84375 42.144531h-43.300781c-42.070313 0-76.171875 34.101563-76.171875 76.171875v32.867188c.457031.425781.914062.855468 1.375 1.277344.679688.625 1.355469 1.253906 2.042969 1.871093.214843.195313.433593.382813.648437.578125 1.023438.910156 2.046875 1.8125 3.078125 2.710938v.019531c44.914063 38.945313 103.523438 62.515625 167.636719 62.515625 137.117188 0 249.050781-107.800781 255.683594-243.269531zm0 0" fill="#e7001f"/><path d="m306.71875 84.398438c0 28.007812-22.707031 50.714843-50.71875 50.714843s-50.71875-22.707031-50.71875-50.714843c0-28.011719 22.707031-50.71875 50.71875-50.71875s50.71875 22.707031 50.71875 50.71875zm0 0" fill="#9a4c00"/><path d="m306.714844 84.398438c0 28.007812-22.707032 50.714843-50.714844 50.714843v-101.433593c28.007812 0 50.714844 22.710937 50.714844 50.71875zm0 0" fill="#703700"/><path d="m302.535156 286.867188h-93.070312l-9.214844 49.488281h111.5zm0 0" fill="#ffc473"/><path d="m311.75 336.355469h-55.75v-49.492188h46.539062zm0 0" fill="#ffaa20"/><path d="m430.78125 410.160156v32.890625c-45.75 42.769531-107.210938 68.949219-174.78125 68.949219s-129.03125-26.179688-174.78125-68.949219v-32.890625c0-42.070312 34.101562-76.171875 76.171875-76.171875h197.21875c42.070313 0 76.171875 34.101563 76.171875 76.171875zm0 0" fill="#ffdba9"/><path d="m430.78125 410.160156v32.890625c-45.75 42.769531-107.210938 68.949219-174.78125 68.949219v-178.011719h98.609375c42.070313 0 76.171875 34.101563 76.171875 76.171875zm0 0" fill="#ffc473"/><path d="m355.808594 407.800781.3125-73.789062c-.5-.023438-1.011719-.023438-1.511719-.023438h-24.121094l-19.296875 61.820313c-2.25 7.222656-6.152344 13.929687-11.429687 19.660156-11.472657 12.453125-27.621094 18.671875-43.761719 18.671875s-32.289062-6.21875-43.761719-18.671875c-2.636719-2.867188-4.9375-5.980469-6.847656-9.277344-1.921875-3.292968-3.460937-6.769531-4.582031-10.382812l-19.296875-61.820313h-24.121094c-.5 0-1.011719 0-1.511719.023438l.3125 73.789062c.058594 13.988281-5.792968 27.429688-16.320312 37.480469v38.917969c34.847656 17.78125 74.320312 27.800781 116.128906 27.800781s81.28125-10.019531 116.128906-27.800781v-38.917969c-10.527344-10.050781-16.378906-23.492188-16.320312-37.480469zm0 0" fill="#005ed3"/><path d="m355.808594 407.800781.3125-73.789062c-.5-.023438-1.011719-.023438-1.511719-.023438h-24.121094l-19.296875 61.820313c-2.25 7.222656-6.152344 13.929687-11.429687 19.660156-11.472657 12.453125-27.621094 18.671875-43.761719 18.671875v77.859375c41.808594 0 81.28125-10.019531 116.128906-27.800781v-38.917969c-10.527344-10.050781-16.378906-23.492188-16.320312-37.480469zm0 0" fill="#00459f"/><path d="m345.476562 184.964844c-3.734374-54.996094-50.636718-86.210938-89.476562-86.210938s-85.742188 31.214844-89.476562 86.210938c-10.050782 1.882812-17.183594 11.273437-16.066407 21.601562l1.730469 15.980469c1.175781 10.839844 11.003906 18.75 21.847656 17.574219l1.867188-.199219c22.191406 57.765625 58.003906 72.640625 80.097656 76.019531 22.09375-3.378906 57.90625-18.253906 80.101562-76.019531l1.867188.199219c10.839844 1.175781 20.671875-6.734375 21.84375-17.574219l1.730469-15.980469c1.117187-10.328125-6.015625-19.71875-16.066407-21.601562zm0 0" fill="#ffdba9"/><path d="m361.542969 206.566406-1.730469 15.984375c-1.175781 10.839844-11.003906 18.746094-21.839844 17.570313l-1.867187-.199219c-22.199219 57.769531-58.007813 72.640625-80.105469 76.019531v-217.183594c38.84375 0 85.742188 31.210938 89.476562 86.207032 10.054688 1.882812 17.183594 11.273437 16.066407 21.601562zm0 0" fill="#ffc473"/><path d="m158.679688 188.371094s96.898437 5.816406 146.785156-45.445313c0 0 9.59375 21.835938 20.789062 31.253907 13.898438 11.691406 27.066406 14.191406 27.066406 14.191406 0-40.421875.003907-115.3125-97.320312-115.3125-97.320312 0-97.320312 74.886718-97.320312 115.3125zm0 0" fill="#c06200"/><path d="m353.320312 188.371094s-13.167968-2.5-27.066406-14.191406c-11.191406-9.417969-20.785156-31.253907-20.785156-31.253907-13.890625 14.261719-31.40625 24.109375-49.46875 30.890625v-100.761718c97.320312 0 97.320312 74.898437 97.320312 115.316406zm0 0" fill="#9a4c00"/><path d="m311.109375 197.421875h-55.109375v64.804687h19.578125v-46.640624h35.53125zm0 0" fill="#ffaa20"/><path d="m194.398438 197.421875h49.4375v18.164063h-49.4375zm0 0" fill="#ffc473"/></svg>