<svg height="512pt" viewBox="0 0 512 512" width="512pt" xmlns="http://www.w3.org/2000/svg"><path d="m512 256c0 141.386719-114.613281 256-256 256s-256-114.613281-256-256 114.613281-256 256-256 256 114.613281 256 256zm0 0" fill="#ffe670"/><path d="m511.976562 257.859375-181.925781-181.929687c-14.433593-16.707032-37.480469-28.929688-74.050781-28.929688-115.703125 0-96.140625 122.265625-96.140625 122.265625l.007813.007813c-9.4375 2.808593-15.882813 12.070312-14.789063 22.1875l1.820313 16.796874c.558593 5.148438 2.980468 9.660157 6.515624 12.949219l26.992188 26.257813c-18.351562 6.210937-37.394531 22.765625-40.113281 64.195312l24.707031 24.773438c-28 2.175781-50.210938 25.757812-50.210938 54.265625v78.84375c.570313.378906 1.144532.757812 1.71875 1.132812.6875.449219 1.375.898438 2.070313 1.34375 39.703125 25.308594 86.847656 39.980469 137.421875 39.980469 140.761719 0 254.976562-113.613281 255.976562-254.140625zm0 0" fill="#ffdb2d"/><path d="m216.371094 245.363281s-70.640625-16.507812-76.074219 66.296875c0 0 77.707031 15.761719 76.074219-66.296875zm0 0" fill="#2a2a2c"/><path d="m219.875 285.25h72.25v55.25h-72.25zm0 0" fill="#c06100"/><path d="m256 285.25h36.125v55.25h-36.125zm0 0" fill="#9a4c00"/><path d="m350.035156 168.757812c-3.925781-57.796874-53.214844-90.601562-94.035156-90.601562s-90.109375 32.804688-94.035156 90.601562c-10.566406 1.976563-18.0625 11.851563-16.886719 22.703126l1.820313 16.796874c1.234374 11.390626 11.566406 19.703126 22.960937 18.46875l1.960937-.210937c23.324219 60.710937 60.960938 76.339844 84.179688 79.890625 23.21875-3.550781 60.855469-19.179688 84.179688-79.890625l1.960937.210937c11.394531 1.234376 21.726563-7.078124 22.960937-18.46875l1.820313-16.796874c1.171875-10.851563-6.324219-20.726563-16.886719-22.703126zm0 0" fill="#e67500"/><path d="m366.917969 191.460938-1.820313 16.800781c-1.234375 11.390625-11.5625 19.699219-22.953125 18.464843l-1.960937-.210937c-23.324219 60.710937-60.960938 76.34375-84.183594 79.894531v-228.25c40.824219 0 90.109375 32.804688 94.035156 90.597656 10.566406 1.980469 18.0625 11.851563 16.882813 22.703126zm0 0" fill="#c06200"/><path d="m307.40625 196.230469h-51.40625v60.453125h18.261719v-43.507813h33.144531zm0 0" fill="#9a4c00"/><path d="m201.386719 196.230469h43.789062v16.945312h-43.789062zm0 0" fill="#c06100"/><path d="m159.722656 185.78125s56.160156-.828125 96.277344-44.578125h.003906c40.113282 43.75 96.273438 44.578125 96.273438 44.578125 0-44.941406.003906-128.214844-96.273438-128.214844-96.28125 0-96.28125 83.269532-96.28125 128.214844zm0 0" fill="#3c3b41"/><path d="m352.28125 185.78125s-14.042969-.210938-33.101562-5.882812c-19.050782-5.679688-43.121094-16.820313-63.179688-38.6875v-83.652344c96.28125 0 96.28125 83.28125 96.28125 128.222656zm0 0" fill="#2a2a2c"/><path d="m159.859375 169.265625s8.640625-88.832031 96.140625-88.832031 96.136719 88.859375 96.136719 88.859375 19.570312-122.292969-96.136719-122.292969-96.140625 122.265625-96.140625 122.265625zm0 0" fill="#005ed3"/><path d="m352.140625 169.289062s-8.640625-88.859374-96.140625-88.859374v-33.429688c115.710938 0 96.140625 122.289062 96.140625 122.289062zm0 0" fill="#003d8d"/><path d="m397.210938 390.699219v78.859375c-40.480469 26.820312-89.019532 42.441406-141.210938 42.441406s-100.730469-15.621094-141.210938-42.441406v-78.859375c0-29.929688 24.480469-54.429688 54.441407-54.429688h173.769531c29.851562.128907 54.210938 24.582031 54.210938 54.429688zm0 0" fill="#e67500"/><path d="m397.210938 390.699219v78.859375c-13.8125 9.152344-28.550782 16.992187-44.0625 23.363281-29.957032 12.296875-62.757813 19.078125-97.148438 19.078125v-175.730469h87c29.851562.128907 54.210938 24.582031 54.210938 54.429688zm0 0" fill="#c06200"/><path d="m323.296875 353.390625-1.796875-17.121094h-18.332031l-22.511719 28.03125c-12.660156 15.761719-36.652344 15.761719-49.3125 0l-22.511719-28.03125h-18.332031l-1.796875 17.121094c-2.710937 25.863281-14.679687 49.875-33.703125 67.609375v70.300781c30.988281 13.320313 65.132812 20.699219 101 20.699219s70.011719-7.378906 101-20.699219v-70.300781c-19.023438-17.734375-30.992188-41.746094-33.703125-67.609375zm0 0" fill="#005ed3"/><path d="m357 421v70.300781c-30.988281 13.320313-65.128906 20.699219-101 20.699219v-135.878906c9.160156 0 18.320312-3.941406 24.648438-11.820313l22.523437-28.03125h18.328125l1.789062 17.121094c2.722657 25.859375 14.691407 49.878906 33.710938 67.609375zm0 0" fill="#003d8d"/><path d="m193.082031 413v91.191406c20.132813 5.089844 41.203125 7.808594 62.917969 7.808594s42.785156-2.71875 62.917969-7.808594v-91.191406zm0 0" fill="#fff"/><path d="m318.921875 413v91.191406c-20.132813 5.089844-41.210937 7.808594-62.921875 7.808594v-99zm0 0" fill="#fff5cb"/><path d="m216.300781 486.75c0-2.386719.183594-4.550781.554688-6.488281.371093-1.9375 1.023437-3.726563 1.949219-5.371094.929687-1.648437 2.203124-3.1875 3.824218-4.617187 1.617188-1.433594 3.671875-2.839844 6.167969-4.21875 2.175781-1.167969 4.097656-2.191407 5.769531-3.066407s3.066406-1.683593 4.179688-2.429687c1.113281-.742188 1.960937-1.496094 2.546875-2.269532.582031-.765624.875-1.65625.875-2.664062 0-1.59375-.636719-2.960938-1.910157-4.101562-1.273437-1.140626-3.105468-1.710938-5.492187-1.710938-1.273437 0-2.441406.171875-3.503906.515625-1.0625.347656-2.054688.8125-2.984375 1.394531-.929688.585938-1.777344 1.234375-2.546875 1.949219-.769531.71875-1.472657 1.472656-2.109375 2.269531l-6.84375-7.878906c.6875-.746094 1.671875-1.554688 2.945312-2.429688 1.273438-.875 2.769532-1.699218 4.496094-2.46875 1.722656-.769531 3.632812-1.40625 5.730469-1.910156 2.097656-.503906 4.339843-.757812 6.726562-.757812 2.707031 0 5.121094.332031 7.246094.996094 2.121094.664062 3.914063 1.59375 5.371094 2.785156 1.460937 1.195312 2.574219 2.628906 3.34375 4.300781s1.152343 3.488281 1.152343 5.453125c0 1.859375-.34375 3.503906-1.03125 4.933594-.691406 1.433594-1.566406 2.707031-2.628906 3.820312-1.0625 1.117188-2.214844 2.085938-3.464844 2.90625-1.246093.824219-2.453124 1.554688-3.621093 2.191406-.953125.53125-2.042969 1.140626-3.261719 1.832032-1.222656.6875-2.429688 1.445312-3.625 2.265625-1.191406.824219-2.292969 1.671875-3.300781 2.546875-1.007813.878906-1.78125 1.742187-2.308594 2.589844h24.117187v9.628906h-38.363281zm0 0" fill="#57555c"/><path d="m262.394531 441.253906v9.257813h19.375l-18.058593 36.238281h11.308593l22.554688-45.496094zm0 0" fill="#2a2a2c"/></svg>