<svg height="512pt" viewBox="0 0 512 512" width="512pt" xmlns="http://www.w3.org/2000/svg"><path d="m0 256c0-141.386719 114.613281-256 256-256s256 114.613281 256 256c0 83.609375-40.082031 157.855469-102.078125 204.574219-42.839844 32.285156-96.144531-80.382813-153.921875-80.382813-57.773438 0-111.078125 112.671875-153.917969 80.386719-62-46.71875-102.082031-120.96875-102.082031-204.578125zm0 0" fill="#005ed3"/><path d="m512 256c0-16.738281-1.625-33.097656-4.691406-48.941406l-156.375-156.375-12.019532 17.785156-19.625-17.785156-12.1875 18.03125-19.457031-18.03125-12.226562 18.09375-19.417969-18.09375-12.160156 17.992187-19.484375-17.992187-12.316407 18.21875-19.328124-18.21875-12.546876 18.5625-19.097656-18.5625v118.347656.003906c-10.664062 1.996094-18.230468 11.960938-17.046875 22.917969l1.835938 16.957031c.515625 4.769532 2.617187 8.992188 5.71875 12.21875l30.960937 30.917969c7.136719 12.660156 14.964844 22.542969 22.960938 30.246094l11.703125 11.6875v35.730469h-55.78125c-32.648438 0-59.328125 26.710937-59.328125 59.328124v71.523438c2.441406 1.84375 4.929687 3.632812 7.4375 5.386719v.015625c41.503906 29.007812 91.996094-85.773438 146.472656-85.773438 57.777344 0 111.082031 112.667969 153.921875 80.382813 61.996094-46.71875 102.078125-120.964844 102.078125-204.574219zm0 0" fill="#00459f"/><path d="m217.199219 283.890625h77.601562v113.109375h-77.601562zm0 0" fill="#ffc473"/><path d="m256 283.890625h38.800781v113.109375h-38.800781zm0 0" fill="#ffaa20"/><path d="m409.910156 389.039062v71.519532c-12.058594 9.101562-24.949218 17.152344-38.53125 24.019531-34.667968 17.542969-73.867187 27.421875-115.378906 27.421875s-80.710938-9.878906-115.378906-27.421875c-13.582032-6.867187-26.472656-14.917969-38.53125-24.019531v-71.519532c0-32.617187 26.679687-59.328124 59.332031-59.328124h55.78125l38.796875 50.480468 38.800781-50.480468h56.027344c32.53125.148437 59.082031 26.800781 59.082031 59.328124zm0 0" fill="#fff"/><path d="m409.910156 389.039062v71.519532c-12.058594 9.101562-24.949218 17.152344-38.53125 24.019531-34.667968 17.542969-73.867187 27.421875-115.378906 27.421875v-131.808594l38.800781-50.480468h56.027344c32.53125.148437 59.082031 26.800781 59.082031 59.328124zm0 0" fill="#fff5cb"/><path d="m335.816406 329.710938h-41.015625l-38.800781 50.484374v54.757813zm0 0" fill="#aeadb3"/><path d="m350.933594 169.035156c-3.964844-58.347656-53.722656-91.464844-94.933594-91.464844s-90.96875 33.117188-94.933594 91.464844c-10.664062 1.996094-18.230468 11.960938-17.042968 22.917969l1.835937 16.957031c1.246094 11.5 11.675781 19.894532 23.175781 18.648438l1.980469-.214844c23.546875 61.289062 61.542969 77.066406 84.984375 80.652344 23.441406-3.585938 61.4375-19.363282 84.984375-80.652344l1.980469.214844c11.5 1.246094 21.929687-7.148438 23.175781-18.648438l1.835937-16.957031c1.1875-10.957031-6.378906-20.921875-17.042968-22.917969zm0 0" fill="#ffdba9"/><path d="m367.976562 191.953125-1.835937 16.960937c-1.246094 11.5-11.671875 19.886719-23.171875 18.640626l-1.980469-.214844c-23.550781 61.296875-61.546875 77.074218-84.988281 80.660156v-230.425781c41.214844 0 90.96875 33.113281 94.929688 91.460937 10.667968 2 18.234374 11.960938 17.046874 22.917969zm0 0" fill="#ffc473"/><path d="m307.894531 196.769531h-51.894531v61.03125h18.4375v-43.925781h33.457031zm0 0" fill="#ffaa20"/><path d="m200.867188 196.769531h44.203124v17.105469h-44.203124zm0 0" fill="#ffc473"/><path d="m350.933594 50.683594-15.824219 23.410156-15.820313-23.410156-15.820312 23.410156-15.824219-23.410156-15.824219 23.410156-15.820312-23.410156-15.820312 23.410156-15.824219-23.410156-15.824219 23.410156-15.820312-23.410156-15.820313 23.410156-15.824219-23.410156v145.664062h18.109375l13.042969-41.226562h127.5625l13.042969 41.226562h18.109375zm0 0" fill="#fdc000"/><path d="m350.9375 50.679688v145.671874h-18.117188l-10.136718-32.054687-2.902344-9.175781h-63.78125v-104.441406l15.816406 23.410156 15.828125-23.410156 15.820313 23.410156 15.828125-23.410156 15.816406 23.410156zm0 0" fill="#ff9a00"/><path d="m345.058594 496.070312c-11.296875 4.210938-22.988282 7.628907-34.980469 10.199219l-54.078125-71.308593-79.820312-105.25h41.019531l38.800781 50.480468zm0 0" fill="#d9d9db"/><path d="m345.058594 496.070312c-11.296875 4.210938-22.988282 7.628907-34.980469 10.199219l-54.078125-71.308593v-54.769532zm0 0" fill="#c8c6cc"/></svg>