<svg height="512pt" viewBox="0 0 512 512" width="512pt" xmlns="http://www.w3.org/2000/svg"><path d="m512 256c0 141.386719-114.613281 256-256 256s-256-114.613281-256-256 114.613281-256 256-256 256 114.613281 256 256zm0 0" fill="#00bb64"/><path d="m511.496094 271.894531-215.75-214.984375c-9.820313-10.816406-23.984375-17.613281-39.746094-17.613281-29.648438 0-53.683594 24.039063-53.683594 53.6875 0 1.289063.0625 2.5625.152344 3.828125-32.519531 16.367188-37.625 49.207031-38.429688 78.390625-9.035156 2.683594-15.207031 11.546875-14.15625 21.234375l1.738282 16.066406c.519531 4.78125 2.714844 8.992188 5.933594 12.113282 0 0 27.875 27.054687 27.925781 27.144531 7.796875 14.234375 16.511719 24.875 25.367187 32.804687l8.910156 9v31.460938c0-.085938-.007812-.167969-.007812-.253906h-50.519531c-29.960938 0-54.441407 24.5-54.441407 54.429687v90.34375c40.480469 26.820313 89.015626 42.453125 141.210938 42.453125 136.046875 0 247.285156-106.128906 255.496094-240.105469zm0 0" fill="#008c4a"/><path d="m219.757812 288.636719h72.484376v76.390625h-72.484376zm0 0" fill="#ffc473"/><path d="m256 288.636719h36.246094v76.390625h-36.246094zm0 0" fill="#ffaa20"/><path d="m397.210938 379.199219v90.359375c-40.480469 26.820312-89.019532 42.441406-141.210938 42.441406s-100.730469-15.621094-141.210938-42.441406v-90.359375c0-29.929688 24.480469-54.429688 54.441407-54.429688h50.519531c0 20.410157 15.828125 37.019531 36.25 37.019531s36.25-16.609374 36.25-37.019531h50.519531c29.949219 0 54.441407 24.5 54.441407 54.429688zm0 0" fill="#ff0335"/><path d="m170.589844 424.589844v72.808594c-19.839844-7.019532-38.550782-16.410157-55.800782-27.839844v-44.96875zm0 0" fill="#ffdba9"/><path d="m397.210938 379.199219v90.359375c-40.480469 26.820312-89.019532 42.441406-141.210938 42.441406v-150.210938c20.421875 0 36.25-16.609374 36.25-37.019531h50.519531c29.949219 0 54.441407 24.5 54.441407 54.429688zm0 0" fill="#c2001b"/><path d="m397.210938 424.589844v44.96875c-17.25 11.429687-35.960938 20.820312-55.800782 27.839844v-72.808594zm0 0" fill="#ffc473"/><path d="m342.769531 324.765625h-50.519531c0 10.035156-3.769531 19.007813-9.945312 25.601563-6.546876 7.03125-15.816407 11.417968-26.304688 11.417968s-19.757812-4.390625-26.304688-11.417968c-6.175781-6.59375-9.945312-15.566407-9.945312-25.601563h-50.519531c-29.960938 0-54.441407 24.5-54.441407 54.429687v53.183594h55.804688v-31.167968l43.785156-48.390626c1.777344 2.75 3.835938 5.335938 6.152344 7.722657 9.359375 9.636719 21.957031 14.945312 35.46875 14.945312 13.515625 0 26.109375-5.308593 35.46875-14.945312 2.269531-2.339844 4.289062-4.871094 6.046875-7.558594l43.886719 48.507813.003906 30.886718h55.804688v-53.183594c0-29.929687-24.492188-54.429687-54.441407-54.429687zm0 0" fill="#fff"/><path d="m397.210938 379.195312v53.183594h-55.800782l-.011718-30.882812-43.886719-48.507813c-1.75 2.679688-3.773438 5.21875-6.042969 7.558594-9.359375 9.628906-21.957031 14.941406-35.46875 14.941406v-13.703125c10.488281 0 19.761719-4.386718 26.300781-11.417968 6.179688-6.589844 9.949219-15.570313 9.949219-25.601563h50.519531c29.949219 0 54.441407 24.5 54.441407 54.429687zm0 0" fill="#fff5cb"/><path d="m345.96875 174.714844c-3.757812-55.296875-50.914062-86.679688-89.96875-86.679688s-86.210938 31.386719-89.96875 86.679688c-10.101562 1.894531-17.273438 11.335937-16.152344 21.722656l1.742188 16.066406c1.179687 10.898438 11.0625 18.851563 21.964844 17.671875l1.875-.203125c22.316406 58.082032 58.324218 73.039063 80.539062 76.433594 22.214844-3.394531 58.222656-18.351562 80.535156-76.433594l1.878906.203125c10.898438 1.179688 20.785157-6.773437 21.964844-17.671875l1.738282-16.066406c1.125-10.386719-6.042969-19.828125-16.148438-21.722656zm0 0" fill="#ffdba9"/><path d="m362.117188 196.4375-1.738282 16.070312c-1.183594 10.898438-11.0625 18.847657-21.960937 17.667969l-1.878907-.203125c-22.316406 58.085938-58.324218 73.042969-80.539062 76.4375v-218.371094c39.058594 0 86.210938 31.382813 89.964844 86.675782 10.109375 1.894531 17.28125 11.335937 16.152344 21.722656zm0 0" fill="#ffc473"/><path d="m305.179688 201h-49.179688v57.835938h17.472656v-41.625h31.707032zm0 0" fill="#ffaa20"/><path d="m203.753906 201h41.890625v16.210938h-41.890625zm0 0" fill="#ffc473"/><path d="m309.6875 92.984375c0 29.648437-24.035156 53.683594-53.6875 53.683594-29.648438 0-53.683594-24.035157-53.683594-53.683594 0-29.652344 24.035156-53.6875 53.683594-53.6875 29.652344 0 53.6875 24.035156 53.6875 53.6875zm0 0" fill="#3c3b41"/><path d="m309.683594 92.984375c0 29.644531-24.035156 53.683594-53.683594 53.683594v-107.367188c29.648438 0 53.683594 24.035157 53.683594 53.683594zm0 0" fill="#171719"/><path d="m163.886719 191s53.730469-.789062 92.109375-42.644531h.003906c38.382812 41.855469 92.109375 42.644531 92.109375 42.644531 0-42.996094.003906-104.640625-92.109375-104.640625s-92.113281 61.640625-92.113281 104.640625zm0 0" fill="#57555c"/><path d="m348.109375 191s-13.433594-.195312-31.660156-5.621094c-18.230469-5.433594-41.257813-16.097656-60.449219-37.023437v-61.992188c92.117188 0 92.109375 61.644531 92.109375 104.636719zm0 0" fill="#3c3b41"/></svg>