<svg height="512pt" viewBox="0 0 512 512" width="512pt" xmlns="http://www.w3.org/2000/svg"><path d="m256 0c141.386719 0 256 114.613281 256 256 0 75.488281-32.671875 143.34375-84.648438 190.199219-45.375 40.902343-105.453124-111.199219-171.351562-111.199219s-125.984375 152.101562-171.355469 111.195312c-51.972656-46.855468-84.644531-114.710937-84.644531-190.195312 0-141.386719 114.613281-256 256-256zm0 0" fill="#c2001b"/><path d="m512 256c0-1.109375-.027344-2.210938-.042969-3.3125l-178.421875-178.421875c-16.785156-18.828125-41.910156-30.796875-69.992187-30.796875h-15.085938c-50.546875 0-91.523437 38.753906-91.523437 86.558594v22.445312c-.039063.0625-.078125.121094-.117188.183594-4.707031 3.375-8.347656 6.472656-10.9375 8.886719-4.328125 4.03125-4.570312 10.804687-.542968 15.132812.296874.316407.609374.613281.933593.886719l5.722657 5.660156c-1.359376 3.0625-1.96875 6.5-1.582032 10.054688l1.730469 15.988281c.476563 4.390625 2.375 8.292969 5.1875 11.308594l29.519531 29.554687c5.972656 10.5625 12.453125 19.066406 19.105469 25.910156l6.851563 6.839844v19.660156h-62.09375c-36.359376 0-66.0625 29.730469-66.0625 66.050782v77.597656c.710937.640625 1.429687 1.273438 2.144531 1.902344 1.679687 1.472656 3.367187 2.929687 5.082031 4.359375v.007812c44.4375 37.164063 101.664062-79.457031 164.125-79.457031 65.898438 0 125.976562 114.101562 171.351562 73.199219 51.976563-46.855469 84.648438-114.710938 84.648438-190.199219zm0 0" fill="#860010"/><path d="m212.808594 280.390625h86.382812v101.28125h-86.382812zm0 0" fill="#ffc473"/><path d="m256 280.390625h43.195312v101.28125h-43.195312zm0 0" fill="#ffaa20"/><path d="m345.519531 171.664062c-3.738281-55.019531-50.660156-86.246093-89.519531-86.246093s-85.78125 31.226562-89.519531 86.246093c-10.054688 1.882813-17.191407 11.28125-16.070313 21.613282l1.730469 15.988281c1.175781 10.84375 11.011719 18.757813 21.855469 17.582031l1.867187-.203125c22.203125 57.796875 58.03125 72.675781 80.136719 76.054688 22.101562-3.378907 57.929688-18.261719 80.132812-76.054688l1.871094.203125c10.84375 1.175782 20.679688-6.738281 21.855469-17.582031l1.730469-15.988281c1.121094-10.332032-6.015625-19.730469-16.070313-21.613282zm0 0" fill="#ffdba9"/><path d="m361.589844 193.277344-1.734375 15.992187c-1.171875 10.839844-11.003907 18.75-21.847657 17.574219l-1.867187-.199219c-22.207031 57.796875-58.035156 72.675781-80.140625 76.054688v-217.277344c38.863281 0 85.777344 31.226563 89.515625 86.242187 10.058594 1.886719 17.195313 11.28125 16.074219 21.613282zm0 0" fill="#ffc473"/><path d="m301.785156 85.09375-20.855468 44.496094s6.816406 36.054687 44.722656 48.5v33.359375h11.230468c4.484376-10.953125 6.964844-32.632813 7.933594-42.964844l.007813-.003906s11.109375-54.839844-43.039063-83.386719zm0 0" fill="#703700"/><path d="m257.617188 61.019531c-17.816407 2.183594-91.179688 5.183594-100.894532 104.8125 0 0 4.46875 1.675781 12.054688 3.386719 1.015625 10.59375 3.484375 31.53125 7.863281 42.230469h11.230469v-39.226563c28.316406 2.601563 71.101562-1.394531 105.894531-39.273437 52-56.609375-15.136719-74.507813-36.148437-71.929688zm0 0" fill="#c06200"/><path d="m293.765625 132.949219c-11.953125 13.011719-24.839844 22.019531-37.765625 28.140625v-99.890625c.578125-.058594 1.125-.125 1.613281-.183594 21.015625-2.570313 88.148438 15.324219 36.152344 71.933594zm0 0" fill="#9a4c00"/><path d="m304.933594 197.816406h-48.933594v57.546875h17.382812v-41.417969h31.550782zm0 0" fill="#ffaa20"/><path d="m204.011719 197.816406h41.683593v16.132813h-41.683593zm0 0" fill="#ffc473"/><path d="m355.066406 156.777344-68.105468-13.089844c-20.453126-3.933594-41.46875-3.933594-61.921876 0l-68.105468 13.089844v-26.75c0-47.804688 40.976562-86.558594 91.523437-86.558594h15.085938c50.546875 0 91.523437 38.753906 91.523437 86.558594zm0 0" fill="#fff"/><path d="m355.058594 130.027344v26.746094l-68.09375-13.089844c-10.234375-1.957032-20.597656-2.949219-30.964844-2.949219v-97.265625h7.539062c50.550782 0 91.519532 38.753906 91.519532 86.558594zm0 0" fill="#fff5cb"/><path d="m256 100.121094s-74.238281 6.359375-102.800781 58.523437c0 0 45.117187-25.722656 102.800781-25.722656s102.800781 25.722656 102.800781 25.722656c-28.5625-52.164062-102.800781-58.523437-102.800781-58.523437zm0 0" fill="#00a6ff"/><path d="m358.804688 158.640625s-.621094-.351563-1.796876-.96875c-.535156-.277344-1.183593-.617187-1.949218-1-11.933594-6.023437-51.167969-23.753906-99.058594-23.753906v-32.789063s68.28125 5.847656 99.058594 52.335938c1.332031 1.976562 2.582031 4.042968 3.746094 6.175781zm0 0" fill="#006ef5"/><path d="m358.820312 180.085938c-2.371093 0-4.757812-.785157-6.742187-2.398438-17.222656-13.984375-45.921875-32.582031-96.078125-32.582031-56.648438 0-87.441406 24.574219-95.53125 32.109375-4.328125 4.027344-11.101562 3.785156-15.132812-.542969-4.027344-4.324219-3.785157-11.101563.542968-15.128906 12.21875-11.382813 47.417969-37.847657 110.121094-37.847657 43.359375 0 78.179688 11.875 109.574219 37.371094 4.589843 3.726563 5.289062 10.46875 1.5625 15.0625-2.113281 2.605469-5.203125 3.957032-8.316407 3.957032zm0 0" fill="#fff"/><path d="m367.136719 176.125c-2.113281 2.609375-5.207031 3.960938-8.3125 3.960938-2.371094 0-4.765625-.785157-6.746094-2.394532-17.222656-13.984375-45.917969-32.582031-96.078125-32.582031v-21.414063c38.574219 0 70.394531 9.398438 99.058594 29.4375.652344.445313 1.300781.910157 1.949218 1.375 2.890626 2.070313 5.746094 4.257813 8.570313 6.558594 4.59375 3.734375 5.285156 10.46875 1.558594 15.058594zm0 0" fill="#fff5cb"/><path d="m137.808594 393.921875v89.207031c-19.289063-10.050781-37.136719-22.488281-53.160156-36.929687v-52.277344zm0 0" fill="#00a6ff"/><path d="m427.351562 393.921875v52.277344c-16.023437 14.441406-33.871093 26.878906-53.160156 36.929687v-89.207031zm0 0" fill="#006ef5"/><path d="m427.351562 368.589844v31.070312h-53.160156v83.46875c-35.363281 18.449219-75.5625 28.871094-118.191406 28.871094s-82.828125-10.421875-118.191406-28.871094v-83.46875h-53.160156v-31.070312c0-36.320313 29.703124-66.050782 66.0625-66.050782h62.097656l43.191406 70.972657 43.191406-70.972657h62.378906c36.230469.160157 65.78125 29.832032 65.78125 66.050782zm0 0" fill="#fff"/><path d="m427.351562 368.589844v31.070312h-53.160156v83.46875c-35.363281 18.449219-75.5625 28.871094-118.191406 28.871094v-138.488281l43.191406-70.972657h62.378906c36.230469.160157 65.78125 29.832032 65.78125 66.050782zm0 0" fill="#fff5cb"/><path d="m239.898438 347.050781v164.449219c-4.21875-.261719-8.417969-.621094-12.578126-1.101562v-184.007813zm0 0" fill="#e1e1e3"/><path d="m284.660156 326.421875v183.988281c-4.160156.46875-8.359375.828125-12.582031 1.101563v-164.421875zm0 0" fill="#c8c6cc"/><path d="m315.117188 302.535156h-15.921876l-43.195312 70.992188-43.195312-70.992188h-15.917969l43.777343 81.566406c6.566407 12.234376 24.109376 12.234376 30.675782 0zm0 0" fill="#00a6ff"/><path d="m150.371094 302.539062v186.710938c-4.25-1.929688-8.441406-3.96875-12.5625-6.121094v-83.46875h-.019532v-95.839844c4.070313-.832031 8.28125-1.261718 12.582032-1.28125zm0 0" fill="#e1e1e3"/><path d="m195.140625 302.539062v202.171876c-4.242187-1.019532-8.429687-2.160157-12.582031-3.410157v-198.761719zm0 0" fill="#e1e1e3"/><path d="m329.429688 302.539062v198.769532c-4.148438 1.242187-8.339844 2.382812-12.578126 3.402344v-202.171876zm0 0" fill="#c8c6cc"/><path d="m374.191406 303.820312v179.308594c-4.132812 2.160156-8.320312 4.199219-12.582031 6.132813v-186.722657c4.300781.019532 8.511719.449219 12.582031 1.28125zm0 0" fill="#c8c6cc"/><path d="m107.847656 318.433594v81.230468h-12.578125v-66.871093c3.480469-5.375 7.722657-10.203125 12.578125-14.359375zm0 0" fill="#e1e1e3"/><path d="m416.730469 332.792969v66.871093h-12.578125v-81.222656c4.855468 4.136719 9.097656 8.976563 12.578125 14.351563zm0 0" fill="#c8c6cc"/><path d="m315.109375 302.535156-43.769531 81.570313c-3.285156 6.113281-9.3125 9.171875-15.339844 9.171875v-19.75l43.191406-70.992188zm0 0" fill="#006ef5"/></svg>