<svg height="512pt" viewBox="0 0 512 512" width="512pt" xmlns="http://www.w3.org/2000/svg"><path d="m512 256c0 141.386719-114.613281 256-256 256s-256-114.613281-256-256 114.613281-256 256-256 256 114.613281 256 256zm0 0" fill="#005ed3"/><path d="m511.9375 261.003906-184.949219-185.28125c-16.179687-17.101562-38.671875-27.722656-63.585937-27.722656h-14.804688c-50.027344 0-90.292968 42.824219-89.285156 94.953125l.15625 8.023437h-.175781l.652343 23.394532h2.023438c0 .023437-.003906.039062-.003906.0625-10.566406 1.976562-18.0625 11.847656-16.886719 22.703125l1.820313 16.792969c.5625 5.183593 3.011718 9.71875 6.585937 13.011718l29.871094 29.902344c7.84375 13.871094 16.523437 24.386719 25.34375 32.3125v49.785156h-49.667969c-33.492188 0-60.851562 27.378906-60.851562 60.828125v57.804688c.539062.421875 1.085937.832031 1.628906 1.25 1.078125.832031 2.15625 1.667969 3.25 2.480469.53125.398437 1.074218.78125 1.605468 1.175781 1.164063.855469 2.328126 1.707031 3.507813 2.542969 41.753906 29.585937 92.757813 46.976562 147.828125 46.976562 139.710938 0 253.269531-111.921875 255.9375-250.996094zm0 0" fill="#00459f"/><path d="m208.699219 288h94.601562v52.75h-94.601562zm0 0" fill="#ffc473"/><path d="m256 288h47.304688v52.75h-47.304688zm0 0" fill="#ffaa20"/><path d="m350.035156 174.433594c-3.925781-57.796875-53.214844-90.601563-94.035156-90.601563s-90.109375 32.804688-94.035156 90.601563c-10.566406 1.976562-18.0625 11.847656-16.886719 22.703125l1.820313 16.792969c1.234374 11.394531 11.566406 19.707031 22.960937 18.472656l1.960937-.214844c23.324219 60.710938 60.960938 76.34375 84.179688 79.894531 23.21875-3.550781 60.855469-19.183593 84.179688-79.894531l1.960937.214844c11.394531 1.234375 21.726563-7.078125 22.960937-18.472656l1.820313-16.792969c1.171875-10.855469-6.324219-20.726563-16.886719-22.703125zm0 0" fill="#ffdba9"/><path d="m201.386719 201.90625h43.789062v16.945312h-43.789062zm0 0" fill="#ffc473"/><path d="m366.917969 197.136719-1.820313 16.796875c-1.234375 11.390625-11.5625 19.699218-22.953125 18.464844l-1.960937-.210938c-23.324219 60.714844-60.960938 76.34375-84.183594 79.898438v-228.25c40.824219 0 90.109375 32.800781 94.035156 90.597656 10.566406 1.980468 18.0625 11.847656 16.882813 22.703125zm0 0" fill="#ffc473"/><path d="m256 204.667969h18.261719v57.691406h-18.261719zm0 0" fill="#ffaa20"/><path d="m352.207031 177.851562c0-43.761718.003907-124.851562-96.207031-124.851562-94.546875 0-96.179688 78.308594-96.207031 122.550781v31.730469h17.433593v-32.910156c19.777344-3.613282 52.667969-12.1875 78.769532-39.925782h.003906c26.101562 27.738282 58.992188 36.3125 78.769531 39.925782v32.910156h17.433594v-29.429688zm0 0" fill="#e67500"/><path d="m352.203125 175.550781c-.027344-44.234375-1.648437-122.550781-96.203125-122.550781v81.445312c20.042969 21.300782 44.09375 32.152344 63.136719 37.683594 5.753906 1.667969 11.042969 1.40625 15.632812 2.242188v32.910156h17.433594zm0 0" fill="#c06200"/><path d="m352.203125 183.613281-23.445313 10.273438c-7.085937-5.574219-18.050781-9.15625-30.363281-9.15625-15.097656 0-28.167969 5.382812-34.550781 13.226562h-15.6875c-6.382812-7.84375-19.453125-13.226562-34.550781-13.226562-12.3125 0-23.277344 3.582031-30.367188 9.160156l-23.445312-10.277344v10.847657l16.292969 8.429687c-.773438 1.894531-1.183594 3.878906-1.183594 5.925781 0 13.300782 17.328125 24.082032 38.707031 24.082032 21.375 0 38.707031-10.78125 38.707031-24.082032 0-.285156-.019531-.566406-.035156-.847656h7.441406c-.015625.28125-.035156.5625-.035156.847656 0 13.300782 17.332031 24.082032 38.707031 24.082032 21.378907 0 38.707031-10.78125 38.707031-24.082032 0-2.046875-.414062-4.03125-1.183593-5.929687l16.285156-8.425781zm0 0" fill="#fff"/><path d="m352.199219 194.460938-16.277344 8.429687c.769531 1.890625 1.179687 3.878906 1.179687 5.917969 0 13.3125-17.332031 24.089844-38.710937 24.089844-21.371094 0-38.699219-10.777344-38.699219-24.089844 0-.277344.019532-.558594.027344-.839844h-3.71875v-10.007812h7.851562c6.378907-7.851563 19.449219-13.230469 34.539063-13.230469 12.320313 0 23.28125 3.578125 30.371094 9.160156l23.4375-10.28125zm0 0" fill="#fff5cb"/><path d="m242.851562 208.8125c0-9.765625-11.96875-17.683594-26.734374-17.683594-14.765626 0-26.738282 7.917969-26.738282 17.683594 0 9.769531 11.972656 17.6875 26.738282 17.6875 14.765624 0 26.734374-7.917969 26.734374-17.6875zm0 0" fill="#84caff"/><path d="m322.621094 208.8125c0-9.765625-11.972656-17.683594-26.738282-17.683594-14.765624 0-26.734374 7.917969-26.734374 17.683594 0 9.769531 11.96875 17.6875 26.734374 17.6875 14.765626 0 26.738282-7.917969 26.738282-17.6875zm0 0" fill="#00a6ff"/><path d="m413.820312 399.769531v57.808594c-13.070312 10.25-27.171874 19.25-42.109374 26.832031-3.851563 1.960938-7.761719 3.820313-11.730469 5.578125-31.769531 14.152344-66.960938 22.011719-103.980469 22.011719s-72.210938-7.859375-103.980469-22.011719c-3.96875-1.757812-7.878906-3.617187-11.730469-5.578125-14.9375-7.582031-29.039062-16.582031-42.109374-26.832031v-57.808594c0-33.449219 27.359374-60.828125 60.851562-60.828125h194.199219c33.359375.148438 60.589843 27.46875 60.589843 60.828125zm0 0" fill="#ffdba9"/><path d="m413.820312 399.769531v57.808594c-13.070312 10.25-27.171874 19.25-42.109374 26.832031-3.851563 1.960938-7.761719 3.820313-11.730469 5.578125-31.769531 14.152344-66.960938 22.011719-103.980469 22.011719v-173.058594h97.230469c33.359375.148438 60.589843 27.46875 60.589843 60.828125zm0 0" fill="#ffc473"/><path d="m352.230469 166.597656h-192.460938l-.457031-23.644531c-1.007812-52.128906 39.257812-94.953125 89.285156-94.953125h14.804688c50.023437 0 90.292968 42.824219 89.285156 94.953125zm0 0" fill="#ff0335"/><path d="m352.691406 142.949219-.160156 8.03125-.300781 15.621093h-96.230469v-118.601562h7.398438c50.03125 0 90.292968 42.820312 89.292968 94.949219zm0 0" fill="#c2001b"/><path d="m352.703125 150.976562h-193.40625l.648437 23.394532h192.105469zm0 0" fill="#fff"/><path d="m352.710938 150.980469-.660157 23.390625h-96.050781v-23.390625zm0 0" fill="#fff5cb"/><path d="m152.019531 409v80.988281c-3.96875-1.757812-7.878906-3.617187-11.730469-5.578125v-75.410156zm0 0" fill="#ffc473"/><path d="m371.710938 409v75.410156c-3.851563 1.960938-7.761719 3.820313-11.730469 5.578125v-80.988281zm0 0" fill="#ffaa20"/><path d="m201.472656 452.089844c0-3.628906-4.109375-6.570313-9.175781-6.570313s-9.175781 2.941407-9.175781 6.570313c0 3.625 4.109375 6.566406 9.175781 6.566406s9.175781-2.941406 9.175781-6.566406zm0 0" fill="#ffc473"/><path d="m328.878906 452.089844c0-3.628906-4.109375-6.570313-9.175781-6.570313s-9.175781 2.941407-9.175781 6.570313c0 3.625 4.109375 6.566406 9.175781 6.566406s9.175781-2.941406 9.175781-6.566406zm0 0" fill="#ffaa20"/></svg>