<svg height="512pt" viewBox="0 0 512 512" width="512pt" xmlns="http://www.w3.org/2000/svg"><path d="m512 256c0 141.386719-114.613281 256-256 256s-256-114.613281-256-256 114.613281-256 256-256 256 114.613281 256 256zm0 0" fill="#ffe670"/><path d="m512 256c0-16.726562-1.621094-33.074219-4.6875-48.90625l-158.40625-158.410156-12.066406 17.855468-18.902344-17.855468-12.125 17.941406-18.84375-17.941406-11.933594 17.652344-19.035156-17.652344-11.816406 17.480468-19.152344-17.480468-11.703125 17.3125-19.265625-17.3125-11.929688 17.652344-19.039062-17.652344v115.820312.003906c-10.433594 1.953126-17.839844 11.707032-16.679688 22.429688l1.796876 16.589844c.539062 4.96875 2.835937 9.335937 6.195312 12.5625l29.300781 28.933594c7.230469 12.984374 15.199219 23.023437 23.339844 30.769531l10.15625 10.175781v43.742188h-55.78125c-32.652344 0-59.332031 26.710937-59.332031 59.328124v71.519532c2.226562 1.679687 4.488281 3.3125 6.769531 4.917968v.023438c41.628906 29.289062 92.371094 46.5 147.140625 46.5 141.386719 0 256-114.613281 256-256zm0 0" fill="#ffd400"/><path d="m217.203125 277.726562h77.59375v59.335938h-77.59375zm0 0" fill="#c06100"/><path d="m256 277.726562h38.800781v59.335938h-38.800781zm0 0" fill="#9a4c00"/><path d="m348.90625 164.507812c-3.878906-57.105468-52.578125-89.511718-92.90625-89.511718s-89.027344 32.410156-92.90625 89.511718c-10.433594 1.953126-17.839844 11.707032-16.679688 22.429688l1.796876 16.589844c1.21875 11.257812 11.425781 19.46875 22.683593 18.25l1.941407-.210938c23.042968 59.984375 60.226562 75.425782 83.164062 78.933594 22.941406-3.507812 60.125-18.953125 83.167969-78.933594l1.9375.210938c11.257812 1.21875 21.464843-6.992188 22.683593-18.25l1.796876-16.589844c1.160156-10.722656-6.246094-20.476562-16.679688-22.429688zm0 0" fill="#e67500"/><path d="m365.585938 186.9375-1.800782 16.59375c-1.21875 11.253906-11.421875 19.464844-22.675781 18.242188l-1.9375-.207032c-23.046875 59.984375-60.230469 75.425782-83.171875 78.9375v-225.507812c40.332031 0 89.023438 32.410156 92.902344 89.507812 10.441406 1.960938 17.84375 11.710938 16.683594 22.433594zm0 0" fill="#c06200"/><path d="m306.785156 191.648438h-50.785156v59.726562h18.042969v-42.984375h32.742187zm0 0" fill="#9a4c00"/><path d="m202.046875 191.648438h43.257813v16.742187h-43.257813zm0 0" fill="#c06100"/><path d="m409.910156 389.039062v71.519532c-12.058594 9.101562-24.949218 17.152344-38.53125 24.019531-34.667968 17.542969-73.867187 27.421875-115.378906 27.421875s-80.710938-9.878906-115.378906-27.421875c-13.582032-6.867187-26.472656-14.917969-38.53125-24.019531v-71.519532c0-32.617187 26.679687-59.328124 59.332031-59.328124h189.40625c32.53125.148437 59.082031 26.800781 59.082031 59.328124zm0 0" fill="#e67500"/><path d="m409.910156 389.039062v71.519532c-12.058594 9.101562-24.949218 17.152344-38.53125 24.019531-34.667968 17.542969-73.867187 27.421875-115.378906 27.421875v-182.289062h94.828125c32.53125.148437 59.082031 26.800781 59.082031 59.328124zm0 0" fill="#c06200"/><path d="m348.90625 48.683594-15.484375 22.910156-15.484375-22.910156-15.484375 22.910156-15.484375-22.910156-15.484375 22.910156-15.484375-22.910156-15.484375 22.910156-15.484375-22.910156-15.484375 22.910156-15.484375-22.910156-15.484375 22.910156-15.484375-22.910156v142.550781h17.722656l12.761719-40.34375h124.84375l12.761719 40.34375h17.722656zm0 0" fill="#3c3b41"/><path d="m348.910156 48.679688v142.558593h-17.730468l-9.917969-31.367187-2.839844-8.980469h-62.421875v-102.210937l15.480469 22.910156 15.488281-22.910156 15.480469 22.910156 15.492187-22.910156 15.480469 22.910156zm0 0" fill="#171719"/><path d="m163.09375 125.125h185.8125v34.742188h-185.8125zm0 0" fill="#ff0335"/><path d="m256 125.128906h92.910156v34.742188h-92.910156zm0 0" fill="#c2001b"/><path d="m371.378906 426.191406v58.386719c-34.667968 17.542969-73.867187 27.421875-115.378906 27.421875s-80.710938-9.878906-115.378906-27.421875v-58.386719s27.140625-38.160156 32.917968-96.480468h36.199219s2.351563 59.179687 46.261719 75.257812c43.910156-16.078125 46.261719-75.257812 46.261719-75.257812h36.199219c5.777343 58.320312 32.917968 96.480468 32.917968 96.480468zm0 0" fill="#fff"/><path d="m162.5 392.328125v102.050781c-7.46875-2.929687-14.769531-6.199218-21.878906-9.800781v-69.386719l13.917968-14.542968v-.007813zm0 0" fill="#c2001b"/><path d="m371.378906 426.191406v58.386719c-34.667968 17.542969-73.867187 27.421875-115.378906 27.421875v-107.03125c43.910156-16.078125 46.261719-75.257812 46.261719-75.257812h36.199219c5.777343 58.320312 32.917968 96.480468 32.917968 96.480468zm0 0" fill="#fff5cb"/><path d="m200.609375 492.761719c0-3.230469.25-6.15625.753906-8.78125.5-2.621094 1.378907-5.046875 2.640625-7.273438 1.253906-2.226562 2.976563-4.308593 5.171875-6.25 2.1875-1.9375 4.972657-3.839843 8.347657-5.710937 2.945312-1.578125 5.550781-2.960938 7.8125-4.148438 2.265624-1.183594 4.148437-2.277344 5.65625-3.285156 1.511718-1.003906 2.660156-2.03125 3.449218-3.070312.789063-1.042969 1.1875-2.246094 1.1875-3.609376 0-2.15625-.863281-4.003906-2.589844-5.550781-1.722656-1.542969-4.199218-2.316406-7.433593-2.316406-1.722657 0-3.304688.234375-4.742188.699219-1.4375.46875-2.785156 1.097656-4.039062 1.886718-1.257813.789063-2.410157 1.667969-3.449219 2.636719-1.039062.972657-1.992188 1.996094-2.855469 3.074219l-9.265625-10.667969c.933594-1.007812 2.261719-2.101562 3.988282-3.289062 1.722656-1.183594 3.75-2.296875 6.085937-3.339844 2.332031-1.039063 4.921875-1.902344 7.757813-2.585937 2.839843-.683594 5.875-1.023438 9.105468-1.023438 3.664063 0 6.929688.449219 9.804688 1.347656 2.875.898438 5.300781 2.152344 7.273437 3.769532 1.976563 1.617187 3.484375 3.558593 4.527344 5.820312 1.039063 2.261719 1.5625 4.722656 1.5625 7.378906 0 2.515625-.46875 4.742188-1.402344 6.683594-.933593 1.9375-2.117187 3.660156-3.554687 5.171875-1.4375 1.507813-3 2.820313-4.6875 3.933594-1.691406 1.113281-3.324219 2.097656-4.902344 2.960937-1.292969.71875-2.765625 1.546875-4.417969 2.476563-1.65625.9375-3.289062 1.960937-4.90625 3.074219-1.613281 1.113281-3.105469 2.261718-4.46875 3.445312-1.367187 1.1875-2.410156 2.355469-3.125 3.503906h32.648438v13.039063zm0 0" fill="#c2001b"/><path d="m298.757812 466.425781v-36.269531h-10.363281l-29.242187 37.53125v12.472656h24.6875v12.597656h14.917968v-12.597656h7.441407v-13.734375zm-22.84375 0 9.195313-12.011719v12.011719zm0 0" fill="#860010"/><path d="m371.378906 415.191406v69.386719c-7.109375 3.601563-14.410156 6.871094-21.878906 9.800781v-102.050781l7.960938 8.320313zm0 0" fill="#860010"/><path d="m254.003906 410.421875 1.996094.730469 1.996094-.730469c41.164062-15.074219 48.542968-66.417969 49.8125-80.710937h-13.011719s-.910156 53.375-38.796875 69.023437c-37.773438-15.605469-38.796875-69.023437-38.796875-69.023437h-13.011719c1.269532 14.292968 8.648438 65.636718 49.8125 80.710937zm0 0" fill="#ff0335"/><path d="m307.808594 329.710938c-1.269532 14.289062-8.648438 65.640624-49.808594 80.710937l-2 .726563v-12.417969c37.890625-15.640625 38.800781-69.019531 38.800781-69.019531zm0 0" fill="#c2001b"/><path d="m140.621094 415.1875v24.839844c7.105468-11.914063 31.085937-55.441406 37.675781-110.316406h-11.707031c-4.472656 35.304687-16.652344 66.074218-25.96875 85.476562zm0 0" fill="#ff0335"/><path d="m371.375 415.1875v24.839844c-7.101562-11.914063-31.085938-55.441406-37.675781-110.316406h11.707031c4.476562 35.304687 16.652344 66.074218 25.96875 85.476562zm0 0" fill="#c2001b"/></svg>