<svg height="512pt" viewBox="0 0 512 512" width="512pt" xmlns="http://www.w3.org/2000/svg"><path d="m512 256c0 141.386719-114.613281 256-256 256s-256-114.613281-256-256 114.613281-256 256-256 256 114.613281 256 256zm0 0" fill="#00bb64"/><path d="m512 256c0-1.214844-.027344-2.421875-.046875-3.632812l-187.039063-187.273438c-13.65625-14.402344-34.8125-24.824219-67.460937-24.824219-115.171875 0-93.910156 109.273438-93.910156 109.273438l.003906.003906c.054687.558594.109375 1.160156.167969 1.777344-8.855469 2.800781-14.871094 11.554687-13.835938 21.125l1.742188 16.070312c.53125 4.917969 2.84375 9.226563 6.214844 12.371094l28.570312 28.546875c7.460938 13.234375 15.722656 23.261719 24.113281 30.84375l9.234375 9.378906v31.378906c0-.085937-.003906-.171874-.003906-.257812h-50.519531c-29.960938 0-54.441407 24.5-54.441407 54.429688v114.335937c40.480469 26.820313 89.015626 42.453125 141.210938 42.453125 141.386719 0 256-114.613281 256-256zm0 0" fill="#008c4a"/><path d="m219.757812 264.648438h72.484376v76.390624h-72.484376zm0 0" fill="#ffc473"/><path d="m256 264.648438h36.246094v76.390624h-36.246094zm0 0" fill="#ffaa20"/><path d="m397.210938 355.210938v114.347656c-17.25 11.429687-35.960938 20.820312-55.800782 27.839844-26.710937 9.460937-55.460937 14.601562-85.410156 14.601562s-58.699219-5.140625-85.410156-14.601562c-19.839844-7.019532-38.550782-16.410157-55.800782-27.839844v-114.347656c0-29.929688 24.480469-54.429688 54.441407-54.429688h50.519531c0 20.410156 15.828125 37.019531 36.25 37.019531s36.25-16.609375 36.25-37.019531h50.519531c29.949219 0 54.441407 24.5 54.441407 54.429688zm0 0" fill="#08f"/><path d="m170.589844 400.597656v96.800782c-19.839844-7.019532-38.550782-16.410157-55.800782-27.839844v-68.960938zm0 0" fill="#ffdba9"/><path d="m397.210938 355.210938v114.347656c-17.25 11.429687-35.960938 20.820312-55.800782 27.839844-26.710937 9.460937-55.460937 14.601562-85.410156 14.601562v-174.199219c20.421875 0 36.25-16.609375 36.25-37.019531h50.519531c29.949219 0 54.441407 24.5 54.441407 54.429688zm0 0" fill="#005ed3"/><path d="m397.210938 400.597656v68.960938c-17.25 11.429687-35.960938 20.820312-55.800782 27.839844v-96.800782zm0 0" fill="#ffc473"/><path d="m342.769531 300.78125h-50.519531c0 10.03125-3.769531 19.003906-9.945312 25.601562-6.546876 7.027344-15.816407 11.417969-26.304688 11.417969s-19.757812-4.390625-26.304688-11.417969c-6.175781-6.59375-9.945312-15.570312-9.945312-25.601562h-50.519531c-29.960938 0-54.441407 24.5-54.441407 54.429688v53.179687h55.804688v-31.164063l43.785156-48.390624c1.777344 2.75 3.835938 5.335937 6.152344 7.722656 9.359375 9.632812 21.953125 14.941406 35.46875 14.941406s26.109375-5.308594 35.46875-14.941406c2.269531-2.339844 4.289062-4.875 6.042969-7.5625l43.886719 48.511718.007812 30.882813h55.804688v-53.179687c0-29.929688-24.492188-54.429688-54.441407-54.429688zm0 0" fill="#fff"/><path d="m397.210938 355.210938v53.179687h-55.800782l-.011718-30.878906-43.886719-48.511719c-1.75 2.679688-3.773438 5.21875-6.042969 7.558594-9.359375 9.632812-21.957031 14.941406-35.46875 14.941406v-13.699219c10.488281 0 19.761719-4.390625 26.300781-11.421875 6.179688-6.589844 9.949219-15.570312 9.949219-25.597656h50.519531c29.949219 0 54.441407 24.5 54.441407 54.429688zm0 0" fill="#fff5cb"/><path d="m345.96875 150.726562c-3.757812-55.292968-50.914062-86.679687-89.96875-86.679687s-86.210938 31.382813-89.96875 86.679687c-10.101562 1.894532-17.273438 11.335938-16.152344 21.722657l1.742188 16.066406c1.179687 10.902344 11.0625 18.855469 21.964844 17.671875l1.875-.203125c22.316406 58.085937 58.324218 73.039063 80.539062 76.4375 22.214844-3.398437 58.222656-18.351563 80.535156-76.4375l1.878906.203125c10.898438 1.183594 20.785157-6.769531 21.964844-17.671875l1.738282-16.066406c1.125-10.382813-6.042969-19.828125-16.148438-21.722657zm0 0" fill="#ffdba9"/><path d="m362.117188 172.449219-1.738282 16.074219c-1.183594 10.898437-11.0625 18.84375-21.960937 17.664062l-1.878907-.203125c-22.316406 58.085937-58.324218 73.042969-80.539062 76.4375v-218.371094c39.058594 0 86.210938 31.382813 89.964844 86.675781 10.109375 1.898438 17.28125 11.339844 16.152344 21.722657zm0 0" fill="#ffc473"/><path d="m305.179688 177.011719h-49.179688v57.835937h17.472656v-41.625h31.707032zm0 0" fill="#ffaa20"/><path d="m257.453125 40.269531c-115.171875 0-93.910156 109.273438-93.910156 109.273438l.003906.003906c1 10.84375 3.546875 33.605469 8.15625 45.105469h11.539063v-35.023438c2.660156-10.714844 6.769531-19.226562 11.457031-25.984375 14.722656 4.789063 34.996093 8.898438 61.257812 8.898438 26.300781 0 46.601563-4.121094 61.328125-8.921875 4.695313 6.761718 8.8125 15.28125 11.472656 26.007812v35.023438h11.542969c4.605469-11.5 7.152344-34.261719 8.152344-45.105469l.003906-.007813c0 .003907 14.726563-109.269531-91.003906-109.269531zm0 0" fill="#57555c"/><path d="m349.152344 136.238281c0 8.121094-.699219 13.304688-.699219 13.304688-1 10.847656-3.546875 33.609375-8.152344 45.113281h-11.539062v-35.023438c-2.667969-10.726562-6.777344-19.246093-11.476563-26.011718-14.71875 4.804687-35.003906 8.914062-61.285156 8.925781v-102.269531c.480469-.007813.96875-.007813 1.457031-.007813 82.683594 0 91.695313 66.84375 91.695313 95.96875zm0 0" fill="#2a2a2c"/><path d="m203.753906 177.011719h41.890625v16.210937h-41.890625zm0 0" fill="#ffc473"/></svg>