<svg height="512pt" viewBox="0 0 512 512" width="512pt" xmlns="http://www.w3.org/2000/svg"><path d="m0 256c0-141.386719 114.613281-256 256-256s256 114.613281 256 256c0 89.191406-45.613281 167.734375-114.789062 213.5625-40.476563 26.820312-89.019532-77.894531-141.210938-77.894531-52.195312 0-100.742188 104.710937-141.222656 77.890625-69.167969-45.832032-114.777344-124.367188-114.777344-213.558594zm0 0" fill="#005ed3"/><path d="m511.949219 260.027344-183.292969-182.484375c-16.285156-18.164063-39.46875-29.542969-65.253906-29.542969h-14.804688c-50.027344 0-90.292968 42.824219-89.285156 94.953125l.15625 8.023437h-.175781l.523437 18.796876c-.011718 1.773437-.019531 3.515624-.023437 5.199218-9.394531 2.835938-15.808594 12.070313-14.714844 22.164063l1.820313 16.796875c.535156 4.953125 2.792968 9.3125 6.113281 12.566406l28.976562 27.902344c7.234375 13.328125 15.234375 23.671875 23.433594 31.679687l14.449219 14.347657v41.511718h-50.640625c-29.960938 0-54.441407 24.5-54.441407 54.429688v73.175781c.320313.210937.640626.421875.957032.628906 1.453125.953125 2.914062 1.894531 4.390625 2.816407.453125.285156.90625.566406 1.359375.851562 1.691406 1.042969 3.390625 2.070312 5.109375 3.078125 37.96875 22.285156 82.183593-111.921875 129.394531-111.921875 52.191406 0 100.734375 131.378906 141.210938 104.558594 68.121093-45.140625 113.386718-122.007813 114.738281-209.53125zm0 0" fill="#00459f"/><path d="m219.875 290.925781h72.25v55.25h-72.25zm0 0" fill="#ffc473"/><path d="m256 290.925781h36.125v55.25h-36.125zm0 0" fill="#ffaa20"/><path d="m350.035156 174.433594c-3.925781-57.796875-53.214844-90.601563-94.035156-90.601563s-90.109375 32.804688-94.035156 90.601563c-10.566406 1.976562-18.0625 11.847656-16.886719 22.703125l1.820313 16.792969c1.234374 11.394531 11.566406 19.707031 22.960937 18.472656l1.960937-.214844c23.324219 60.710938 60.960938 76.34375 84.179688 79.894531 23.21875-3.550781 60.855469-19.183593 84.179688-79.894531l1.960937.214844c11.394531 1.234375 21.726563-7.078125 22.960937-18.472656l1.820313-16.792969c1.171875-10.855469-6.324219-20.726563-16.886719-22.703125zm0 0" fill="#ffdba9"/><path d="m366.917969 197.136719-1.820313 16.800781c-1.234375 11.390625-11.5625 19.699219-22.953125 18.460938l-1.960937-.210938c-23.324219 60.714844-60.960938 76.347656-84.183594 79.898438v-228.25c40.824219 0 90.109375 32.800781 94.035156 90.597656 10.566406 1.980468 18.0625 11.847656 16.882813 22.703125zm0 0" fill="#ffc473"/><path d="m352.210938 177.851562h-.011719v29.429688h-17.429688v-32.910156c-9.890625-1.8125-23.058593-4.851563-37.007812-10.910156-13.960938-6.070313-28.710938-15.140626-41.761719-29.011719-26.101562 27.730469-59 36.3125-78.769531 39.921875v32.910156h-17.441407v-31.730469c.03125-44.242187 1.660157-122.550781 96.210938-122.550781 96.210938 0 96.210938 81.089844 96.210938 124.851562zm0 0" fill="#e67500"/><path d="m352.210938 177.851562h-.011719v29.429688h-17.429688v-32.910156c-9.890625-1.8125-23.058593-4.851563-37.007812-10.910156-13.960938-6.070313-28.710938-15.140626-41.761719-29.011719v-81.449219c96.210938 0 96.210938 81.089844 96.210938 124.851562zm0 0" fill="#c06200"/><path d="m307.40625 201.90625h-51.40625v60.453125h18.261719v-43.507813h33.144531zm0 0" fill="#ffaa20"/><path d="m201.386719 201.90625h43.789062v16.945312h-43.789062zm0 0" fill="#ffc473"/><path d="m397.210938 396.371094v73.1875c-40.480469 26.820312-89.019532 42.441406-141.210938 42.441406s-100.730469-15.621094-141.210938-42.441406v-73.1875c0-29.929688 24.480469-54.429688 54.441407-54.429688h173.769531c29.851562.128906 54.210938 24.578125 54.210938 54.429688zm0 0" fill="#ffdba9"/><path d="m397.210938 396.371094v73.1875c-40.480469 26.820312-89.019532 42.441406-141.210938 42.441406v-170.058594h87c29.851562.128906 54.210938 24.578125 54.210938 54.429688zm0 0" fill="#ffc473"/><path d="m352.230469 166.597656h-192.460938l-.457031-23.644531c-1.007812-52.128906 39.257812-94.953125 89.285156-94.953125h14.804688c50.023437 0 90.292968 42.824219 89.285156 94.953125zm0 0" fill="#ffdb2d"/><path d="m352.691406 142.949219-.160156 8.03125-.300781 15.621093h-96.230469v-118.601562h7.398438c50.03125 0 90.292968 42.820312 89.292968 94.949219zm0 0" fill="#fdc000"/><path d="m352.703125 150.976562h-193.40625l.648437 23.394532h192.105469zm0 0" fill="#fff"/><path d="m352.710938 150.980469-.660157 23.390625h-96.050781v-23.390625zm0 0" fill="#fff5cb"/><path d="m345.972656 427.664062-11.683594-14.179687c-6.652343-8.070313-10.289062-18.203125-10.289062-28.664063v-42.875h-22.25v59.054688c-22.824219 30.601562-68.675781 30.601562-91.5 0v-59.054688h-22.25v42.875c0 10.460938-3.636719 20.59375-10.289062 28.664063l-11.683594 14.179687c-8.929688 10.835938-12.835938 24.953126-10.753906 38.839844l3.992187 26.566406c29.847656 12.195313 62.5 18.929688 96.734375 18.929688s66.886719-6.734375 96.734375-18.929688l3.992187-26.566406c2.082032-13.886718-1.824218-28.003906-10.753906-38.839844zm0 0" fill="#fff"/><path d="m356.71875 466.5-3.980469 26.570312c-29.847656 12.191407-62.507812 18.929688-96.738281 18.929688v-88.050781c17.171875 0 34.339844-7.648438 45.75-22.949219v-59.058594h22.25v42.878906c0 10.460938 3.640625 20.589844 10.289062 28.667969l11.679688 14.171875c8.929688 10.839844 12.839844 24.960938 10.75 38.839844zm0 0" fill="#fff5cb"/><path d="m364.179688 470.410156-2.769532 18.941406c-3.199218 1.449219-6.441406 2.839844-9.710937 4.160157l3.570312-24.472657c1.902344-12.929687-1.667969-26.128906-9.769531-36.21875l-11.679688-14.550781c-7.300781-9.078125-11.320312-20.570312-11.320312-32.339843v-43.988282h9v43.988282c0 9.640624 3.289062 19.039062 9.261719 26.46875l11.679687 14.550781c9.730469 12.101562 14.007813 27.949219 11.738282 43.460937zm0 0" fill="#ffdb2d"/><path d="m189.5 341.941406v43.988282c0 11.769531-4.019531 23.261718-11.320312 32.339843l-11.679688 14.550781c-8.101562 10.089844-11.671875 23.289063-9.769531 36.21875l3.570312 24.472657c-3.269531-1.320313-6.511719-2.710938-9.710937-4.160157l-2.769532-18.941406c-2.269531-15.511718 2.007813-31.359375 11.738282-43.460937l11.679687-14.550781c5.972657-7.429688 9.261719-16.828126 9.261719-26.46875v-43.988282zm0 0" fill="#ffe670"/><path d="m256 428.449219c-18.726562 0-35.867188-9.058594-47.035156-24.851563l-.824219-1.167968v-60.488282h9v57.59375c9.460937 12.675782 23.546875 19.914063 38.859375 19.914063s29.398438-7.238281 38.859375-19.914063v-57.59375h9v60.488282l-.824219 1.167968c-11.167968 15.792969-28.308594 24.851563-47.035156 24.851563zm0 0" fill="#ffe670"/><path d="m303.859375 341.941406v60.488282l-.820313 1.171874c-11.167968 15.789063-28.308593 24.847657-47.039062 24.847657v-9c15.308594 0 29.398438-7.238281 38.859375-19.910157v-57.597656zm0 0" fill="#ffdb2d"/></svg>