<svg height="512pt" viewBox="0 0 512 512" width="512pt" xmlns="http://www.w3.org/2000/svg"><path d="m512 256c0 141.386719-114.613281 256-256 256s-256-114.613281-256-256 114.613281-256 256-256 256 114.613281 256 256zm0 0" fill="#ff3d62"/><path d="m512 256c0-1.613281-.03125-3.214844-.0625-4.820312l-173.914062-173.914063c-14.667969-17.089844-36.40625-27.933594-60.695313-27.933594h-42.660156c-44.164063 0-79.964844 35.804688-79.964844 79.96875v35.699219l9.480469 9.667969v9.308593c-7.910156 3.179688-13.121094 11.34375-12.164063 20.207032l1.707031 15.742187c.726563 6.726563 4.84375 12.304688 10.457032 15.226563.011718 10.648437 1.847656 20.875 5.210937 30.390625-12.445312 11.480469-23.089843 30.507812-19.554687 61.578125 0 0 .941406.085937 2.589844.148437-18.261719 8.0625-31.082032 26.351563-31.082032 47.5v98.980469c.183594.109375.363282.226562.542969.339844 1.171875.71875 2.347656 1.429687 3.535156 2.132812.144531.085938.289063.167969.433594.253906 1.375.808594 2.757813 1.609376 4.148437 2.394532v.011718c37.199219 21.074219 80.1875 33.117188 125.992188 33.117188 141.386719 0 256-114.613281 256-256zm0 0" fill="#e7001f"/><path d="m221.554688 296.527344h68.890624v65.078125h-68.890624zm0 0" fill="#ffc473"/><path d="m256 296.527344h34.445312v65.078125h-34.445312zm0 0" fill="#ffaa20"/><path d="m200.640625 249.070312s-58.425781 10.984376-50.800781 78.050782c0 0 67.949218 6.324218 71.714844-51zm0 0" fill="#ffe670"/><path d="m174.558594 418.050781v80.71875c-2.367188-.789062-4.730469-1.621093-7.070313-2.488281-16.21875-5.972656-31.660156-13.542969-46.136719-22.519531v-55.710938zm0 0" fill="#ffdba9"/><path d="m390.648438 418.050781v55.710938c-14.476563 8.976562-29.917969 16.546875-46.136719 22.519531-2.339844.867188-4.703125 1.699219-7.070313 2.488281v-80.71875zm0 0" fill="#ffc473"/><path d="m390.648438 374.769531v50.710938h-46.136719v70.800781c-2.339844.867188-4.703125 1.699219-7.070313 2.488281-25.582031 8.582031-52.972656 13.230469-81.441406 13.230469s-55.859375-4.648438-81.441406-13.230469c-2.367188-.789062-4.730469-1.621093-7.070313-2.488281v-70.800781h-46.136719v-50.710938c0-28.539062 23.339844-51.898437 51.910157-51.898437h48.167969c0 9.570312 3.601562 18.117187 9.492187 24.410156 6.238281 6.699219 15.078125 10.890625 25.078125 10.890625s18.839844-4.191406 25.078125-10.890625c5.890625-6.292969 9.492187-14.839844 9.492187-24.410156h48.167969c28.5625 0 51.910157 23.359375 51.910157 51.898437zm0 0" fill="#08f"/><path d="m121.351562 413h46.136719v22h-46.136719zm0 0" fill="#fff"/><path d="m390.648438 374.769531v50.710938h-46.136719v70.800781c-2.339844.867188-4.703125 1.699219-7.070313 2.488281-25.582031 8.582031-52.972656 13.230469-81.441406 13.230469v-153.828125c10 0 18.839844-4.191406 25.078125-10.890625 5.890625-6.292969 9.492187-14.839844 9.492187-24.410156h48.167969c28.5625 0 51.910157 23.359375 51.910157 51.898437zm0 0" fill="#005fd2"/><path d="m344.511719 413h46.136719v22h-46.136719zm0 0" fill="#fff5cb"/><path d="m344.152344 182.898438c-3.683594-54.179688-49.886719-84.929688-88.152344-84.929688s-84.472656 30.75-88.152344 84.929688c-9.898437 1.855468-16.925781 11.109374-15.824218 21.285156l1.703124 15.742187c1.15625 10.679688 10.84375 18.472657 21.523438 17.316407l1.839844-.199219c21.863281 56.910156 57.144531 71.5625 78.910156 74.890625 21.765625-3.328125 57.046875-17.980469 78.910156-74.890625l1.839844.199219c10.679688 1.15625 20.367188-6.636719 21.523438-17.316407l1.703124-15.742187c1.101563-10.175782-5.921874-19.429688-15.824218-21.285156zm0 0" fill="#ffdba9"/><path d="m359.976562 204.183594-1.703124 15.746094c-1.160157 10.679687-10.839844 18.46875-21.519532 17.308593l-1.839844-.195312c-21.863281 56.914062-57.144531 71.566406-78.914062 74.894531v-213.964844c38.269531 0 84.46875 30.75 88.148438 84.925782 9.90625 1.859374 16.929687 11.109374 15.828124 21.285156zm0 0" fill="#ffc473"/><path d="m304.1875 208.65625h-48.1875v56.667969h17.117188v-40.785157h31.070312zm0 0" fill="#ffaa20"/><path d="m204.804688 208.65625h41.046874v15.882812h-41.046874zm0 0" fill="#ffc473"/><path d="m165.746094 198.859375s52.644531-.777344 90.25-41.789063h.003906c37.609375 41.011719 90.253906 41.789063 90.253906 41.789063 0-42.132813 0-120.195313-90.253906-120.195313s-90.253906 78.058594-90.253906 120.195313zm0 0" fill="#ffe670"/><path d="m346.25 198.855469s-13.160156-.191407-31.019531-5.507813c-17.867188-5.324218-40.429688-15.769531-59.230469-36.273437v-78.410157c90.257812 0 90.25 78.066407 90.25 120.191407zm0 0" fill="#ffdb2d"/><path d="m357.296875 165h-202.59375v-35.699219c0-44.164062 35.800781-79.96875 79.96875-79.96875h42.660156c44.164063 0 79.964844 35.804688 79.964844 79.96875zm0 0" fill="#08f"/><path d="m357.300781 129.300781v35.699219h-101.300781v-115.671875h21.328125c44.160156 0 79.972656 35.8125 79.972656 79.972656zm0 0" fill="#005fd2"/><path d="m199.382812 113.214844c7.644532 0 13.839844-6.195313 13.839844-13.835938v-47.113281c-10.191406 2.832031-19.558594 7.628906-27.675781 13.957031v33.15625c0 7.640625 6.195313 13.835938 13.835937 13.835938zm0 0" fill="#005ed3"/><path d="m312.617188 113.214844c7.640624 0 13.835937-6.195313 13.835937-13.835938v-33.15625c-8.117187-6.328125-17.484375-11.125-27.675781-13.957031v47.113281c0 7.640625 6.195312 13.835938 13.839844 13.835938zm0 0" fill="#003d8d"/><path d="m256 113.214844c7.640625 0 13.835938-6.195313 13.835938-13.835938v-50.046875h-27.675782v50.042969c.003906 7.644531 6.199219 13.839844 13.839844 13.839844zm0 0" fill="#005ed3"/><path d="m269.839844 49.328125v50.050781c0 7.640625-6.199219 13.832032-13.839844 13.832032v-63.882813zm0 0" fill="#003d8d"/><path d="m357.296875 144.910156h-202.59375v20.089844h9.480469v70.054688c0 50.625 41.1875 91.816406 91.816406 91.816406s91.816406-41.191406 91.816406-91.816406v-70.054688h9.480469zm-17.480469 90.144532c0 46.214843-37.601562 83.816406-83.816406 83.816406s-83.816406-37.601563-83.816406-83.816406v-70.054688h167.632812zm0 0" fill="#005ed3"/><path d="m256 144.910156v20.089844h83.820312v70.050781c0 46.21875-37.601562 83.820313-83.820312 83.820313v8c50.628906 0 91.820312-41.191406 91.820312-91.820313v-70.050781h9.480469v-20.089844zm0 0" fill="#003d8d"/><path d="m267.953125 335.234375h-23.902344c-9.398437 0-17.019531-7.621094-17.019531-17.019531v-16.527344h57.941406v16.527344c0 9.398437-7.617187 17.019531-17.019531 17.019531zm0 0" fill="#08f"/><path d="m284.96875 301.691406v16.527344c0 9.402344-7.617188 17.011719-17.019531 17.011719h-11.949219v-33.539063zm0 0" fill="#005fd2"/></svg>