<svg height="512pt" viewBox="0 0 512 512" width="512pt" xmlns="http://www.w3.org/2000/svg"><path d="m512 256c0 141.386719-114.613281 256-256 256s-256-114.613281-256-256 114.613281-256 256-256 256 114.613281 256 256zm0 0" fill="#ff8900"/><path d="m511.574219 270.628906-180.554688-180.554687c-20.109375-23.039063-49.164062-35.445313-75.019531-35.445313-43.316406 0-95.617188 34.808594-99.785156 96.140625-11.207032 2.097657-19.164063 12.574219-17.914063 24.09375l1.929688 17.820313c.605469 5.582031 3.269531 10.46875 7.152343 13.976562l31.113282 30.84375c7.542968 13.492188 15.828125 24.007813 24.300781 32.195313l8.3125 8.332031v48.519531h-47.257813c-43.273437 0-78.339843 35.078125-78.339843 78.339844v42.058594c.332031.296875.667969.59375 1 .890625 1.246093 1.097656 2.492187 2.191406 3.761719 3.261718.074218.0625.148437.125.21875.1875 1.609374 1.355469 3.234374 2.691407 4.871093 4.011719v.015625c43.925781 35.445313 99.796875 56.683594 160.636719 56.683594 136.472656 0 247.992188-106.792969 255.574219-241.371094zm0 0" fill="#c06100"/><path d="m155 413v78.300781c-5.71875-2.460937-11.328125-5.121093-16.828125-7.980469-19.09375-9.910156-36.773437-22.148437-52.660156-36.351562v-33.96875zm0 0" fill="#ffdba9"/><path d="m426.488281 413v33.96875c-15.886719 14.203125-33.566406 26.441406-52.660156 36.351562-5.5 2.859376-11.109375 5.519532-16.828125 7.980469v-78.300781zm0 0" fill="#ffc473"/><path d="m211.109375 274.5h89.78125v95.785156h-89.78125zm0 0" fill="#ffc473"/><path d="m256 274.5h44.890625v95.785156h-44.890625zm0 0" fill="#ffaa20"/><path d="m355.785156 150.769531c-4.167968-61.332031-56.46875-96.140625-99.785156-96.140625s-95.617188 34.808594-99.785156 96.140625c-11.207032 2.097657-19.164063 12.574219-17.914063 24.089844l1.929688 17.824219c1.308593 12.089844 12.273437 20.910156 24.363281 19.597656l2.082031-.222656c24.746094 64.421875 64.6875 81.007812 89.324219 84.777344 24.640625-3.769532 64.578125-20.355469 89.328125-84.777344l2.082031.222656c12.089844 1.3125 23.054688-7.507812 24.363282-19.597656l1.929687-17.824219c1.246094-11.515625-6.707031-21.992187-17.917969-24.089844zm0 0" fill="#ffdba9"/><path d="m373.699219 174.859375-1.929688 17.828125c-1.308593 12.085938-12.269531 20.902344-24.355469 19.59375l-2.082031-.222656c-24.753906 64.425781-64.691406 81.011718-89.332031 84.78125v-242.207032c43.320312 0 95.617188 34.808594 99.78125 96.136719 11.214844 2.101563 19.167969 12.574219 17.917969 24.089844zm0 0" fill="#ffc473"/><path d="m316.152344 164.667969h-60.152344v70.734375h21.367188v-50.910156h38.785156zm0 0" fill="#ffaa20"/><path d="m192.269531 164.667969h51.238281v19.824219h-51.238281zm0 0" fill="#ffc473"/><path d="m426.488281 404.890625v15.25h-52.660156v63.179687c-5.5 2.859376-11.109375 5.519532-16.828125 7.980469-30.988281 13.320313-65.128906 20.699219-101 20.699219s-70.011719-7.378906-101-20.699219c-5.71875-2.460937-11.328125-5.121093-16.828125-7.980469v-63.179687h-52.660156v-15.25c0-43.261719 35.066406-78.339844 78.339843-78.339844h47.257813c0 22.527344 22.371094 40.789063 44.890625 40.789063s44.890625-18.261719 44.890625-40.789063h47.257813c43.273437 0 78.339843 35.078125 78.339843 78.339844zm0 0" fill="#57555c"/><path d="m426.488281 404.890625v15.25h-52.660156v63.179687c-5.5 2.859376-11.109375 5.519532-16.828125 7.980469-30.988281 13.320313-65.128906 20.699219-101 20.699219v-144.660156c22.519531 0 44.890625-18.261719 44.890625-40.789063h47.257813c43.273437 0 78.339843 35.078125 78.339843 78.339844zm0 0" fill="#2a2a2c"/></svg>