<svg height="512pt" viewBox="0 0 512 512" width="512pt" xmlns="http://www.w3.org/2000/svg"><path d="m512 256c0 141.386719-114.613281 256-256 256s-256-114.613281-256-256 114.613281-256 256-256 256 114.613281 256 256zm0 0" fill="#005ed3"/><path d="m512 256c0-.972656-.027344-1.933594-.035156-2.902344l-196.175782-195.394531c-8.59375-9.621094-21.214843-15.703125-35.292968-15.703125-8.980469 0-17.367188 2.472656-24.496094 6.757812-7.132812-4.285156-15.519531-6.757812-24.496094-6.757812-24.011718 0-43.800781 17.671875-46.582031 40.457031-17.695313.570313-31.863281 14.789063-31.863281 32.265625 0 6.070313 1.710937 11.75 4.683594 16.597656-5.511719 4.726563-9 11.667969-9 19.410157 0 .789062.042968 1.566406.113281 2.339843-4.34375 4.394532-6.773438 10.609376-6.058594 17.199219l1.855469 17.136719c.578125 5.359375 3.128906 10.046875 6.851562 13.421875l29.371094 28.636719c8.316406 15.136718 17.605469 26.453125 27.042969 34.890625 2.640625 2.945312 5.316406 5.625 8.003906 8.078125v45.328125h-57.621094c-33.730469 0-61.289062 27.589843-61.289062 61.289062v77.59375c.082031.066407.164062.132813.246093.199219 1.015626.800781 2.039063 1.589844 3.066407 2.375.464843.359375.929687.71875 1.398437 1.074219 1.113282.839843 2.234375 1.671875 3.363282 2.492187 42.316406 30.9375 94.476562 49.214844 150.914062 49.214844 141.386719 0 256-114.613281 256-256zm0 0" fill="#00459f"/><path d="m215.921875 264.058594h80.15625v61.296875h-80.15625zm0 0" fill="#ffc473"/><path d="m256 264.058594h40.078125v61.296875h-40.078125zm0 0" fill="#ffaa20"/><path d="m351.972656 147.097656c-4.003906-58.988281-54.3125-92.46875-95.972656-92.46875s-91.96875 33.480469-95.972656 92.46875c-10.78125 2.015625-18.433594 12.09375-17.230469 23.171875l1.855469 17.136719c1.257812 11.628906 11.800781 20.113281 23.429687 18.855469l2.003907-.21875c23.804687 61.960937 62.21875 77.914062 85.914062 81.539062 23.699219-3.625 62.113281-19.578125 85.914062-81.539062l2.003907.21875c11.628906 1.257812 22.171875-7.226563 23.433593-18.855469l1.855469-17.136719c1.199219-11.078125-6.453125-21.15625-17.234375-23.171875zm0 0" fill="#ffdba9"/><path d="m369.203125 170.269531-1.855469 17.144531c-1.257812 11.625-11.800781 20.105469-23.425781 18.84375l-2.003906-.214843c-23.804688 61.964843-62.21875 77.917969-85.917969 81.542969v-232.953126c41.664062 0 91.964844 33.476563 95.972656 92.464844 10.785156 2.019532 18.433594 12.09375 17.230469 23.171875zm0 0" fill="#ffc473"/><path d="m308.464844 175.136719h-52.464844v61.699219h18.636719v-44.40625h33.828125zm0 0" fill="#ffaa20"/><path d="m200.261719 175.136719h44.691406v17.292969h-44.691406zm0 0" fill="#ffc473"/><path d="m414.988281 379.050781v77.597657c-43.667969 34.652343-98.910156 55.351562-158.988281 55.351562s-115.320312-20.699219-158.988281-55.351562v-77.597657c0-33.699219 27.558593-61.289062 61.289062-61.289062h195.660157c33.609374.148437 61.027343 27.679687 61.027343 61.289062zm0 0" fill="#ffdba9"/><path d="m414.988281 379.050781v77.597657c-43.667969 34.652343-98.910156 55.351562-158.988281 55.351562v-194.238281h97.960938c33.609374.148437 61.027343 27.679687 61.027343 61.289062zm0 0" fill="#ffc473"/><path d="m365.390625 426.894531h49.597656v26.4375h-49.597656zm0 0" fill="#2a2a2c"/><path d="m365.390625 416.558594v70.953125c-33.171875 15.707031-70.25 24.488281-109.390625 24.488281s-76.21875-8.78125-109.390625-24.488281v-70.953125c14.980469-8.230469 26.449219-21.277344 32.378906-36.839844 1.3125-3.4375 1.980469-7.085938 1.980469-10.761719v-51.195312h22.402344v3.195312c0 29.144531 23.839844 53.753907 52.980468 53.5625 14.390626-.09375 27.414063-5.964843 36.859376-15.410156 9.527343-9.53125 15.417968-22.679687 15.417968-37.210937v-4.136719h22.402344v51.195312c0 3.675781.667969 7.324219 1.980469 10.761719 5.929687 15.5625 17.398437 28.609375 32.378906 36.839844zm0 0" fill="#c2001b"/><path d="m365.390625 416.558594v70.953125c-33.171875 15.707031-70.25 24.488281-109.390625 24.488281v-137.480469c14.53125 0 27.691406-5.890625 37.210938-15.410156 9.527343-9.53125 15.417968-22.679687 15.417968-37.210937v-4.136719h22.402344v51.195312c0 3.675781.667969 7.324219 1.980469 10.761719 5.929687 15.5625 17.398437 28.609375 32.378906 36.839844zm0 0" fill="#901"/><path d="m354.253906 131.320312c2.972656-4.847656 4.6875-10.527343 4.6875-16.597656 0-17.472656-14.171875-31.695312-31.863281-32.265625-2.785156-22.785156-22.570313-40.457031-46.582031-40.457031-8.980469 0-17.367188 2.472656-24.496094 6.757812-7.132812-4.285156-15.519531-6.757812-24.496094-6.757812-24.011718 0-43.796875 17.671875-46.582031 40.457031-17.695313.570313-31.863281 14.789063-31.863281 32.265625 0 6.070313 1.710937 11.75 4.683594 16.597656-5.511719 4.726563-9 11.667969-9 19.410157 0 14.238281 11.78125 25.785156 26.316406 25.785156s26.320312-11.546875 26.320312-25.785156c0-2.410157-.347656-4.738281-.976562-6.949219 5.9375-2.828125 10.871094-7.351562 14.160156-12.925781 5.253906 1.996093 10.964844 3.101562 16.941406 3.101562 8.976563 0 17.363282-2.472656 24.492188-6.757812 7.132812 4.285156 15.519531 6.757812 24.496094 6.757812 5.976562 0 11.6875-1.105469 16.941406-3.101562 3.289062 5.574219 8.222656 10.097656 14.160156 12.925781-.628906 2.210938-.976562 4.539062-.976562 6.949219 0 14.238281 11.785156 25.785156 26.320312 25.785156s26.316406-11.546875 26.316406-25.785156c0-7.742188-3.484375-14.683594-9-19.410157zm0 0" fill="#57555c"/><path d="m363.257812 150.730469c0 14.238281-11.789062 25.785156-26.320312 25.785156-14.535156 0-26.316406-11.546875-26.316406-25.785156 0-2.414063.347656-4.738281.976562-6.953125-5.941406-2.824219-10.871094-7.347656-14.160156-12.921875-5.257812 1.996093-10.96875 3.101562-16.941406 3.101562-8.980469 0-17.367188-2.472656-24.496094-6.753906v-78.449219c7.128906-4.28125 15.515625-6.753906 24.496094-6.753906 24.011718 0 43.792968 17.667969 46.582031 40.453125 17.691406.570313 31.867187 14.796875 31.867187 32.265625 0 6.078125-1.714843 11.753906-4.6875 16.601562 5.507813 4.730469 9 11.667969 9 19.410157zm0 0" fill="#2a2a2c"/></svg>