<svg height="512pt" viewBox="0 0 512 512" width="512pt" xmlns="http://www.w3.org/2000/svg"><path d="m512 256c0 141.386719-114.613281 256-256 256s-256-114.613281-256-256 114.613281-256 256-256 256 114.613281 256 256zm0 0" fill="#36cd90"/><path d="m512 256c0-1.976562-.03125-3.945312-.074219-5.910156l-188.035156-188.238282c-15.957031-16.554687-38.355469-26.859374-63.167969-26.859374h-9.445312c-48.449219 0-87.726563 39.277343-87.726563 87.726562v4.949219h-6.96875v46.128906c-6.496093 4.027344-10.503906 11.539063-9.628906 19.609375l1.789063 16.507812c.730468 6.75 4.714843 12.378907 10.210937 15.539063.660156 1.15625 1.429687 2.238281 2.289063 3.238281l4.914062 54.804688 47.71875 47.628906v5.144531h-44.644531c-29.960938 0-54.441407 24.5-54.441407 54.429688v78.847656c.625.414063 1.25.824219 1.878907 1.234375.597656.386719 1.191406.78125 1.792969 1.164062 39.726562 25.355469 86.914062 40.054688 137.539062 40.054688 141.386719 0 256-114.613281 256-256zm0 0" fill="#00a753"/><path d="m256 69.003906s-108.757812-3.898437-97.410156 130.085938l7.566406 84.40625h179.6875l7.566406-84.40625c11.347656-133.988282-97.410156-130.085938-97.410156-130.085938zm0 0" fill="#c06100"/><path d="m353.410156 199.089844-7.566406 84.410156h-89.84375v-214.5s108.757812-3.898438 97.410156 130.089844zm0 0" fill="#9a4c00"/><path d="m219.875 285.25h72.25v55.25h-72.25zm0 0" fill="#ffc473"/><path d="m256 285.25h36.125v55.25h-36.125zm0 0" fill="#ffaa20"/><path d="m213.875 312.875h84.25v27.625h-84.25zm0 0" fill="#e7001f"/><path d="m256 312.875h42.125v27.625h-42.125zm0 0" fill="#c2001b"/><path d="m348.449219 171.085938c-3.859375-56.824219-52.320313-89.070313-92.449219-89.070313s-88.585938 32.25-92.449219 89.070313c-10.382812 1.941406-17.753906 11.648437-16.597656 22.320312l1.789063 16.507812c1.210937 11.203126 11.371093 19.375 22.570312 18.160157l1.929688-.207031c22.929687 59.683593 59.929687 75.050781 82.757812 78.542968 22.824219-3.492187 59.828125-18.859375 82.757812-78.542968l1.929688.207031c11.199219 1.214843 21.359375-6.957031 22.570312-18.160157l1.789063-16.507812c1.152344-10.671875-6.214844-20.378906-16.597656-22.320312zm0 0" fill="#ffdba9"/><path d="m365.042969 193.40625-1.785157 16.515625c-1.214843 11.195313-11.367187 19.363281-22.566406 18.148437l-1.929687-.207031c-22.933594 59.691407-59.933594 75.058594-82.761719 78.546875v-224.394531c40.132812 0 88.585938 32.25 92.445312 89.070313 10.386719 1.945312 17.757813 11.648437 16.597657 22.320312zm0 0" fill="#ffc473"/><path d="m306.535156 198.09375h-50.535156v59.429688h17.953125v-42.773438h32.582031zm0 0" fill="#ffaa20"/><path d="m202.3125 198.09375h43.046875v16.65625h-43.046875zm0 0" fill="#ffc473"/><path d="m397.210938 390.699219v78.859375c-40.480469 26.820312-89.019532 42.441406-141.210938 42.441406s-100.730469-15.621094-141.210938-42.441406v-78.859375c0-29.929688 24.480469-54.429688 54.441407-54.429688h173.769531c29.851562.128907 54.210938 24.582031 54.210938 54.429688zm0 0" fill="#ff3d62"/><path d="m397.210938 390.699219v78.859375c-13.8125 9.152344-28.550782 16.992187-44.0625 23.363281-29.957032 12.296875-62.757813 19.078125-97.148438 19.078125v-175.730469h87c29.851562.128907 54.210938 24.582031 54.210938 54.429688zm0 0" fill="#e7001f"/><path d="m260.722656 34.992188h-9.445312c-48.449219 0-87.726563 39.277343-87.726563 87.726562v20.316406h184.894531v-20.316406c.003907-48.449219-39.273437-87.726562-87.722656-87.726562zm0 0" fill="#ff3d62"/><path d="m348.449219 122.71875v20.320312h-92.449219v-108.050781h4.71875c48.453125 0 87.730469 39.28125 87.730469 87.730469zm0 0" fill="#e7001f"/><path d="m156.582031 127.667969h198.835938v43.417969h-198.835938zm0 0" fill="#e7001f"/><path d="m256 127.671875h99.421875v43.40625h-99.421875zm0 0" fill="#c2001b"/><path d="m308.890625 152.652344h-105.78125c-10.539063 0-20.019531 6.402344-23.957031 16.179687l-6.96875 17.300781c-5.035156 12.511719-.65625 26.84375 10.511718 34.402344l34.851563 23.589844c6.242187 4.226562 14.699219 2.851562 19.285156-3.132812l11.125-14.527344c1.917969-2.503906 4.890625-3.96875 8.039063-3.96875 3.152344 0 6.125 1.464844 8.042968 3.96875l11.125 14.527344c4.585938 5.984374 13.042969 7.359374 19.285157 3.132812l34.851562-23.589844c11.167969-7.558594 15.546875-21.890625 10.511719-34.402344l-6.96875-17.300781c-3.933594-9.777343-13.414062-16.179687-23.953125-16.179687zm0 0" fill="#84caff"/><path d="m329.300781 220.539062-34.851562 23.582032c-6.238281 4.230468-14.699219 2.859375-19.277344-3.132813l-11.132813-14.527343c-.960937-1.25-2.179687-2.242188-3.558593-2.921876-1.378907-.679687-2.902344-1.050781-4.480469-1.050781v-69.839843h52.890625c10.539063 0 20.019531 6.402343 23.960937 16.179687l.910157 2.25 6.046875 15.050781c5.042968 12.519532.660156 26.851563-10.507813 34.410156zm0 0" fill="#00a6ff"/><path d="m244.148438 152.652344-47.902344 77.054687 8.027344 5.433594 51.277343-82.488281zm0 0" fill="#b1dcff"/><path d="m213.734375 152.652344-38.027344 61.171875c1.890625 2.5625 4.230469 4.84375 6.988281 6.710937l7.140626 4.832032 45.203124-72.714844zm0 0" fill="#b1dcff"/><path d="m355.417969 171.085938h-14.65625l-1.882813-4.683594c-4.953125-12.300782-16.726562-20.25-29.988281-20.25h-105.78125c-13.261719 0-25.035156 7.949218-29.988281 20.25l-1.882813 4.683594h-14.65625v15.664062h8.511719c-4.324219 14.507812 1.246094 30.5625 13.957031 39.167969l34.851563 23.589843c3.546875 2.398438 7.59375 3.558594 11.601562 3.558594 6.253906 0 12.425782-2.820312 16.488282-8.125l11.128906-14.527344c.679687-.886718 1.757812-1.417968 2.878906-1.417968s2.199219.53125 2.878906 1.421875l11.128906 14.523437c6.667969 8.707032 19.003907 10.710938 28.089844 4.566406l34.851563-23.589843c12.710937-8.605469 18.28125-24.660157 13.957031-39.167969h8.511719zm-29.757813 44.066406-34.847656 23.585937c-3.390625 2.296875-7.996094 1.546875-10.484375-1.703125l-11.128906-14.523437c-3.125-4.082031-8.058594-6.519531-13.199219-6.519531s-10.074219 2.4375-13.199219 6.519531l-11.128906 14.527343c-2.488281 3.246094-7.09375 3.996094-10.480469 1.703126l-34.851562-23.589844c-8.574219-5.804688-11.992188-16.988282-8.125-26.589844l6.96875-17.304688c2.960937-7.355468 9.996094-12.109374 17.925781-12.109374h105.78125c7.929687 0 14.964844 4.753906 17.929687 12.109374l6.964844 17.304688c3.867188 9.601562.449219 20.785156-8.125 26.589844zm0 0" fill="#fff"/><path d="m355.421875 171.078125h-14.660156l-1.882813-4.679687c-4.957031-12.296876-16.730468-20.25-29.988281-20.25h-52.890625v13h52.890625c7.859375 0 14.847656 4.671874 17.847656 11.929687.03125.0625.0625.121094.082031.183594l6.96875 17.296875c3.859376 9.613281.449219 20.792968-8.128906 26.589844l-34.851562 23.589843c-3.386719 2.292969-7.988282 1.550781-10.480469-1.699219l-11.128906-14.527343c-3.121094-4.082031-8.058594-6.523438-13.199219-6.523438v13c1.121094 0 2.199219.542969 2.878906 1.433594l11.132813 14.519531c6.660156 8.707032 19 10.707032 28.089843 4.570313l34.847657-23.589844c12.710937-8.613281 18.28125-24.660156 13.949219-39.171875h8.523437zm0 0" fill="#fff5cb"/><path d="m161.890625 407.449219v86.691406c-5.601563-2.210937-11.101563-4.621094-16.5-7.210937v-79.480469zm0 0" fill="#e7001f"/><path d="m366.609375 407.449219v79.480469c-5.398437 2.589843-10.898437 5-16.5 7.210937v-86.691406zm0 0" fill="#c2001b"/></svg>