<svg height="512pt" viewBox="0 0 512 512" width="512pt" xmlns="http://www.w3.org/2000/svg"><path d="m0 256c0-141.386719 114.613281-256 256-256s256 114.613281 256 256c0 89.324219-45.75 167.964844-115.09375 213.765625-40.417969 26.695313-88.847656-96.84375-140.90625-96.84375-51.671875 0-99.769531 123.769531-140.003906 97.4375-69.851563-45.714844-115.996094-124.648437-115.996094-214.359375zm0 0" fill="#ffdb2d"/><path d="m512 256c0-3.378906-.085938-6.734375-.214844-10.078125l-174.441406-174.441406c-14.652344-16.636719-36.101562-27.148438-60.015625-27.148438h-42.660156c-44.164063 0-79.964844 35.804688-79.964844 79.96875v35.699219l9.480469 9.582031v10.503907c-9.113282 2.632812-15.351563 11.542968-14.296875 21.277343l1.738281 16.070313c.503906 4.644531 2.59375 8.746094 5.671875 11.835937l7.121094 7.121094c1.601562 23.363281 11.976562 44.347656 27.855469 59.679687l27.679687 28.019532h-50.53125c-29.902344 0-54.320313 24.449218-54.320313 54.308594v91.347656c.300782.203125.601563.402344.90625.597656 2.074219 1.355469 4.171876 2.675781 6.285157 3.972656v.019532c38.917969 23.882812 84.699219-113.492188 133.707031-113.492188 52.058594 0 100.488281 135.617188 140.90625 108.921875 69.34375-45.800781 115.09375-124.441406 115.09375-213.765625zm0 0" fill="#fdc000"/><path d="m219.953125 296.527344h72.09375v68.101562h-72.09375zm0 0" fill="#ffc473"/><path d="m256 296.527344h36.046875v68.101562h-36.046875zm0 0" fill="#ffaa20"/><path d="m170.78125 423.691406v73.769532c-2.480469-.871094-4.953125-1.789063-7.402344-2.742188-17.050781-6.617188-33.21875-15.019531-48.277344-24.957031v-46.070313zm0 0" fill="#ffdba9"/><path d="m396.898438 423.691406v46.070313c-15.058594 9.9375-31.226563 18.339843-48.277344 24.957031-2.449219.953125-4.921875 1.871094-7.402344 2.742188v-73.769532zm0 0" fill="#ffc473"/><path d="m396.898438 378.398438v53.0625h-48.277344v63.257812c-28.722656 11.160156-59.960938 17.28125-92.621094 17.28125s-63.898438-6.121094-92.621094-17.28125v-63.257812h-48.277344v-53.0625c0-29.859376 24.417969-54.308594 54.320313-54.308594h50.539063c0 10.019531 3.628906 18.960937 9.800781 25.550781 6.527343 7.007813 15.777343 11.390625 26.238281 11.390625s19.710938-4.382812 26.238281-11.390625c6.171875-6.589844 9.8125-15.53125 9.8125-25.550781h50.527344c29.890625 0 54.320313 24.449218 54.320313 54.308594zm0 0" fill="#fff"/><path d="m396.898438 378.398438v53.0625h-48.277344v63.257812c-28.722656 11.160156-59.960938 17.28125-92.621094 17.28125v-150.96875c10.460938 0 19.710938-4.382812 26.238281-11.390625 6.171875-6.589844 9.8125-15.53125 9.8125-25.550781h50.527344c29.890625 0 54.320313 24.449218 54.320313 54.308594zm0 0" fill="#fff5cb"/><path d="m256 372.921875c26.40625 0 47.808594-21.40625 47.808594-47.8125v-1.015625h-11.761719c0 10.011719-3.640625 18.960938-9.804687 25.542969-6.527344 7.007812-15.777344 11.394531-26.242188 11.394531s-19.714844-4.386719-26.242188-11.394531c-6.164062-6.582031-9.804687-15.53125-9.804687-25.542969h-11.761719v1.015625c0 26.40625 21.402344 47.8125 47.808594 47.8125zm0 0" fill="#08f"/><path d="m303.808594 324.089844v1.019531c0 26.410156-21.410156 47.8125-47.808594 47.8125v-11.890625c10.460938 0 19.710938-4.382812 26.238281-11.390625 6.171875-6.589844 9.8125-15.53125 9.8125-25.550781zm0 0" fill="#005fd2"/><path d="m345.960938 179.644531c-3.753907-55.292969-50.910157-86.675781-89.960938-86.675781s-86.207031 31.382812-89.960938 86.675781c-10.105468 1.894531-17.277343 11.335938-16.152343 21.722657l1.738281 16.066406c1.179688 10.898437 11.066406 18.851562 21.964844 17.671875l1.878906-.207031c22.3125 58.082031 58.316406 73.035156 80.53125 76.433593 22.214844-3.398437 58.21875-18.351562 80.53125-76.433593l1.878906.207031c10.898438 1.179687 20.78125-6.773438 21.964844-17.671875l1.738281-16.066406c1.125-10.386719-6.046875-19.828126-16.152343-21.722657zm0 0" fill="#ffdba9"/><path d="m362.109375 201.371094-1.738281 16.058594c-1.179688 10.898437-11.0625 18.851562-21.960938 17.671874l-1.878906-.203124c-22.3125 58.082031-58.320312 73.03125-80.53125 76.429687v-218.359375c39.050781 0 86.210938 31.382812 89.960938 86.671875 10.109374 1.898437 17.277343 11.339844 16.148437 21.730469zm0 0" fill="#ffc473"/><path d="m305.179688 205.929688h-49.179688v57.832031h17.472656v-41.625h31.707032zm0 0" fill="#ffaa20"/><path d="m203.753906 205.929688h41.890625v16.207031h-41.890625zm0 0" fill="#ffc473"/><path d="m165.746094 202.195312s52.644531-.773437 90.25-41.785156h.003906c37.609375 41.011719 90.253906 41.785156 90.253906 41.785156 0-42.128906 0-120.191406-90.253906-120.191406s-90.253906 78.058594-90.253906 120.191406zm0 0" fill="#57555c"/><path d="m346.25 202.195312s-13.160156-.191406-31.019531-5.507812c-17.867188-5.324219-40.429688-15.773438-59.230469-36.277344v-78.40625c90.257812 0 90.25 78.066406 90.25 120.191406zm0 0" fill="#2a2a2c"/><path d="m357.296875 160h-202.59375v-35.699219c0-44.164062 35.800781-79.96875 79.96875-79.96875h42.660156c44.164063 0 79.964844 35.804688 79.964844 79.96875zm0 0" fill="#08f"/><path d="m357.300781 124.300781v35.699219h-101.300781v-115.671875h21.328125c44.160156 0 79.972656 35.8125 79.972656 79.972656zm0 0" fill="#005fd2"/><path d="m199.382812 108.214844c7.644532 0 13.839844-6.195313 13.839844-13.835938v-47.113281c-10.191406 2.832031-19.558594 7.628906-27.675781 13.957031v33.15625c0 7.640625 6.195313 13.835938 13.835937 13.835938zm0 0" fill="#005ed3"/><path d="m312.617188 108.214844c7.640624 0 13.835937-6.195313 13.835937-13.835938v-33.15625c-8.117187-6.328125-17.484375-11.125-27.675781-13.957031v47.113281c0 7.640625 6.195312 13.835938 13.839844 13.835938zm0 0" fill="#003d8d"/><path d="m256 108.214844c7.640625 0 13.835938-6.195313 13.835938-13.835938v-50.046875h-27.675782v50.042969c.003906 7.644531 6.199219 13.839844 13.839844 13.839844zm0 0" fill="#005ed3"/><path d="m269.839844 44.328125v50.050781c0 7.640625-6.199219 13.832032-13.839844 13.832032v-63.882813zm0 0" fill="#003d8d"/><path d="m357.296875 139.910156h-202.59375v20.089844h9.480469v70.054688c0 50.625 41.1875 91.816406 91.816406 91.816406s91.816406-41.191406 91.816406-91.816406v-70.054688h9.480469zm-17.480469 90.144532c0 46.214843-37.601562 83.816406-83.816406 83.816406s-83.816406-37.601563-83.816406-83.816406v-70.054688h167.632812zm0 0" fill="#005ed3"/><path d="m256 139.910156v20.089844h83.820312v70.050781c0 46.21875-37.601562 83.820313-83.820312 83.820313v8c50.628906 0 91.820312-41.191406 91.820312-91.820313v-70.050781h9.480469v-20.089844zm0 0" fill="#003d8d"/><path d="m267.953125 330.234375h-23.902344c-9.398437 0-17.019531-7.621094-17.019531-17.019531v-12.023438h57.941406v12.023438c0 9.398437-7.617187 17.019531-17.019531 17.019531zm0 0" fill="#08f"/><path d="m267.949219 330.230469c9.402343 0 17.019531-7.609375 17.019531-17.011719v-12.027344h-28.96875v29.039063zm0 0" fill="#005fd2"/><path d="m115.101562 420h48.28125v16.667969h-48.28125zm0 0" fill="#08f"/><path d="m348.617188 420h48.28125v16.667969h-48.28125zm0 0" fill="#005fd2"/></svg>