<svg height="512pt" viewBox="0 0 512 512" width="512pt" xmlns="http://www.w3.org/2000/svg"><path d="m0 256c0-141.386719 114.613281-256 256-256s256 114.613281 256 256c0 81.308594-37.902344 153.761719-97.007812 200.65625-43.667969 34.648438-98.914063-72.320312-158.992188-72.320312-59.984375 0-115.148438 107.035156-158.785156 72.484374-59.222656-46.890624-97.214844-119.417968-97.214844-200.820312zm0 0" fill="#ff3d62"/><path d="m512 256c0-2.507812-.046875-5.003906-.117188-7.492188l-181.210937-181.214843c-16.273437-17.929688-40.414063-29.292969-67.359375-29.292969h-14.625c-49.003906 0-88.730469 37.570312-88.730469 83.917969v21.761719c-.71875 1.085937-1.421875 2.191406-2.09375 3.320312-3.613281 2.707031-6.488281 5.175781-8.628906 7.167969-3.917969 3.648437-4.378906 9.617187-1.238281 13.808593-3.800782 4.320313-5.863282 10.148438-5.199219 16.292969l1.855469 17.136719c.539062 4.980469 2.78125 9.382812 6.082031 12.691406l30.960937 30.847656c6.628907 11.78125 13.855469 21.1875 21.257813 28.6875l12.96875 12.960938v45.164062h-57.621094c-33.730469 0-61.289062 27.589844-61.289062 61.292969v63.589844c.066406.054687.136719.113281.207031.167969 1.882812 1.496094 3.789062 2.960937 5.71875 4.402344v.007812c42.695312 31.894531 95.671875-76.886719 153.0625-76.886719 60.078125 0 115.324219 106.972657 158.992188 72.320313 59.105468-46.890625 97.007812-119.34375 97.007812-200.652344zm0 0" fill="#e7001f"/><path d="m146.328125 416.550781v70.828125c-17.648437-8.378906-34.179687-18.707031-49.316406-30.730468v-40.097657zm0 0" fill="#ffdba9"/><path d="m414.988281 416.550781v40.097657c-15.136719 12.023437-31.667969 22.351562-49.316406 30.730468v-70.828125zm0 0" fill="#ffc473"/><path d="m215.921875 283.183594h80.15625v104.273437h-80.15625zm0 0" fill="#ffc473"/><path d="m256 283.183594h40.078125v104.273437h-40.078125zm0 0" fill="#ffaa20"/><path d="m351.972656 161.097656c-4.003906-58.988281-54.3125-92.46875-95.972656-92.46875s-91.96875 33.480469-95.972656 92.46875c-10.78125 2.015625-18.433594 12.09375-17.230469 23.171875l1.855469 17.136719c1.257812 11.628906 11.800781 20.113281 23.429687 18.855469l2.003907-.21875c23.804687 61.960937 62.21875 77.914062 85.914062 81.539062 23.699219-3.625 62.113281-19.578125 85.914062-81.539062l2.003907.21875c11.628906 1.257812 22.171875-7.226563 23.433593-18.855469l1.855469-17.136719c1.199219-11.078125-6.453125-21.15625-17.234375-23.171875zm0 0" fill="#ffdba9"/><path d="m369.203125 184.269531-1.855469 17.144531c-1.257812 11.625-11.800781 20.105469-23.425781 18.84375l-2.003906-.214843c-23.804688 61.964843-62.21875 77.917969-85.917969 81.542969v-232.953126c41.664062 0 91.964844 33.476563 95.972656 92.464844 10.785156 2.019532 18.433594 12.09375 17.230469 23.171875zm0 0" fill="#ffc473"/><path d="m257.453125 52.042969c-115.171875 0-93.910156 109.273437-93.910156 109.273437l.003906.003906c1 10.84375 3.546875 33.605469 8.152344 45.105469h11.542969v-35.023437c2.65625-10.710938 6.765624-19.226563 11.453124-25.984375 14.726563 4.792969 35 8.898437 61.257813 8.898437 26.304687 0 46.605469-4.121094 61.332031-8.921875 4.695313 6.761719 8.8125 15.28125 11.472656 26.007813v35.023437h11.539063c4.609375-11.5 7.15625-34.261719 8.152344-45.109375h.007812s14.726563-109.273437-91.003906-109.273437zm0 0" fill="#57555c"/><path d="m349.152344 148.011719c0 8.121093-.699219 13.304687-.699219 13.304687-1 10.847656-3.546875 33.609375-8.152344 45.113282h-11.539062v-35.023438c-2.667969-10.726562-6.777344-19.246094-11.476563-26.007812-14.71875 4.800781-35.003906 8.914062-61.285156 8.921874v-102.265624c.480469-.011719.96875-.011719 1.457031-.011719 82.683594 0 91.695313 66.847656 91.695313 95.96875zm0 0" fill="#2a2a2c"/><path d="m308.464844 189.136719h-52.464844v61.699219h18.636719v-44.40625h33.828125zm0 0" fill="#ffaa20"/><path d="m200.261719 189.136719h44.691406v17.292969h-44.691406zm0 0" fill="#ffc473"/><path d="m352.046875 147.851562-66.03125-12.691406c-19.828125-3.8125-40.203125-3.8125-60.03125 0l-66.03125 12.691406v-25.9375c0-46.34375 39.726563-83.914062 88.730469-83.914062h14.628906c49.003906 0 88.730469 37.570312 88.730469 83.914062v25.9375zm0 0" fill="#00a6ff"/><path d="m352.039062 121.921875v25.929687l-66.019531-12.691406c-9.917969-1.898437-19.96875-2.859375-30.019531-2.859375v-94.300781h7.308594c49.011718 0 88.730468 37.570312 88.730468 83.921875zm0 0" fill="#006ef5"/><path d="m256 92.925781s-71.972656 6.164063-99.667969 56.734375c0 0 43.746094-24.933594 99.667969-24.933594s99.667969 24.933594 99.667969 24.933594c-27.695313-50.570312-99.667969-56.734375-99.667969-56.734375zm0 0" fill="#b1dcff"/><path d="m355.671875 149.660156s-.601563-.339844-1.742187-.941406c-.519532-.269531-1.148438-.597656-1.890626-.96875-11.570312-5.839844-49.609374-23.03125-96.039062-23.03125v-31.789062s66.199219 5.671874 96.039062 50.742187c1.289063 1.917969 2.5 3.917969 3.632813 5.988281zm0 0" fill="#84caff"/><path d="m355.6875 172.144531c-2.300781 0-4.613281-.757812-6.539062-2.324219-16.699219-13.558593-44.519532-31.585937-93.148438-31.585937-54.917969 0-84.777344 23.824219-92.617188 31.125-4.199218 3.910156-10.765624 3.671875-14.671874-.519531-3.90625-4.195313-3.671876-10.765625.523437-14.671875 11.851563-11.03125 45.972656-36.691407 106.765625-36.691407 42.035156 0 75.792969 11.511719 106.234375 36.230469 4.449219 3.613281 5.128906 10.152344 1.511719 14.601563-2.046875 2.527344-5.042969 3.835937-8.058594 3.835937zm0 0" fill="#fff"/><path d="m363.75 168.304688c-2.050781 2.53125-5.050781 3.839843-8.058594 3.839843-2.300781 0-4.621094-.757812-6.542968-2.320312-16.699219-13.558594-44.519532-31.589844-93.148438-31.589844v-20.757813c37.398438 0 68.25 9.109376 96.039062 28.539063.632813.429687 1.261719.878906 1.890626 1.328125 2.800781 2.011719 5.570312 4.132812 8.308593 6.359375 4.453125 3.621094 5.121094 10.152344 1.511719 14.601563zm0 0" fill="#fff5cb"/><path d="m353.960938 331.761719h-57.882813l-40.078125 52.570312-40.078125-52.570312h-57.621094c-33.730469 0-61.289062 27.589843-61.289062 61.289062v28.828125h49.316406v65.5c33.242187 15.792969 70.421875 24.621094 109.671875 24.621094s76.429688-8.828125 109.671875-24.621094v-65.5h49.316406v-28.828125c0-33.609375-27.417969-61.140625-61.027343-61.289062zm0 0" fill="#fff"/><path d="m414.988281 393.050781v28.828125h-49.316406v65.5c-33.242187 15.792969-70.421875 24.621094-109.671875 24.621094v-127.671875l40.078125-52.566406h57.882813c33.609374.148437 61.027343 27.679687 61.027343 61.289062zm0 0" fill="#fff5cb"/><path d="m215.921875 331.761719h-30.921875l37.609375 80.238281 33.390625-27.667969zm0 0" fill="#b1dcff"/><g fill="#00a6ff"><path d="m296.078125 331.761719h30.921875l-37.609375 80.238281-33.390625-27.667969zm0 0"/><path d="m339.832031 446.632812c0 11.042969-8.953125 20-20 20-11.042969 0-20-8.957031-20-20 0-11.046874 8.957031-20 20-20 11.046875 0 20 8.953126 20 20zm0 0"/></g></svg>