<svg height="512pt" viewBox="0 0 512 512" width="512pt" xmlns="http://www.w3.org/2000/svg"><path d="m512 256c0 141.386719-114.613281 256-256 256s-256-114.613281-256-256 114.613281-256 256-256 256 114.613281 256 256zm0 0" fill="#ffe670"/><path d="m512 256c0-1.738281-.03125-3.472656-.066406-5.203125l-177.566406-177.566406c-23.277344-26.378907-55.523438-35.230469-78.363282-35.230469h-.003906c-38.109375 0-102.433594 24.621094-107.511719 114.246094-5.542969 4.488281-8.796875 11.597656-7.976562 19.179687l1.894531 17.484375c.539062 5 2.769531 9.425782 6.050781 12.78125.71875 46.683594 2.609375 89.4375 4.300781 120.304688-32.757812 1.867187-58.957031 29.238281-58.957031 62.425781v69.636719c.199219.164062.402344.324218.605469.484375 2.722656 2.21875 5.488281 4.386719 8.304688 6.492187v.011719c42.730468 32 95.796874 50.953125 153.289062 50.953125 141.386719 0 256-114.613281 256-256zm0 0" fill="#ffd400"/><path d="m256.003906 83.609375h-.003906c-34.261719 0-93.074219 23.042969-93.074219 108.539063 0 93.378906 6.671875 178.875 6.671875 178.875h172.808594s6.671875-85.496094 6.671875-178.875c0-85.496094-58.816406-108.539063-93.074219-108.539063zm0 0" fill="#3c3b41"/><path d="m349.078125 192.148438c0 93.382812-6.667969 178.871093-6.667969 178.871093h-86.410156v-287.410156c34.261719 0 93.078125 23.039063 93.078125 108.539063zm0 0" fill="#171719"/><path d="m215.113281 267.105469h81.773438v62.535156h-81.773438zm0 0" fill="#c06100"/><path d="m256 267.105469h40.890625v62.535156h-40.890625zm0 0" fill="#9a4c00"/><path d="m353.910156 147.785156c-4.089844-60.179687-55.410156-94.332031-97.910156-94.332031s-93.820312 34.152344-97.910156 94.332031c-10.996094 2.058594-18.804688 12.335938-17.578125 23.640625l1.890625 17.484375c1.285156 11.863282 12.042968 20.519532 23.90625 19.234375l2.042968-.222656c24.285157 63.210937 63.472657 79.488281 87.648438 83.183594 24.175781-3.695313 63.363281-19.972657 87.648438-83.183594l2.042968.222656c11.863282 1.285157 22.621094-7.371093 23.90625-19.234375l1.890625-17.484375c1.226563-11.304687-6.578125-21.582031-17.578125-23.640625zm0 0" fill="#e67500"/><path d="m343.648438 207.921875 2.042968.222656c11.863282 1.285157 22.621094-7.371093 23.90625-19.234375l1.890625-17.484375c1.226563-11.304687-6.578125-21.582031-17.578125-23.640625-4.089844-60.179687-55.410156-94.332031-97.910156-94.332031v237.652344c24.175781-3.699219 63.363281-19.972657 87.648438-83.183594zm0 0" fill="#c06200"/><path d="m309.523438 176.390625h-53.523438v62.941406h19.015625v-45.300781h34.507813zm0 0" fill="#9a4c00"/><path d="m199.136719 176.390625h45.59375v17.640625h-45.59375zm0 0" fill="#c06100"/><path d="m418.199219 384.421875v69.636719c-44.160157 36.210937-100.640625 57.941406-162.199219 57.941406s-118.039062-21.730469-162.199219-57.941406v-69.636719c0-34.382813 28.121094-62.53125 62.519531-62.53125h199.621094c34.277344.160156 62.257813 28.238281 62.257813 62.53125zm0 0" fill="#e67500"/><path d="m418.199219 384.421875v69.636719c-44.160157 36.210937-100.640625 57.941406-162.199219 57.941406v-190.109375h99.941406c34.277344.160156 62.257813 28.238281 62.257813 62.53125zm0 0" fill="#c06200"/><path d="m152.019531 409v80.988281c-3.96875-1.757812-7.878906-3.617187-11.730469-5.578125v-75.410156zm0 0" fill="#c06200"/><path d="m371.710938 409v75.410156c-3.851563 1.960938-7.761719 3.820313-11.730469 5.578125v-80.988281zm0 0" fill="#9a4c00"/><path d="m201.472656 452.089844c0-3.628906-4.109375-6.570313-9.175781-6.570313s-9.175781 2.941407-9.175781 6.570313c0 3.625 4.109375 6.566406 9.175781 6.566406s9.175781-2.941406 9.175781-6.566406zm0 0" fill="#c06200"/><path d="m328.878906 452.089844c0-3.628906-4.109375-6.570313-9.175781-6.570313s-9.175781 2.941407-9.175781 6.570313c0 3.625 4.109375 6.566406 9.175781 6.566406s9.175781-2.941406 9.175781-6.566406zm0 0" fill="#9a4c00"/><path d="m256.003906 38h-.003906c-39.695312 0-107.84375 26.699219-107.84375 125.761719 0 108.199219 7.726562 207.261719 7.726562 207.261719l21.078126-29.507813 10.539062 7.027344s0-117.917969 0-154.511719c0-36.589844 12.246094-79.097656 68.5-73.125 56.253906-5.972656 68.5 36.535156 68.5 73.125v154.511719l10.539062-7.027344 21.078126 29.507813s7.726562-99.0625 7.726562-207.261719c.003906-99.0625-68.144531-125.761719-107.839844-125.761719zm0 0" fill="#57555c"/><path d="m363.851562 163.761719c0 108.199219-7.730468 207.257812-7.730468 207.257812l-21.082032-29.5-10.539062 7.019531s0-117.910156 0-154.507812c0-34.25-10.730469-73.691406-58.25-73.691406-3.238281 0-6.660156.179687-10.25.558594v-82.898438c39.699219 0 107.851562 26.699219 107.851562 125.761719zm0 0" fill="#3c3b41"/><path d="m256 393.75c-29.089844 0-52.75-23.664062-52.75-52.75v-19.109375h10v19.109375c0 23.570312 19.175781 42.75 42.75 42.75 23.570312 0 42.75-19.179688 42.75-42.75v-19.109375h10v19.109375c0 29.085938-23.664062 52.75-52.75 52.75zm0 0" fill="#ffe670"/><path d="m308.75 321.890625v19.109375c0 29.089844-23.660156 52.75-52.75 52.75v-10c23.570312 0 42.75-19.179688 42.75-42.75v-19.109375zm0 0" fill="#ffdb2d"/><path d="m266.625 388.75c0-7.59375-4.757812-13.75-10.625-13.75s-10.625 6.15625-10.625 13.75 4.757812 13.75 10.625 13.75 10.625-6.15625 10.625-13.75zm0 0" fill="#00bb64"/><path d="m266.628906 388.75c0 7.589844-4.757812 13.75-10.628906 13.75v-27.5c5.871094 0 10.628906 6.160156 10.628906 13.75zm0 0" fill="#008c4a"/></svg>