<svg height="512pt" viewBox="0 0 512 512" width="512pt" xmlns="http://www.w3.org/2000/svg"><path d="m512 256c0 141.386719-114.613281 256-256 256s-256-114.613281-256-256 114.613281-256 256-256 256 114.613281 256 256zm0 0" fill="#ff8900"/><path d="m512 256c0-17.167969-1.703125-33.9375-4.925781-50.160156l-133.925781-132.726563c-7.089844-7.726562-17.269532-12.570312-28.582032-12.570312-14.105468 0-26.449218 7.527343-33.242187 18.785156-2.210938.023437-4.378907.214844-6.503907.546875-12.757812-5.320312-28.773437-8.476562-48.820312-8.476562s-36.0625 3.15625-48.820312 8.476562c-1.757813-.277344-3.550782-.445312-5.371094-.515625l-5.445313-5.847656c-7.101562-7.957031-17.425781-12.96875-28.929687-12.96875-21.425782 0-38.796875 17.371093-38.796875 38.796875 0 11.554687 5.058593 21.921875 13.074219 29.027344l18.570312 18.578124c-1.300781 11.664063-.847656 22.8125.132812 31.832032-8.796874 2.882812-14.710937 11.164062-13.667968 20.203125l1.792968 15.511719c.566407 4.898437 3.078126 9.171874 6.734376 12.230468l19.929687 20.023438c3.953125 16.992187 12.757813 28.921875 23.390625 37.367187.832031 1.054688 1.6875 2.074219 2.570312 3.058594l-7.691406 31.328125h-4.554687c-58.308594 0-105.578125 47.269531-105.578125 105.578125v20.921875c.066406.0625.128906.121094.195312.183594 3.492188 3.183594 7.082032 6.265625 10.746094 9.253906v.007812c44.085938 35.972657 100.378906 57.554688 161.71875 57.554688 141.386719 0 256-114.613281 256-256zm0 0" fill="#c06100"/><path d="m206.234375 99.34375c0 21.425781-17.371094 38.796875-38.800781 38.796875-21.425782 0-38.796875-17.371094-38.796875-38.796875 0-21.429688 17.371093-38.800781 38.796875-38.800781 21.429687 0 38.800781 17.371093 38.800781 38.800781zm0 0" fill="#3c3b41"/><path d="m217.375 96.550781c8.066406 0 15.632812 2.121094 22.1875 5.816407-7.761719-13.761719-22.503906-23.058594-39.429688-23.058594-24.992187 0-45.25 20.257812-45.25 45.246094 0 16.925781 9.300782 31.671874 23.0625 39.433593-3.699218-6.558593-5.816406-14.125-5.816406-22.1875 0-24.992187 20.257813-45.25 45.246094-45.25zm0 0" fill="#ffe670"/><path d="m383.363281 99.34375c0 21.425781-17.371093 38.796875-38.796875 38.796875-21.429687 0-38.800781-17.371094-38.800781-38.796875 0-21.429688 17.371094-38.800781 38.800781-38.800781 21.425782 0 38.796875 17.371093 38.796875 38.800781zm0 0" fill="#171719"/><path d="m294.625 96.550781c-8.066406 0-15.632812 2.121094-22.1875 5.816407 7.761719-13.761719 22.503906-23.058594 39.429688-23.058594 24.992187 0 45.25 20.257812 45.25 45.246094 0 16.925781-9.300782 31.671874-23.0625 39.433593 3.699218-6.558593 5.816406-14.125 5.816406-22.1875 0-24.992187-20.257813-45.25-45.246094-45.25zm0 0" fill="#ffdb2d"/><path d="m309.390625 281.28125h-106.78125l-10.570313 43.046875h127.921876zm0 0" fill="#ffc473"/><path d="m319.960938 324.328125h-63.960938v-43.046875h53.390625zm0 0" fill="#ffaa20"/><path d="m348.621094 178.015625c-3.867188-53.375-52.414063-83.671875-92.621094-83.671875s-88.753906 30.296875-92.621094 83.671875c-10.40625 1.828125-17.789062 10.945313-16.628906 20.96875l1.789062 15.507813c1.21875 10.523437 11.394532 18.199218 22.613282 17.0625l1.933594-.199219c3.136718 61.273437 60.046874 70.503906 82.914062 73.785156 22.871094-3.28125 79.78125-12.511719 82.914062-73.785156l1.933594.199219c11.222656 1.136718 21.398438-6.539063 22.613282-17.0625l1.792968-15.507813c1.15625-10.023437-6.226562-19.140625-16.632812-20.96875zm0 0" fill="#ffdba9"/><path d="m365.25 198.984375-1.785156 15.507813c-1.222656 10.523437-11.390625 18.207031-22.617188 17.0625l-1.933594-.195313c-1.578124 30.894531-16.835937 48.5625-34.5 58.898437-17.375 10.167969-37.070312 13.253907-48.414062 14.882813v-210.800781c12.152344 0 25.054688 2.761718 37.265625 8.101562 28.199219 12.308594 52.660156 38.320313 55.351563 75.578125 2.117187.371094 4.121093 1.042969 5.945312 1.980469 7.117188 3.601562 11.613281 11 10.6875 18.984375zm0 0" fill="#ffc473"/><path d="m300.878906 197.402344h-44.878906v52.78125h15.945312v-37.988282h28.933594zm0 0" fill="#ffaa20"/><path d="m205.097656 197.402344h40.257813v14.792968h-40.257813zm0 0" fill="#ffc473"/><path d="m428.660156 424.078125v20.933594c-45.519531 41.597656-106.128906 66.988281-172.660156 66.988281s-127.140625-25.390625-172.660156-66.988281v-20.933594c0-58.308594 47.269531-105.578125 105.582031-105.578125h134.15625c58.3125 0 105.582031 47.269531 105.582031 105.578125zm0 0" fill="#ffdba9"/><path d="m428.660156 424.078125v20.933594c-45.519531 41.597656-106.128906 66.988281-172.660156 66.988281v-193.5h67.078125c58.3125 0 105.582031 47.269531 105.582031 105.578125zm0 0" fill="#ffc473"/><path d="m358.261719 389.21875c-5.121094-5.117188-8.28125-12.179688-8.28125-19.988281v-47.269531c-8.101563-2.132813-16.589844-3.320313-25.332031-3.441407v33.660157c0 25.03125-20.296876 45.320312-45.328126 45.320312h-46.640624c-25.03125 0-45.328126-20.289062-45.328126-45.320312v-33.660157c-8.742187.121094-17.230468 1.308594-25.332031 3.441407v47.269531c0 15.609375-12.660156 28.269531-28.269531 28.269531v83.476562c36.328125 19.78125 77.976562 31.023438 122.25 31.023438s85.921875-11.242188 122.25-31.023438v-83.476562c-7.808594 0-14.871094-3.160156-19.988281-8.28125zm0 0" fill="#36cd90"/><path d="m378.25 397.5v83.480469c-36.328125 19.78125-77.980469 31.019531-122.25 31.019531v-114.5h23.320312c25.03125 0 45.328126-20.289062 45.328126-45.320312v-33.660157c8.742187.121094 17.230468 1.308594 25.332031 3.441407v47.269531c0 7.808593 3.160156 14.871093 8.28125 19.988281 5.117187 5.121094 12.179687 8.28125 19.988281 8.28125zm0 0" fill="#00a753"/><path d="m256 71.398438c-127.863281 0-91.855469 128.339843-91.855469 128.339843h14.09375l16.277344-35.75c8.140625-17.875 28.4375-26.742187 47.085937-20.570312l14.398438 4.765625 14.398438-4.765625c18.648437-6.171875 38.945312 2.695312 47.085937 20.570312l16.277344 35.75h14.09375s36.007812-128.339843-91.855469-128.339843zm0 0" fill="#57555c"/><path d="m347.859375 199.738281h-14.097656l-16.28125-35.75c-8.140625-17.878906-28.441407-26.75-47.082031-20.566406l-14.398438 4.757813v-76.78125c127.859375 0 91.859375 128.339843 91.859375 128.339843zm0 0" fill="#3c3b41"/></svg>