<svg height="512pt" viewBox="0 0 512 512" width="512pt" xmlns="http://www.w3.org/2000/svg"><path d="m512 256c0 141.386719-114.613281 256-256 256s-256-114.613281-256-256 114.613281-256 256-256 256 114.613281 256 256zm0 0" fill="#ffe670"/><path d="m512 256c0-23.3125-3.132812-45.886719-8.972656-67.347656l-144.605469-144.609375h-15v42.355469l-14.894531-14.957032c-16.550782-17.21875-39.804688-27.941406-65.574219-27.941406h-13.910156c-50.230469 0-90.953125 40.722656-90.953125 90.953125v20.3125h-4.511719v7.390625c-8.53125 3.65625-14.117187 12.566406-13.066406 22.246094l1.890625 17.488281c.582031 5.34375 3.082031 10.035156 6.742187 13.460937l30.542969 30.039063c7.582031 13.671875 15.945312 24.257813 24.492188 32.4375l7.210937 7.242187v28.351563h-7.390625v24.117187h-59.109375c-38.339844 0-69.679687 31.382813-69.679687 69.699219v30.003907c.460937.460937.9375.914062 1.402343 1.371093 1.023438 1.003907 2.042969 2.011719 3.085938 2.996094.285156.273437.578125.535156.863281.808594 1.289062 1.210937 2.582031 2.414062 3.894531 3.597656 45.398438 41.007813 105.550781 65.984375 171.542969 65.984375 141.386719 0 256-114.613281 256-256zm0 0" fill="#ffd400"/><path d="m211.390625 282.753906h89.21875v62.53125h-89.21875zm0 0" fill="#c06100"/><path d="m256 282.753906h44.609375v62.53125h-44.609375zm0 0" fill="#9a4c00"/><path d="m204 313.421875h104v26.617187h-104zm0 0" fill="#57555c"/><path d="m256 313.421875h52v26.617187h-52zm0 0" fill="#3c3b41"/><path d="m353.910156 160.765625c-4.085937-60.179687-55.40625-94.332031-97.910156-94.332031-42.5 0-93.820312 34.152344-97.910156 94.332031-10.996094 2.058594-18.804688 12.335937-17.578125 23.640625l1.890625 17.484375c1.285156 11.863281 12.042968 20.519531 23.90625 19.234375l2.042968-.222656c24.285157 63.210937 63.472657 79.488281 87.648438 83.183594 24.175781-3.695313 63.363281-19.972657 87.648438-83.183594l2.042968.222656c11.863282 1.285156 22.621094-7.371094 23.90625-19.234375l1.890625-17.484375c1.226563-11.304688-6.578125-21.582031-17.578125-23.640625zm0 0" fill="#e67500"/><path d="m343.648438 220.902344 2.042968.222656c11.863282 1.285156 22.621094-7.371094 23.90625-19.234375l1.890625-17.484375c1.226563-11.304688-6.578125-21.582031-17.578125-23.640625-4.085937-60.179687-55.40625-94.332031-97.910156-94.332031v237.652344c24.175781-3.699219 63.363281-19.972657 87.648438-83.183594zm0 0" fill="#c06200"/><path d="m309.523438 189.371094h-53.523438v62.941406h19.015625v-45.300781h34.507813zm0 0" fill="#9a4c00"/><path d="m199.140625 189.371094h45.589844v17.640625h-45.589844zm0 0" fill="#c06100"/><path d="m436.789062 407.238281v30.011719c-46.308593 46.179688-110.21875 74.75-180.789062 74.75s-134.480469-28.570312-180.789062-74.75v-30.011719c0-38.316406 31.339843-69.699219 69.679687-69.699219h222.507813c38.210937.179688 69.390624 31.480469 69.390624 69.699219zm0 0" fill="#78777f"/><path d="m436.789062 407.238281v30.011719c-46.308593 46.179688-110.21875 74.75-180.789062 74.75v-174.460938h111.398438c38.210937.179688 69.390624 31.480469 69.390624 69.699219zm0 0" fill="#57555c"/><path d="m141.179688 409.671875v75.1875c-5.210938-2.609375-10.308594-5.398437-15.300782-8.359375v-66.828125zm0 0" fill="#57555c"/><path d="m386.121094 409.671875v66.828125c-4.992188 2.960938-10.089844 5.75-15.300782 8.359375v-75.1875zm0 0" fill="#3c3b41"/><path d="m353.910156 160.765625h-195.820312v-26.308594c0-50.234375 40.722656-90.957031 90.953125-90.957031h13.910156c50.234375 0 90.957031 40.722656 90.957031 90.957031zm0 0" fill="#57555c"/><path d="m353.910156 134.460938v26.300781h-97.910156v-117.261719h6.960938c50.230468 0 90.949218 40.71875 90.949218 90.960938zm0 0" fill="#2a2a2c"/><path d="m158.089844 143.5h195.820312v17.265625h-195.820312zm0 0" fill="#3c3b41"/><path d="m256 143.5h97.910156v17.261719h-97.910156zm0 0" fill="#171719"/><path d="m318.109375 330.0625c-22.226563 0-40.308594-18.082031-40.308594-40.308594v-7.691406h15v7.691406c0 13.957032 11.351563 25.308594 25.308594 25.308594s25.3125-11.351562 25.3125-25.308594v-245.710937h15v245.710937c0 22.226563-18.082031 40.308594-40.3125 40.308594zm0 0" fill="#fff"/><path d="m343.421875 44.042969h15v26.25h-15zm0 0" fill="#08f"/><path d="m270.695312 268.875h29.757813v13.332031h-29.757813zm0 0" fill="#08f"/><path d="m338.347656 154.765625h20.074219v39.234375h-20.074219zm0 0" fill="#aeadb3"/><path d="m153.578125 154.765625h20.074219v39.234375h-20.074219zm0 0" fill="#e1e1e3"/><path d="m314.902344 149.914062h-117.804688c-4.625 0-9.175781 1.152344-13.246094 3.351563-5.925781 3.203125-9.617187 9.394531-9.617187 16.132813v38.660156c0 11.804687 9.570313 21.375 21.375 21.375h27.078125c10.695312 0 19.742188-7.902344 21.183594-18.496094l2.304687-16.960938c.667969-4.914062 4.863281-8.578124 9.824219-8.578124s9.15625 3.664062 9.824219 8.578124l2.304687 16.960938c1.441406 10.59375 10.488282 18.496094 21.183594 18.496094h27.078125c11.804687 0 21.375-9.570313 21.375-21.375v-38.660156c0-6.738282-3.691406-12.929688-9.617187-16.132813-4.070313-2.199219-8.621094-3.351563-13.246094-3.351563zm0 0" fill="#08f"/><path d="m337.765625 169.398438v38.660156c0 11.804687-9.566406 21.378906-21.375 21.378906h-27.078125c-10.695312 0-19.742188-7.902344-21.183594-18.5l-2.304687-16.960938c-.332031-2.457031-1.550781-4.597656-3.300781-6.128906-1.753907-1.535156-4.042969-2.449218-6.523438-2.449218v-35.488282h58.898438c2.3125 0 4.609374.289063 6.835937.851563 2.222656.5625 4.378906 1.402343 6.410156 2.5 5.929688 3.207031 9.621094 9.398437 9.621094 16.136719zm0 0" fill="#005fd2"/><path d="m208.886719 149.914062-32.671875 67.132813c2.34375 5.050781 6.605468 9.035156 11.851562 11.015625l38.035156-78.148438zm0 0" fill="#b1dcff"/><path d="m234.089844 149.914062-38.703125 79.515626c.074219 0 .148437.007812.222656.007812h8.382813l38.703124-79.523438zm0 0" fill="#b1dcff"/><path d="m316.390625 235.847656h-27.078125c-13.835938 0-25.675781-10.335937-27.539062-24.046875l-2.484376-18.28125c-2.703124-3.15625-6.378906-1.472656-6.757812 1.324219l-1.671875 12.273438c-2.234375 16.457031-16.289063 28.730468-32.898437 28.730468h-22.351563c-15.347656 0-27.789063-12.441406-27.789063-27.789062v-38.445313c0-9.210937 5.011719-17.734375 13.140626-22.074219 4.949218-2.640624 10.527343-4.039062 16.140624-4.039062h117.800782c5.609375 0 11.1875 1.394531 16.136718 4.039062 8.125 4.335938 13.140626 12.863282 13.140626 22.074219v38.445313c0 15.347656-12.441407 27.789062-27.789063 27.789062zm-60.089844-56.859375c8.113281.148438 14.828125 6.390625 15.917969 14.433594l1.628906 11.96875c1.371094 10.097656 9.996094 17.632813 20.191406 17.632813h22.351563c8.261719 0 14.964844-6.699219 14.964844-14.964844v-38.566406c0-4.457032-2.449219-8.5625-6.382813-10.652344-3.089844-1.644532-6.570312-2.511719-10.070312-2.511719h-117.804688c-3.5 0-6.976562.867187-10.066406 2.511719-3.9375 2.089844-6.386719 6.195312-6.386719 10.652344v38.566406c0 8.265625 6.703125 14.964844 14.964844 14.964844h22.351563c10.195312 0 18.820312-7.53125 20.191406-17.632813l1.667968-12.277344c1.109376-8.152343 8.222657-14.277343 16.480469-14.125zm0 0" fill="#fff"/><path d="m331.035156 147.535156c-4.945312-2.640625-10.523437-4.035156-16.136718-4.035156h-58.898438v12.824219h58.898438c3.503906 0 6.984374.871093 10.074218 2.511719 3.929688 2.097656 6.382813 6.199218 6.382813 10.652343v38.570313c0 8.261718-6.703125 14.964844-14.964844 14.964844h-22.351563c-10.195312 0-18.816406-7.535157-20.191406-17.636719l-1.628906-11.96875c-1.089844-8.039063-7.808594-14.285157-15.917969-14.433594-.101562 0-.199219-.003906-.300781-.003906v12.828125c1.082031 0 2.257812.5 3.289062 1.710937l2.484376 18.277344c1.867187 13.710937 13.703124 24.050781 27.539062 24.050781h27.078125c15.351563 0 27.789063-12.445312 27.789063-27.789062v-38.445313c0-9.210937-5.015626-17.742187-13.144532-22.078125zm0 0" fill="#e1e1e3"/><path d="m273.828125 337.539062v173.839844c-5.886719.410156-11.839844.621094-17.828125.621094s-11.941406-.210938-17.828125-.621094v-173.839844zm0 0" fill="#aeadb3"/><path d="m273.828125 337.539062v173.839844c-5.886719.410156-11.839844.621094-17.828125.621094v-174.460938zm0 0" fill="#8b8992"/></svg>