<svg height="512pt" viewBox="0 0 512 512" width="512pt" xmlns="http://www.w3.org/2000/svg"><path d="m512 256c0 141.386719-114.613281 256-256 256s-256-114.613281-256-256 114.613281-256 256-256 256 114.613281 256 256zm0 0" fill="#36cd90"/><path d="m512 256c0-22.332031-2.867188-43.992188-8.238281-64.640625l-147.328125-147.328125h-14.707032v42.59375l-15.628906-15.726562c-16.511718-16.898438-39.542968-27.398438-65.039062-27.398438h-10.117188c-50.230468 0-90.953125 40.722656-90.953125 90.953125v18.15625h-4.421875v7.246094c-8.367187 3.585937-13.84375 12.324219-12.816406 21.816406l1.859375 17.148437c.542969 5.015626 2.8125 9.441407 6.148437 12.757813l30.988282 30.9375c6.929687 12.28125 14.5 21.976563 22.25 29.617187l8.257812 8.183594v33.101563h-8.253906v24.121093h-49.558594c-35.042968 0-63.691406 28.679688-63.691406 63.710938v50.253906c.308594.257813.613281.519532.921875.777344 1.628906 1.363281 3.269531 2.710938 4.933594 4.035156 43.734375 34.847656 99.128906 55.683594 159.394531 55.683594 141.386719 0 256-114.613281 256-256zm0 0" fill="#00a753"/><path d="m151.050781 417.5v72.058594c-21.910156-9.859375-42.179687-22.707032-60.300781-38.027344v-34.03125zm0 0" fill="#ffdba9"/><path d="m421.25 417.5v34.03125c-18.121094 15.320312-38.390625 28.167969-60.300781 38.027344v-72.058594zm0 0" fill="#ffc473"/><path d="m212.253906 278.117188h87.488282v61.320312h-87.488282zm0 0" fill="#ffc473"/><path d="m256 278.117188h43.746094v61.320312h-43.746094zm0 0" fill="#ffaa20"/><path d="m204 313.421875h104v26.617187h-104zm0 0" fill="#ff3d62"/><path d="m256 313.421875h52v26.617187h-52zm0 0" fill="#e7001f"/><path d="m352.011719 158.492188c-4.007813-59.011719-54.332031-92.503907-96.011719-92.503907s-92.003906 33.492188-96.011719 92.503907c-10.785156 2.019531-18.4375 12.097656-17.238281 23.183593l1.855469 17.144531c1.261719 11.632813 11.808593 20.121094 23.441406 18.859376l2.003906-.214844c23.8125 61.984375 62.242188 77.945312 85.949219 81.570312 23.707031-3.625 62.136719-19.585937 85.949219-81.570312l2.003906.214844c11.632813 1.261718 22.179687-7.226563 23.441406-18.859376l1.855469-17.144531c1.199219-11.085937-6.453125-21.164062-17.238281-23.183593zm0 0" fill="#ffdba9"/><path d="m341.949219 217.464844 2.003906.214844c11.632813 1.261718 22.179687-7.226563 23.441406-18.859376l1.855469-17.144531c1.199219-11.085937-6.453125-21.164062-17.238281-23.183593-4.007813-59.011719-54.332031-92.503907-96.011719-92.503907v233.046875c23.707031-3.625 62.136719-19.585937 85.949219-81.570312zm0 0" fill="#ffc473"/><path d="m308.484375 186.542969h-52.484375v61.722656h18.644531v-44.421875h33.839844zm0 0" fill="#ffaa20"/><path d="m200.238281 186.542969h44.710938v17.300781h-44.710938zm0 0" fill="#ffc473"/><path d="m421.25 401.25v23.519531h-60.300781v64.789063c-32.027344 14.421875-67.550781 22.441406-104.949219 22.441406s-72.921875-8.019531-104.949219-22.441406v-64.789063h-60.300781v-23.519531c0-35.03125 28.648438-63.710938 63.691406-63.710938h203.378906c34.929688.160157 63.429688 28.769532 63.429688 63.710938zm0 0" fill="#ff53a1"/><path d="m421.25 401.25v23.519531h-60.300781v64.789063c-32.027344 14.421875-67.550781 22.441406-104.949219 22.441406v-174.460938h101.820312c34.929688.160157 63.429688 28.769532 63.429688 63.710938zm0 0" fill="#ff3d62"/><path d="m273.828125 337.539062v173.839844c-5.886719.410156-11.839844.621094-17.828125.621094s-11.941406-.210938-17.828125-.621094v-173.839844zm0 0" fill="#ffb2d5"/><path d="m273.828125 337.539062v173.839844c-5.886719.410156-11.839844.621094-17.828125.621094v-174.460938zm0 0" fill="#ff90c2"/><path d="m352.011719 158.492188h-192.023438v-24.039063c0-50.230469 40.722657-90.953125 90.953125-90.953125h10.117188c50.230468 0 90.953125 40.722656 90.953125 90.953125zm0 0" fill="#ff3d62"/><path d="m352.011719 134.460938v24.027343h-96.011719v-114.988281h5.058594c50.230468 0 90.953125 40.71875 90.953125 90.960938zm0 0" fill="#e7001f"/><path d="m159.988281 141.5625h192.023438v16.929688h-192.023438zm0 0" fill="#e7001f"/><path d="m256 141.558594h96.011719v16.929687h-96.011719zm0 0" fill="#901"/><path d="m316.90625 324.507812c-21.796875 0-39.53125-17.730468-39.53125-39.527343v-7.539063h14.710938v7.539063c0 13.683593 11.132812 24.820312 24.820312 24.820312 13.683594 0 24.820312-11.136719 24.820312-24.820312v-240.949219h14.707032v240.949219c0 21.796875-17.730469 39.527343-39.527344 39.527343zm0 0" fill="#fff"/><path d="m341.726562 44.03125h14.707032v25.742188h-14.707032zm0 0" fill="#ff3d62"/><path d="m270.410156 264.507812h29.179688v13.074219h-29.179688zm0 0" fill="#ff3d62"/><path d="m336.75 152.609375h19.683594v38.472656h-19.683594zm0 0" fill="#aeadb3"/><path d="m155.5625 152.609375h19.6875v38.472656h-19.6875zm0 0" fill="#e1e1e3"/><path d="m313.757812 147.851562h-115.515624c-4.539063 0-9 1.128907-12.992188 3.285157-5.808594 3.140625-9.433594 9.214843-9.433594 15.824219v37.910156c0 11.574218 9.386719 20.960937 20.964844 20.960937h26.554688c10.484374 0 19.359374-7.746093 20.769531-18.136719l2.261719-16.632812c.65625-4.820312 4.769531-8.414062 9.632812-8.414062s8.980469 3.59375 9.632812 8.414062l2.261719 16.632812c1.414063 10.390626 10.285157 18.136719 20.773438 18.136719h26.554687c11.574219 0 20.960938-9.382812 20.960938-20.960937v-37.910156c0-6.609376-3.621094-12.683594-9.433594-15.824219-3.992188-2.15625-8.453125-3.285157-12.992188-3.285157zm0 0" fill="#08f"/><path d="m336.183594 166.960938v37.90625c0 11.578124-9.382813 20.964843-20.964844 20.964843h-26.554688c-10.488281 0-19.355468-7.746093-20.769531-18.140625l-2.257812-16.628906c-.328125-2.410156-1.523438-4.511719-3.242188-6.011719-1.71875-1.503906-3.960937-2.402343-6.394531-2.402343v-34.796876h57.757812c2.269532 0 4.519532.285157 6.703126.835938 2.179687.550781 4.292968 1.371094 6.285156 2.449219 5.8125 3.140625 9.4375 9.214843 9.4375 15.824219zm0 0" fill="#005fd2"/><path d="m209.800781 147.851562-32.039062 65.832032c2.296875 4.953125 6.476562 8.859375 11.621093 10.800781l37.300782-76.632813zm0 0" fill="#b1dcff"/><path d="m234.515625 147.851562-37.953125 77.976563c.074219 0 .144531.003906.21875.003906h8.21875l37.953125-77.980469zm0 0" fill="#b1dcff"/><path d="m315.21875 232.121094h-26.554688c-13.566406 0-25.175781-10.136719-27-23.582032l-2.4375-17.925781c-2.652343-3.097656-6.253906-1.449219-6.628906 1.296875l-1.636718 12.035156c-2.191407 16.140626-15.972657 28.175782-32.261719 28.175782h-21.917969c-15.050781 0-27.253906-12.199219-27.253906-27.253906v-37.695313c0-9.035156 4.917968-17.394531 12.886718-21.648437 4.855469-2.59375 10.324219-3.960938 15.828126-3.960938h115.515624c5.503907 0 10.972657 1.367188 15.824219 3.957031 7.972657 4.253907 12.890625 12.617188 12.890625 21.648438v37.699219c0 15.054687-12.203125 27.253906-27.253906 27.253906zm-58.925781-55.757813c7.957031.144531 14.542969 6.269531 15.613281 14.152344l1.59375 11.738281c1.347656 9.902344 9.804688 17.289063 19.800781 17.289063h21.917969c8.105469 0 14.675781-6.570313 14.675781-14.671875v-37.820313c0-4.371093-2.402343-8.398437-6.261719-10.449219-3.03125-1.613281-6.441406-2.460937-9.875-2.460937h-115.515624c-3.433594 0-6.84375.847656-9.875 2.460937-3.859376 2.050782-6.261719 6.078126-6.261719 10.449219v37.816407c0 8.105468 6.570312 14.675781 14.675781 14.675781h21.917969c9.996093 0 18.453125-7.386719 19.800781-17.292969l1.636719-12.035156c1.085937-7.996094 8.058593-14 16.15625-13.851563zm0 0" fill="#fff"/><path d="m329.582031 145.519531c-4.851562-2.589843-10.320312-3.957031-15.824219-3.957031h-57.757812v12.574219h57.757812c3.433594 0 6.847657.855469 9.875 2.464843 3.855469 2.054688 6.261719 6.078126 6.261719 10.449219v37.816407c0 8.105468-6.574219 14.679687-14.675781 14.679687h-21.917969c-9.996093 0-18.453125-7.390625-19.800781-17.296875l-1.597656-11.734375c-1.066406-7.882813-7.65625-14.007813-15.609375-14.152344-.097657 0-.195313-.007812-.292969-.007812v12.582031c1.058594 0 2.214844.488281 3.226562 1.675781l2.4375 17.925781c1.828126 13.441407 13.433594 23.582032 27.003907 23.582032h26.550781c15.054688 0 27.253906-12.203125 27.253906-27.253906v-37.695313c-.003906-9.035156-4.917968-17.398437-12.890625-21.652344zm0 0" fill="#e1e1e3"/><g fill="#ff90c2"><path d="m90.75 417.5h60.300781v18.167969h-60.300781zm0 0"/><path d="m360.949219 417.5h60.300781v18.167969h-60.300781zm0 0"/></g></svg>