<svg height="512pt" viewBox="0 0 512 512" width="512pt" xmlns="http://www.w3.org/2000/svg"><path d="m256 0c141.386719 0 256 114.613281 256 256 0 72.929688-30.496094 138.738281-79.433594 185.367188-45.933594 43.765624-108.113281-67.035157-176.566406-67.035157-68.457031 0-130.640625 110.796875-176.574219 67.027344-48.933593-46.625-79.425781-112.433594-79.425781-185.359375 0-141.386719 114.613281-256 256-256zm0 0" fill="#ff3d62"/><path d="m512 256c0-.695312-.019531-1.386719-.027344-2.082031l-165.722656-165.722657c-17.445312-19.542968-42.824219-31.847656-71.082031-31.847656h-38.335938c-52.613281 0-95.265625 42.652344-95.265625 95.265625v92.734375l32.558594 32.992188h-3.253906c-24.410156 0-44.382813 18.933594-46.0625 42.914062-26.375 9.398438-45.378906 34.660156-45.378906 64.144532v56.960937c45.933593 43.769531 108.113281-69.6875 176.570312-69.6875 68.453125 0 130.632812 113.460937 176.566406 69.695313 48.9375-46.628907 79.433594-112.4375 79.433594-185.367188zm0 0" fill="#e7001f"/><path d="m387.320312 323.53125v142.46875h-262.640624v-142.46875c0-25.511719 20.679687-46.191406 46.191406-46.191406h170.257812c25.511719 0 46.191406 20.679687 46.191406 46.191406zm0 0" fill="#004eb1"/><path d="m387.320312 323.53125v142.46875h-131.320312v-188.660156h85.128906c25.511719 0 46.191406 20.679687 46.191406 46.191406zm0 0" fill="#003d8d"/><path d="m211.488281 289.75h89.023438v87.5h-89.023438zm0 0" fill="#ffc473"/><path d="m256 289.75h44.511719v87.5h-44.511719zm0 0" fill="#ffaa20"/><path d="m134.210938 410.5v70.71875c-20.019532-10.839844-38.429688-24.277344-54.78125-39.847656v-30.871094zm0 0" fill="#ffdba9"/><path d="m432.570312 410.5v30.871094c-16.351562 15.570312-34.761718 29.007812-54.78125 39.847656v-70.71875zm0 0" fill="#ffc473"/><path d="m432.570312 384.398438v32.023437h-54.78125v64.796875c-36.21875 19.632812-77.699218 30.78125-121.789062 30.78125s-85.570312-11.148438-121.789062-30.78125v-64.796875h-54.78125v-32.023437c0-37.429688 30.609374-68.070313 68.070312-68.070313h63.988281l44.511719 58.390625 44.511719-58.390625h64.277343c37.332032.171875 67.78125 30.742187 67.78125 68.070313zm0 0" fill="#fff"/><path d="m432.570312 384.398438v32.023437h-54.78125v64.796875c-36.21875 19.632812-77.699218 30.78125-121.789062 30.78125v-137.28125l44.511719-58.390625h64.277343c37.332032.171875 67.78125 30.742187 67.78125 68.070313zm0 0" fill="#fff5cb"/><path d="m340.03125 301.582031h-11.53125c-5.800781 0-10.5 4.699219-10.5 10.5v102.082031h-124v-102.082031c0-5.800781-4.699219-10.5-10.5-10.5h-11.53125c-5.796875 0-10.5 4.699219-10.5 10.5v181.898438c10.519531 4.179687 21.382812 7.691406 32.53125 10.460937v-54.773437h124v54.773437c11.148438-2.769531 22.011719-6.28125 32.53125-10.460937v-181.898438c0-5.800781-4.703125-10.5-10.5-10.5zm0 0" fill="#006ef5"/><path d="m350.53125 312.078125v181.902344c-10.519531 4.179687-21.382812 7.691406-32.53125 10.460937v-54.769531h-62v-35.511719h62v-102.082031c0-5.796875 4.699219-10.5 10.5-10.5h11.53125c5.796875 0 10.5 4.703125 10.5 10.5zm0 0" fill="#004eb1"/><path d="m350.035156 174.433594c-3.925781-57.796875-53.214844-90.601563-94.035156-90.601563s-90.109375 32.804688-94.035156 90.601563c-10.566406 1.976562-18.0625 11.847656-16.886719 22.703125l1.820313 16.792969c1.234374 11.394531 11.566406 19.707031 22.960937 18.472656l1.960937-.214844c23.324219 60.710938 60.960938 76.34375 84.179688 79.894531 23.21875-3.550781 60.855469-19.183593 84.179688-79.894531l1.960937.214844c11.394531 1.234375 21.726563-7.078125 22.960937-18.472656l1.820313-16.792969c1.171875-10.855469-6.324219-20.726563-16.886719-22.703125zm0 0" fill="#ffdba9"/><path d="m366.917969 197.136719-1.820313 16.796875c-1.234375 11.390625-11.5625 19.699218-22.953125 18.464844l-1.960937-.210938c-23.324219 60.714844-60.960938 76.34375-84.183594 79.898438v-228.25c40.824219 0 90.109375 32.800781 94.035156 90.597656 10.566406 1.980468 18.0625 11.847656 16.882813 22.703125zm0 0" fill="#ffc473"/><path d="m352.210938 192.851562h-.011719v29.429688h-17.429688v-32.910156c-9.890625-1.8125-23.058593-4.851563-37.007812-10.910156-13.960938-6.070313-28.710938-15.140626-41.761719-29.011719-26.101562 27.730469-59 36.3125-78.769531 39.921875v32.910156h-17.441407v-31.730469c.03125-44.242187 1.660157-122.550781 96.210938-122.550781 96.210938 0 96.210938 81.089844 96.210938 124.851562zm0 0" fill="#57555c"/><path d="m352.210938 192.851562h-.011719v29.429688h-17.429688v-32.910156c-9.890625-1.8125-23.058593-4.851563-37.007812-10.910156-13.960938-6.070313-28.710938-15.140626-41.761719-29.011719v-81.449219c96.210938 0 96.210938 81.089844 96.210938 124.851562zm0 0" fill="#3c3b41"/><path d="m307.40625 201.90625h-51.40625v60.453125h18.261719v-43.507813h33.144531zm0 0" fill="#ffaa20"/><path d="m201.386719 201.90625h43.789062v16.945312h-43.789062zm0 0" fill="#ffc473"/><path d="m370.433594 151.613281c0-52.617187-42.652344-95.265625-95.265625-95.265625h-38.335938c-52.613281 0-95.265625 42.652344-95.265625 95.265625v92.734375h36.167969v-85.347656h156.53125v85.347656h36.167969zm0 0" fill="#fff"/><path d="m370.429688 151.609375v92.742187h-36.160157v-85.351562h-78.269531v-102.648438h19.171875c52.609375 0 95.257813 42.648438 95.257813 95.257813zm0 0" fill="#fff5cb"/><path d="m275.167969 56.347656h-38.335938c-46.59375 0-85.371093 33.453125-93.632812 77.652344h225.601562c-8.261719-44.199219-47.039062-77.652344-93.632812-77.652344zm0 0" fill="#00a6ff"/><path d="m368.800781 134h-112.800781v-77.648438h19.171875c46.589844 0 85.367187 33.449219 93.628906 77.648438zm0 0" fill="#006ef5"/><path d="m177.734375 159h156.53125v85.347656h-156.53125zm0 0" fill="#b1dcff"/><path d="m203.539062 159-25.804687 38.480469v40.085937l52.691406-78.566406zm0 0" fill="#cae8f9"/><path d="m242.183594 159-57.238282 85.347656h12.804688l57.238281-85.347656zm0 0" fill="#cae8f9"/><path d="m256 159h78.269531v85.351562h-78.269531zm0 0" fill="#84caff"/></svg>