<svg height="512pt" viewBox="0 0 512 512" width="512pt" xmlns="http://www.w3.org/2000/svg"><path d="m512 256c0 141.386719-114.613281 256-256 256s-256-114.613281-256-256 114.613281-256 256-256 256 114.613281 256 256zm0 0" fill="#00bb64"/><path d="m511.953125 259.640625-178.761719-178.761719c-16.785156-18.605468-41.757812-30.410156-69.648437-30.410156h-15.085938c-50.546875 0-91.523437 38.753906-91.523437 86.558594v22.445312c-1.019532 1.542969-1.988282 3.140625-2.925782 4.769532-3.367187 2.5625-6.078124 4.902343-8.128906 6.8125-4.328125 4.027343-4.570312 10.804687-.542968 15.128906.230468.246094.464843.476562.710937.695312l5.234375 5.140625c-.851562 2.585938-1.183594 5.382813-.871094 8.257813l1.730469 15.988281c.539063 4.960937 2.894531 9.300781 6.328125 12.441406l20.078125 20.019531c-15.925781 5.609376-32.269531 20.234376-34.628906 56.164063 0 0 2.71875.550781 7.058593.859375-.210937 1.835938-.390624 3.71875-.519531 5.679688 0 0 2.15625.433593 5.691407.75-32 1.617187-57.640626 28.28125-57.640626 60.628906v85.011718c2.148438 1.683594 4.335938 3.320313 6.539063 4.933594v.003906c42.324219 30.953126 94.5 49.242188 150.953125 49.242188 140.167969 0 254.003906-112.65625 255.953125-252.359375zm0 0" fill="#008c4a"/><path d="m210.707031 246.691406s-62.015625-14.496094-66.785156 58.199219c-.003906 0 68.214844 13.835937 66.785156-58.199219zm0 0" fill="#2a2a2c"/><path d="m216.300781 289.910156h79.394531v77.703125h-79.394531zm0 0" fill="#ffc473"/><path d="m256 289.910156h39.699219v77.703125h-39.699219zm0 0" fill="#ffaa20"/><path d="m345.519531 178.664062c-3.738281-55.019531-50.660156-86.246093-89.519531-86.246093s-85.78125 31.226562-89.519531 86.246093c-10.054688 1.882813-17.191407 11.28125-16.070313 21.613282l1.730469 15.988281c1.175781 10.84375 11.011719 18.757813 21.855469 17.582031l1.867187-.203125c22.203125 57.796875 58.03125 72.675781 80.136719 76.054688 22.101562-3.378907 57.929688-18.261719 80.132812-76.054688l1.871094.203125c10.84375 1.175782 20.679688-6.738281 21.855469-17.582031l1.730469-15.988281c1.121094-10.332032-6.015625-19.730469-16.070313-21.613282zm0 0" fill="#ffdba9"/><path d="m361.589844 200.277344-1.734375 15.992187c-1.175781 10.839844-11.003907 18.75-21.847657 17.574219l-1.867187-.199219c-22.207031 57.796875-58.035156 72.675781-80.140625 76.054688v-217.277344c38.863281 0 85.777344 31.226563 89.515625 86.242187 10.058594 1.886719 17.195313 11.28125 16.074219 21.613282zm0 0" fill="#ffc473"/><path d="m256 57.589844s-96.808594-6.109375-96.808594 83.773437v53.066407h41.679688v-41.910157c0-.496093.015625-.984375.039062-1.472656.554688-11.085937 17.261719-10.457031 17.261719.644531v42.734375h75.65625v-42.730469c0-11.101562 16.707031-11.734374 17.261719-.648437.023437.488281.039062.980469.039062 1.472656v41.910157h41.679688v-53.066407c0-89.882812-96.808594-83.777343-96.808594-83.773437zm0 0" fill="#57555c"/><path d="m352.808594 141.359375v53.070313h-41.679688v-41.910157c0-.488281-.007812-.988281-.039062-1.46875-.550782-11.089843-17.261719-10.460937-17.261719.640625v42.730469h-37.828125v-136.832031s96.808594-6.109375 96.808594 83.769531zm0 0" fill="#2a2a2c"/><path d="m304.933594 204.816406h-48.933594v57.546875h17.382812v-41.417969h31.550782zm0 0" fill="#ffaa20"/><path d="m204.011719 204.816406h41.683593v16.132813h-41.683593zm0 0" fill="#ffc473"/><path d="m355.066406 163.777344-68.105468-13.089844c-20.453126-3.933594-41.46875-3.933594-61.921876 0l-68.105468 13.089844v-26.75c0-47.804688 40.976562-86.558594 91.523437-86.558594h15.085938c50.546875 0 91.523437 38.753906 91.523437 86.558594zm0 0" fill="#fff"/><path d="m355.058594 137.027344v26.746094l-68.09375-13.089844c-10.234375-1.957032-20.597656-2.949219-30.964844-2.949219v-97.265625h7.539062c50.550782 0 91.519532 38.753906 91.519532 86.558594zm0 0" fill="#fff5cb"/><path d="m256 107.121094s-74.238281 6.359375-102.800781 58.523437c0 0 45.117187-25.722656 102.800781-25.722656s102.800781 25.722656 102.800781 25.722656c-28.5625-52.164062-102.800781-58.523437-102.800781-58.523437zm0 0" fill="#ffb2d5"/><path d="m358.804688 165.640625s-.621094-.351563-1.796876-.96875c-.535156-.277344-1.183593-.617187-1.949218-1-11.933594-6.023437-51.167969-23.753906-99.058594-23.753906v-32.789063s68.28125 5.847656 99.058594 52.335938c1.332031 1.976562 2.582031 4.042968 3.746094 6.175781zm0 0" fill="#ff73af"/><path d="m358.820312 189.597656c-2.371093 0-4.757812-.785156-6.742187-2.398437-17.222656-13.984375-45.921875-32.582031-96.078125-32.582031-56.644531 0-87.441406 24.574218-95.53125 32.105468-4.328125 4.03125-11.101562 3.789063-15.128906-.539062-4.03125-4.328125-3.789063-11.101563.539062-15.128906 12.222656-11.382813 47.417969-37.847657 110.121094-37.847657 43.359375 0 78.179688 11.875 109.578125 37.371094 4.589844 3.726563 5.289063 10.46875 1.5625 15.058594-2.117187 2.605469-5.207031 3.960937-8.320313 3.960937zm0 0" fill="#fff"/><path d="m367.140625 185.636719c-2.117187 2.605469-5.210937 3.960937-8.316406 3.960937-2.371094 0-4.761719-.785156-6.746094-2.394531-17.222656-13.984375-45.917969-32.582031-96.078125-32.582031v-21.414063c38.578125 0 70.398438 9.394531 99.0625 29.4375.648438.445313 1.296875.910157 1.949219 1.371094 2.886719 2.074219 5.742187 4.261719 8.570312 6.5625 4.589844 3.730469 5.28125 10.46875 1.558594 15.058594zm0 0" fill="#fff5cb"/><path d="m147.371094 396.089844v91.78125c-17.449219-8.191406-33.832032-18.292969-48.859375-30.050782v-61.730468zm0 0" fill="#ffdba9"/><path d="m413.488281 396.089844v61.730468c-15.027343 11.757813-31.410156 21.859376-48.859375 30.050782v-91.78125zm0 0" fill="#ffc473"/><path d="m413.488281 372.808594v28.5625h-48.859375v86.5c-32.980468 15.480468-69.789062 24.128906-108.628906 24.128906s-75.648438-8.648438-108.628906-24.128906v-86.5h-48.859375v-28.5625c0-33.378906 27.296875-60.707032 60.71875-60.707032h57.070312l39.699219 52.078126 39.699219-52.078126h57.332031c33.296875.148438 60.457031 27.417969 60.457031 60.707032zm0 0" fill="#ffb2d5"/><path d="m413.488281 372.808594v28.5625h-48.859375v86.5c-32.980468 15.480468-69.789062 24.128906-108.628906 24.128906v-147.820312l39.699219-52.078126h57.332031c33.296875.148438 60.457031 27.417969 60.457031 60.707032zm0 0" fill="#ff73af"/><path d="m237.800781 340.300781h-129.769531c-4.398438 6.890625-7.457031 14.703125-8.777344 23.082031h156.140625zm0 0" fill="#ff73af"/><path d="m274.199219 340.300781-17.589844 23.082031h156.136719c-1.320313-8.378906-4.378906-16.191406-8.777344-23.082031zm0 0" fill="#ff127f"/><path d="m98.511719 401.371094h48.859375v17.800781h217.257812v-17.800781h48.859375v-5.28125h-314.976562zm0 0" fill="#ff73af"/><path d="m413.488281 396.089844v5.28125h-48.859375v17.800781h-108.628906v-23.082031zm0 0" fill="#ff127f"/><path d="m147.371094 451.878906h217.257812v23.082032h-217.257812zm0 0" fill="#ff73af"/><path d="m256 451.878906h108.628906v23.082032h-108.628906zm0 0" fill="#ff127f"/><path d="m216.300781 312.101562h-33.601562l40.226562 79.480469 33.074219-27.40625zm0 0" fill="#fff"/><path d="m295.699219 312.101562h33.597656l-40.222656 79.480469-33.074219-27.40625zm0 0" fill="#fff5cb"/><path d="m98.511719 396.089844h48.859375v25.460937h-48.859375zm0 0" fill="#fff"/><path d="m364.628906 396.089844h48.859375v25.460937h-48.859375zm0 0" fill="#fff5cb"/><path d="m324.734375 480.230469h-28.429687c-9.417969 0-17.050782-7.632813-17.050782-17.050781v-48.882813h62.53125v48.882813c0 9.417968-7.632812 17.050781-17.050781 17.050781zm0 0" fill="#ffed97"/><path d="m279.253906 410.730469h62.53125v15.5h-62.53125zm0 0" fill="#fff5cb"/></svg>