<svg height="512pt" viewBox="0 0 512 512" width="512pt" xmlns="http://www.w3.org/2000/svg"><path d="m512 256c0 141.386719-114.613281 256-256 256s-256-114.613281-256-256 114.613281-256 256-256 256 114.613281 256 256zm0 0" fill="#ff3d62"/><path d="m512 256c0-11.460938-.765625-22.738281-2.222656-33.800781l-159.074219-159.070313c-11.875-13.453125-28.796875-22.273437-47.757813-23.578125-14.566406-1-30.707031-1.804687-46.945312-2.027343-16.238281.222656-32.378906 1.027343-46.945312 2.027343-33.417969 2.300781-60.53125 27.929688-64.773438 61.160157l-4.261719 25.929687v101.332031h4.039063c3.226562 11.875 8.308594 22.988282 14.894531 33.035156-9.617187 10.101563-17.039063 25.957032-18.65625 50.652344l24.667969 24.019532h-7.585938c-34.039062 0-61.859375 27.851562-61.859375 61.871093v57.890625c.21875.179688.441407.359375.664063.535156 1.8125 1.449219 3.640625 2.878907 5.492187 4.28125 42.910157 32.46875 96.363281 51.742188 154.324219 51.742188 141.386719 0 256-114.613281 256-256zm0 0" fill="#e7001f"/><path d="m216.371094 245.363281s-70.640625-16.507812-76.074219 66.296875c0 0 77.707031 15.761719 76.074219-66.296875zm0 0" fill="#ff9a00"/><path d="m213.039062 267.105469h85.917969v77.734375h-85.917969zm0 0" fill="#ffc473"/><path d="m256 267.105469h42.960938v77.734375h-42.960938zm0 0" fill="#ffaa20"/><path d="m353.910156 160.871094c-4.085937-60.179688-55.40625-94.332032-97.910156-94.332032-42.5 0-93.820312 34.152344-97.910156 94.332032-10.996094 2.058594-18.804688 12.339844-17.578125 23.640625l1.894531 17.484375c1.285156 11.863281 12.039062 20.519531 23.902344 19.234375l2.042968-.222657c24.285157 63.210938 63.472657 79.488282 87.648438 83.183594 24.175781-3.695312 63.363281-19.972656 87.648438-83.183594l2.042968.222657c11.863282 1.285156 22.621094-7.371094 23.90625-19.234375l1.894532-17.484375c1.222656-11.300781-6.582032-21.582031-17.582032-23.640625zm0 0" fill="#ffdba9"/><path d="m343.648438 221.007812 2.042968.222657c11.863282 1.285156 22.621094-7.371094 23.90625-19.234375l1.890625-17.484375c1.226563-11.300781-6.578125-21.582031-17.578125-23.640625-4.085937-60.179688-55.40625-94.332032-97.910156-94.332032v237.652344c24.175781-3.695312 63.363281-19.972656 87.648438-83.183594zm0 0" fill="#ffc473"/><path d="m159.722656 185.78125s56.160156-.828125 96.277344-44.578125h.003906c40.113282 43.75 96.273438 44.578125 96.273438 44.578125 0-44.941406.003906-128.214844-96.273438-128.214844-96.28125 0-96.28125 83.269532-96.28125 128.214844zm0 0" fill="#fdc000"/><path d="m352.28125 185.78125s-14.042969-.210938-33.101562-5.882812c-19.050782-5.679688-43.121094-16.820313-63.179688-38.6875v-83.652344c96.28125 0 96.28125 83.28125 96.28125 128.222656zm0 0" fill="#ff9a00"/><path d="m309.523438 189.476562h-53.523438v62.941407h19.015625v-45.300781h34.507813zm0 0" fill="#ffaa20"/><path d="m199.136719 189.476562h45.59375v17.640626h-45.59375zm0 0" fill="#ffc473"/><path d="m416.480469 397.550781v57.910157c-38.171875 30.75-85.339844 50.769531-136.941407 55.46875-7.75.710937-15.597656 1.070312-23.539062 1.070312s-15.789062-.359375-23.539062-1.070312c-51.601563-4.699219-98.769532-24.71875-136.941407-55.46875v-57.910157c0-34.019531 27.820313-61.871093 61.859375-61.871093h197.511719c33.910156.160156 61.589844 27.941406 61.589844 61.871093zm0 0" fill="#57555c"/><path d="m416.480469 397.550781v57.910157c-38.171875 30.75-85.339844 50.769531-136.941407 55.46875-7.75.710937-15.597656 1.070312-23.539062 1.070312s-15.789062-.359375-23.539062-1.070312c-51.601563-4.699219-98.769532-24.71875-136.941407-55.46875v-57.910157c0-34.019531 27.820313-61.871093 61.859375-61.871093h197.511719c33.910156.160156 61.589844 27.941406 61.589844 61.871093zm0 0" fill="#57555c"/><path d="m416.480469 397.550781v57.910157c-38.171875 30.75-85.339844 50.769531-136.941407 55.46875-7.75.710937-15.597656 1.070312-23.539062 1.070312v-176.320312h98.890625c33.910156.160156 61.589844 27.941406 61.589844 61.871093zm0 0" fill="#3c3b41"/><path d="m256 335.679688v176.320312c-7.941406 0-15.789062-.359375-23.539062-1.070312l-69.78125-175.25zm0 0" fill="#3c3b41"/><path d="m349.320312 335.679688-69.78125 175.25c-7.75.710937-15.597656 1.070312-23.539062 1.070312v-176.320312zm0 0" fill="#171719"/><path d="m211.011719 335.675781 44.988281 171.59375 44.992188-171.59375zm0 0" fill="#ffe670"/><path d="m300.988281 335.675781-44.988281 171.59375v-171.59375zm0 0" fill="#ffd400"/><path d="m265.6875 385.578125c0 5.347656-4.339844 9.6875-9.6875 9.6875s-9.6875-4.339844-9.6875-9.6875 4.339844-9.6875 9.6875-9.6875 9.6875 4.339844 9.6875 9.6875zm0 0" fill="#ffcf00"/><path d="m265.6875 430.171875c0 5.347656-4.339844 9.683594-9.6875 9.683594s-9.6875-4.335938-9.6875-9.683594c0-5.351563 4.339844-9.6875 9.6875-9.6875s9.6875 4.335937 9.6875 9.6875zm0 0" fill="#ffcf00"/><path d="m256 335.675781-53.890625 55.875-16.605469-55.875zm0 0" fill="#fff"/><path d="m256 335.675781 53.890625 55.875 16.605469-55.875zm0 0" fill="#fff5cb"/><path d="m265.683594 385.578125c0 5.351563-4.335938 9.683594-9.683594 9.683594v-19.371094c5.347656 0 9.683594 4.339844 9.683594 9.6875zm0 0" fill="#ffaa20"/><path d="m265.683594 430.171875c0 5.347656-4.335938 9.683594-9.683594 9.683594v-19.375c5.347656 0 9.683594 4.34375 9.683594 9.691406zm0 0" fill="#ffaa20"/><path d="m367.71875 100.710938c-4.242188-33.230469-31.355469-58.859376-64.773438-61.160157-14.566406-1-30.707031-1.804687-46.945312-2.027343-16.238281.222656-32.378906 1.027343-46.945312 2.027343-33.417969 2.300781-60.535157 27.929688-64.777344 61.160157l-4.257813 25.929687v7.449219h231.960938v-7.449219zm0 0" fill="#57555c"/><path d="m371.976562 126.644531v7.445313h-115.976562v-96.570313c16.238281.226563 32.378906 1.03125 46.941406 2.03125 33.417969 2.304688 60.539063 27.929688 64.777344 61.160157zm0 0" fill="#3c3b41"/><path d="m355.386719 126.675781h-215.367188v101.296875h4.042969c13.378906 49.269532 58.488281 85.613282 111.9375 85.613282s98.558594-36.34375 111.9375-85.613282h4.042969v-101.296875zm-99.386719 175.304688c-46.996094 0-86.828125-31.222657-99.863281-74.011719h.476562c15.175781 0 27.476563-12.300781 27.476563-27.476562v-49.496094l30.753906 4.878906c27.265625 4.324219 55.046875 4.324219 82.316406 0l30.75-4.878906v49.496094c0 15.175781 12.304688 27.476562 27.476563 27.476562h.480469c-13.039063 42.789062-52.875 74.011719-99.867188 74.011719zm0 0" fill="#3c3b41"/><path d="m256 126.679688v32.441406c13.761719 0 27.519531-1.082032 41.160156-3.25l30.75-4.871094v49.488281c0 15.183594 12.300782 27.480469 27.480469 27.480469h.480469c-13.042969 42.792969-52.882813 74.011719-99.871094 74.011719v11.609375c53.449219 0 98.558594-36.351563 111.941406-85.621094h4.039063v-101.289062zm0 0" fill="#171719"/></svg>