<svg height="512pt" viewBox="0 0 512 512" width="512pt" xmlns="http://www.w3.org/2000/svg"><path d="m512 256c0 141.386719-114.613281 256-256 256s-256-114.613281-256-256 114.613281-256 256-256 256 114.613281 256 256zm0 0" fill="#005ed3"/><path d="m512 256c0-1.089844-.027344-2.171875-.039062-3.253906l-177.929688-177.929688c-16.789062-19.148437-42.128906-31.347656-70.488281-31.347656h-15.085938c-50.546875 0-91.523437 38.753906-91.523437 86.558594v22.445312c-.382813.582032-.761719 1.164063-1.136719 1.753906-4.210937 3.089844-7.515625 5.914063-9.917969 8.152344-4.328125 4.027344-4.570312 10.800782-.542968 15.128906.433593.464844.894531.878907 1.382812 1.246094l5.191406 4.636719c-1.300781 3.019531-1.878906 6.398437-1.5 9.886719l1.730469 15.988281c.535156 4.949219 2.878906 9.289063 6.296875 12.429687l27.492188 26.808594c7.761718 14.125 16.429687 24.671875 25.234374 32.539063 1.699219 1.894531 3.414063 3.679687 5.136719 5.351562v18.707031h-57.070312c-33.421875 0-60.722657 27.328126-60.722657 60.707032v92.019531c.082032.0625.164063.125.246094.1875 2.609375 2.035156 5.273438 4.007813 7.964844 5.941406v.019531c42.023438 30.21875 93.570312 48.023438 149.28125 48.023438 141.386719 0 256-114.613281 256-256zm0 0" fill="#00459f"/><path d="m216.300781 282.910156h79.394531v77.703125h-79.394531zm0 0" fill="#ffc473"/><path d="m256 282.910156h39.699219v77.703125h-39.699219zm0 0" fill="#ffaa20"/><path d="m345.519531 171.664062c-3.738281-55.019531-50.660156-86.246093-89.519531-86.246093s-85.78125 31.226562-89.519531 86.246093c-10.054688 1.882813-17.191407 11.28125-16.070313 21.613282l1.730469 15.988281c1.175781 10.84375 11.011719 18.757813 21.855469 17.582031l1.867187-.203125c22.203125 57.796875 58.03125 72.675781 80.136719 76.054688 22.101562-3.378907 57.933594-18.261719 80.132812-76.054688l1.871094.203125c10.84375 1.175782 20.679688-6.738281 21.855469-17.582031l1.730469-15.988281c1.121094-10.332032-6.015625-19.730469-16.070313-21.613282zm0 0" fill="#ffdba9"/><path d="m361.589844 193.277344-1.734375 15.992187c-1.175781 10.839844-11.003907 18.75-21.847657 17.574219l-1.867187-.199219c-22.207031 57.796875-58.035156 72.675781-80.140625 76.054688v-217.277344c38.863281 0 85.777344 31.226563 89.515625 86.242187 10.058594 1.886719 17.195313 11.28125 16.074219 21.613282zm0 0" fill="#ffc473"/><path d="m350.324219 159.253906c2.855469-4.65625 4.5-10.105468 4.5-15.933594 0-16.777343-13.601563-30.429687-30.589844-30.972656-2.671875-21.878906-21.667969-38.839844-44.71875-38.839844-8.621094 0-16.671875 2.375-23.519531 6.484376-6.84375-4.113282-14.894532-6.484376-23.515625-6.484376-23.050781 0-42.042969 16.960938-44.71875 38.839844-16.988281.542969-30.589844 14.199219-30.589844 30.972656 0 5.828126 1.644531 11.277344 4.5 15.933594-5.292969 4.539063-8.640625 11.199219-8.640625 18.632813 0 13.671875 11.3125 24.753906 25.265625 24.753906s25.265625-11.082031 25.265625-24.753906c0-2.3125-.332031-4.546875-.9375-6.671875 5.699219-2.710938 10.4375-7.054688 13.59375-12.40625 5.046875 1.914062 10.527344 2.976562 16.261719 2.976562 8.621093 0 16.671875-2.375 23.515625-6.484375 6.847656 4.109375 14.898437 6.484375 23.519531 6.484375 5.738281 0 11.214844-1.0625 16.261719-2.976562 3.160156 5.351562 7.894531 9.695312 13.59375 12.40625-.605469 2.125-.9375 4.359375-.9375 6.671875 0 13.671875 11.3125 24.753906 25.265625 24.753906 13.957031 0 25.269531-11.082031 25.269531-24.753906-.003906-7.433594-3.351562-14.09375-8.644531-18.632813zm0 0" fill="#57555c"/><path d="m358.96875 177.886719c0 13.667969-11.316406 24.757812-25.269531 24.757812s-25.261719-11.089843-25.261719-24.757812c0-2.316407.332031-4.546875.933594-6.671875-5.699219-2.710938-10.433594-7.058594-13.59375-12.410156-5.042969 1.917968-10.523438 2.980468-16.261719 2.980468-8.621094 0-16.671875-2.375-23.515625-6.484375v-75.3125c6.84375-4.109375 14.894531-6.480469 23.515625-6.480469 23.054687 0 42.042969 16.960938 44.71875 38.835938 16.988281.546875 30.59375 14.203125 30.59375 30.972656 0 5.832032-1.644531 11.285156-4.5 15.941406 5.289063 4.535157 8.640625 11.195313 8.640625 18.628907zm0 0" fill="#2a2a2c"/><path d="m304.933594 197.816406h-48.933594v57.546875h17.382812v-41.417969h31.550782zm0 0" fill="#ffaa20"/><path d="m204.011719 197.816406h41.683593v16.132813h-41.683593zm0 0" fill="#ffc473"/><path d="m355.066406 156.777344-68.105468-13.089844c-20.453126-3.933594-41.46875-3.933594-61.921876 0l-68.105468 13.089844v-26.75c0-47.804688 40.976562-86.558594 91.523437-86.558594h15.085938c50.546875 0 91.523437 38.753906 91.523437 86.558594zm0 0" fill="#fff"/><path d="m355.058594 130.027344v26.746094l-68.09375-13.089844c-10.234375-1.957032-20.597656-2.949219-30.964844-2.949219v-97.265625h7.539062c50.550782 0 91.519532 38.753906 91.519532 86.558594zm0 0" fill="#fff5cb"/><path d="m256 100.121094s-74.238281 6.359375-102.800781 58.523437c0 0 45.117187-25.722656 102.800781-25.722656s102.800781 25.722656 102.800781 25.722656c-28.5625-52.164062-102.800781-58.523437-102.800781-58.523437zm0 0" fill="#95e0ba"/><path d="m358.804688 158.640625s-.617188-.351563-1.792969-.96875c-.539063-.277344-1.1875-.617187-1.949219-1-11.933594-6.023437-51.171875-23.753906-99.0625-23.753906v-32.789063s68.28125 5.847656 99.0625 52.335938c1.328125 1.976562 2.578125 4.042968 3.742188 6.175781zm0 0" fill="#00c379"/><path d="m358.820312 180.917969c-2.371093 0-4.757812-.78125-6.742187-2.394531-17.222656-13.988282-45.921875-32.582032-96.078125-32.582032-56.648438 0-87.441406 24.574219-95.53125 32.105469-4.328125 4.027344-11.101562 3.789063-15.132812-.539063-4.027344-4.328124-3.785157-11.101562.542968-15.132812 12.21875-11.378906 47.417969-37.847656 110.121094-37.847656 43.359375 0 78.179688 11.875 109.574219 37.375 4.589843 3.726562 5.289062 10.46875 1.5625 15.058594-2.113281 2.605468-5.203125 3.957031-8.316407 3.957031zm0 0" fill="#fff"/><path d="m367.136719 176.957031c-2.113281 2.609375-5.207031 3.960938-8.3125 3.960938-2.371094 0-4.765625-.78125-6.746094-2.390625-17.222656-13.988282-45.917969-32.585938-96.078125-32.585938v-21.414062c38.574219 0 70.394531 9.398437 99.058594 29.441406.652344.441406 1.300781.90625 1.949218 1.371094 2.890626 2.070312 5.746094 4.257812 8.570313 6.558594 4.59375 3.734374 5.285156 10.46875 1.558594 15.058593zm0 0" fill="#fff5cb"/><path d="m147.371094 389.089844v98.78125c-17.449219-8.191406-33.832032-18.292969-48.859375-30.042969v-68.738281zm0 0" fill="#ffdba9"/><path d="m413.488281 389.089844v68.738281c-15.027343 11.75-31.410156 21.851563-48.859375 30.042969v-98.78125zm0 0" fill="#ffc473"/><path d="m413.488281 365.808594v28.5625h-48.859375v93.5c-10.660156 5-21.71875 9.289062-33.128906 12.800781-23.859375 7.367187-49.21875 11.328125-75.5 11.328125s-51.640625-3.960938-75.5-11.328125c-11.410156-3.511719-22.46875-7.800781-33.128906-12.800781v-93.5h-48.859375v-28.5625c0-33.378906 27.296875-60.707032 60.71875-60.707032h57.070312l39.699219 52.078126 39.699219-52.078126h57.332031c33.296875.148438 60.457031 27.417969 60.457031 60.707032zm0 0" fill="#95e0ba"/><path d="m413.488281 365.808594v28.5625h-48.859375v93.5c-10.660156 5-21.71875 9.289062-33.128906 12.800781-23.859375 7.367187-49.21875 11.328125-75.5 11.328125v-154.820312l39.699219-52.078126h57.332031c33.296875.148438 60.457031 27.417969 60.457031 60.707032zm0 0" fill="#36cd90"/><path d="m237.800781 333.300781h-129.769531c-4.398438 6.890625-7.457031 14.703125-8.777344 23.082031h156.140625zm0 0" fill="#36cd90"/><path d="m274.199219 333.300781-17.59375 23.082031h156.140625c-1.320313-8.378906-4.382813-16.191406-8.78125-23.082031zm0 0" fill="#00bb64"/><path d="m98.511719 394.371094h48.859375v17.800781h217.257812v-17.800781h48.859375v-5.28125h-314.976562zm0 0" fill="#36cd90"/><path d="m413.488281 389.089844v5.28125h-48.859375v17.800781h-108.628906v-23.082031zm0 0" fill="#00bb64"/><path d="m147.371094 444.878906h217.257812v23.082032h-217.257812zm0 0" fill="#36cd90"/><path d="m256 444.878906h108.628906v23.082032h-108.628906zm0 0" fill="#00bb64"/><path d="m331.5 500.671875c-23.859375 7.367187-49.21875 11.328125-75.5 11.328125s-51.640625-3.960938-75.5-11.328125zm0 0" fill="#36cd90"/><path d="m331.5 500.671875c-23.859375 7.367187-49.21875 11.328125-75.5 11.328125v-11.328125zm0 0" fill="#00bb64"/><path d="m216.300781 305.101562h-33.601562l40.226562 79.480469 33.074219-27.40625zm0 0" fill="#fff"/><path d="m295.699219 305.101562h33.597656l-40.222656 79.480469-33.074219-27.40625zm0 0" fill="#fff5cb"/><path d="m98.511719 389.089844h48.859375v25.460937h-48.859375zm0 0" fill="#fff"/><path d="m364.628906 389.089844h48.859375v25.460937h-48.859375zm0 0" fill="#fff5cb"/><path d="m324.734375 473.230469h-28.429687c-9.417969 0-17.050782-7.632813-17.050782-17.050781v-48.882813h62.53125v48.882813c0 9.417968-7.632812 17.050781-17.050781 17.050781zm0 0" fill="#ffed97"/><path d="m279.253906 403.730469h62.53125v15.5h-62.53125zm0 0" fill="#fff5cb"/></svg>