<svg height="512pt" viewBox="0 0 512 512" width="512pt" xmlns="http://www.w3.org/2000/svg"><path d="m512 256c0 141.386719-114.613281 256-256 256s-256-114.613281-256-256 114.613281-256 256-256 256 114.613281 256 256zm0 0" fill="#00bb64"/><path d="m512 256c0-7.332031-.324219-14.589844-.929688-21.765625l-155.628906-155.628906c-9.136718-10.660157-21.789062-18.214844-36.167968-20.863281-27.679688-17.636719-63.273438-15.492188-63.273438-15.492188s-35.59375-2.144531-63.273438 15.492188c-29.140624 5.363281-51.222656 30.878906-51.222656 61.566406v23.460937h-4.59375c-9.898437 0-17.921875 8.027344-17.921875 17.925781v50.875c0 5.210938 2.226563 9.894532 5.773438 13.164063l16.828125 16.003906c.761718 13.917969 6.734375 26.445313 16 35.671875l53.351562 53.300782h-49.519531c-32.652344 0-59.332031 26.710937-59.332031 59.328124v71.519532c2.25 1.699218 4.539062 3.347656 6.847656 4.972656v.023438c41.613281 29.257812 92.328125 46.445312 147.0625 46.445312 141.386719 0 256-114.613281 256-256zm0 0" fill="#008c4a"/><path d="m216.574219 268.84375h78.847656v62.535156h-78.847656zm0 0" fill="#ffc473"/><path d="m256 268.84375h39.425781v62.535156h-39.425781zm0 0" fill="#ffaa20"/><path d="m409.910156 389.039062v71.519532c-12.058594 9.101562-24.949218 17.152344-38.53125 24.019531-34.667968 17.542969-73.867187 27.421875-115.378906 27.421875s-80.710938-9.878906-115.378906-27.421875c-13.582032-6.867187-26.472656-14.917969-38.53125-24.019531v-71.519532c0-32.617187 26.679687-59.328124 59.332031-59.328124h189.40625c32.53125.148437 59.082031 26.800781 59.082031 59.328124zm0 0" fill="#ffdba9"/><path d="m409.910156 389.039062v71.519532c-12.058594 9.101562-24.949218 17.152344-38.53125 24.019531-34.667968 17.542969-73.867187 27.421875-115.378906 27.421875v-182.289062h94.828125c32.53125.148437 59.082031 26.800781 59.082031 59.328124zm0 0" fill="#ffc473"/><path d="m365.390625 416.558594v70.953125c-33.171875 15.707031-70.25 24.488281-109.390625 24.488281s-76.21875-8.78125-109.390625-24.488281v-70.953125c14.980469-8.230469 26.449219-21.277344 32.378906-36.839844 1.3125-3.4375 1.980469-7.089844 1.980469-10.757812v-39.25h23.132812c4.1875 25.148437 26.078126 44.980468 52.25 44.808593 14.386719-.097656 27.417969-5.96875 36.859376-15.410156 7.789062-7.789063 13.148437-18 14.839843-29.398437h22.980469v39.25c0 3.667968.667969 7.320312 1.980469 10.757812 2.96875 7.78125 7.308593 14.929688 12.796875 21.171875 5.480468 6.230469 12.089844 11.550781 19.582031 15.667969zm0 0" fill="#ff3d62"/><path d="m365.390625 416.558594v70.953125c-33.171875 15.707031-70.25 24.488281-109.390625 24.488281v-137.480469c14.53125 0 27.691406-5.890625 37.210938-15.410156 7.789062-7.789063 13.148437-18 14.839843-29.398437h22.980469v39.25c0 3.667968.667969 7.320312 1.980469 10.757812 2.96875 7.78125 7.308593 14.929688 12.796875 21.171875 5.480468 6.230469 12.089844 11.550781 19.582031 15.667969zm0 0" fill="#e7001f"/><path d="m353.910156 152.023438c-4.089844-60.179688-55.410156-94.335938-97.910156-94.335938s-93.820312 34.15625-97.910156 94.335938c-10.996094 2.058593-18.804688 12.335937-17.578125 23.636718l1.890625 17.488282c1.285156 11.863281 12.042968 20.515624 23.90625 19.234374l2.042968-.222656c24.285157 63.210938 63.472657 79.484375 87.648438 83.183594 24.175781-3.699219 63.363281-19.972656 87.648438-83.183594l2.042968.222656c11.863282 1.28125 22.621094-7.371093 23.90625-19.234374l1.890625-17.488282c1.226563-11.300781-6.578125-21.578125-17.578125-23.636718zm0 0" fill="#ffdba9"/><path d="m343.648438 212.160156 2.042968.222656c11.863282 1.28125 22.621094-7.371093 23.90625-19.234374l1.890625-17.488282c1.226563-11.300781-6.578125-21.578125-17.578125-23.636718-4.089844-60.179688-55.410156-94.335938-97.910156-94.335938v237.65625c24.175781-3.699219 63.363281-19.972656 87.648438-83.183594zm0 0" fill="#ffc473"/><path d="m256 42.25s-95.296875-5.746094-95.296875 78.824219v49.933593h41.03125v-39.433593c0-.464844.011719-.929688.035156-1.386719.546875-10.433594 16.992188-9.835938 16.992188.605469v40.210937h74.476562v-40.207031c0-10.445313 16.445313-11.042969 16.992188-.609375.023437.457031.035156.921875.035156 1.386719v39.433593h41.03125v-49.933593c0-84.570313-95.296875-78.824219-95.296875-78.824219zm0 0" fill="#3c3b41"/><path d="m351.296875 121.074219v49.9375h-41.027344v-39.4375c0-.460938-.011719-.929688-.039062-1.382813-.542969-10.433594-16.992188-9.839844-16.992188.601563v40.207031h-37.238281v-128.75s95.296875-5.746094 95.296875 78.824219zm0 0" fill="#171719"/><path d="m309.523438 184.378906h-53.523438v62.941406h19.015625v-45.300781h34.507813zm0 0" fill="#ffaa20"/><path d="m199.140625 184.378906h45.589844v17.640625h-45.589844zm0 0" fill="#ffc473"/><path d="m147.742188 229.496094h-10.832032c-9.898437 0-17.921875-8.027344-17.921875-17.925782v-50.875c0-9.898437 8.027344-17.925781 17.921875-17.925781h10.832032zm0 0" fill="#ffa7b8"/><path d="m364.257812 229.496094h10.832032c9.898437 0 17.921875-8.027344 17.921875-17.925782v-50.875c0-9.898437-8.027344-17.925781-17.921875-17.925781h-10.832032zm0 0" fill="#ff738e"/><path d="m307.875 56.6875h-103.75c-34.585938 0-62.621094 28.039062-62.621094 62.621094v118.402344c0 30.167968 24.457032 54.625 54.628906 54.625 14.21875 0 25.746094-11.527344 25.746094-25.746094v-8.566406c0-8.214844-3.921875-15.9375-10.554687-20.785157l-8.363281-6.113281c-9.554688-6.984375-15.203126-18.109375-15.203126-29.941406v-49.191406c0-11.378907 9.222657-20.605469 20.605469-20.605469h95.273438c11.382812 0 20.605469 9.226562 20.605469 20.605469v49.191406c0 11.835937-5.644532 22.957031-15.203126 29.941406l-8.363281 6.113281c-6.632812 4.847657-10.554687 12.570313-10.554687 20.785157v8.566406c0 14.21875 11.527344 25.746094 25.746094 25.746094 30.171874 0 54.628906-24.457032 54.628906-54.625v-118.402344c0-34.582032-28.035156-62.621094-62.621094-62.621094zm0 0" fill="#ff3d62"/><path d="m370.5 119.308594v118.394531c0 15.085937-6.113281 28.742187-16 38.628906s-23.542969 16-38.628906 16c-14.222656 0-25.75-11.527343-25.75-25.738281v-8.566406c0-8.222656 3.925781-15.941406 10.554687-20.789063l8.371094-6.117187c9.554687-6.976563 15.203125-18.105469 15.203125-29.9375v-49.1875c0-11.382813-9.226562-20.605469-20.609375-20.605469h-47.640625v-74.703125h51.878906c34.574219 0 62.621094 28.035156 62.621094 62.621094zm0 0" fill="#e7001f"/><path d="m214.527344 77.3125h82.949218v31.957031h-82.949218zm0 0" fill="#ffa7b8"/><path d="m256 77.3125h41.476562v31.953125h-41.476562zm0 0" fill="#ff738e"/></svg>