<svg height="512pt" viewBox="0 0 512 512" width="512pt" xmlns="http://www.w3.org/2000/svg"><path d="m512 256c0 97.289062-54.28125 181.910156-134.210938 225.21875-36.21875 19.632812-77.699218 30.78125-121.789062 30.78125s-85.570312-11.148438-121.789062-30.78125c-79.929688-43.308594-134.210938-127.929688-134.210938-225.21875 0-141.378906 114.621094-256 256-256s256 114.621094 256 256zm0 0" fill="#ff8900"/><path d="m256 512c44.089844 0 85.570312-11.148438 121.789062-30.78125 79.929688-43.308594 134.210938-127.929688 134.210938-225.21875 0-3.511719-.089844-7-.230469-10.476562l-181.675781-181.675782c-14.210938-15.945312-36.699219-27.683594-72.132812-27.683594-108.507813 0-101.21875 92.730469-98.707032 111.117188-10.367187 2.347656-17.628906 12.179688-16.457031 22.988281l1.855469 17.140625c.570312 5.273438 3.054687 9.902344 6.683594 13.269532l30.46875 30.464843c6.941406 12.292969 14.53125 21.992188 22.296874 29.628907l8.023438 7.949218v29.863282l-.636719-.835938h-63.988281c-37.460938 0-68.070312 30.640625-68.070312 68.070312v75.535157c.328124.308593.65625.613281.984374.921875 1.394532 1.316406 2.808594 2.617187 4.230469 3.902344 15.019531 13.539062 31.644531 25.332031 49.566407 35.039062 36.21875 19.632812 77.699218 30.78125 121.789062 30.78125zm0 0" fill="#e67500"/><path d="m212.125 264.058594h87.746094v96.941406h-87.746094zm0 0" fill="#ffc473"/><path d="m256 264.058594h43.875v96.941406h-43.875zm0 0" fill="#ffaa20"/><path d="m134.210938 391.921875v89.296875c-20.019532-10.839844-38.429688-24.277344-54.78125-39.847656v-49.449219zm0 0" fill="#ffdba9"/><path d="m432.570312 391.921875v49.449219c-16.351562 15.570312-34.761718 29.007812-54.78125 39.847656v-89.296875zm0 0" fill="#ffc473"/><path d="m432.570312 365.820312v32.019532h-54.78125v83.378906c-36.21875 19.632812-77.699218 30.78125-121.789062 30.78125s-85.570312-11.148438-121.789062-30.78125v-83.378906h-54.78125v-32.019532c0-37.429687 30.609374-68.070312 68.070312-68.070312h63.988281l44.511719 58.390625 44.511719-58.390625h64.277343c37.332032.171875 67.78125 30.738281 67.78125 68.070312zm0 0" fill="#006ef5"/><path d="m432.570312 365.820312v32.019532h-54.78125v83.378906c-36.21875 19.632812-77.699218 30.78125-121.789062 30.78125v-155.859375l44.511719-58.390625h64.277343c37.332032.171875 67.78125 30.738281 67.78125 68.070312zm0 0" fill="#00459f"/><path d="m351.972656 147.097656c-4.003906-58.988281-54.3125-92.46875-95.972656-92.46875s-91.96875 33.480469-95.972656 92.46875c-10.78125 2.015625-18.433594 12.09375-17.230469 23.171875l1.855469 17.136719c1.257812 11.628906 11.800781 20.113281 23.429687 18.855469l2.003907-.21875c23.804687 61.960937 62.21875 77.914062 85.914062 81.539062 23.699219-3.625 62.113281-19.578125 85.914062-81.539062l2.003907.21875c11.628906 1.257812 22.171875-7.226563 23.433593-18.855469l1.855469-17.136719c1.199219-11.078125-6.453125-21.15625-17.234375-23.171875zm0 0" fill="#ffdba9"/><path d="m341.914062 206.042969 2.003907.21875c11.628906 1.257812 22.171875-7.226563 23.433593-18.851563l1.855469-17.140625c1.199219-11.078125-6.453125-21.152343-17.230469-23.171875-4.007812-58.988281-54.316406-92.46875-95.976562-92.46875v232.953125c23.695312-3.625 62.109375-19.574219 85.914062-81.539062zm0 0" fill="#ffc473"/><path d="m257.960938 36.160156c-120.445313 0-98.210938 114.28125-98.210938 114.28125l.003906.003906c1.046875 11.339844 3.707032 35.148438 8.527344 47.171876h12.070312v-36.625c2.777344-11.207032 7.078126-20.109376 11.980469-27.175782 15.394531 5.007813 36.601563 9.304688 64.0625 9.304688 27.507813 0 48.738281-4.308594 64.140625-9.332032 4.910156 7.070313 9.214844 15.984376 12 27.203126v36.625h12.066406c4.820313-12.023438 7.484376-35.832032 8.527344-47.171876l.007813-.003906s15.398437-114.28125-95.175781-114.28125zm0 0" fill="#9a4c00"/><path d="m353.140625 150.441406h-.011719c-1.039062 11.347656-3.707031 35.148438-8.527344 47.179688h-12.0625v-36.632813c-2.789062-11.21875-7.089843-20.128906-12-27.199219-15.410156 5.019532-36.640624 9.332032-64.140624 9.332032h-.398438v-106.949219c.648438-.011719 1.300781-.011719 1.960938-.011719 110.578124 0 95.179687 114.28125 95.179687 114.28125zm0 0" fill="#703700"/><path d="m308.464844 175.136719h-52.464844v61.699219h18.636719v-44.40625h33.828125zm0 0" fill="#ffaa20"/><path d="m200.261719 175.136719h44.691406v17.292969h-44.691406zm0 0" fill="#ffc473"/><path d="m377.789062 397.839844v83.378906c-36.21875 19.632812-77.699218 30.78125-121.789062 30.78125s-85.570312-11.148438-121.789062-30.78125v-83.378906zm0 0" fill="#ff3d62"/><path d="m377.789062 397.839844v83.378906c-36.21875 19.632812-77.699218 30.78125-121.789062 30.78125v-114.160156zm0 0" fill="#e7001f"/><path d="m134.210938 397.839844h243.578124v22.488281h-243.578124zm0 0" fill="#fff"/><path d="m256 397.839844h121.789062v22.488281h-121.789062zm0 0" fill="#fff5cb"/><path d="m300.507812 297.75-44.507812 58.390625-44.511719-58.390625h-22.488281l67 85.25 66.996094-85.25zm0 0" fill="#ff3d62"/><path d="m300.507812 297.75h22.488282l-66.996094 85.25v-26.859375zm0 0" fill="#e7001f"/></svg>