<svg height="512pt" viewBox="0 0 512 512" width="512pt" xmlns="http://www.w3.org/2000/svg"><path d="m512 256c0 141.386719-114.613281 256-256 256s-256-114.613281-256-256 114.613281-256 256-256 256 114.613281 256 256zm0 0" fill="#ff8900"/><path d="m332.1875 73.34375c-23.820312-28.949219-57.199219-33.679688-76.1875-33.679688-25.335938 0-76.28125 8.414063-95.976562 71.542969v35.886719c-10.777344 2.019531-18.429688 12.09375-17.230469 23.171875l1.855469 17.140625c.570312 5.25 3.03125 9.859375 6.632812 13.21875l30.410156 30.324219c7.390625 13.125 15.515625 23.304687 23.808594 31.179687l10.417969 10.464844v45.164062h-57.617188c-33.730469 0-61.289062 27.589844-61.289062 61.292969v77.589844c.09375.078125.183593.152344.277343.226563.691407.546874 1.390626 1.085937 2.085938 1.625.410156.316406.820312.628906 1.230469.945312.777343.589844 1.550781 1.175781 2.332031 1.761719v.019531c42.695312 31.894531 95.671875 50.78125 153.0625 50.78125 137.664062 0 249.933594-108.671875 255.746094-244.90625zm0 0" fill="#e67500"/><path d="m215.921875 264.058594h80.15625v61.296875h-80.15625zm0 0" fill="#ffc473"/><path d="m256 264.058594h40.078125v61.296875h-40.078125zm0 0" fill="#ffaa20"/><path d="m351.972656 147.097656c-4.003906-58.988281-54.3125-92.46875-95.972656-92.46875s-91.96875 33.480469-95.972656 92.46875c-10.78125 2.015625-18.433594 12.09375-17.230469 23.171875l1.855469 17.136719c1.257812 11.628906 11.800781 20.113281 23.429687 18.855469l2.003907-.21875c23.804687 61.960937 62.21875 77.914062 85.914062 81.539062 23.699219-3.625 62.113281-19.578125 85.914062-81.539062l2.003907.21875c11.628906 1.257812 22.171875-7.226563 23.433593-18.855469l1.855469-17.136719c1.199219-11.078125-6.453125-21.15625-17.234375-23.171875zm0 0" fill="#ffdba9"/><path d="m369.203125 170.269531-1.855469 17.144531c-1.257812 11.625-11.800781 20.105469-23.425781 18.84375l-2.003906-.214843c-23.804688 61.964843-62.21875 77.917969-85.917969 81.542969v-232.953126c41.664062 0 91.964844 33.476563 95.972656 92.464844 10.785156 2.019532 18.433594 12.09375 17.230469 23.171875zm0 0" fill="#ffc473"/><path d="m256 39.667969c-25.332031 0-76.28125 8.414062-95.972656 71.539062v35.890625l5.640625 45.332032h13.332031l21.261719-50.097657h111.476562l21.261719 50.097657h13.332031l5.640625-45.332032v-35.890625c-19.691406-63.128906-70.636718-71.539062-95.972656-71.539062zm0 0" fill="#57555c"/><path d="m351.96875 111.210938v35.890624l-5.640625 45.328126h-13.328125l-19.238281-45.328126-2.023438-4.773437h-55.738281v-102.65625c25.328125 0 76.28125 8.40625 95.96875 71.539063zm0 0" fill="#2a2a2c"/><path d="m308.464844 175.136719h-52.464844v61.699219h18.636719v-44.40625h33.828125zm0 0" fill="#ffaa20"/><path d="m200.261719 175.136719h44.691406v17.292969h-44.691406zm0 0" fill="#ffc473"/><path d="m414.988281 379.050781v77.597657c-43.667969 34.652343-98.910156 55.351562-158.988281 55.351562s-115.320312-20.699219-158.988281-55.351562v-77.597657c0-33.699219 27.558593-61.289062 61.289062-61.289062h195.660157c33.609374.148437 61.027343 27.679687 61.027343 61.289062zm0 0" fill="#ffdba9"/><path d="m414.988281 379.050781v77.597657c-43.667969 34.652343-98.910156 55.351562-158.988281 55.351562v-194.238281h97.960938c33.609374.148437 61.027343 27.679687 61.027343 61.289062zm0 0" fill="#ffc473"/><path d="m365.390625 416.558594v70.953125c-33.171875 15.707031-70.25 24.488281-109.390625 24.488281s-76.21875-8.78125-109.390625-24.488281v-70.953125c14.980469-8.230469 26.449219-21.277344 32.378906-36.839844 1.3125-3.4375 1.980469-7.085938 1.980469-10.761719v-51.195312h22.402344v3.195312c0 29.144531 23.839844 53.753907 52.980468 53.5625 14.390626-.09375 27.414063-5.964843 36.859376-15.410156 9.527343-9.53125 15.417968-22.679687 15.417968-37.210937v-4.136719h22.402344v51.195312c0 3.675781.667969 7.324219 1.980469 10.761719 5.929687 15.5625 17.398437 28.609375 32.378906 36.839844zm0 0" fill="#57555c"/><path d="m365.390625 416.558594v70.953125c-33.171875 15.707031-70.25 24.488281-109.390625 24.488281v-137.480469c14.53125 0 27.691406-5.890625 37.210938-15.410156 9.527343-9.53125 15.417968-22.679687 15.417968-37.210937v-4.136719h22.402344v51.195312c0 3.675781.667969 7.324219 1.980469 10.761719 5.929687 15.5625 17.398437 28.609375 32.378906 36.839844zm0 0" fill="#2a2a2c"/><path d="m160.027344 111.207031h191.949218v35.890625h-191.949218zm0 0" fill="#fff"/><path d="m256 111.210938h95.96875v35.890624h-95.96875zm0 0" fill="#fff5cb"/></svg>