<svg height="512pt" viewBox="0 0 512 512" width="512pt" xmlns="http://www.w3.org/2000/svg"><path d="m256 0c141.386719 0 256 114.613281 256 256 0 81.988281-38.542969 154.976562-98.5 201.832031-43.433594 33.941407-98.105469-93.652343-157.5-93.652343s-114.066406 127.59375-157.503906 93.648437c-59.953125-46.851563-98.496094-119.839844-98.496094-201.828125 0-141.386719 114.613281-256 256-256zm0 0" fill="#005ed3"/><path d="m511.769531 266.5-186.398437-185.867188c-14.246094-14.917968-36.035156-24.902343-69.367188-24.902343-93.164062 0-96.179687 77.960937-96.277344 123.730469-6.285156 3.898437-10.160156 11.171874-9.316406 18.980468l1.730469 15.988282c.535156 4.925781 2.855469 9.242187 6.246094 12.378906l16.035156 15.921875c-15.855469 6.011719-31.78125 21.054687-34.125 56.792969l12.976563 12.886718c-30.644532 3.019532-54.765626 29.027344-54.765626 60.398438v85.011718c1.941407 1.519532 3.910157 3.003907 5.894532 4.464844 42.441406 31.242188 94.859375-94.671875 151.597656-94.671875 59.398438 0 114.066406 124.15625 157.496094 90.210938 57.375-44.84375 95.136718-113.625 98.273437-191.324219zm0 0" fill="#00459f"/><path d="m208.335938 240.230469s-63.179688-14.765625-68.039063 59.292969c0 0 69.496094 14.09375 68.039063-59.292969zm0 0" fill="#ff9a00"/><path d="m216.300781 289.910156h79.394531v77.703125h-79.394531zm0 0" fill="#ffc473"/><path d="m256 289.910156h39.699219v77.703125h-39.699219zm0 0" fill="#ffaa20"/><path d="m345.519531 176.828125c-3.738281-55.019531-50.660156-86.246094-89.519531-86.246094s-85.78125 31.226563-89.519531 86.246094c-10.054688 1.886719-17.191407 11.28125-16.070313 21.613281l1.730469 15.988282c1.175781 10.847656 11.011719 18.757812 21.855469 17.585937l1.867187-.203125c22.203125 57.792969 58.03125 72.671875 80.136719 76.050781 22.101562-3.378906 57.929688-18.257812 80.132812-76.050781l1.871094.203125c10.84375 1.171875 20.679688-6.738281 21.855469-17.585937l1.730469-15.988282c1.121094-10.332031-6.015625-19.726562-16.070313-21.613281zm0 0" fill="#ffdba9"/><path d="m361.589844 198.445312-1.734375 15.988282c-1.171875 10.84375-11.003907 18.753906-21.847657 17.578125l-1.867187-.199219c-22.207031 57.796875-58.035156 72.675781-80.140625 76.054688v-217.28125c38.863281 0 85.777344 31.226562 89.515625 86.246093 10.058594 1.886719 17.195313 11.277344 16.074219 21.613281zm0 0" fill="#ffc473"/><path d="m159.722656 183.949219s95.859375 6.46875 145.214844-50.53125c0 0 9.488281 24.277343 20.5625 34.75 13.75 13 26.777344 15.78125 26.777344 15.78125 0-44.945313.003906-128.21875-96.273438-128.21875-96.28125 0-96.28125 83.269531-96.28125 128.21875zm0 0" fill="#fdc000"/><path d="m352.28125 183.945312s-13.03125-2.777343-26.78125-15.777343c-11.070312-10.472657-20.558594-34.75-20.558594-34.75-13.742187 15.859375-31.070312 26.808593-48.941406 34.347656v-112.039063c96.28125 0 96.28125 83.28125 96.28125 128.21875zm0 0" fill="#ff9a00"/><path d="m304.933594 202.984375h-48.933594v57.546875h17.382812v-41.417969h31.550782zm0 0" fill="#ffaa20"/><path d="m204.011719 202.984375h41.683593v16.128906h-41.683593zm0 0" fill="#ffc473"/><path d="m147.371094 396.089844v91.78125c-17.449219-8.191406-33.832032-18.292969-48.859375-30.050782v-61.730468zm0 0" fill="#ffdba9"/><path d="m413.488281 396.089844v61.730468c-15.027343 11.757813-31.410156 21.859376-48.859375 30.050782v-91.78125zm0 0" fill="#ffc473"/><path d="m413.488281 372.808594v28.5625h-48.859375v86.5c-32.980468 15.480468-69.789062 24.128906-108.628906 24.128906s-75.648438-8.648438-108.628906-24.128906v-86.5h-48.859375v-28.5625c0-33.378906 27.296875-60.707032 60.71875-60.707032h57.070312l39.699219 52.078126 39.699219-52.078126h57.332031c33.296875.148438 60.457031 27.417969 60.457031 60.707032zm0 0" fill="#fff"/><path d="m413.488281 372.808594v28.5625h-48.859375v86.5c-32.980468 15.480468-69.789062 24.128906-108.628906 24.128906v-147.820312l39.699219-52.078126h57.332031c33.296875.148438 60.457031 27.417969 60.457031 60.707032zm0 0" fill="#fff5cb"/><path d="m120.8125 400.839844h-9.261719v-24.121094c0-29.160156 23.722657-52.886719 52.882813-52.886719h49.308594v9.261719h-49.308594c-24.054688 0-43.625 19.570312-43.625 43.625zm0 0" fill="#57555c"/><path d="m391.1875 400.839844h9.261719v-24.121094c0-29.160156-23.722657-52.886719-52.882813-52.886719h-49.308594v9.261719h49.308594c24.054688 0 43.621094 19.570312 43.621094 43.625zm0 0" fill="#3c3b41"/><path d="m98.511719 396.089844h48.859375v25.460937h-48.859375zm0 0" fill="#e7001f"/><path d="m364.628906 396.089844h48.859375v25.460937h-48.859375zm0 0" fill="#901"/><path d="m295.695312 312.101562-39.699218 52.078126-39.695313-52.078126h-22.675781l62.371094 81.5625 62.375-81.5625zm0 0" fill="#e7001f"/><path d="m326.039062 419.0625-7.359374 5.953125c-2.773438 2.242187-6.738282 2.242187-9.515626 0l-7.359374-5.953125c-2.242188-1.8125-3.546876-4.546875-3.546876-7.433594v-20.6875h31.332032v20.6875c0 2.886719-1.304688 5.617188-3.550782 7.433594zm0 0" fill="#901"/><path d="m147.371094 439.882812h217.257812v41.742188h-217.257812zm0 0" fill="#57555c"/><path d="m256 439.882812h108.628906v41.738282h-108.628906zm0 0" fill="#3c3b41"/></svg>