<svg height="512pt" viewBox="0 0 512 512" width="512pt" xmlns="http://www.w3.org/2000/svg"><path d="m512 256c0 141.386719-114.613281 256-256 256s-256-114.613281-256-256 114.613281-256 256-256 256 114.613281 256 256zm0 0" fill="#00bb64"/><path d="m512 256c0-1.5625-.03125-3.121094-.058594-4.679688l-196.386718-196.878906c-8.589844-9.46875-21.109376-15.441406-35.058594-15.441406-8.980469 0-17.367188 2.472656-24.496094 6.757812-7.132812-4.285156-15.519531-6.757812-24.496094-6.757812-24.011718 0-43.800781 17.671875-46.582031 40.457031-17.695313.570313-31.863281 14.789063-31.863281 32.265625 0 6.070313 1.710937 11.75 4.683594 16.597656-5.511719 4.726563-9 11.667969-9 19.410157 0 .789062.042968 1.566406.113281 2.339843-4.34375 4.394532-6.773438 10.609376-6.0625 17.199219l1.855469 17.140625c.550781 5.0625 2.859374 9.527344 6.25 12.851563l30.046874 29.332031c6.875 12.492188 14.417969 22.375 22.152344 30.183594l12.820313 12.660156v2.5625c-18.640625 0-34.28125 0-42.417969 0-2.300781 0-4.621094.253906-6.855469.761719-25.5625 2.949219-29.746093 14.1875-22.53125 28.839843-30.535156 7.789063-53.113281 35.472657-53.113281 68.4375v81.675782c.382812.324218.765625.652344 1.148438.972656.714843.59375 1.433593 1.1875 2.15625 1.773438.742187.609374 1.496093 1.210937 2.246093 1.8125.851563.675781 1.703125 1.351562 2.5625 2.019531 43.335938 33.65625 97.765625 53.707031 156.886719 53.707031 141.386719 0 256-114.613281 256-256zm0 0" fill="#008c4a"/><path d="m338.5 272c-27.152344 0-137.847656 0-165 0-27.167969 0-57.164062 35.03125 82.5 120.847656v.003906-.003906c139.664062-85.816406 109.664062-120.847656 82.5-120.847656zm0 0" fill="#171719"/><path d="m215.921875 266.933594h80.15625v77.066406h-80.15625zm0 0" fill="#ffc473"/><path d="m256 266.933594h40.078125v77.066406h-40.078125zm0 0" fill="#ffaa20"/><path d="m351.972656 144.097656c-4.003906-58.988281-54.3125-92.46875-95.972656-92.46875s-91.96875 33.480469-95.972656 92.46875c-10.78125 2.015625-18.433594 12.09375-17.230469 23.171875l1.855469 17.136719c1.257812 11.628906 11.800781 20.113281 23.429687 18.855469l2.003907-.21875c23.804687 61.960937 62.21875 77.914062 85.914062 81.539062 23.699219-3.625 62.113281-19.578125 85.914062-81.539062l2.003907.21875c11.628906 1.257812 22.171875-7.226563 23.433593-18.855469l1.855469-17.136719c1.199219-11.078125-6.453125-21.15625-17.234375-23.171875zm0 0" fill="#ffdba9"/><path d="m369.203125 167.269531-1.855469 17.144531c-1.257812 11.625-11.800781 20.105469-23.425781 18.84375l-2.003906-.214843c-23.804688 61.964843-62.21875 77.917969-85.917969 81.542969v-232.953126c41.664062 0 91.964844 33.476563 95.972656 92.464844 10.785156 2.019532 18.433594 12.09375 17.230469 23.171875zm0 0" fill="#ffc473"/><path d="m310.863281 174.582031h-54.863281v64.519531h19.492188v-46.4375h35.371093zm0 0" fill="#ffaa20"/><path d="m197.714844 174.582031h46.730468v18.082031h-46.730468zm0 0" fill="#ffc473"/><path d="m414.988281 364.035156v89.613282c-43.667969 34.652343-98.910156 55.351562-158.988281 55.351562s-115.320312-20.699219-158.988281-55.351562v-89.613282c0-33.699218 27.558593-61.289062 61.289062-61.289062h57.621094c0 22.140625 17.9375 40.078125 40.078125 40.078125s40.078125-17.9375 40.078125-40.078125h57.882813c33.609374.148437 61.027343 27.679687 61.027343 61.289062zm0 0" fill="#fff"/><path d="m414.988281 364.035156v89.613282c-43.667969 34.652343-98.910156 55.351562-158.988281 55.351562v-166.175781c22.140625 0 40.078125-17.9375 40.078125-40.078125h57.882813c33.609374.148437 61.027343 27.679687 61.027343 61.289062zm0 0" fill="#fff5cb"/><path d="m354.253906 128.320312c2.972656-4.847656 4.6875-10.527343 4.6875-16.597656 0-17.472656-14.171875-31.695312-31.863281-32.265625-2.785156-22.785156-22.570313-40.457031-46.582031-40.457031-8.980469 0-17.367188 2.472656-24.496094 6.757812-7.132812-4.285156-15.519531-6.757812-24.496094-6.757812-24.011718 0-43.800781 17.671875-46.582031 40.457031-17.695313.570313-31.863281 14.789063-31.863281 32.265625 0 6.070313 1.710937 11.746094 4.683594 16.597656-5.511719 4.726563-9 11.667969-9 19.410157 0 14.238281 11.78125 25.785156 26.316406 25.785156s26.320312-11.546875 26.320312-25.785156c0-2.410157-.347656-4.738281-.976562-6.949219 5.9375-2.828125 10.871094-7.351562 14.160156-12.925781 5.253906 1.996093 10.964844 3.101562 16.941406 3.101562 8.976563 0 17.363282-2.472656 24.492188-6.757812 7.132812 4.285156 15.519531 6.757812 24.496094 6.757812 5.976562 0 11.6875-1.105469 16.941406-3.101562 3.289062 5.574219 8.222656 10.097656 14.160156 12.925781-.628906 2.210938-.976562 4.539062-.976562 6.949219 0 14.238281 11.785156 25.785156 26.320312 25.785156s26.316406-11.546875 26.316406-25.785156c0-7.742188-3.484375-14.683594-9-19.410157zm0 0" fill="#57555c"/><path d="m363.257812 147.730469c0 14.238281-11.789062 25.785156-26.320312 25.785156-14.535156 0-26.316406-11.546875-26.316406-25.785156 0-2.414063.347656-4.738281.976562-6.953125-5.941406-2.824219-10.871094-7.347656-14.160156-12.921875-5.257812 1.996093-10.96875 3.101562-16.941406 3.101562-8.980469 0-17.367188-2.472656-24.496094-6.753906v-78.449219c7.128906-4.28125 15.515625-6.753906 24.496094-6.753906 24.011718 0 43.792968 17.667969 46.582031 40.453125 17.691406.570313 31.867187 14.796875 31.867187 32.265625 0 6.078125-1.714843 11.753906-4.6875 16.601562 5.507813 4.730469 9 11.664063 9 19.410157zm0 0" fill="#2a2a2c"/><path d="m421 370.039062v81.699219c-44.558594 37.589844-102.140625 60.261719-165 60.261719s-120.441406-22.671875-165-60.261719v-81.699219c0-39.007812 31.621094-70.628906 70.628906-70.628906h28.042969l66.328125 99.699219 66.328125-99.699219h28.042969c39.007812 0 70.628906 31.621094 70.628906 70.628906zm0 0" fill="#8b8992"/><path d="m421 370.039062v81.699219c-44.558594 37.589844-102.140625 60.261719-165 60.261719v-112.890625l66.328125-99.699219h28.042969c39.007812 0 70.628906 31.621094 70.628906 70.628906zm0 0" fill="#78777f"/><path d="m363.261719 399.109375v89.390625c-32.621094 15.089844-68.960938 23.5-107.261719 23.5s-74.640625-8.410156-107.261719-23.5v-89.390625l77.601563-50.609375 29.660156 50.609375 29.660156-50.609375zm0 0" fill="#d9d9db"/><path d="m363.261719 399.109375v89.390625c-32.621094 15.089844-68.960938 23.5-107.261719 23.5v-112.890625l29.660156-50.609375zm0 0" fill="#aeadb3"/><path d="m210.375 364.261719h8.667969v73.222656h-8.667969zm0 0" fill="#8b8992"/><path d="m223.570312 444.289062c0 4.894532-3.96875 8.859376-8.863281 8.859376s-8.859375-3.964844-8.859375-8.859376c0-4.894531 3.964844-8.859374 8.859375-8.859374s8.863281 3.964843 8.863281 8.859374zm0 0" fill="#57555c"/><path d="m292.957031 364.261719h8.667969v73.222656h-8.667969zm0 0" fill="#78777f"/><path d="m306.152344 444.289062c0 4.894532-3.964844 8.859376-8.859375 8.859376s-8.863281-3.964844-8.863281-8.859376c0-4.894531 3.96875-8.859374 8.863281-8.859374s8.859375 3.964843 8.859375 8.859374zm0 0" fill="#3c3b41"/><path d="m181.5 272 74.5 127.109375s-198-127.109375-74.5-127.109375zm0 0" fill="#57555c"/><path d="m330.5 272-74.5 127.109375s198-127.109375 74.5-127.109375zm0 0" fill="#3c3b41"/></svg>