<svg height="512pt" viewBox="0 0 512 512" width="512pt" xmlns="http://www.w3.org/2000/svg"><path d="m512 256c0 141.386719-114.613281 256-256 256s-256-114.613281-256-256 114.613281-256 256-256 256 114.613281 256 256zm0 0" fill="#ff8900"/><path d="m512 256c0-3.199219-.078125-6.378906-.195312-9.550781l-176.902344-176.902344c-17.019532-19.277344-42.621094-31.546875-71.253906-31.546875h-15.296876c-51.246093 0-92.789062 39.289062-92.789062 87.753906v22.761719c-.917969 1.382813-1.804688 2.800781-2.652344 4.261719-3.558594 2.691406-6.417968 5.148437-8.558594 7.144531-4.023437 3.746094-4.550781 9.828125-1.460937 14.195313-3.867187 4.503906-5.957031 10.511718-5.273437 16.84375l1.941406 17.921874c.628906 5.816407 3.480468 10.878907 7.613281 14.4375l31.222656 31.265626c8.261719 14.632812 17.398438 25.753906 26.683594 34.1875 2.121094 2.328124 4.261719 4.5 6.414063 6.523437v21.03125h-63.992188c-37.460938 0-68.070312 30.640625-68.070312 68.070313v56.960937c1.378906 1.316406 2.773437 2.609375 4.179687 3.890625.640625.585938 1.292969 1.160156 1.941406 1.738281 45.269531 40.425781 104.984375 65.011719 170.449219 65.011719 141.386719 0 256-114.613281 256-256zm0 0" fill="#e67500"/><path d="m211.488281 292.25h89.019531v85.082031h-89.019531zm0 0" fill="#ffc473"/><path d="m256 292.25h44.511719v85.082031h-44.511719zm0 0" fill="#ffaa20"/><path d="m356.363281 166.726562c-4.1875-61.6875-56.796875-96.695312-100.363281-96.695312s-96.175781 35.007812-100.363281 96.695312c-11.273438 2.113282-19.277344 12.648438-18.019531 24.234376l1.941406 17.921874c1.316406 12.160157 12.34375 21.03125 24.503906 19.714844l2.09375-.226562c24.890625 64.796875 65.0625 81.480468 89.84375 85.269531 24.78125-3.789063 64.953125-20.472656 89.84375-85.269531l2.09375.226562c12.160156 1.316406 23.1875-7.554687 24.503906-19.714844l1.941406-17.921874c1.257813-11.585938-6.746093-22.121094-18.019531-24.234376zm0 0" fill="#ffdba9"/><path d="m374.382812 190.960938-1.941406 17.929687c-1.316406 12.15625-12.339844 21.023437-24.496094 19.707031l-2.09375-.226562c-24.898437 64.800781-65.066406 81.484375-89.851562 85.273437v-243.613281c43.570312 0 96.175781 35.011719 100.363281 96.695312 11.277344 2.117188 19.277344 12.648438 18.019531 24.234376zm0 0" fill="#ffc473"/><path d="m310.863281 196.050781h-54.863281v64.519531h19.492188v-46.4375h35.371093zm0 0" fill="#ffaa20"/><path d="m197.714844 196.050781h46.730468v18.082031h-46.730468zm0 0" fill="#ffc473"/><path d="m356.4375 152.878906-69.046875-13.273437c-20.738281-3.984375-42.042969-3.984375-62.78125 0l-69.046875 13.273437v-27.121094c0-48.46875 41.542969-87.757812 92.789062-87.757812h15.296876c51.246093 0 92.789062 39.289062 92.789062 87.757812zm0 0" fill="#fff"/><path d="m356.433594 125.757812v27.117188l-69.039063-13.269531c-10.375-1.988281-20.886719-2.992188-31.394531-2.992188v-98.613281h7.644531c51.25 0 92.789063 39.289062 92.789063 87.757812zm0 0" fill="#fff5cb"/><path d="m256 95.4375s-75.265625 6.449219-104.226562 59.332031c0 0 45.746093-26.078125 104.226562-26.078125s104.226562 26.078125 104.226562 26.078125c-28.960937-52.882812-104.226562-59.332031-104.226562-59.332031zm0 0" fill="#57555c"/><path d="m360.230469 154.769531s-.628907-.355469-1.820313-.984375c-.546875-.28125-1.203125-.628906-1.976562-1.015625-12.097656-6.105469-51.878906-24.082031-100.433594-24.082031v-33.246094s69.226562 5.929688 100.433594 53.0625c1.347656 2.007813 2.613281 4.097656 3.796875 6.265625zm0 0" fill="#2a2a2c"/><path d="m360.246094 178.71875c-2.40625 0-4.824219-.792969-6.835938-2.429688-17.464844-14.179687-46.558594-33.03125-97.410156-33.03125-57.433594 0-88.652344 24.914063-96.855469 32.550782-4.386719 4.085937-11.257812 3.839844-15.339843-.546875-4.085938-4.386719-3.839844-11.253907.546874-15.339844 12.390626-11.539063 48.074219-38.371094 111.648438-38.371094 43.960938 0 79.261719 12.039063 111.09375 37.886719 4.65625 3.78125 5.363281 10.617188 1.585938 15.269531-2.144532 2.640625-5.277344 4.011719-8.433594 4.011719zm0 0" fill="#c8c6cc"/><path d="m368.679688 174.703125c-2.144532 2.648437-5.28125 4.015625-8.429688 4.015625-2.40625 0-4.832031-.792969-6.839844-2.425781-17.464844-14.179688-46.554687-33.035157-97.410156-33.035157v-21.707031c39.109375 0 71.371094 9.523438 100.433594 29.84375.660156.449219 1.316406.921875 1.976562 1.390625 2.925782 2.101563 5.824219 4.320313 8.6875 6.652344 4.65625 3.785156 5.355469 10.613281 1.582032 15.265625zm0 0" fill="#8b8992"/><path d="m134.210938 410.5v70.71875c-20.019532-10.839844-38.429688-24.277344-54.78125-39.847656v-30.871094zm0 0" fill="#ffdba9"/><path d="m432.570312 410.5v30.871094c-16.351562 15.570312-34.761718 29.007812-54.78125 39.847656v-70.71875zm0 0" fill="#ffc473"/><path d="m432.570312 384.398438v32.023437h-54.78125v64.796875c-36.21875 19.632812-77.699218 30.78125-121.789062 30.78125s-85.570312-11.148438-121.789062-30.78125v-64.796875h-54.78125v-32.023437c0-37.429688 30.609374-68.070313 68.070312-68.070313h63.988281l44.511719 58.390625 44.511719-58.390625h64.277343c37.332032.171875 67.78125 30.742187 67.78125 68.070313zm0 0" fill="#fff"/><path d="m432.570312 384.398438v32.023437h-54.78125v64.796875c-36.21875 19.632812-77.699218 30.78125-121.789062 30.78125v-137.28125l44.511719-58.390625h64.277343c37.332032.171875 67.78125 30.742187 67.78125 68.070313zm0 0" fill="#fff5cb"/><path d="m272.660156 374.71875v136.742188c-5.511718.359374-11.058594.539062-16.660156.539062s-11.148438-.179688-16.660156-.539062v-136.742188zm0 0" fill="#57555c"/><path d="m272.660156 374.71875v136.742188c-5.511718.359374-11.058594.539062-16.660156.539062v-137.28125zm0 0" fill="#2a2a2c"/><path d="m201.859375 316.328125v189.933594c-11.410156-2.453125-22.53125-5.671875-33.308594-9.601563v-180.332031zm0 0" fill="#57555c"/><path d="m343.449219 316.328125v180.332031c-10.777344 3.929688-21.898438 7.148438-33.308594 9.601563v-189.933594zm0 0" fill="#2a2a2c"/><path d="m211.488281 316.332031h-37.667969l45.09375 89.113281 37.085938-30.726562zm0 0" fill="#78777f"/><path d="m300.507812 316.332031h37.671876l-45.097657 89.113281-37.082031-30.726562zm0 0" fill="#57555c"/><path d="m79.433594 384.398438v32.015624h54.773437v-98.761718c-31.144531 6.230468-54.773437 33.863281-54.773437 66.746094zm0 0" fill="#57555c"/><path d="m432.566406 384.398438v32.015624h-54.773437v-98.761718c31.144531 6.230468 54.773437 33.863281 54.773437 66.746094zm0 0" fill="#2a2a2c"/></svg>