<svg height="512pt" viewBox="0 0 512 512" width="512pt" xmlns="http://www.w3.org/2000/svg"><path d="m512 256c0 141.386719-114.613281 256-256 256s-256-114.613281-256-256 114.613281-256 256-256 256 114.613281 256 256zm0 0" fill="#ffe670"/><path d="m512 256c0-3.1875-.078125-6.359375-.195312-9.519531l-176.644532-176.644531c-17.019531-19.445313-42.734375-31.835938-71.511718-31.835938h-15.296876c-51.246093 0-92.789062 39.289062-92.789062 87.753906v22.761719c-.753906 1.132813-1.484375 2.289063-2.191406 3.472656-3.777344 2.828125-6.785156 5.414063-9.019532 7.492188-4.386718 4.085937-4.632812 10.957031-.546874 15.34375 1.59375 1.710937 3.613281 2.765625 5.742187 3.199219.164063.820312.421875 1.625.78125 2.398437-5.867187 4.394531-9.359375 11.671875-8.515625 19.453125l1.871094 17.289062c.515625 4.777344 2.589844 9.027344 5.660156 12.300782l30.453125 29.335937c5.6875 10.484375 11.835937 19.183594 18.183594 26.378907v50.046874h-32.839844c-31.378906 0-57.011719 25.660157-57.011719 57v72.761719c2.503906 1.777344 5.050782 3.5 7.617188 5.183594 40.289062 26.4375 88.46875 41.828125 140.253906 41.828125 141.386719 0 256-114.613281 256-256zm0 0" fill="#ffd400"/><path d="m197.980469 366.300781h116.039062v-173.601562c0-30.597657-24.804687-55.402344-55.40625-55.402344h-5.226562c-30.601563 0-55.40625 24.804687-55.40625 55.402344zm0 0" fill="#c06100"/><path d="m314.019531 195.316406v170.980469h-58.019531v-229c23.28125 0 43.359375 13.707031 52.59375 33.496094 3.480469 7.449219 5.425781 15.757812 5.425781 24.523437zm0 0" fill="#9a4c00"/><path d="m218.171875 301.804688h75.65625v73.613281h-75.65625zm0 0" fill="#ffc473"/><path d="m256 301.804688h37.832031v73.613281h-37.832031zm0 0" fill="#ffaa20"/><path d="m352.808594 176.5c-4.042969-59.5-54.785156-93.269531-96.808594-93.269531s-92.765625 33.769531-96.808594 93.269531c-10.875 2.035156-18.589844 12.199219-17.382812 23.375l1.875 17.289062c1.269531 11.726563 11.90625 20.285157 23.632812 19.015626l2.023438-.21875c24.007812 62.5 62.757812 78.589843 86.660156 82.246093 23.902344-3.652343 62.652344-19.746093 86.660156-82.246093l2.023438.21875c11.726562 1.269531 22.363281-7.289063 23.632812-19.015626l1.875-17.289062c1.207032-11.175781-6.507812-21.339844-17.382812-23.375zm0 0" fill="#ffdba9"/><path d="m370.1875 199.875-1.871094 17.292969c-1.269531 11.726562-11.90625 20.28125-23.628906 19.011719l-2.023438-.21875c-24.011718 62.503906-62.757812 78.597656-86.664062 82.253906v-234.984375c42.027344 0 92.765625 33.773437 96.804688 93.269531 10.878906 2.039062 18.597656 12.199219 17.382812 23.375zm0 0" fill="#ffc473"/><path d="m308.921875 204.785156h-52.921875v62.234375h18.800781v-44.792969h34.121094zm0 0" fill="#ffaa20"/><path d="m403.871094 392.230469v72.757812c-23.179688 16.441407-49.222656 29.113281-77.222656 37.132813-8.339844 2.390625-16.847657 4.367187-25.519532 5.910156-10.578125 1.890625-21.378906 3.117188-32.367187 3.660156-4.230469.199219-8.480469.308594-12.761719.308594s-8.53125-.109375-12.761719-.308594c-10.988281-.542968-21.789062-1.769531-32.367187-3.660156-8.671875-1.542969-17.179688-3.519531-25.519532-5.910156-28-8.019532-54.042968-20.691406-77.222656-37.132813v-72.757812c0-31.339844 25.632813-57 57.011719-57h53.03125l25.066406 26.519531 12.761719 13.5 12.761719-13.5 25.066406-26.519531h53.273437c31.257813.140625 56.769532 25.738281 56.769532 57zm0 0" fill="#fff"/><path d="m403.871094 392.230469v72.757812c-23.179688 16.441407-49.222656 29.113281-77.222656 37.132813-8.339844 2.390625-16.847657 4.367187-25.519532 5.910156-10.578125 1.890625-21.378906 3.117188-32.367187 3.660156-4.230469.199219-8.480469.308594-12.761719.308594v-136.75l37.828125-40.019531h53.273437c31.257813.140625 56.769532 25.738281 56.769532 57zm0 0" fill="#fff5cb"/><path d="m210.871094 335.230469v172.800781c-8.671875-1.542969-17.179688-3.519531-25.519532-5.910156v-166.890625zm0 0" fill="#57555c"/><path d="m326.648438 335.230469v166.890625c-8.339844 2.390625-16.847657 4.367187-25.519532 5.910156v-172.800781zm0 0" fill="#2a2a2c"/><path d="m268.761719 375.25v136.511719c-4.230469.152343-8.480469.238281-12.761719.238281s-8.53125-.085938-12.761719-.238281v-136.511719zm0 0" fill="#57555c"/><path d="m268.761719 375.25v136.511719c-4.230469.148437-8.480469.238281-12.761719.238281v-136.75zm0 0" fill="#2a2a2c"/><path d="m200.152344 204.785156h47.46875v17.441406h-47.46875zm0 0" fill="#ffc473"/><path d="m256 59.589844s-96.808594-6.109375-96.808594 83.773437v53.066407h41.679688v-41.910157c0-.496093.015625-.984375.039062-1.472656.554688-11.085937 17.261719-10.457031 17.261719.644531v42.734375h75.65625v-42.730469c0-11.101562 16.707031-11.734374 17.261719-.648437.023437.488281.039062.980469.039062 1.472656v41.910157h41.679688v-53.066407c0-89.882812-96.808594-83.777343-96.808594-83.773437zm0 0" fill="#e67500"/><path d="m352.808594 143.359375v53.070313h-41.679688v-41.910157c0-.488281-.007812-.988281-.039062-1.46875-.550782-11.089843-17.261719-10.460937-17.261719.640625v42.730469h-37.828125v-136.832031s96.808594-6.109375 96.808594 83.769531zm0 0" fill="#c06200"/><path d="m356.4375 152.878906-69.046875-13.273437c-20.738281-3.984375-42.042969-3.984375-62.78125 0l-69.046875 13.273437v-27.121094c0-48.46875 41.542969-87.757812 92.789062-87.757812h15.296876c51.246093 0 92.789062 39.289062 92.789062 87.757812zm0 0" fill="#57555c"/><path d="m356.433594 125.757812v27.117188l-69.039063-13.269531c-10.375-1.988281-20.886719-2.992188-31.394531-2.992188v-98.613281h7.644531c51.25 0 92.789063 39.289062 92.789063 87.757812zm0 0" fill="#2a2a2c"/><path d="m256 95.4375s-75.265625 6.449219-104.226562 59.332031c0 0 45.746093-26.078125 104.226562-26.078125s104.226562 26.078125 104.226562 26.078125c-28.960937-52.882812-104.226562-59.332031-104.226562-59.332031zm0 0" fill="#fff"/><path d="m360.230469 154.769531s-.628907-.355469-1.820313-.984375c-.546875-.28125-1.203125-.628906-1.976562-1.015625-12.097656-6.105469-51.878906-24.082031-100.433594-24.082031v-33.246094s69.226562 5.929688 100.433594 53.0625c1.347656 2.007813 2.613281 4.097656 3.796875 6.265625zm0 0" fill="#fff5cb"/><path d="m360.246094 178.28125c-2.40625 0-4.824219-.792969-6.835938-2.429688-17.464844-14.179687-46.558594-33.03125-97.410156-33.03125-57.433594 0-88.652344 24.914063-96.855469 32.550782-4.386719 4.085937-11.257812 3.839844-15.339843-.546875-4.085938-4.386719-3.839844-11.257813.546874-15.339844 12.390626-11.539063 48.074219-38.375 111.648438-38.375 43.960938 0 79.261719 12.042969 111.09375 37.890625 4.65625 3.78125 5.363281 10.617188 1.585938 15.269531-2.144532 2.640625-5.277344 4.011719-8.433594 4.011719zm0 0" fill="#c8c6cc"/><path d="m368.679688 174.265625c-2.144532 2.644531-5.28125 4.015625-8.429688 4.015625-2.40625 0-4.832031-.792969-6.839844-2.425781-17.464844-14.179688-46.554687-33.035157-97.410156-33.035157v-21.710937c39.109375 0 71.371094 9.527344 100.433594 29.847656.660156.449219 1.316406.921875 1.976562 1.390625 2.925782 2.101563 5.824219 4.320313 8.6875 6.652344 4.65625 3.785156 5.355469 10.613281 1.582032 15.265625zm0 0" fill="#8b8992"/><path d="m153.050781 411.679688v78.769531c-15.878906-6.980469-30.921875-15.527344-44.921875-25.460938v-53.308593zm0 0" fill="#ffdba9"/><path d="m403.871094 411.679688v53.308593c-14 9.933594-29.042969 18.480469-44.921875 25.460938v-78.769531zm0 0" fill="#ffc473"/><path d="m218.171875 335.230469h-26.839844l34.335938 68.4375 30.332031-28.417969zm0 0" fill="#78777f"/><path d="m293.828125 335.230469h26.839844l-34.335938 68.4375-30.332031-28.417969zm0 0" fill="#57555c"/><path d="m153.050781 336.539062c-25.613281 5.582032-44.921875 28.492188-44.921875 55.691407v37.117187h44.921875zm0 0" fill="#57555c"/><path d="m358.949219 336.539062c25.613281 5.582032 44.921875 28.492188 44.921875 55.691407v37.117187h-44.921875zm0 0" fill="#2a2a2c"/></svg>