<svg height="512pt" viewBox="0 0 512 512" width="512pt" xmlns="http://www.w3.org/2000/svg"><path d="m512 256c0 141.386719-114.613281 256-256 256s-256-114.613281-256-256 114.613281-256 256-256 256 114.613281 256 256zm0 0" fill="#ffe670"/><path d="m512 256c0-3.195312-.078125-6.371094-.195312-9.535156l-176.773438-176.773438c-17.019531-19.363281-42.679688-31.691406-71.382812-31.691406h-15.296876c-51.246093 0-92.789062 39.289062-92.789062 87.753906v22.761719c-1.039062 1.570313-2.035156 3.183594-2.988281 4.84375-3.402344 2.59375-6.148438 4.960937-8.222657 6.894531-4.386718 4.085938-4.632812 10.953125-.546874 15.339844 1.386718 1.488281 3.09375 2.488281 4.917968 3.015625-3.996094 4.339844-6.1875 10.300781-5.503906 16.59375l1.847656 17.078125c.292969 2.71875 1.105469 5.257812 2.3125 7.546875h-39.167968c-10.609376 0-19.210938 8.601563-19.210938 19.210937v44.640626c0 5.4375 2.265625 10.34375 5.898438 13.835937l24.839843 24.800781c-23.703125 10.675782-40.308593 34.527344-40.308593 62.082032v56.960937c1.398437 1.332031 2.8125 2.648437 4.242187 3.949219.683594.621094 1.375 1.230468 2.066406 1.84375 45.242188 40.328125 104.882813 64.847656 170.261719 64.847656 141.386719 0 256-114.613281 256-256zm0 0" fill="#ffd400"/><path d="m382.820312 316.960938v156.039062h-253.640624v-156.039062c0-25.511719 20.679687-46.199219 46.191406-46.199219h161.257812c25.511719 0 46.191406 20.6875 46.191406 46.199219zm0 0" fill="#00a6ff"/><path d="m382.820312 316.960938v156.039062h-126.820312v-202.238281h80.628906c25.511719 0 46.191406 20.6875 46.191406 46.199219zm0 0" fill="#006ef5"/><path d="m423 239.039062v44.640626c0 10.609374-8.601562 19.210937-19.210938 19.210937h-295.578124c-10.609376 0-19.210938-8.601563-19.210938-19.210937v-44.640626c0-10.609374 8.601562-19.210937 19.210938-19.210937h295.578124c.171876 0 .332032 0 .5.011719 10.382813.261718 18.710938 8.761718 18.710938 19.199218zm0 0" fill="#c06200"/><path d="m423 239.039062v44.640626c0 10.609374-8.601562 19.210937-19.210938 19.210937h-147.730468l-.058594-.011719v-83.039062h148.289062c10.382813.261718 18.710938 8.761718 18.710938 19.199218zm0 0" fill="#9a4c00"/><path d="m211.488281 289.75h89.023438v87.5h-89.023438zm0 0" fill="#ffc473"/><path d="m256 289.75h44.511719v87.5h-44.511719zm0 0" fill="#ffaa20"/><path d="m134.210938 410.5v70.71875c-20.019532-10.839844-38.429688-24.277344-54.78125-39.847656v-30.871094zm0 0" fill="#ffdba9"/><path d="m432.570312 410.5v30.871094c-16.351562 15.570312-34.761718 29.007812-54.78125 39.847656v-70.71875zm0 0" fill="#ffc473"/><path d="m432.570312 384.398438v32.023437h-54.78125v64.796875c-36.21875 19.632812-77.699218 30.78125-121.789062 30.78125s-85.570312-11.148438-121.789062-30.78125v-64.796875h-54.78125v-32.023437c0-37.429688 30.609374-68.070313 68.070312-68.070313h63.988281c0 24.582031 19.933594 44.511719 44.511719 44.511719s44.511719-19.929688 44.511719-44.511719h64.277343c37.332032.171875 67.78125 30.742187 67.78125 68.070313zm0 0" fill="#fff"/><path d="m432.570312 384.398438v32.023437h-54.78125v64.796875c-36.21875 19.632812-77.699218 30.78125-121.789062 30.78125v-151.160156c24.578125 0 44.511719-19.929688 44.511719-44.511719h64.277343c37.332032.171875 67.78125 30.742187 67.78125 68.070313zm0 0" fill="#fff5cb"/><path d="m186.601562 316.328125v186.152344c-10.953124-3.082031-21.589843-6.859375-31.890624-11.308594v-174.84375zm0 0" fill="#005ed3"/><path d="m357.289062 316.328125v174.84375c-10.300781 4.449219-20.9375 8.226563-31.890624 11.308594v-186.152344zm0 0" fill="#00459f"/><path d="m351.617188 172.117188c-3.992188-58.765626-54.113282-92.121094-95.617188-92.121094-41.507812 0-91.625 33.355468-95.617188 92.121094-10.738281 2.015624-18.363281 12.050781-17.167968 23.085937l1.851562 17.078125c1.253906 11.585938 11.757813 20.035156 23.34375 18.78125l1.992188-.214844c23.714844 61.730469 61.988281 77.625 85.59375 81.234375 23.609375-3.609375 61.882812-19.503906 85.597656-81.234375l1.992188.214844c11.585937 1.253906 22.089843-7.195312 23.347656-18.78125l1.847656-17.078125c1.195312-11.035156-6.425781-21.070313-17.164062-23.085937zm0 0" fill="#ffdba9"/><path d="m368.78125 195.203125-1.847656 17.082031c-1.253906 11.582032-11.757813 20.03125-23.339844 18.773438l-1.996094-.210938c-23.71875 61.730469-61.988281 77.625-85.597656 81.238282v-232.085938c41.511719 0 91.621094 33.355469 95.613281 92.117188 10.746094 2.015624 18.367188 12.050781 17.167969 23.085937zm0 0" fill="#ffc473"/><path d="m257.960938 47.210938c-120.445313 0-98.210938 114.28125-98.210938 114.28125l.003906.003906c1.046875 11.339844 3.707032 35.148437 8.527344 47.175781h12.070312v-36.628906c2.78125-11.207031 7.078126-20.109375 11.980469-27.175781 15.394531 5.007812 36.601563 9.308593 64.0625 9.308593 27.507813 0 48.738281-4.3125 64.140625-9.332031 4.910156 7.070312 9.214844 15.980469 12 27.199219v36.628906h12.066406c4.820313-12.027344 7.484376-35.832031 8.527344-47.175781l.007813-.003906c0-.003907 15.398437-114.28125-95.175781-114.28125zm0 0" fill="#57555c"/><path d="m353.140625 161.488281h-.011719c-1.039062 11.351563-3.707031 35.152344-8.527344 47.179688h-12.0625v-36.628907c-2.789062-11.21875-7.089843-20.128906-12-27.199218-15.410156 5.019531-36.640624 9.328125-64.140624 9.328125h-.398438v-106.949219c.648438-.007812 1.300781-.007812 1.960938-.007812 110.578124 0 95.179687 114.277343 95.179687 114.277343zm0 0" fill="#3c3b41"/><path d="m356.4375 152.878906-69.046875-13.273437c-20.738281-3.984375-42.042969-3.984375-62.78125 0l-69.046875 13.273437v-27.121094c0-48.46875 41.542969-87.757812 92.789062-87.757812h15.296876c51.246093 0 92.789062 39.289062 92.789062 87.757812zm0 0" fill="#fff"/><path d="m356.433594 125.757812v27.117188l-69.039063-13.269531c-10.375-1.988281-20.886719-2.992188-31.394531-2.992188v-98.613281h7.644531c51.25 0 92.789063 39.289062 92.789063 87.757812zm0 0" fill="#fff5cb"/><path d="m256 95.4375s-75.265625 6.449219-104.226562 59.332031c0 0 45.746093-26.078125 104.226562-26.078125s104.226562 26.078125 104.226562 26.078125c-28.960937-52.882812-104.226562-59.332031-104.226562-59.332031zm0 0" fill="#c06200"/><path d="m360.230469 154.769531s-.628907-.355469-1.820313-.984375c-.546875-.28125-1.203125-.628906-1.976562-1.015625-12.097656-6.105469-51.878906-24.082031-100.433594-24.082031v-33.246094s69.226562 5.929688 100.433594 53.0625c1.347656 2.007813 2.613281 4.097656 3.796875 6.265625zm0 0" fill="#9a4c00"/><path d="m360.246094 179.054688c-2.40625 0-4.824219-.796876-6.835938-2.429688-17.464844-14.179688-46.558594-33.035156-97.410156-33.035156-57.433594 0-88.652344 24.917968-96.855469 32.550781-4.386719 4.085937-11.257812 3.839844-15.339843-.546875-4.085938-4.386719-3.839844-11.253906.546874-15.339844 12.390626-11.535156 48.074219-38.371094 111.648438-38.371094 43.960938 0 79.261719 12.039063 111.09375 37.890626 4.65625 3.777343 5.363281 10.613281 1.585938 15.265624-2.148438 2.644532-5.277344 4.015626-8.433594 4.015626zm0 0" fill="#e67500"/><path d="m368.679688 175.035156c-2.144532 2.648438-5.28125 4.019532-8.429688 4.019532-2.40625 0-4.832031-.796876-6.839844-2.425782-17.464844-14.183594-46.554687-33.035156-97.410156-33.035156v-21.710938c39.109375 0 71.371094 9.527344 100.433594 29.84375.660156.453126 1.316406.921876 1.976562 1.390626 2.925782 2.105468 5.824219 4.320312 8.6875 6.652343 4.65625 3.785157 5.355469 10.613281 1.582032 15.265625zm0 0" fill="#c06200"/><path d="m308.269531 200.054688h-52.269531v61.46875h18.570312v-44.242188h33.699219zm0 0" fill="#ffaa20"/><path d="m198.382812 200.054688h46.019532v17.226562h-46.019532zm0 0" fill="#ffc473"/><path d="m79.429688 409.40625h54.78125v20.261719h-54.78125zm0 0" fill="#00a6ff"/><path d="m377.789062 409.40625h54.78125v20.261719h-54.78125zm0 0" fill="#006ef5"/></svg>