<svg height="512pt" viewBox="0 0 512 512" width="512pt" xmlns="http://www.w3.org/2000/svg"><path d="m512 256c0 141.386719-114.613281 256-256 256s-256-114.613281-256-256 114.613281-256 256-256 256 114.613281 256 256zm0 0" fill="#ff8900"/><path d="m511.5625 270.808594-212.753906-213.34375c-10.429688-11.925782-25.742188-19.464844-42.832032-19.464844-24.140624 0-44.753906 15.035156-53.027343 36.25-29.078125 17.210938-37.832031 49.445312-40.464844 78.769531-9.242187 2.703125-15.558594 11.75-14.492187 21.636719l1.773437 16.355469c.539063 4.984375 2.871094 9.367187 6.28125 12.566406l27.367187 25.867187c4.90625 9.1875 10.183594 16.953126 15.648438 23.492188v21.0625c-9.492188 0-17.21875 0-22.113281 0-2.203125 0-4.425781.242188-6.566407.730469-24.332031 2.804687-28.449218 13.453125-21.722656 27.359375-30.21875 7.046875-52.710937 33.84375-52.710937 65.851562v87.847656c.144531.113282.285156.230469.429687.347657 1.578125 1.261719 3.171875 2.503906 4.78125 3.726562.164063.125.328125.25.492188.375 1.824218 1.378907 3.671875 2.738281 5.535156 4.074219v.007812c41.9375 30.011719 93.308594 47.679688 148.8125 47.679688 136.414062 0 247.890625-106.699219 255.5625-241.191406zm0 0" fill="#c06100"/><path d="m312.890625 312.875h-113.828125v-217.960938c0-31.433593 25.480469-56.914062 56.914062-56.914062 31.433594 0 56.914063 25.480469 56.914063 56.914062zm0 0" fill="#3c3b41"/><path d="m312.890625 94.910156v217.96875h-56.890625v-274.878906c15.710938.011719 29.921875 6.371094 40.21875 16.671875 10.300781 10.296875 16.671875 24.527344 16.671875 40.238281zm0 0" fill="#171719"/><path d="m335.046875 274c-26.015625 0-132.078125 0-158.09375 0-26.03125 0-54.777344 33.566406 79.046875 115.792969 133.820312-82.226563 105.078125-115.792969 79.046875-115.792969zm0 0" fill="#c2001b"/><path d="m335.949219 329.640625c-15.449219 16.121094-40.710938 36.039063-79.949219 60.148437v-115.789062h79.050781c18.398438 0 38.148438 16.769531.898438 55.640625zm0 0" fill="#901"/><path d="m215.921875 268.933594h80.15625v77.066406h-80.15625zm0 0" fill="#ffc473"/><path d="m256 268.933594h40.078125v77.066406h-40.078125zm0 0" fill="#ffaa20"/><path d="m347.566406 152.550781c-3.824218-56.28125-51.820312-88.222656-91.566406-88.222656s-87.742188 31.941406-91.566406 88.222656c-10.285156 1.925781-17.582032 11.539063-16.4375 22.105469l1.769531 16.355469c1.203125 11.09375 11.261719 19.1875 22.355469 17.984375l1.910156-.207032c22.710938 59.117188 59.359375 74.335938 81.96875 77.792969 22.609375-3.457031 59.257812-18.675781 81.96875-77.792969l1.910156.207032c11.09375 1.203125 21.152344-6.890625 22.355469-17.984375l1.773437-16.355469c1.140626-10.566406-6.15625-20.179688-16.441406-22.105469zm0 0" fill="#ffdba9"/><path d="m364.003906 174.65625-1.769531 16.359375c-1.203125 11.089844-11.261719 19.179687-22.351563 17.976563l-1.910156-.203126c-22.714844 59.117188-59.363281 74.339844-81.972656 77.796876v-222.253907c39.75 0 87.742188 31.941407 91.5625 88.21875 10.289062 1.929688 17.585938 11.539063 16.441406 22.105469zm0 0" fill="#ffc473"/><path d="m161.347656 187.820312s55.210938-.8125 94.652344-43.824218h.003906c39.4375 43.011718 94.648438 43.824218 94.648438 43.824218 0-44.183593.003906-126.050781-94.648438-126.050781-94.65625 0-94.65625 81.863281-94.65625 126.050781zm0 0" fill="#57555c"/><path d="m350.648438 187.816406s-13.804688-.203125-32.53125-5.777344c-18.738282-5.582031-42.398438-16.535156-62.117188-38.042968v-82.226563c94.65625 0 94.648438 81.871094 94.648438 126.046875zm0 0" fill="#3c3b41"/><path d="m308.34375 179.726562h-52.34375v61.554688h18.597656v-44.300781h33.746094zm0 0" fill="#ffaa20"/><path d="m200.390625 179.726562h44.585937v17.253907h-44.585937zm0 0" fill="#ffc473"/><path d="m414.988281 366.035156v89.613282c-43.667969 34.652343-98.910156 55.351562-158.988281 55.351562s-115.320312-20.699219-158.988281-55.351562v-89.613282c0-33.699218 27.558593-61.289062 61.289062-61.289062h57.621094c0 22.140625 17.9375 40.078125 40.078125 40.078125s40.078125-17.9375 40.078125-40.078125h57.882813c33.609374.148437 61.027343 27.679687 61.027343 61.289062zm0 0" fill="#fff"/><path d="m414.988281 366.035156v89.613282c-43.667969 34.652343-98.910156 55.351562-158.988281 55.351562v-166.175781c22.140625 0 40.078125-17.9375 40.078125-40.078125h57.882813c33.609374.148437 61.027343 27.679687 61.027343 61.289062zm0 0" fill="#fff5cb"/><path d="m416.050781 367.941406v87.859375c-17.378906 13.949219-36.609375 25.660157-57.28125 34.730469-31.460937 13.808594-66.21875 21.46875-102.769531 21.46875s-71.308594-7.660156-102.769531-21.46875c-20.671875-9.070312-39.902344-20.78125-57.28125-34.730469v-87.859375c0-37.382812 30.671875-67.679687 68.511719-67.679687h27.199218l64.339844 95.527343 64.339844-95.527343h27.199218c37.839844 0 68.511719 30.296875 68.511719 67.679687zm0 0" fill="#ff3c62"/><path d="m416.050781 367.941406v87.859375c-17.378906 13.949219-36.609375 25.660157-57.28125 34.730469-31.460937 13.808594-66.21875 21.46875-102.769531 21.46875v-116.210938l64.339844-95.527343h27.199218c37.839844 0 68.511719 30.296875 68.511719 67.679687zm0 0" fill="#ff0335"/><path d="m358.769531 395.789062v94.742188c-31.460937 13.808594-66.21875 21.46875-102.769531 21.46875s-71.308594-7.660156-102.769531-21.46875v-94.742188l74.347656-48.488281 28.421875 48.488281 28.421875-48.488281zm0 0" fill="#ffa7b8"/><path d="m358.769531 395.789062v94.742188c-31.460937 13.808594-66.21875 21.46875-102.769531 21.46875v-116.210938l28.421875-48.488281zm0 0" fill="#ff738e"/><path d="m212.285156 362.402344h8.304688v70.15625h-8.304688zm0 0" fill="#ff3c62"/><path d="m224.925781 439.078125c0 4.691406-3.800781 8.492187-8.488281 8.492187-4.691406 0-8.492188-3.800781-8.492188-8.492187 0-4.6875 3.800782-8.488281 8.492188-8.488281 4.6875 0 8.488281 3.800781 8.488281 8.488281zm0 0" fill="#c2001b"/><path d="m291.410156 362.402344h8.304688v70.15625h-8.304688zm0 0" fill="#ff0335"/><path d="m304.054688 439.078125c0 4.691406-3.800782 8.492187-8.492188 8.492187-4.6875 0-8.488281-3.800781-8.488281-8.492187 0-4.6875 3.800781-8.488281 8.488281-8.488281 4.691406 0 8.492188 3.800781 8.492188 8.488281zm0 0" fill="#901"/><path d="m184.617188 274 71.382812 121.792969s-189.714844-121.792969-71.382812-121.792969zm0 0" fill="#ff0335"/><path d="m327.382812 274-71.382812 121.792969s189.714844-121.792969 71.382812-121.792969zm0 0" fill="#e7001f"/></svg>