<svg height="512pt" viewBox="0 0 512 512" width="512pt" xmlns="http://www.w3.org/2000/svg"><path d="m512 256c0 141.386719-114.613281 256-256 256s-256-114.613281-256-256 114.613281-256 256-256 256 114.613281 256 256zm0 0" fill="#005ed3"/><path d="m512 256c0-3.339844-.085938-6.660156-.210938-9.96875l-179.292968-179.03125c-15.46875-14.6875-39.371094-25.195312-76.066406-25.5-124.863282 1.03125-101.683594 120.21875-101.683594 120.21875l.011718.011719c.023438.28125.0625.648437.105469 1.0625-9.863281 2.988281-16.589843 12.6875-15.441406 23.289062l1.914063 17.652344c.558593 5.15625 2.890624 9.707031 6.324218 13.117187l16.53125 16.074219c.527344 3.835938 1.050782 7.671875 1.574219 11.472657 2.148437 15.652343 9.214844 29.546874 19.503906 40.238281l13.007813 12.960937-5.53125 27.402344h-28.574219c-48.890625 0-88.523437 39.628906-88.523437 88.519531v24.152344c.417968.414063.839843.820313 1.257812 1.226563 1.84375 1.800781 3.710938 3.574218 5.605469 5.320312v.011719c45.617187 42.066406 106.546875 67.769531 173.488281 67.769531 141.386719 0 256-114.613281 256-256zm0 0" fill="#00459f"/><path d="m309.390625 276.117188h-106.78125l-10.570313 52.382812h127.921876zm0 0" fill="#ffc473"/><path d="m319.960938 328.5h-63.960938v-52.386719h53.390625zm0 0" fill="#ffaa20"/><path d="m436.351562 413.519531v24.160157c-46.273437 45.929687-110 74.320312-180.351562 74.320312s-134.078125-28.390625-180.351562-74.320312v-24.160157c0-48.890625 39.632812-88.519531 88.523437-88.519531h183.65625c48.890625 0 88.523437 39.628906 88.523437 88.519531zm0 0" fill="#ffdba9"/><path d="m436.351562 413.53125v24.148438c-46.273437 45.929687-110 74.320312-180.351562 74.320312v-187h91.828125c48.890625 0 88.523437 39.628906 88.523437 88.53125zm0 0" fill="#ffc473"/><path d="m354.832031 162.21875c-4.125-60.746094-55.929687-95.222656-98.832031-95.222656s-94.707031 34.476562-98.835938 95.222656c-11.097656 2.078125-18.976562 12.453125-17.742187 23.863281l1.914063 17.652344c1.296874 11.972656 12.152343 20.710937 24.128906 19.414063l2.0625-.226563c24.511718 63.808594 64.070312 80.238281 88.472656 83.96875 24.402344-3.730469 63.960938-20.160156 88.472656-83.96875l2.0625.226563c11.976563 1.296874 22.832032-7.441407 24.128906-19.414063l1.914063-17.652344c1.234375-11.410156-6.644531-21.785156-17.746094-23.863281zm0 0" fill="#ffdba9"/><path d="m372.574219 186.082031-1.910157 17.652344c-1.296874 11.972656-12.152343 20.707031-24.125 19.40625l-2.058593-.21875c-24.515625 63.808594-64.074219 80.238281-88.480469 83.972656v-239.894531c42.90625 0 94.707031 34.476562 98.828125 95.21875 11.109375 2.082031 18.984375 12.453125 17.746094 23.863281zm0 0" fill="#ffc473"/><path d="m256.429688 41.5c-124.863282 1.03125-101.683594 120.21875-101.683594 120.21875l.011718.011719c.261719 2.886719 1.542969 12.824219 3.339844 26.25 2.121094 15.898437 4.957032 36.675781 7.667969 56.417969 4.914063 35.8125 35.519531 62.492187 71.671875 62.492187h37.988281c36.152344 0 66.753907-26.679687 71.671875-62.492187 2.710938-19.742188 5.546875-40.523438 7.664063-56.417969 1.796875-13.425781 3.082031-23.363281 3.34375-26.25l.007812-.011719s23.179688-119.1875-101.683593-120.21875zm77.421874 146.480469-4.019531 23.523437c-3.976562 23.296875-24.164062 40.339844-47.792969 40.339844h-51.21875c-23.628906 0-43.816406-17.042969-47.792968-40.339844l-4.019532-23.523437-2.585937-15.15625c2.925781-11.792969 7.453125-21.160157 12.601563-28.589844 16.207031 5.265625 38.511718 9.792969 67.40625 9.792969 28.894531 0 51.203124-4.527344 67.40625-9.792969 5.148437 7.429687 9.675781 16.796875 12.601562 28.589844zm0 0" fill="#9a4c00"/><path d="m256.429688 41.5c-.136719 0-.28125 0-.417969.011719v112.515625h.417969c28.894531 0 51.203124-4.527344 67.40625-9.792969 5.148437 7.429687 9.679687 16.796875 12.601562 28.589844l-2.582031 15.15625-4.023438 23.523437c-3.972656 23.296875-24.164062 40.339844-47.792969 40.339844h-26.027343v55.046875h19.414062c36.152344 0 66.753907-26.679687 71.671875-62.492187 2.710938-19.742188 5.546875-40.523438 7.664063-56.417969 1.796875-13.425781 3.082031-23.363281 3.34375-26.25l.007812-.011719s23.179688-119.1875-101.683593-120.21875zm0 0" fill="#703700"/><path d="m316.871094 170.5h-60.871094v71.582031h21.625v-51.519531h39.246094zm0 0" fill="#ffaa20"/><path d="m187.960938 170.5h54.601562v20.0625h-54.601562zm0 0" fill="#ffc473"/><path d="m233.25 264.375h45.5v13.542969h-45.5zm0 0" fill="#ffdba9"/><path d="m256 264.378906h22.75v13.542969h-22.75zm0 0" fill="#ffc473"/><path d="m378 445.058594v36.042968c-36.269531 19.707032-77.828125 30.898438-122 30.898438s-85.730469-11.191406-122-30.898438v-36.042968c11.058594-10.558594 17.210938-24.679688 17.148438-39.367188l-.339844-79.691406c4.363281-.660156 8.820312-1 13.363281-1h12.589844l21.257812 68.089844c1.179688 3.789062 2.800781 7.449218 4.808594 10.910156 2.011719 3.460938 4.433594 6.730469 7.203125 9.738281 12.046875 13.082031 29.007812 19.621094 45.96875 19.621094s33.921875-6.539063 45.96875-19.621094c5.550781-6.019531 9.640625-13.058593 12.011719-20.648437l21.257812-68.089844h12.589844c4.542969 0 9 .339844 13.363281 1l-.339844 79.691406c-.0625 14.6875 6.089844 28.808594 17.148438 39.367188zm0 0" fill="#00bb64"/><path d="m378 445.058594v36.042968c-36.269531 19.707032-77.828125 30.898438-122 30.898438v-78.648438c16.960938 0 33.929688-6.53125 45.96875-19.613281 5.550781-6.007812 9.640625-13.058593 12.011719-20.636719l21.269531-68.101562h12.578125c4.542969 0 9 .339844 13.363281 1l-.332031 79.691406c-.070313 14.6875 6.089844 28.808594 17.140625 39.367188zm0 0" fill="#008c4a"/></svg>